<svg xmlns="http://www.w3.org/2000/svg" xmlns:xlink="http://www.w3.org/1999/xlink" width="174.242" height="171.775" viewBox="0 0 174.242 171.775">
  <defs>
    <filter id="Rectángulo_335073" x="0" y="0" width="174.242" height="171.775" filterUnits="userSpaceOnUse">
      <feOffset dy="3" input="SourceAlpha"/>
      <feGaussianBlur stdDeviation="3" result="blur"/>
      <feFlood flood-opacity="0.161"/>
      <feComposite operator="in" in2="blur"/>
      <feComposite in="SourceGraphic"/>
    </filter>
  </defs>
  <g id="Grupo_948225" data-name="Grupo 948225" transform="translate(-381.333 -1489)">
    <g transform="matrix(1, 0, 0, 1, 381.33, 1489)" filter="url(#Rectángulo_335073)">
      <rect id="Rectángulo_335073-2" data-name="Rectángulo 335073" width="156.242" height="153.775" rx="26" transform="translate(9 6)" fill="#fff"/>
    </g>
    <g id="Grupo_736188" data-name="Grupo 736188" transform="translate(403.491 1508.98)">
      <rect id="Rectángulo_335070" data-name="Rectángulo 335070" width="129.928" height="130.75" transform="translate(0 0)" fill="none"/>
      <g id="hotel" transform="translate(-4.353 16.039)">
        <g id="Grupo_948269" data-name="Grupo 948269" transform="translate(26.131 1.443)">
          <g id="Grupo_948244" data-name="Grupo 948244" transform="translate(4.61 16.818)">
            <path id="Trazado_686677" data-name="Trazado 686677" d="M100.332,96.845v28.124a1.924,1.924,0,0,1-1.924,1.924H91.046a1.924,1.924,0,0,1-1.924-1.924V96.845A1.924,1.924,0,0,0,87.2,94.921H58.075a1.924,1.924,0,0,0-1.924,1.924V172.05a1.924,1.924,0,0,0,1.924,1.924h73.3a1.924,1.924,0,0,0,1.924-1.924V96.845a1.924,1.924,0,0,0-1.924-1.924H102.256A1.924,1.924,0,0,0,100.332,96.845Z" transform="translate(-56.151 -94.921)" fill="#d3e1f5"/>
          </g>
          <g id="Grupo_948245" data-name="Grupo 948245" transform="translate(46.867 16.818)">
            <path id="Trazado_686678" data-name="Trazado 686678" d="M283.653,124.969V96.845a1.924,1.924,0,0,1,1.924-1.924h-5.926a1.924,1.924,0,0,0-1.924,1.924v28.124a1.924,1.924,0,0,1-1.924,1.924h5.926A1.924,1.924,0,0,0,283.653,124.969Z" transform="translate(-275.803 -94.921)" fill="#b3ceec"/>
          </g>
          <g id="Grupo_948246" data-name="Grupo 948246" transform="translate(4.61 16.818)">
            <path id="Trazado_686679" data-name="Trazado 686679" d="M62.077,172.05V96.845A1.924,1.924,0,0,1,64,94.921H58.075a1.924,1.924,0,0,0-1.924,1.924V172.05a1.924,1.924,0,0,0,1.924,1.924H64A1.924,1.924,0,0,1,62.077,172.05Z" transform="translate(-56.151 -94.921)" fill="#b3ceec"/>
          </g>
          <g id="Grupo_948247" data-name="Grupo 948247" transform="translate(10.75 23.396)">
            <path id="Trazado_686680" data-name="Trazado 686680" d="M94.212,138.807H89.03a.962.962,0,0,1-.962-.962v-7.772a.962.962,0,0,1,.962-.962h5.182a.962.962,0,0,1,.962.962v7.772A.962.962,0,0,1,94.212,138.807Z" transform="translate(-88.068 -129.111)" fill="#5f99d7"/>
          </g>
          <g id="Grupo_948248" data-name="Grupo 948248" transform="translate(23.96 23.396)">
            <path id="Trazado_686681" data-name="Trazado 686681" d="M162.874,138.807h-5.182a.962.962,0,0,1-.962-.962v-7.772a.962.962,0,0,1,.962-.962h5.182a.962.962,0,0,1,.962.962v7.772A.962.962,0,0,1,162.874,138.807Z" transform="translate(-156.73 -129.111)" fill="#5f99d7"/>
          </g>
          <g id="Grupo_948249" data-name="Grupo 948249" transform="translate(10.75 39.094)">
            <path id="Trazado_686682" data-name="Trazado 686682" d="M94.212,220.407H89.03a.962.962,0,0,1-.962-.962v-7.772a.962.962,0,0,1,.962-.962h5.182a.962.962,0,0,1,.962.962v7.772A.962.962,0,0,1,94.212,220.407Z" transform="translate(-88.068 -210.711)" fill="#5f99d7"/>
          </g>
          <g id="Grupo_948250" data-name="Grupo 948250" transform="translate(23.96 39.094)">
            <path id="Trazado_686683" data-name="Trazado 686683" d="M162.874,220.407h-5.182a.962.962,0,0,1-.962-.962v-7.772a.962.962,0,0,1,.962-.962h5.182a.962.962,0,0,1,.962.962v7.772A.962.962,0,0,1,162.874,220.407Z" transform="translate(-156.73 -210.711)" fill="#5f99d7"/>
          </g>
          <g id="Grupo_948251" data-name="Grupo 948251" transform="translate(68.515 23.396)">
            <path id="Trazado_686684" data-name="Trazado 686684" d="M389.292,138.807h5.182a.962.962,0,0,0,.962-.962v-7.772a.962.962,0,0,0-.962-.962h-5.182a.962.962,0,0,0-.962.962v7.772A.962.962,0,0,0,389.292,138.807Z" transform="translate(-388.33 -129.111)" fill="#5f99d7"/>
          </g>
          <g id="Grupo_948252" data-name="Grupo 948252" transform="translate(55.306 23.396)">
            <path id="Trazado_686685" data-name="Trazado 686685" d="M320.63,138.807h5.182a.962.962,0,0,0,.962-.962v-7.772a.962.962,0,0,0-.962-.962H320.63a.962.962,0,0,0-.962.962v7.772A.962.962,0,0,0,320.63,138.807Z" transform="translate(-319.668 -129.111)" fill="#5f99d7"/>
          </g>
          <g id="Grupo_948253" data-name="Grupo 948253" transform="translate(68.515 39.094)">
            <path id="Trazado_686686" data-name="Trazado 686686" d="M389.292,220.407h5.182a.962.962,0,0,0,.962-.962v-7.772a.962.962,0,0,0-.962-.962h-5.182a.962.962,0,0,0-.962.962v7.772A.962.962,0,0,0,389.292,220.407Z" transform="translate(-388.33 -210.711)" fill="#5f99d7"/>
          </g>
          <g id="Grupo_948254" data-name="Grupo 948254" transform="translate(55.306 39.094)">
            <path id="Trazado_686687" data-name="Trazado 686687" d="M320.63,220.407h5.182a.962.962,0,0,0,.962-.962v-7.772a.962.962,0,0,0-.962-.962H320.63a.962.962,0,0,0-.962.962v7.772A.962.962,0,0,0,320.63,220.407Z" transform="translate(-319.668 -210.711)" fill="#5f99d7"/>
          </g>
          <g id="Grupo_948255" data-name="Grupo 948255" transform="translate(4.61)">
            <path id="Trazado_686688" data-name="Trazado 686688" d="M61.5,16.976l-2.452,1.289a.678.678,0,0,1-.983-.714l.468-2.731a.678.678,0,0,0-.195-.6l-1.984-1.934a.678.678,0,0,1,.376-1.156l2.742-.4a.678.678,0,0,0,.51-.371l1.226-2.484a.678.678,0,0,1,1.215,0l1.226,2.484a.678.678,0,0,0,.51.371l2.742.4a.678.678,0,0,1,.376,1.156L65.295,14.22a.678.678,0,0,0-.195.6l.468,2.731a.678.678,0,0,1-.983.714l-2.452-1.289A.678.678,0,0,0,61.5,16.976Z" transform="translate(-56.15 -7.499)" fill="#ffd772"/>
          </g>
          <g id="Grupo_948256" data-name="Grupo 948256" transform="translate(21.064 0)">
            <path id="Trazado_686689" data-name="Trazado 686689" d="M147.032,16.977l-2.452,1.289a.678.678,0,0,1-.983-.714l.468-2.731a.678.678,0,0,0-.195-.6l-1.984-1.934a.678.678,0,0,1,.376-1.156l2.742-.4a.678.678,0,0,0,.51-.371l1.226-2.484a.678.678,0,0,1,1.215,0l1.226,2.484a.678.678,0,0,0,.51.371l2.742.4a.678.678,0,0,1,.376,1.156l-1.984,1.934a.678.678,0,0,0-.195.6l.468,2.731a.678.678,0,0,1-.983.714l-2.452-1.289A.677.677,0,0,0,147.032,16.977Z" transform="translate(-141.68 -7.5)" fill="#ffd772"/>
          </g>
          <g id="Grupo_948257" data-name="Grupo 948257" transform="translate(37.519)">
            <path id="Trazado_686690" data-name="Trazado 686690" d="M232.564,16.976l-2.452,1.289a.678.678,0,0,1-.983-.714l.468-2.731a.678.678,0,0,0-.195-.6l-1.984-1.934a.678.678,0,0,1,.376-1.156l2.742-.4a.678.678,0,0,0,.51-.371l1.226-2.484a.678.678,0,0,1,1.215,0l1.226,2.484a.678.678,0,0,0,.51.371l2.742.4a.678.678,0,0,1,.376,1.156l-1.984,1.934a.678.678,0,0,0-.195.6l.468,2.731a.678.678,0,0,1-.983.714l-2.452-1.289A.678.678,0,0,0,232.564,16.976Z" transform="translate(-227.212 -7.499)" fill="#ffd772"/>
          </g>
          <g id="Grupo_948258" data-name="Grupo 948258" transform="translate(53.974 0)">
            <path id="Trazado_686691" data-name="Trazado 686691" d="M318.095,16.977l-2.452,1.289a.678.678,0,0,1-.983-.714l.468-2.731a.678.678,0,0,0-.195-.6l-1.984-1.934a.678.678,0,0,1,.376-1.156l2.742-.4a.678.678,0,0,0,.51-.371L317.8,7.878a.678.678,0,0,1,1.215,0l1.226,2.484a.678.678,0,0,0,.51.371l2.742.4a.678.678,0,0,1,.376,1.156l-1.984,1.934a.678.678,0,0,0-.195.6l.468,2.731a.678.678,0,0,1-.983.714l-2.452-1.289A.677.677,0,0,0,318.095,16.977Z" transform="translate(-312.743 -7.5)" fill="#ffd772"/>
          </g>
          <g id="Grupo_948259" data-name="Grupo 948259" transform="translate(70.429 0)">
            <path id="Trazado_686692" data-name="Trazado 686692" d="M403.626,16.977l-2.452,1.289a.678.678,0,0,1-.983-.714l.468-2.731a.678.678,0,0,0-.195-.6l-1.984-1.934a.678.678,0,0,1,.376-1.156l2.742-.4a.678.678,0,0,0,.51-.371l1.226-2.484a.678.678,0,0,1,1.215,0l1.226,2.484a.678.678,0,0,0,.51.371l2.742.4a.678.678,0,0,1,.376,1.156l-1.984,1.934a.678.678,0,0,0-.195.6l.468,2.731a.678.678,0,0,1-.983.714l-2.452-1.289A.677.677,0,0,0,403.626,16.977Z" transform="translate(-398.274 -7.5)" fill="#ffd772"/>
          </g>
          <g id="Grupo_948262" data-name="Grupo 948262" transform="translate(0 54.747)">
            <g id="Grupo_948261" data-name="Grupo 948261">
              <g id="Grupo_948260" data-name="Grupo 948260">
                <path id="Trazado_686693" data-name="Trazado 686693" d="M116.636,314.631H34.112a1.924,1.924,0,0,1-1.924-1.924V293.995a1.924,1.924,0,0,1,1.924-1.924h82.524a1.924,1.924,0,0,1,1.924,1.924v18.712A1.924,1.924,0,0,1,116.636,314.631Z" transform="translate(-32.188 -292.071)" fill="#ff9a42"/>
              </g>
            </g>
          </g>
          <g id="Grupo_948264" data-name="Grupo 948264" transform="translate(0 54.747)">
            <g id="Grupo_948263" data-name="Grupo 948263">
              <path id="Trazado_686694" data-name="Trazado 686694" d="M38.006,312.707V293.995a1.924,1.924,0,0,1,1.924-1.924H34.112a1.924,1.924,0,0,0-1.924,1.924v18.712a1.924,1.924,0,0,0,1.924,1.924h5.818A1.924,1.924,0,0,1,38.006,312.707Z" transform="translate(-32.188 -292.071)" fill="#ff7a3c"/>
            </g>
          </g>
          <g id="Grupo_948265" data-name="Grupo 948265" transform="translate(4.61 77.306)">
            <path id="Trazado_686695" data-name="Trazado 686695" d="M56.151,409.336H133.3V415.9H56.151Z" transform="translate(-56.151 -409.336)" fill="#ffd772"/>
          </g>
          <g id="Grupo_948266" data-name="Grupo 948266" transform="translate(4.61 77.306)">
            <path id="Trazado_686696" data-name="Trazado 686696" d="M56.151,409.336h5.926V415.9H56.151Z" transform="translate(-56.151 -409.336)" fill="#fdb440"/>
          </g>
          <g id="Grupo_948267" data-name="Grupo 948267" transform="translate(35.559 77.306)">
            <path id="Trazado_686697" data-name="Trazado 686697" d="M217.023,409.336h15.254V427.9H217.023Z" transform="translate(-217.023 -409.336)" fill="#5f99d7"/>
          </g>
          <g id="Grupo_948268" data-name="Grupo 948268" transform="translate(35.559 77.306)">
            <path id="Trazado_686698" data-name="Trazado 686698" d="M217.023,409.336h4.187V427.9h-4.187Z" transform="translate(-217.023 -409.336)" fill="#3c87d0"/>
          </g>
        </g>
        <g id="Grupo_948270" data-name="Grupo 948270" transform="translate(24.688 0)">
          <path id="Trazado_686699" data-name="Trazado 686699" d="M50.094,122.279a1.443,1.443,0,0,0,1.443-1.443V90.788a.482.482,0,0,1,.481-.481H81.141a.482.482,0,0,1,.481.481v28.124a3.371,3.371,0,0,0,3.367,3.367h7.362a3.371,3.371,0,0,0,3.367-3.367V90.788a.482.482,0,0,1,.481-.481h29.123a.482.482,0,0,1,.481.481v10.291a1.443,1.443,0,1,0,2.886,0V90.788a3.371,3.371,0,0,0-3.367-3.367H96.2a3.371,3.371,0,0,0-3.367,3.367v28.124a.482.482,0,0,1-.481.481H84.989a.482.482,0,0,1-.481-.481V90.788a3.371,3.371,0,0,0-3.367-3.367H52.018a3.371,3.371,0,0,0-3.367,3.367v30.048A1.443,1.443,0,0,0,50.094,122.279Z" transform="translate(-44.041 -70.603)"/>
          <path id="Trazado_686700" data-name="Trazado 686700" d="M90.561,124.016a2.407,2.407,0,0,0-2.4-2.4H82.974a2.407,2.407,0,0,0-2.4,2.4v7.772a2.407,2.407,0,0,0,2.4,2.4h5.182a2.407,2.407,0,0,0,2.4-2.4v-7.772Zm-2.886,7.291h-4.22V124.5h4.22v6.81Z" transform="translate(-69.818 -98.215)"/>
          <path id="Trazado_686701" data-name="Trazado 686701" d="M159.222,124.016a2.407,2.407,0,0,0-2.4-2.4h-5.182a2.407,2.407,0,0,0-2.4,2.4v7.772a2.407,2.407,0,0,0,2.4,2.4h5.182a2.407,2.407,0,0,0,2.4-2.4Zm-2.886,7.291h-4.22V124.5h4.22Z" transform="translate(-125.27 -98.215)"/>
          <path id="Trazado_686702" data-name="Trazado 686702" d="M88.156,203.211H82.974a2.407,2.407,0,0,0-2.4,2.4v7.772a2.407,2.407,0,0,0,2.4,2.4h5.182a2.407,2.407,0,0,0,2.4-2.4v-7.772A2.408,2.408,0,0,0,88.156,203.211Zm-.481,9.7h-4.22V206.1h4.22v6.81Z" transform="translate(-69.818 -164.117)"/>
          <path id="Trazado_686703" data-name="Trazado 686703" d="M156.817,203.211h-5.182a2.407,2.407,0,0,0-2.4,2.4v7.772a2.407,2.407,0,0,0,2.4,2.4h5.182a2.407,2.407,0,0,0,2.4-2.4v-7.772A2.408,2.408,0,0,0,156.817,203.211Zm-.481,9.7h-4.22V206.1h4.22Z" transform="translate(-125.27 -164.117)"/>
          <path id="Trazado_686704" data-name="Trazado 686704" d="M390.822,124.016a2.407,2.407,0,0,0-2.4-2.4h-5.182a2.407,2.407,0,0,0-2.4,2.4v7.772a2.407,2.407,0,0,0,2.4,2.4h5.182a2.407,2.407,0,0,0,2.4-2.4Zm-2.886,7.291h-4.22V124.5h4.22Z" transform="translate(-312.315 -98.215)"/>
          <path id="Trazado_686705" data-name="Trazado 686705" d="M322.16,124.016a2.407,2.407,0,0,0-2.4-2.4h-5.182a2.407,2.407,0,0,0-2.4,2.4v7.772a2.407,2.407,0,0,0,2.4,2.4h5.182a2.407,2.407,0,0,0,2.4-2.4Zm-2.886,7.291h-4.22V124.5h4.22Z" transform="translate(-256.862 -98.215)"/>
          <path id="Trazado_686706" data-name="Trazado 686706" d="M388.417,203.211h-5.182a2.407,2.407,0,0,0-2.4,2.4v7.772a2.407,2.407,0,0,0,2.4,2.4h5.182a2.407,2.407,0,0,0,2.4-2.4v-7.772A2.408,2.408,0,0,0,388.417,203.211Zm-.481,9.7h-4.22V206.1h4.22Z" transform="translate(-312.315 -164.117)"/>
          <path id="Trazado_686707" data-name="Trazado 686707" d="M319.755,203.211h-5.182a2.407,2.407,0,0,0-2.4,2.4v7.772a2.407,2.407,0,0,0,2.4,2.4h5.182a2.407,2.407,0,0,0,2.4-2.4v-7.772A2.408,2.408,0,0,0,319.755,203.211Zm-.481,9.7h-4.22V206.1h4.22Z" transform="translate(-256.862 -164.117)"/>
          <path id="Trazado_686708" data-name="Trazado 686708" d="M50.984,8.916l-.4,2.334a2.12,2.12,0,0,0,3.077,2.236l2.1-1.1,2.1,1.1A2.12,2.12,0,0,0,60.93,11.25l-.4-2.334,1.7-1.653a2.121,2.121,0,0,0-1.175-3.617l-2.344-.341L57.659,1.182a2.12,2.12,0,0,0-3.8,0L52.808,3.306l-2.344.341a2.121,2.121,0,0,0-1.175,3.617ZM53.62,6.1a2.121,2.121,0,0,0,1.6-1.16l.54-1.094.54,1.094a2.12,2.12,0,0,0,1.6,1.159l1.207.175-.874.852a2.121,2.121,0,0,0-.61,1.877l.206,1.2-1.08-.568a2.12,2.12,0,0,0-1.972,0h0l-1.08.568.206-1.2a2.121,2.121,0,0,0-.61-1.876l-.874-.852Z" transform="translate(-44.038 0)"/>
          <path id="Trazado_686709" data-name="Trazado 686709" d="M136.515,8.916l-.4,2.334a2.121,2.121,0,0,0,3.077,2.235l2.1-1.1,2.1,1.1a2.121,2.121,0,0,0,3.077-2.235l-.4-2.334,1.7-1.653a2.12,2.12,0,0,0-1.175-3.617l-2.344-.341L143.19,1.182a2.121,2.121,0,0,0-3.8,0l-1.048,2.124-2.344.341a2.12,2.12,0,0,0-1.175,3.617ZM139.151,6.1a2.12,2.12,0,0,0,1.6-1.16l.54-1.094.54,1.095a2.12,2.12,0,0,0,1.6,1.159l1.207.175-.874.852a2.121,2.121,0,0,0-.61,1.877l.206,1.2-1.08-.568a2.119,2.119,0,0,0-1.973,0h0l-1.08.568.206-1.2a2.12,2.12,0,0,0-.61-1.877l-.874-.852Z" transform="translate(-113.114 0)"/>
          <path id="Trazado_686710" data-name="Trazado 686710" d="M222.047,8.916l-.4,2.334a2.121,2.121,0,0,0,3.077,2.235l2.1-1.1,2.1,1.1a2.121,2.121,0,0,0,3.077-2.235l-.4-2.334,1.7-1.653a2.12,2.12,0,0,0-1.175-3.617l-2.344-.341-1.048-2.124a2.12,2.12,0,0,0-3.8,0l-1.048,2.124-2.344.341a2.12,2.12,0,0,0-1.175,3.617ZM224.682,6.1a2.119,2.119,0,0,0,1.6-1.16l.54-1.094.54,1.094a2.119,2.119,0,0,0,1.6,1.16l1.207.175-.874.852a2.12,2.12,0,0,0-.61,1.877l.206,1.2-1.08-.568a2.121,2.121,0,0,0-1.973,0l-1.08.568.206-1.2a2.12,2.12,0,0,0-.61-1.877l-.874-.852Z" transform="translate(-182.19 0)"/>
          <path id="Trazado_686711" data-name="Trazado 686711" d="M307.577,8.916l-.4,2.334a2.121,2.121,0,0,0,3.077,2.235l2.1-1.1,2.1,1.1a2.121,2.121,0,0,0,3.077-2.235l-.4-2.334,1.7-1.653a2.12,2.12,0,0,0-1.175-3.617L315.3,3.306l-1.048-2.124a2.121,2.121,0,0,0-3.8,0L309.4,3.306l-2.344.341a2.121,2.121,0,0,0-1.175,3.617ZM310.212,6.1a2.121,2.121,0,0,0,1.6-1.16l.54-1.094.54,1.094a2.119,2.119,0,0,0,1.6,1.16l1.207.175-.874.852a2.119,2.119,0,0,0-.61,1.877l.206,1.2-1.08-.568a2.12,2.12,0,0,0-1.973,0h0l-1.08.568.206-1.2a2.121,2.121,0,0,0-.61-1.876l-.874-.851Z" transform="translate(-251.266 0)"/>
          <path id="Trazado_686712" data-name="Trazado 686712" d="M393.108,8.916l-.4,2.334a2.12,2.12,0,0,0,3.077,2.236l2.1-1.1,2.1,1.1a2.12,2.12,0,0,0,3.077-2.235l-.4-2.334,1.7-1.653a2.121,2.121,0,0,0-1.175-3.617l-2.344-.341-1.048-2.124a2.121,2.121,0,0,0-3.8,0l-1.048,2.124-2.344.341a2.121,2.121,0,0,0-1.175,3.617ZM395.744,6.1a2.121,2.121,0,0,0,1.6-1.16l.54-1.094.54,1.094a2.12,2.12,0,0,0,1.6,1.159l1.207.175-.874.852a2.121,2.121,0,0,0-.61,1.877l.206,1.2-1.08-.568a2.12,2.12,0,0,0-1.973,0h0l-1.08.568.206-1.2a2.121,2.121,0,0,0-.61-1.876l-.874-.852Z" transform="translate(-320.343 0)"/>
          <path id="Trazado_686713" data-name="Trazado 686713" d="M110.579,202.99h-1.243V185a1.443,1.443,0,0,0-2.886,0V202.99h-78.4a3.371,3.371,0,0,0-3.367,3.367v18.712a3.371,3.371,0,0,0,3.367,3.367H29.3v15.2A3.371,3.371,0,0,0,32.665,247h73.3a3.371,3.371,0,0,0,3.367-3.367v-15.2h1.243a3.371,3.371,0,0,0,3.367-3.367V206.356a3.371,3.371,0,0,0-3.367-3.367ZM60.247,232.114H32.184v-3.678H60.247Zm-28.063,11.52V235H60.247v9.115H32.665A.481.481,0,0,1,32.184,243.633Zm30.949.481V228.435H75.5v15.679Zm42.836,0H78.387V235h9.986a1.443,1.443,0,1,0,0-2.886H78.387v-3.678H106.45v3.678H95.2a1.443,1.443,0,1,0,0,2.886H106.45v8.634A.481.481,0,0,1,105.969,244.114Zm5.091-19.046a.481.481,0,0,1-.481.481H28.055a.481.481,0,0,1-.481-.481V206.356a.482.482,0,0,1,.481-.481h82.525a.482.482,0,0,1,.481.481Z" transform="translate(-24.688 -148.243)"/>
          <path id="Trazado_686714" data-name="Trazado 686714" d="M396.865,324.787h-.008c-.886,0-1.834.009-2.58.01V314.728a1.443,1.443,0,1,0-2.886,0v11.5a1.443,1.443,0,0,0,1.2,1.422,10.637,10.637,0,0,0,1.468.031c.616,0,1.51,0,2.816-.01a1.443,1.443,0,0,0-.008-2.886Z" transform="translate(-320.844 -253.014)"/>
          <path id="Trazado_686715" data-name="Trazado 686715" d="M95.4,313.285a1.443,1.443,0,0,0-1.443,1.443v4.116H88.878v-4.116a1.443,1.443,0,0,0-2.886,0V326.24a1.443,1.443,0,0,0,2.886,0v-4.511h5.081v4.511a1.443,1.443,0,1,0,2.886,0V314.728A1.443,1.443,0,0,0,95.4,313.285Z" transform="translate(-74.198 -253.014)"/>
          <path id="Trazado_686716" data-name="Trazado 686716" d="M329.486,316.717a1.443,1.443,0,0,0,0-2.886H324.68a1.443,1.443,0,0,0-1.443,1.443v11.407a1.443,1.443,0,0,0,1.443,1.443h4.806a1.443,1.443,0,0,0,0-2.886h-3.363V322.42h3.009a1.443,1.443,0,0,0,0-2.886h-3.009v-2.818Z" transform="translate(-265.801 -253.455)"/>
          <path id="Trazado_686717" data-name="Trazado 686717" d="M259.39,313.285h-6.358a1.443,1.443,0,0,0,0,2.886h1.723V326.24a1.443,1.443,0,0,0,2.886,0V316.171h1.749a1.443,1.443,0,0,0,0-2.886Z" transform="translate(-207.937 -253.014)"/>
          <path id="Trazado_686718" data-name="Trazado 686718" d="M168.133,313.285a7.2,7.2,0,1,0,7.2,7.2A7.207,7.207,0,0,0,168.133,313.285Zm0,11.512a4.313,4.313,0,1,1,4.313-4.313A4.318,4.318,0,0,1,168.133,324.8Z" transform="translate(-134.723 -253.014)"/>
        </g>
      </g>
    </g>
  </g>
</svg>
