<svg xmlns="http://www.w3.org/2000/svg" width="332.847" height="243.53" viewBox="0 0 332.847 243.53">
  <g id="Grupo_944317" data-name="Grupo 944317" transform="translate(-877.556 -2429.527)">
    <ellipse id="Elipse_5270" data-name="Elipse 5270" cx="166.423" cy="9.719" rx="166.423" ry="9.719" transform="translate(877.556 2653.618)" fill="#f5f5f5"/>
    <path id="Trazado_681938" data-name="Trazado 681938" d="M1107.453,2480.052c-.133,2.332-.411,4.471-.721,6.687-.319,2.2-.751,4.377-1.224,6.554a65.433,65.433,0,0,1-4.194,12.838l-.35.785a8.945,8.945,0,0,1-.6,1.079,10.963,10.963,0,0,1-1.409,1.712,18.133,18.133,0,0,1-3.036,2.349,37.594,37.594,0,0,1-6.224,3.045,72.74,72.74,0,0,1-12.788,3.55l-.851-3.256c1.945-.737,3.938-1.523,5.864-2.354,1.938-.814,3.843-1.689,5.666-2.647a37.2,37.2,0,0,0,5.109-3.083,12.367,12.367,0,0,0,1.935-1.742,4.794,4.794,0,0,0,.594-.809,2.685,2.685,0,0,0,.159-.341l.271-.7a71.368,71.368,0,0,0,3.286-11.811c.4-2.034.72-4.089,1.021-6.148.3-2.04.536-4.171.717-6.13Z" transform="translate(3.056 -6.279)" fill="#e4897b"/>
    <g id="Grupo_944299" data-name="Grupo 944299" transform="translate(1101.233 2465.224)">
      <path id="Trazado_681939" data-name="Trazado 681939" d="M1101.937,2472.286c-2.738.7-4.653,11.963-4.653,11.963l7.544,5.131s7.234-11.366,5.128-14.376C1107.763,2471.869,1105.932,2471.268,1101.937,2472.286Z" transform="translate(-1097.284 -2471.831)" fill="#eb6f2d"/>
      <path id="Trazado_681940" data-name="Trazado 681940" d="M1101.937,2472.286c-2.738.7-4.653,11.963-4.653,11.963l7.544,5.131s7.234-11.366,5.128-14.376C1107.763,2471.869,1105.932,2471.268,1101.937,2472.286Z" transform="translate(-1097.284 -2471.831)" fill="#eb6f2d" opacity="0.3"/>
    </g>
    <g id="Grupo_944300" data-name="Grupo 944300" transform="translate(1104.03 2468.194)">
      <path id="Trazado_681941" data-name="Trazado 681941" d="M1102.071,2474.681l-2.1,11.356,4.24,2.875Z" transform="translate(-1099.968 -2474.681)" fill="#bc5824"/>
      <path id="Trazado_681942" data-name="Trazado 681942" d="M1102.071,2474.681l-2.1,11.356,4.24,2.875Z" transform="translate(-1099.968 -2474.681)" fill="#bc5824" opacity="0.5"/>
    </g>
    <path id="Trazado_681943" data-name="Trazado 681943" d="M1077.645,2514.015l-4.712-4.775-.619,6.727s3.533,2.391,5.976,1.106Z" transform="translate(2.899 -5.033)" fill="#e4897b"/>
    <path id="Trazado_681944" data-name="Trazado 681944" d="M1067.6,2508.555l-.214,5.66,5.133,1.78.619-6.726Z" transform="translate(2.691 -5.062)" fill="#e4897b"/>
    <path id="Trazado_681945" data-name="Trazado 681945" d="M1116.25,2654.863h-6.643l-.443-15.383h6.643Z" transform="translate(4.449 0.446)" fill="#e4897b"/>
    <path id="Trazado_681946" data-name="Trazado 681946" d="M1165.859,2631.579l-5.821,3.2-9.282-12.452,5.821-3.2Z" transform="translate(6.198 -0.411)" fill="#e4897b"/>
    <path id="Trazado_681947" data-name="Trazado 681947" d="M1158.639,2633.582l5.936-4.523a.527.527,0,0,1,.7.04l4.255,4.181a1.066,1.066,0,0,1-.131,1.585c-2.1,1.541-3.186,2.18-5.8,4.169-1.606,1.223-3.826,3.178-6.043,4.868-2.17,1.653-4.007-.414-3.235-1.315,3.462-4.046,3.179-5.773,3.682-8.007A1.739,1.739,0,0,1,1158.639,2633.582Z" transform="translate(6.341 0.002)" fill="#263238"/>
    <path id="Trazado_681948" data-name="Trazado 681948" d="M1109.806,2653.5h7.462a.526.526,0,0,1,.531.455l.85,5.9a1.067,1.067,0,0,1-1.065,1.182c-2.6-.045-3.856-.2-7.137-.2-2.02,0-6.2.209-8.984.209-2.727,0-2.937-2.758-1.776-3.006,5.205-1.12,7.254-2.664,9.008-4.137A1.739,1.739,0,0,1,1109.806,2653.5Z" transform="translate(4.022 1.035)" fill="#263238"/>
    <g id="Grupo_944301" data-name="Grupo 944301" transform="translate(1113.614 2618.719)">
      <path id="Trazado_681949" data-name="Trazado 681949" d="M1109.165,2639.484l.227,7.929h6.646l-.227-7.929Z" transform="translate(-1109.165 -2618.273)" fill="#ce6f64"/>
      <path id="Trazado_681950" data-name="Trazado 681950" d="M1156.58,2619.129l-5.824,3.2,4.787,6.417,5.824-3.2Z" transform="translate(-1107.416 -2619.129)" fill="#ce6f64"/>
    </g>
    <path id="Trazado_681951" data-name="Trazado 681951" d="M1122.62,2453.693c3.291-.381,6.3-1,7.106.763s-.936,4.483-2.447,4.483H1122Z" transform="translate(4.989 -7.388)" fill="#263238"/>
    <path id="Trazado_681952" data-name="Trazado 681952" d="M1127.413,2457.841l-.333,1.259c1.264-.243,3.243,1.269,3.243,1.269S1129.155,2457.65,1127.413,2457.841Z" transform="translate(5.202 -7.196)" fill="#263238"/>
    <path id="Trazado_681953" data-name="Trazado 681953" d="M1126.007,2453.778l.916.927c.432-1.212,2.738-2.151,2.738-2.151S1126.726,2452.182,1126.007,2453.778Z" transform="translate(5.157 -7.419)" fill="#263238"/>
    <path id="Trazado_681954" data-name="Trazado 681954" d="M1121.774,2456.025c3.28.464,6.343.625,6.681,2.537s-2.039,4.1-3.5,3.717l-5.106-1.336Z" transform="translate(4.898 -7.272)" fill="#263238"/>
    <path id="Trazado_681955" data-name="Trazado 681955" d="M1101.781,2472.345s-3.164,1.114,3.175,40.091h26.978c-.452-10.98-.465-17.75,4.783-40.284a79.676,79.676,0,0,0-11.456-1.51,85.777,85.777,0,0,0-12.251,0C1107.748,2471.123,1101.781,2472.345,1101.781,2472.345Z" transform="translate(4.105 -6.666)" fill="#eb6f2d"/>
    <path id="Trazado_681956" data-name="Trazado 681956" d="M1123.606,2457.4c-.773,3.942-1.544,11.164,1.214,13.794,0,0-1.078,4-8.4,4-8.053,0-3.848-4-3.848-4,4.4-1.051,4.282-4.311,3.516-7.374Z" transform="translate(4.546 -7.214)" fill="#e4897b"/>
    <path id="Trazado_681957" data-name="Trazado 681957" d="M1124.833,2470.646a84.446,84.446,0,0,0-12.248,0l-.8.077c-.98,1.854-1.228,4.7,1.115,8.884,0,0,10.747-4.326,13.545-8.858C1125.915,2470.706,1125.374,2470.672,1124.833,2470.646Z" transform="translate(4.529 -6.666)" fill="#e4897b"/>
    <g id="Grupo_944302" data-name="Grupo 944302" transform="translate(1122.686 2476.033)">
      <rect id="Rectángulo_337359" data-name="Rectángulo 337359" width="7.803" height="0.668" transform="translate(0.013 0) rotate(1.117)" fill="#007cff"/>
      <rect id="Rectángulo_337360" data-name="Rectángulo 337360" width="7.803" height="0.668" transform="translate(0.013 0) rotate(1.117)" fill="#fff" opacity="0.4"/>
    </g>
    <path id="Trazado_681958" data-name="Trazado 681958" d="M1120.354,2459.91l-4.451,3.8a12.65,12.65,0,0,1,.377,2.174c1.679-.243,3.986-2.085,4.164-3.844A5.917,5.917,0,0,0,1120.354,2459.91Z" transform="translate(4.732 -7.109)" fill="#ce6f64"/>
    <path id="Trazado_681959" data-name="Trazado 681959" d="M1109.21,2441.219c-1.765-1.1-9.793-.213-2.911,18.525.955,2.6-1.5,2.323-1.477,3.952s1.931,3.009,4.53,2.986c0,0-3.888-1.19-2.9-2.717s2.8-2.218,2.063-4.1S1109.21,2441.219,1109.21,2441.219Z" transform="translate(4.213 -7.908)" fill="#263238"/>
    <path id="Trazado_681960" data-name="Trazado 681960" d="M1123.591,2448.069c.871,6.535,1.379,9.283-1.232,13.237-3.927,5.948-12.144,5.589-14.949-.554-2.526-5.529-3.526-15.287,2.289-19.1A8.993,8.993,0,0,1,1123.591,2448.069Z" transform="translate(4.291 -7.94)" fill="#e4897b"/>
    <path id="Trazado_681961" data-name="Trazado 681961" d="M1107.5,2441.955c2.791,4.768,12.585,11.712,20.18,13.684,0,0,3.9-12.563-6.164-16.974C1113.02,2434.941,1107.5,2441.955,1107.5,2441.955Z" transform="translate(4.379 -8.048)" fill="#263238"/>
    <path id="Trazado_681962" data-name="Trazado 681962" d="M1104.991,2510.74s-5.24,51.171-4.8,71.428c.453,21.071,8.174,69.125,8.174,69.125h8.983s-1.421-46.824-.627-67.518c.866-22.56,8.031-73.036,8.031-73.036Z" transform="translate(4.07 -4.97)" fill="#263238"/>
    <g id="Grupo_944303" data-name="Grupo 944303" transform="translate(1110.879 2642.872)">
      <path id="Trazado_681963" data-name="Trazado 681963" d="M1117.853,2646.081h-10.539l-.773-3.362,11.8-.411Z" transform="translate(-1106.54 -2642.308)" fill="#bc5824"/>
      <path id="Trazado_681964" data-name="Trazado 681964" d="M1117.853,2646.081h-10.539l-.773-3.362,11.8-.411Z" transform="translate(-1106.54 -2642.308)" fill="#bc5824" opacity="0.3"/>
    </g>
    <g id="Grupo_944304" data-name="Grupo 944304" transform="translate(1117.482 2515.336)">
      <path id="Trazado_681965" data-name="Trazado 681965" d="M1116.093,2523.086c-6.626,13.33-1.331,37.646,1.013,46.694,1.2-13.588,3.227-30.2,4.807-42.393C1120.908,2520.485,1119.149,2516.94,1116.093,2523.086Z" transform="translate(-1112.878 -2519.921)" fill="#007cff"/>
      <path id="Trazado_681966" data-name="Trazado 681966" d="M1116.093,2523.086c-6.626,13.33-1.331,37.646,1.013,46.694,1.2-13.588,3.227-30.2,4.807-42.393C1120.908,2520.485,1119.149,2516.94,1116.093,2523.086Z" transform="translate(-1112.878 -2519.921)" opacity="0.8"/>
    </g>
    <path id="Trazado_681967" data-name="Trazado 681967" d="M1111.633,2510.74s6.11,53.2,10.726,70.277c5.479,20.277,32.685,51.717,32.685,51.717l7.938-4.363s-18.874-35.3-23.063-45.978c-8.941-22.8-1.287-56.775-8.433-71.652Z" transform="translate(4.553 -4.97)" fill="#263238"/>
    <g id="Grupo_944305" data-name="Grupo 944305" transform="translate(1156.079 2619.316)">
      <path id="Trazado_681968" data-name="Trazado 681968" d="M1162.515,2623.7l-9.848,5.413-2.751-2.519,11.3-6.89Z" transform="translate(-1149.917 -2619.703)" fill="#bc5824"/>
      <path id="Trazado_681969" data-name="Trazado 681969" d="M1162.515,2623.7l-9.848,5.413-2.751-2.519,11.3-6.89Z" transform="translate(-1149.917 -2619.703)" fill="#bc5824" opacity="0.3"/>
    </g>
    <path id="Trazado_681970" data-name="Trazado 681970" d="M1113.849,2451.359c.1.527-.092,1.007-.436,1.074s-.705-.3-.809-.829.092-1.007.435-1.074S1113.746,2450.834,1113.849,2451.359Z" transform="translate(4.592 -7.503)" fill="#263238"/>
    <path id="Trazado_681971" data-name="Trazado 681971" d="M1108.146,2452.48c.1.525-.092,1.006-.436,1.073s-.705-.3-.808-.83.092-1.007.436-1.074S1108.043,2451.954,1108.146,2452.48Z" transform="translate(4.353 -7.456)" fill="#263238"/>
    <path id="Trazado_681972" data-name="Trazado 681972" d="M1107.524,2451.654l-1.335-.116S1107.031,2452.4,1107.524,2451.654Z" transform="translate(4.324 -7.461)" fill="#263238"/>
    <path id="Trazado_681973" data-name="Trazado 681973" d="M1109.822,2453.017a14.318,14.318,0,0,1-1.216,3.723,2.3,2.3,0,0,0,1.943-.017Z" transform="translate(4.425 -7.399)" fill="#de5753"/>
    <path id="Trazado_681974" data-name="Trazado 681974" d="M1112.614,2458.325a.157.157,0,0,1-.03-.312,4.24,4.24,0,0,0,3.076-2.3.158.158,0,0,1,.292.119,4.491,4.491,0,0,1-3.308,2.485A.149.149,0,0,1,1112.614,2458.325Z" transform="translate(4.587 -7.289)" fill="#263238"/>
    <path id="Trazado_681975" data-name="Trazado 681975" d="M1125.486,2454.234a4.821,4.821,0,0,1-1.945,3.124c-1.382.972-2.635-.128-2.723-1.726-.079-1.438.545-3.679,2.158-4.016A2.164,2.164,0,0,1,1125.486,2454.234Z" transform="translate(4.939 -7.459)" fill="#e4897b"/>
    <path id="Trazado_681976" data-name="Trazado 681976" d="M1114.867,2448.711a.313.313,0,0,1-.218-.087,4.974,4.974,0,0,0-3.148-.889.315.315,0,1,1-.033-.629,5.53,5.53,0,0,1,3.616,1.062.314.314,0,0,1-.216.542Z" transform="translate(4.533 -7.647)" fill="#263238"/>
    <path id="Trazado_681977" data-name="Trazado 681977" d="M1104.639,2448.87a.307.307,0,0,1-.162-.046.314.314,0,0,1-.106-.433,3.121,3.121,0,0,1,2.412-1.557h.011a.315.315,0,0,1,.011.629,2.491,2.491,0,0,0-1.9,1.254A.313.313,0,0,1,1104.639,2448.87Z" transform="translate(4.245 -7.658)" fill="#263238"/>
    <path id="Trazado_681978" data-name="Trazado 681978" d="M1138.473,2478.9a103.8,103.8,0,0,1,4.01,11.724A66.872,66.872,0,0,1,1144.87,2503l.086,1.649a7.854,7.854,0,0,1,.008,1.038,7.668,7.668,0,0,1-.177,1.26,13.606,13.606,0,0,1-1.469,3.506,37.942,37.942,0,0,1-3.725,5.276,81.61,81.61,0,0,1-8.6,8.848l-2.448-2.308c2.358-3.162,4.749-6.372,6.837-9.63a40.61,40.61,0,0,0,2.769-4.855,9.515,9.515,0,0,0,.717-2.087c-.007-.085.031-.232,0-.233.008.054-.019-.246-.044-.464l-.142-1.354a76.782,76.782,0,0,0-2.663-11.141c-1.148-3.7-2.47-7.466-3.836-11.043Z" transform="translate(5.264 -6.31)" fill="#e4897b"/>
    <g id="Grupo_944306" data-name="Grupo 944306" transform="translate(1133.385 2465.337)">
      <path id="Trazado_681979" data-name="Trazado 681979" d="M1135.575,2472.088c2.7.822,5.949,10.129,5.949,10.129l-10.486,7.5s-3.825-7.77-2.689-11.263C1129.532,2474.813,1132.491,2471.15,1135.575,2472.088Z" transform="translate(-1128.139 -2471.939)" fill="#eb6f2d"/>
      <path id="Trazado_681980" data-name="Trazado 681980" d="M1135.575,2472.088c2.7.822,5.949,10.129,5.949,10.129l-10.486,7.5s-3.825-7.77-2.689-11.263C1129.532,2474.813,1132.491,2471.15,1135.575,2472.088Z" transform="translate(-1128.139 -2471.939)" fill="#eb6f2d" opacity="0.3"/>
    </g>
    <path id="Trazado_681981" data-name="Trazado 681981" d="M1156.34,2636.16c-.026,0-.052,0-.079,0a.9.9,0,0,1-.714-.506.538.538,0,0,1-.02-.543c.4-.746,2.8-.934,3.069-.953a.145.145,0,0,1,.151.086.156.156,0,0,1-.019.171C1158.186,2635.074,1157.168,2636.16,1156.34,2636.16Zm1.9-1.657c-.955.1-2.222.362-2.434.754a.224.224,0,0,0,.018.239.592.592,0,0,0,.467.347C1156.744,2635.885,1157.458,2635.387,1158.239,2634.5Z" transform="translate(6.397 0.221)" fill="#007cff"/>
    <path id="Trazado_681982" data-name="Trazado 681982" d="M1158.375,2634.546c-.826,0-2.339-.392-2.642-1.01a.549.549,0,0,1,.155-.67.813.813,0,0,1,.657-.238c.963.072,2.129,1.587,2.177,1.652a.157.157,0,0,1,.021.156.155.155,0,0,1-.124.095A1.726,1.726,0,0,1,1158.375,2634.546Zm-1.9-1.6a.5.5,0,0,0-.366.15c-.145.141-.125.239-.093.307.205.417,1.456.818,2.265.837-.415-.485-1.184-1.25-1.757-1.292A.376.376,0,0,0,1156.474,2632.942Z" transform="translate(6.405 0.157)" fill="#007cff"/>
    <path id="Trazado_681983" data-name="Trazado 681983" d="M1107.055,2654.687a2.49,2.49,0,0,1-1.611-.409.871.871,0,0,1-.284-.767.507.507,0,0,1,.267-.417c.818-.443,3.462.906,3.761,1.062a.157.157,0,0,1-.042.294A11.354,11.354,0,0,1,1107.055,2654.687Zm-1.185-1.374a.63.63,0,0,0-.293.056.194.194,0,0,0-.1.171.566.566,0,0,0,.181.5c.4.363,1.5.425,2.968.182A8.553,8.553,0,0,0,1105.87,2653.313Z" transform="translate(4.28 1.014)" fill="#007cff"/>
    <path id="Trazado_681984" data-name="Trazado 681984" d="M1109.047,2654.515a.155.155,0,0,1-.064-.015c-.792-.357-2.357-1.79-2.235-2.542.029-.178.155-.4.591-.445a1.141,1.141,0,0,1,.872.272,4.437,4.437,0,0,1,.994,2.559.159.159,0,0,1-.157.171Zm-1.582-2.693c-.031,0-.063,0-.095,0-.288.028-.307.144-.313.182-.073.451.99,1.577,1.8,2.067a3.643,3.643,0,0,0-.846-2.05A.826.826,0,0,0,1107.465,2651.822Z" transform="translate(4.347 0.951)" fill="#007cff"/>
    <path id="Trazado_681985" data-name="Trazado 681985" d="M1129.686,2519.78l-7.115.934,4.988,4.554s4.039-1.374,4.49-4.1Z" transform="translate(5.013 -4.59)" fill="#e4897b"/>
    <path id="Trazado_681986" data-name="Trazado 681986" d="M1118.816,2524.661l4.383,3.587,4.519-3.017-4.989-4.555Z" transform="translate(4.855 -4.552)" fill="#e4897b"/>
    <path id="Trazado_681987" data-name="Trazado 681987" d="M1113.227,2450.534l-1.335-.116S1112.734,2451.277,1113.227,2450.534Z" transform="translate(4.563 -7.508)" fill="#263238"/>
    <g id="Grupo_944307" data-name="Grupo 944307" transform="translate(1108.223 2503.985)">
      <path id="Trazado_681988" data-name="Trazado 681988" d="M1132.212,2509.229l.69,2.415c.095.188-.127.379-.44.379H1104.7c-.244,0-.445-.12-.461-.273l-.243-2.415c-.017-.167.194-.308.46-.308h27.32A.489.489,0,0,1,1132.212,2509.229Z" transform="translate(-1103.992 -2509.027)" fill="#007cff"/>
      <path id="Trazado_681989" data-name="Trazado 681989" d="M1132.212,2509.229l.69,2.415c.095.188-.127.379-.44.379H1104.7c-.244,0-.445-.12-.461-.273l-.243-2.415c-.017-.167.194-.308.46-.308h27.32A.489.489,0,0,1,1132.212,2509.229Z" transform="translate(-1103.992 -2509.027)" fill="#fff" opacity="0.6"/>
    </g>
    <path id="Trazado_681990" data-name="Trazado 681990" d="M1127.577,2512.293h.732c.146,0,.256-.076.247-.168l-.343-3.138c-.01-.092-.137-.167-.283-.167h-.732c-.146,0-.257.075-.247.167l.343,3.138C1127.3,2512.217,1127.431,2512.293,1127.577,2512.293Z" transform="translate(5.197 -5.051)" fill="#263238"/>
    <path id="Trazado_681991" data-name="Trazado 681991" d="M1106.666,2512.293h.731c.146,0,.257-.076.247-.168l-.343-3.138c-.011-.092-.138-.167-.283-.167h-.732c-.146,0-.257.075-.247.167l.343,3.138C1106.393,2512.217,1106.521,2512.293,1106.666,2512.293Z" transform="translate(4.317 -5.051)" fill="#263238"/>
    <path id="Trazado_681992" data-name="Trazado 681992" d="M1117.122,2512.293h.732c.145,0,.256-.076.246-.168l-.343-3.138c-.01-.092-.138-.167-.284-.167h-.731c-.146,0-.256.075-.246.167l.343,3.138C1116.848,2512.217,1116.976,2512.293,1117.122,2512.293Z" transform="translate(4.757 -5.051)" fill="#263238"/>
    <path id="Trazado_681993" data-name="Trazado 681993" d="M1045.508,2498.772l-.84-.178a18.182,18.182,0,0,1,5.812-9.906l.568.644A17.32,17.32,0,0,0,1045.508,2498.772Z" transform="translate(1.736 -5.898)" fill="#bc5824"/>
    <rect id="Rectángulo_337361" data-name="Rectángulo 337361" width="0.859" height="4.913" transform="translate(1034.834 2499.042) rotate(-77.976)" fill="#bc5824"/>
    <g id="Grupo_944308" data-name="Grupo 944308" transform="translate(1011.691 2481.19)">
      <path id="Trazado_681994" data-name="Trazado 681994" d="M1072.408,2515.273a15.32,15.32,0,1,0-21.319-4.541l-20.983-4.469a4.359,4.359,0,0,0-5.173,3.355l-13.481,63.284a4.361,4.361,0,0,0,3.355,5.173l20.983,4.469a15.32,15.32,0,1,1,21.32,4.541l20.983,4.471a4.36,4.36,0,0,0,5.172-3.357l13.481-63.284a4.358,4.358,0,0,0-3.356-5.172Z" transform="translate(-1011.356 -2487.152)" fill="#bc5824"/>
      <path id="Trazado_681995" data-name="Trazado 681995" d="M1072.408,2515.273a15.32,15.32,0,1,0-21.319-4.541l-20.983-4.469a4.359,4.359,0,0,0-5.173,3.355l-13.481,63.284a4.361,4.361,0,0,0,3.355,5.173l20.983,4.469a15.32,15.32,0,1,1,21.32,4.541l20.983,4.471a4.36,4.36,0,0,0,5.172-3.357l13.481-63.284a4.358,4.358,0,0,0-3.356-5.172Z" transform="translate(-1011.356 -2487.152)" fill="#bc5824" opacity="0.4"/>
    </g>
    <g id="Grupo_944309" data-name="Grupo 944309" transform="translate(1011.691 2561.724)">
      <path id="Trazado_681996" data-name="Trazado 681996" d="M1058.967,2590.519a15.32,15.32,0,1,0-21.8,0h-21.454a4.359,4.359,0,0,0-4.359,4.359v64.705a4.359,4.359,0,0,0,4.359,4.36h64.7a4.359,4.359,0,0,0,4.36-4.36v-64.705a4.359,4.359,0,0,0-4.36-4.359Z" transform="translate(-1011.357 -2564.436)" fill="#f8cdb5"/>
      <path id="Trazado_681997" data-name="Trazado 681997" d="M1058.967,2590.519a15.32,15.32,0,1,0-21.8,0h-21.454a4.359,4.359,0,0,0-4.359,4.359v64.705a4.359,4.359,0,0,0,4.359,4.36h64.7a4.359,4.359,0,0,0,4.36-4.36v-64.705a4.359,4.359,0,0,0-4.36-4.359Z" transform="translate(-1011.357 -2564.436)" fill="#f8cdb5" opacity="0.4"/>
    </g>
    <path id="Trazado_681998" data-name="Trazado 681998" d="M966.1,2655.091h6.254l1.664-14.483h-6.254Z" transform="translate(-1.569 0.493)" fill="#e4897b"/>
    <path id="Trazado_681999" data-name="Trazado 681999" d="M923.865,2655.091h6.254l4.873-14.483h-6.254Z" transform="translate(-3.346 0.493)" fill="#e4897b"/>
    <path id="Trazado_682000" data-name="Trazado 682000" d="M931.048,2653.812h-7.625a.544.544,0,0,0-.533.427l-1.236,5.558a.92.92,0,0,0,.916,1.113c2.453-.042,4.243-.186,7.333-.186,1.9,0,5.817.2,8.442.2,2.568,0,2.968-2.6,1.893-2.831-4.819-1.053-6.634-2.507-8.176-3.894A1.517,1.517,0,0,0,931.048,2653.812Z" transform="translate(-3.44 1.048)" fill="#263238"/>
    <path id="Trazado_682001" data-name="Trazado 682001" d="M972.406,2653.812h-6.83a.546.546,0,0,0-.533.427l-1.235,5.558a.91.91,0,0,0,.9,1.113c2.464-.042,6.024-.186,9.12-.186,3.621,0,6.748.2,10.994.2,2.568,0,3.28-2.6,2.206-2.831-4.892-1.07-8.888-1.185-13.115-3.791A2.9,2.9,0,0,0,972.406,2653.812Z" transform="translate(-1.667 1.048)" fill="#263238"/>
    <path id="Trazado_682002" data-name="Trazado 682002" d="M966.088,2498.354c.768,4.9,1.408,9.783,1.947,14.7q.413,3.687.737,7.393c.107,1.237.223,2.472.307,3.715l.241,3.487a4.689,4.689,0,0,0,.571,1.817,8,8,0,0,0,1.551,1.912,21.046,21.046,0,0,0,5.211,3.354,49.776,49.776,0,0,0,6.417,2.494c2.212.734,4.576,1.332,6.806,1.845l-.424,4.676c-1.363,0-2.6-.063-3.9-.175s-2.563-.241-3.843-.436a46.512,46.512,0,0,1-7.688-1.807,26.62,26.62,0,0,1-7.608-3.847A16.233,16.233,0,0,1,963,2533.98a12.679,12.679,0,0,1-2.1-5l-2.167-14.722c-.722-4.84-1.4-9.7-2.026-14.55Z" transform="translate(-1.965 -5.491)" fill="#e4897b"/>
    <path id="Trazado_682003" data-name="Trazado 682003" d="M954.749,2496.825c-2.107,5.6,2.941,24.349,2.941,24.349l13.893-6.947s-.656-9.351-3.832-16.539C964.54,2490.426,957.061,2490.685,954.749,2496.825Z" transform="translate(-2.068 -5.749)" fill="#263238"/>
    <path id="Trazado_682004" data-name="Trazado 682004" d="M985.425,2536.859l6.825.453-3.189,7.325a6.014,6.014,0,0,1-5.618-4.385Z" transform="translate(-0.84 -3.872)" fill="#e4897b"/>
    <path id="Trazado_682005" data-name="Trazado 682005" d="M995.709,2539.606l-3.782,5.128-3.092-.116,3.188-7.324Z" transform="translate(-0.613 -3.853)" fill="#e4897b"/>
    <g id="Grupo_944310" data-name="Grupo 944310" transform="translate(922.874 2641.105)">
      <path id="Trazado_682006" data-name="Trazado 682006" d="M973.983,2640.613l-.857,7.465H966.87l.856-7.465Z" transform="translate(-924.411 -2640.613)" fill="#ce6f64"/>
      <path id="Trazado_682007" data-name="Trazado 682007" d="M928.64,2640.613H934.9l-2.515,7.465h-6.256Z" transform="translate(-926.125 -2640.613)" fill="#ce6f64"/>
    </g>
    <path id="Trazado_682008" data-name="Trazado 682008" d="M963.268,2492.611s7.381,18.885.371,54.055h-33.45c-.23-5.135,3-30.183-1.957-54.377a87.355,87.355,0,0,1,11.2-1.415,122.915,122.915,0,0,1,14.219,0A62.8,62.8,0,0,1,963.268,2492.611Z" transform="translate(-3.162 -5.814)" fill="#263238"/>
    <g id="Grupo_944311" data-name="Grupo 944311" transform="translate(926.651 2494.014)">
      <path id="Trazado_682009" data-name="Trazado 682009" d="M934.985,2503.481c-1.09-5.52-3.219-4.566-5.236-1.845a173.822,173.822,0,0,1,1.193,22.059C932.315,2521.352,936.813,2512.734,934.985,2503.481Z" transform="translate(-929.749 -2499.459)" fill="#007cff"/>
      <path id="Trazado_682010" data-name="Trazado 682010" d="M934.985,2503.481c-1.09-5.52-3.219-4.566-5.236-1.845a173.822,173.822,0,0,1,1.193,22.059C932.315,2521.352,936.813,2512.734,934.985,2503.481Z" transform="translate(-929.749 -2499.459)" opacity="0.8"/>
    </g>
    <path id="Trazado_682011" data-name="Trazado 682011" d="M940.387,2475.5c.9,4.576,1.791,12.958-1.409,16.011,0,0,1.25,4.642,9.752,4.642,9.348,0,4.467-4.642,4.467-4.642-5.1-1.218-4.971-5-4.082-8.559Z" transform="translate(-2.71 -6.453)" fill="#e4897b"/>
    <path id="Trazado_682012" data-name="Trazado 682012" d="M943.751,2478.42l5.166,4.408a14.743,14.743,0,0,0-.438,2.525c-1.95-.282-4.627-2.422-4.834-4.462A6.832,6.832,0,0,1,943.751,2478.42Z" transform="translate(-2.516 -6.33)" fill="#ce6f64"/>
    <path id="Trazado_682013" data-name="Trazado 682013" d="M954.42,2462.008c3.077,1.3,4.75,9.932.812,11.914S948.591,2459.54,954.42,2462.008Z" transform="translate(-2.202 -7.031)" fill="#263238"/>
    <path id="Trazado_682014" data-name="Trazado 682014" d="M939.808,2469.262c.38,6.195.289,9.84,3.418,13.019,4.706,4.783,12.353,1.947,13.831-4.237,1.331-5.567.485-14.763-5.579-17.228A8.466,8.466,0,0,0,939.808,2469.262Z" transform="translate(-2.676 -7.098)" fill="#e4897b"/>
    <path id="Trazado_682015" data-name="Trazado 682015" d="M940.469,2475.241c3.271,1.346,9.443-8.741-.053-12.224C929.914,2459.165,935.181,2473.065,940.469,2475.241Z" transform="translate(-2.905 -7.006)" fill="#263238"/>
    <path id="Trazado_682016" data-name="Trazado 682016" d="M941.881,2465.838c5.544,1.681,13.357-.02,14.36-2.807.894-2.486,1.684-1.393,3.2.233,4.172,4.47,12.493,2.682,5.459-4.089,1.591,1.936-1.676,7.147-4.065-.275-1.835-5.7-9.068-7.328-11.416-3.4-2.792,4.674-21.284-5.818-12.319,8.44C938.7,2468.038,941.881,2465.838,941.881,2465.838Z" transform="translate(-2.892 -7.384)" fill="#263238"/>
    <path id="Trazado_682017" data-name="Trazado 682017" d="M937.625,2462.631a12.3,12.3,0,0,1-4.22-2.468S933.584,2463.847,937.625,2462.631Z" transform="translate(-2.945 -7.098)" fill="#263238"/>
    <path id="Trazado_682018" data-name="Trazado 682018" d="M937.141,2475.617a5.9,5.9,0,0,0,3.676,2.605c2.021.444,2.916-1.391,2.257-3.238-.592-1.661-2.357-3.9-4.339-3.513A2.65,2.65,0,0,0,937.141,2475.617Z" transform="translate(-2.807 -6.624)" fill="#e4897b"/>
    <g id="Grupo_944312" data-name="Grupo 944312" transform="translate(938.488 2540.852)">
      <path id="Trazado_682019" data-name="Trazado 682019" d="M963.1,2544.406s24.388,33.8,23.707,52.868c-.708,19.837-10.248,53.4-10.248,53.4H965.962s4.338-32.408,3.867-51.89c-.514-21.24-28.72-38-28.72-54.382Z" transform="translate(-941.109 -2544.406)" fill="#f8cdb5"/>
      <path id="Trazado_682020" data-name="Trazado 682020" d="M963.1,2544.406s24.388,33.8,23.707,52.868c-.708,19.837-10.248,53.4-10.248,53.4H965.962s4.338-32.408,3.867-51.89c-.514-21.24-28.72-38-28.72-54.382Z" transform="translate(-941.109 -2544.406)" fill="#f8cdb5" opacity="0.6"/>
    </g>
    <g id="Grupo_944313" data-name="Grupo 944313" transform="translate(920.619 2540.852)">
      <path id="Trazado_682021" data-name="Trazado 682021" d="M951.953,2544.406s12.426,34.831,8.53,52.737c-4.266,19.608-25.068,53.536-25.068,53.536H923.961s15.326-32.345,17.761-51.759c2.643-21.07-11.353-38.844-11.353-54.513Z" transform="translate(-923.961 -2544.406)" fill="#f8cdb5"/>
      <path id="Trazado_682022" data-name="Trazado 682022" d="M951.953,2544.406s12.426,34.831,8.53,52.737c-4.266,19.608-25.068,53.536-25.068,53.536H923.961s15.326-32.345,17.761-51.759c2.643-21.07-11.353-38.844-11.353-54.513Z" transform="translate(-923.961 -2544.406)" fill="#f8cdb5" opacity="0.6"/>
    </g>
    <g id="Grupo_944314" data-name="Grupo 944314" transform="translate(919.126 2643.081)">
      <path id="Trazado_682023" data-name="Trazado 682023" d="M937.5,2646.8H922.528v-4.03l16.738-.262Z" transform="translate(-922.528 -2642.509)" fill="#eb6f2d"/>
      <path id="Trazado_682024" data-name="Trazado 682024" d="M937.5,2646.8H922.528v-4.03l16.738-.262Z" transform="translate(-922.528 -2642.509)" fill="#eb6f2d" opacity="0.4"/>
    </g>
    <g id="Grupo_944315" data-name="Grupo 944315" transform="translate(961.328 2643.081)">
      <path id="Trazado_682025" data-name="Trazado 682025" d="M978,2646.8H963.027v-4.077l16.738-.214Z" transform="translate(-963.027 -2642.509)" fill="#eb6f2d"/>
      <path id="Trazado_682026" data-name="Trazado 682026" d="M978,2646.8H963.027v-4.077l16.738-.214Z" transform="translate(-963.027 -2642.509)" fill="#eb6f2d" opacity="0.4"/>
    </g>
    <path id="Trazado_682027" data-name="Trazado 682027" d="M948.825,2470.594c0,.5.267.913.6.913s.6-.408.6-.913-.268-.914-.6-.914S948.825,2470.089,948.825,2470.594Z" transform="translate(-2.296 -6.697)" fill="#263238"/>
    <path id="Trazado_682028" data-name="Trazado 682028" d="M954.3,2470.594c0,.5.268.913.6.913s.6-.408.6-.913-.267-.914-.6-.914S954.3,2470.089,954.3,2470.594Z" transform="translate(-2.066 -6.697)" fill="#263238"/>
    <path id="Trazado_682029" data-name="Trazado 682029" d="M952.557,2470.8a18.044,18.044,0,0,0,2.409,4.315,2.909,2.909,0,0,1-2.409.452Z" transform="translate(-2.139 -6.65)" fill="#de5753"/>
    <path id="Trazado_682030" data-name="Trazado 682030" d="M951.288,2476.786a4.228,4.228,0,0,1-3.506-1.7.148.148,0,1,1,.248-.161,4.006,4.006,0,0,0,3.257,1.562.148.148,0,1,1,0,.3Z" transform="translate(-2.341 -6.48)" fill="#263238"/>
    <path id="Trazado_682031" data-name="Trazado 682031" d="M947.187,2468.861a.3.3,0,0,1-.178-.059.3.3,0,0,1-.057-.416,2.95,2.95,0,0,1,2.412-1.222.3.3,0,0,1,.274.315.29.29,0,0,1-.315.275h0a2.354,2.354,0,0,0-1.9.989A.3.3,0,0,1,947.187,2468.861Z" transform="translate(-2.377 -6.803)" fill="#263238"/>
    <g id="Grupo_944316" data-name="Grupo 944316" transform="translate(919.808 2487.242)">
      <path id="Trazado_682032" data-name="Trazado 682032" d="M969.443,2591.478l51.436-39.255a4.362,4.362,0,0,0,.821-6.112l-13.016-17.053a15.32,15.32,0,1,1-13.224-17.328l-13.016-17.055a4.359,4.359,0,0,0-6.111-.821L924.9,2533.11a4.361,4.361,0,0,0-.82,6.112l39.256,51.435A4.359,4.359,0,0,0,969.443,2591.478Z" transform="translate(-923.183 -2492.96)" fill="#eb6f2d"/>
      <path id="Trazado_682033" data-name="Trazado 682033" d="M969.443,2591.478l51.436-39.255a4.362,4.362,0,0,0,.821-6.112l-13.016-17.053a15.32,15.32,0,1,1-13.224-17.328l-13.016-17.055a4.359,4.359,0,0,0-6.111-.821L924.9,2533.11a4.361,4.361,0,0,0-.82,6.112l39.256,51.435A4.359,4.359,0,0,0,969.443,2591.478Z" transform="translate(-923.183 -2492.96)" fill="#eb6f2d" opacity="0.2"/>
    </g>
    <path id="Trazado_682034" data-name="Trazado 682034" d="M956.781,2468.761a.3.3,0,0,1-.267-.167,2.348,2.348,0,0,0-1.672-1.339.3.3,0,0,1,.075-.588,2.937,2.937,0,0,1,2.129,1.667.3.3,0,0,1-.266.426Z" transform="translate(-2.054 -6.824)" fill="#263238"/>
    <path id="Trazado_682035" data-name="Trazado 682035" d="M934.859,2500.822c-.765,1.864-1.619,3.932-2.344,5.937-.754,2.017-1.455,4.051-2.12,6.082s-1.231,4.073-1.735,6.105l-.352,1.523-.3,1.513c-.114.508-.177,1-.255,1.5l-.115.749-.029.188c-.014.086,0,.019-.009.036-.01-.014-.009.008-.017.024a5.118,5.118,0,0,0,.414,1.786,20.4,20.4,0,0,0,1.2,2.569,59.736,59.736,0,0,0,3.321,5.355c2.447,3.549,5.143,7.121,7.852,10.573l-3.3,3.339a88.638,88.638,0,0,1-10.112-9.513,54.6,54.6,0,0,1-4.489-5.624,28.57,28.57,0,0,1-1.986-3.368,12.823,12.823,0,0,1-1.394-4.668,8.031,8.031,0,0,1-.022-.819l.015-.385.016-.231.063-.927c.044-.617.079-1.241.159-1.841l.22-1.817.3-1.784c.424-2.365.938-4.69,1.581-6.957.624-2.274,1.345-4.506,2.138-6.707.405-1.1.823-2.188,1.262-3.275.435-1.1.884-2.134,1.424-3.293Z" transform="translate(-3.548 -5.553)" fill="#e4897b"/>
    <path id="Trazado_682036" data-name="Trazado 682036" d="M927.366,2492.646c-5.58,2.148-9.584,22.557-9.584,22.557l13.288,5.236s4.455-10.258,5.949-17.84C938.592,2494.615,933.7,2490.209,927.366,2492.646Z" transform="translate(-3.602 -5.76)" fill="#263238"/>
    <path id="Trazado_682037" data-name="Trazado 682037" d="M932.723,2654.925a7.312,7.312,0,0,1-1.636-.225.148.148,0,0,1-.044-.269c.227-.144,2.247-1.381,2.937-1.028a.473.473,0,0,1,.254.419.9.9,0,0,1-.306.784A1.9,1.9,0,0,1,932.723,2654.925Zm-1.207-.433a3.017,3.017,0,0,0,2.221-.113.6.6,0,0,0,.2-.538c-.007-.114-.053-.153-.094-.174C933.487,2653.481,932.337,2654.017,931.516,2654.492Z" transform="translate(-3.047 1.028)" fill="#007cff"/>
    <path id="Trazado_682038" data-name="Trazado 682038" d="M931.121,2654.764a.145.145,0,0,1-.08-.025.146.146,0,0,1-.067-.135c.005-.076.155-1.881.882-2.475a.8.8,0,0,1,.632-.19.482.482,0,0,1,.471.386c.132.7-1.119,2.069-1.766,2.42A.147.147,0,0,1,931.121,2654.764Zm1.263-2.537a.523.523,0,0,0-.341.13,3.557,3.557,0,0,0-.738,1.96c.643-.489,1.44-1.525,1.362-1.936-.007-.038-.024-.125-.217-.15C932.428,2652.23,932.406,2652.228,932.384,2652.228Z" transform="translate(-3.047 0.969)" fill="#007cff"/>
    <path id="Trazado_682039" data-name="Trazado 682039" d="M974.638,2654.925a10.558,10.558,0,0,1-1.965-.224.147.147,0,0,1-.039-.276c.284-.147,2.8-1.422,3.557-1a.471.471,0,0,1,.245.4.832.832,0,0,1-.277.72A2.376,2.376,0,0,1,974.638,2654.925Zm-1.471-.434c1.38.23,2.41.171,2.795-.171a.539.539,0,0,0,.178-.476.175.175,0,0,0-.093-.158C975.635,2653.454,974.2,2654,973.167,2654.491Z" transform="translate(-1.298 1.028)" fill="#007cff"/>
    <path id="Trazado_682040" data-name="Trazado 682040" d="M972.7,2654.764a.145.145,0,0,1-.086-.028.15.15,0,0,1-.061-.135,4.225,4.225,0,0,1,.971-2.409,1.071,1.071,0,0,1,.821-.254c.407.041.525.248.551.413.115.707-1.38,2.061-2.135,2.4A.151.151,0,0,1,972.7,2654.764Zm1.526-2.536a.793.793,0,0,0-.515.193,3.482,3.482,0,0,0-.825,1.929c.77-.464,1.787-1.526,1.718-1.951-.006-.034-.023-.138-.29-.166C974.286,2652.23,974.257,2652.228,974.227,2652.228Z" transform="translate(-1.298 0.969)" fill="#007cff"/>
    <path id="Trazado_682041" data-name="Trazado 682041" d="M938.254,2542.031l6.136,1.631-5.086,6.161s-4.915-2.549-3.856-5.3Z" transform="translate(-2.865 -3.654)" fill="#e4897b"/>
    <path id="Trazado_682042" data-name="Trazado 682042" d="M948.67,2548.721l-4.442,4.823-5.086-3.787,5.086-6.16Z" transform="translate(-2.703 -3.588)" fill="#e4897b"/>
  </g>
</svg>
