<svg xmlns="http://www.w3.org/2000/svg" width="139.757" height="122.175" viewBox="0 0 139.757 122.175">
  <g id="procedimiento_2_" data-name="procedimiento(2)" transform="translate(0 -32.205)">
    <g id="Grupo_946605" data-name="Grupo 946605" transform="translate(112.754 126.614)">
      <g id="Grupo_946602" data-name="Grupo 946602" transform="translate(0 0)">
        <circle id="Elipse_5294" data-name="Elipse 5294" cx="12.478" cy="12.478" r="12.478" fill="#4fc123"/>
      </g>
      <path id="Trazado_682659" data-name="Trazado 682659" d="M420.579,394.2a6.153,6.153,0,0,1,0-7.291,12.5,12.5,0,0,1,8.455-8.337,12.478,12.478,0,1,0,0,23.964A12.5,12.5,0,0,1,420.579,394.2Z" transform="translate(-413.076 -378.075)" fill="#47a920"/>
      <g id="Grupo_946603" data-name="Grupo 946603" transform="translate(6.307 6.307)">
        <path id="Trazado_682660" data-name="Trazado 682660" d="M442.353,413.522a6.171,6.171,0,1,1,6.171-6.171A6.178,6.178,0,0,1,442.353,413.522Z" transform="translate(-436.182 -401.181)" fill="#fff"/>
      </g>
      <g id="Grupo_946604" data-name="Grupo 946604" transform="translate(6.307 6.307)">
        <path id="Trazado_682661" data-name="Trazado 682661" d="M440.773,407.353a6.18,6.18,0,0,1,3.875-5.726,6.171,6.171,0,1,0,0,11.452A6.18,6.18,0,0,1,440.773,407.353Z" transform="translate(-436.182 -401.182)" fill="#f2fbff"/>
      </g>
    </g>
    <g id="Grupo_946609" data-name="Grupo 946609" transform="translate(112.754 34.569)">
      <g id="Grupo_946606" data-name="Grupo 946606" transform="translate(0 0)">
        <circle id="Elipse_5295" data-name="Elipse 5295" cx="12.478" cy="12.478" r="12.478" fill="#4fc123"/>
      </g>
      <path id="Trazado_682662" data-name="Trazado 682662" d="M429.034,65.327a12.5,12.5,0,0,1-8.455-8.337,6.153,6.153,0,0,1,0-7.291,12.5,12.5,0,0,1,8.455-8.337,12.478,12.478,0,1,0,0,23.964Z" transform="translate(-413.076 -40.867)" fill="#47a920"/>
      <g id="Grupo_946607" data-name="Grupo 946607" transform="translate(6.307 6.307)">
        <path id="Trazado_682663" data-name="Trazado 682663" d="M442.353,76.314a6.171,6.171,0,1,1,6.171-6.171A6.178,6.178,0,0,1,442.353,76.314Z" transform="translate(-436.182 -63.973)" fill="#fff"/>
      </g>
      <g id="Grupo_946608" data-name="Grupo 946608" transform="translate(6.307 6.307)">
        <path id="Trazado_682664" data-name="Trazado 682664" d="M440.773,70.145a6.179,6.179,0,0,1,3.875-5.726,6.17,6.17,0,1,0,0,11.452,6.179,6.179,0,0,1-3.875-5.726Z" transform="translate(-436.182 -63.974)" fill="#f2fbff"/>
      </g>
    </g>
    <g id="Grupo_946613" data-name="Grupo 946613" transform="translate(2.047 82.65)">
      <g id="Grupo_946610" data-name="Grupo 946610" transform="translate(0 0)">
        <circle id="Elipse_5296" data-name="Elipse 5296" cx="12.478" cy="12.478" r="12.478" fill="#3675bb"/>
      </g>
      <path id="Trazado_682665" data-name="Trazado 682665" d="M14.805,232.85a6.15,6.15,0,0,1,0-6.717,12.5,12.5,0,0,1,8.6-8.64,12.478,12.478,0,1,0,0,24A12.5,12.5,0,0,1,14.805,232.85Z" transform="translate(-7.5 -217.013)" fill="#2b68b6"/>
      <g id="Grupo_946611" data-name="Grupo 946611" transform="translate(6.307 6.307)">
        <path id="Trazado_682666" data-name="Trazado 682666" d="M36.777,252.459a6.171,6.171,0,1,1,6.171-6.171,6.178,6.178,0,0,1-6.171,6.171Z" transform="translate(-30.606 -240.118)" fill="#fff"/>
      </g>
      <g id="Grupo_946612" data-name="Grupo 946612" transform="translate(6.307 6.307)">
        <path id="Trazado_682667" data-name="Trazado 682667" d="M35.081,246.29a6.179,6.179,0,0,1,3.933-5.749,6.17,6.17,0,1,0,0,11.5A6.179,6.179,0,0,1,35.081,246.29Z" transform="translate(-30.606 -240.119)" fill="#f2fbff"/>
      </g>
    </g>
    <g id="Grupo_946614" data-name="Grupo 946614" transform="translate(37.064 34.023)">
      <path id="Trazado_682668" data-name="Trazado 682668" d="M199.65,64.43h-62.6a1.261,1.261,0,0,1-1.261-1.261V40.127a1.261,1.261,0,0,1,1.261-1.261h62.6a1.261,1.261,0,0,1,1.261,1.261V63.168A1.261,1.261,0,0,1,199.65,64.43Z" transform="translate(-135.784 -38.866)" fill="#dbf1d0"/>
    </g>
    <g id="Grupo_946615" data-name="Grupo 946615" transform="translate(37.064 34.023)">
      <path id="Trazado_682669" data-name="Trazado 682669" d="M199.65,64.43h-62.6a1.261,1.261,0,0,1-1.261-1.261V40.127a1.261,1.261,0,0,1,1.261-1.261h62.6a1.261,1.261,0,0,1,1.261,1.261V63.168A1.261,1.261,0,0,1,199.65,64.43Z" transform="translate(-135.784 -38.866)" fill="#dbf1d0"/>
    </g>
    <g id="Grupo_946616" data-name="Grupo 946616" transform="translate(37.064 34.023)">
      <path id="Trazado_682670" data-name="Trazado 682670" d="M142.667,63.168V40.127a1.261,1.261,0,0,1,1.261-1.261h-6.883a1.261,1.261,0,0,0-1.261,1.261V63.168a1.261,1.261,0,0,0,1.261,1.261h6.883A1.261,1.261,0,0,1,142.667,63.168Z" transform="translate(-135.784 -38.866)" fill="#c1e9af"/>
    </g>
    <g id="Grupo_946617" data-name="Grupo 946617" transform="translate(37.064 76.628)">
      <path id="Trazado_682671" data-name="Trazado 682671" d="M199.65,229.036h-62.6a1.261,1.261,0,0,1-1.261-1.261V196.212a1.261,1.261,0,0,1,1.261-1.261h62.6a1.261,1.261,0,0,1,1.261,1.261v31.562A1.261,1.261,0,0,1,199.65,229.036Z" transform="translate(-135.784 -194.951)" fill="#fac600"/>
    </g>
    <g id="Grupo_946618" data-name="Grupo 946618" transform="translate(37.064 76.628)">
      <path id="Trazado_682672" data-name="Trazado 682672" d="M142.667,227.775V196.212a1.261,1.261,0,0,1,1.261-1.261h-6.883a1.261,1.261,0,0,0-1.261,1.261v31.562a1.261,1.261,0,0,0,1.261,1.261h6.883A1.261,1.261,0,0,1,142.667,227.775Z" transform="translate(-135.784 -194.951)" fill="#e8b800"/>
    </g>
    <g id="Grupo_946619" data-name="Grupo 946619" transform="translate(37.064 126.882)">
      <path id="Trazado_682673" data-name="Trazado 682673" d="M199.65,404.62h-62.6a1.261,1.261,0,0,1-1.261-1.261V380.317a1.261,1.261,0,0,1,1.261-1.261h62.6a1.261,1.261,0,0,1,1.261,1.261v23.041A1.261,1.261,0,0,1,199.65,404.62Z" transform="translate(-135.784 -379.056)" fill="#dff6fd"/>
    </g>
    <g id="Grupo_946620" data-name="Grupo 946620" transform="translate(37.064 126.882)">
      <path id="Trazado_682674" data-name="Trazado 682674" d="M142.667,403.358V380.317a1.261,1.261,0,0,1,1.261-1.261h-6.883a1.261,1.261,0,0,0-1.261,1.261v23.041a1.261,1.261,0,0,0,1.261,1.261h6.883A1.261,1.261,0,0,1,142.667,403.358Z" transform="translate(-135.784 -379.056)" fill="#c8effe"/>
    </g>
    <g id="Grupo_946621" data-name="Grupo 946621" transform="translate(118.52 88.247)">
      <path id="Trazado_682675" data-name="Trazado 682675" d="M434.2,237.515l6.712,9.334,6.712-9.334Z" transform="translate(-434.199 -237.515)" fill="#fac600"/>
    </g>
    <g id="Grupo_946622" data-name="Grupo 946622" transform="translate(7.805 117.663)">
      <path id="Trazado_682676" data-name="Trazado 682676" d="M42.018,354.616l-6.712-9.334-6.712,9.334Z" transform="translate(-28.594 -345.282)" fill="#fac600"/>
    </g>
    <g id="Grupo_946625" data-name="Grupo 946625" transform="translate(46.174 133.906)">
      <g id="Grupo_946623" data-name="Grupo 946623">
        <path id="Trazado_682677" data-name="Trazado 682677" d="M179.857,416.3h-9.878a.819.819,0,0,1-.819-.819v-9.878a.819.819,0,0,1,.819-.819h9.878a.819.819,0,0,1,.819.819v9.878A.819.819,0,0,1,179.857,416.3Z" transform="translate(-169.16 -404.789)" fill="#4fc123"/>
      </g>
      <g id="Grupo_946624" data-name="Grupo 946624">
        <path id="Trazado_682678" data-name="Trazado 682678" d="M173.757,415.486v-9.878a.819.819,0,0,1,.819-.819h-4.6a.819.819,0,0,0-.819.819v9.878a.819.819,0,0,0,.819.819h4.6A.819.819,0,0,1,173.757,415.486Z" transform="translate(-169.16 -404.789)" fill="#47a920"/>
      </g>
    </g>
    <g id="Grupo_946626" data-name="Grupo 946626" transform="translate(0 32.205)">
      <path id="Trazado_682679" data-name="Trazado 682679" d="M436.9,393.682a8.218,8.218,0,1,0,8.218,8.218A8.227,8.227,0,0,0,436.9,393.682Zm0,12.341a4.123,4.123,0,1,1,4.123-4.123A4.128,4.128,0,0,1,436.9,406.023Z" transform="translate(-311.669 -295.012)"/>
      <path id="Trazado_682680" data-name="Trazado 682680" d="M127.279,124.715V98.241l6.327-8.8a2.047,2.047,0,0,0-1.662-3.243h-4.665V61.425a14.524,14.524,0,1,0-16.265-17.351h-6.776v-8.56a3.312,3.312,0,0,0-3.309-3.309h-62.6a3.312,3.312,0,0,0-3.309,3.309v8.56H20.823a8.364,8.364,0,0,0-8.354,8.354V80.752a14.523,14.523,0,0,0,0,28.753v7.5l-6.325,8.8a2.047,2.047,0,0,0,1.662,3.243h4.663v5.112a8.364,8.364,0,0,0,8.354,8.354H35.016v8.56a3.313,3.313,0,0,0,3.309,3.309h8.625a2.047,2.047,0,1,0,0-4.094H39.111V128.817h61.032v21.469H56.5a2.047,2.047,0,0,0,0,4.094h44.426a3.312,3.312,0,0,0,3.309-3.309v-8.56h6.879a14.524,14.524,0,1,0,16.162-17.8Zm.671-34.421-2.718,3.781-2.718-3.781Zm-2.718-53.677a10.43,10.43,0,1,1-10.43,10.43A10.442,10.442,0,0,1,125.232,36.617ZM11.8,124.95l2.718-3.781,2.718,3.781Zm55.781-.228H38.325a3.312,3.312,0,0,0-3.309,3.309v10.386H20.823a4.265,4.265,0,0,1-4.26-4.26v-5.112h4.666a2.047,2.047,0,0,0,1.662-3.243L16.563,117v-7.489A14.424,14.424,0,0,0,27.577,101.5,2.047,2.047,0,1,0,23.9,99.7a10.432,10.432,0,1,1,.483-7.985,2.047,2.047,0,0,0,3.87-1.338,14.533,14.533,0,0,0-11.69-9.633V52.428a4.265,4.265,0,0,1,4.26-4.26H35.016V58.555a3.312,3.312,0,0,0,3.309,3.309H67.58V74.581H38.325a3.312,3.312,0,0,0-3.309,3.309v31.562a3.313,3.313,0,0,0,3.309,3.309H67.58Zm32.564-46.046v29.991H39.111V78.676Zm10.581,59.741h-6.486V128.031a3.312,3.312,0,0,0-3.309-3.309H71.674V112.761h29.255a3.312,3.312,0,0,0,3.309-3.309V77.89a3.312,3.312,0,0,0-3.309-3.309H71.674V61.863H84.345a2.047,2.047,0,1,0,0-4.094H39.111V36.3h61.032V57.769H93.9a2.047,2.047,0,1,0,0,4.094h7.03a3.312,3.312,0,0,0,3.309-3.309V48.168h6.516a14.547,14.547,0,0,0,12.43,13.256V86.2H118.52a2.047,2.047,0,0,0-1.662,3.243l6.327,8.8v26.474A14.546,14.546,0,0,0,110.724,138.417Zm14.508,11.106a10.43,10.43,0,1,1,10.43-10.43A10.442,10.442,0,0,1,125.232,149.523Z" transform="translate(0 -32.205)"/>
      <path id="Trazado_682681" data-name="Trazado 682681" d="M436.9,72.909a8.218,8.218,0,1,0-8.218-8.218A8.227,8.227,0,0,0,436.9,72.909Zm0-12.341a4.123,4.123,0,1,1-4.123,4.123A4.128,4.128,0,0,1,436.9,60.568Z" transform="translate(-311.669 -49.849)"/>
      <path id="Trazado_682682" data-name="Trazado 682682" d="M31.324,232.618a8.218,8.218,0,1,0,8.218,8.218,8.227,8.227,0,0,0-8.218-8.218Zm0,12.341a4.123,4.123,0,1,1,4.123-4.123A4.128,4.128,0,0,1,31.324,244.959Z" transform="translate(-16.799 -177.913)"/>
      <path id="Trazado_682683" data-name="Trazado 682683" d="M165.753,225.84h45.789a2.047,2.047,0,0,0,0-4.094H165.753a2.047,2.047,0,0,0,0,4.094Z" transform="translate(-119.02 -170.008)"/>
      <path id="Trazado_682684" data-name="Trazado 682684" d="M165.753,253.98h45.789a2.047,2.047,0,0,0,0-4.094H165.753a2.047,2.047,0,0,0,0,4.094Z" transform="translate(-119.02 -190.467)"/>
      <path id="Trazado_682685" data-name="Trazado 682685" d="M227.91,278.026H201.8a2.047,2.047,0,0,0,0,4.094H227.91a2.047,2.047,0,0,0,0-4.094Z" transform="translate(-145.227 -210.926)"/>
      <path id="Trazado_682686" data-name="Trazado 682686" d="M213.589,66.169a2.047,2.047,0,0,0-2.047-2.047H165.752a2.047,2.047,0,1,0,0,4.094h45.789A2.047,2.047,0,0,0,213.589,66.169Z" transform="translate(-119.02 -55.41)"/>
      <path id="Trazado_682687" data-name="Trazado 682687" d="M229,92.262H204.188a2.047,2.047,0,1,0,0,4.094H229a2.047,2.047,0,1,0,0-4.094Z" transform="translate(-146.964 -75.869)"/>
      <path id="Trazado_682688" data-name="Trazado 682688" d="M177.27,410.033v-9.878a2.869,2.869,0,0,0-2.866-2.866h-9.878a2.869,2.869,0,0,0-2.866,2.866v9.878a2.869,2.869,0,0,0,2.866,2.866H174.4A2.869,2.869,0,0,0,177.27,410.033Zm-4.094-1.228h-7.421v-7.421h7.421Z" transform="translate(-117.533 -297.635)"/>
      <path id="Trazado_682689" data-name="Trazado 682689" d="M235.736,408.585h27.245a2.047,2.047,0,0,0,0-4.094H235.736a2.047,2.047,0,0,0,0,4.094Z" transform="translate(-169.901 -302.871)"/>
      <path id="Trazado_682690" data-name="Trazado 682690" d="M235.736,434.31h27.245a2.047,2.047,0,0,0,0-4.094H235.736a2.047,2.047,0,0,0,0,4.094Z" transform="translate(-169.901 -321.574)"/>
    </g>
  </g>
</svg>
