<svg id="brujula" xmlns="http://www.w3.org/2000/svg" width="98" height="98" viewBox="0 0 98 98">
  <circle id="Elipse_5328" data-name="Elipse 5328" cx="49" cy="49" r="49" fill="#2c5871"/>
  <path id="Trazado_683171" data-name="Trazado 683171" d="M236.977,0c-1.518,0-3.02.073-4.5.208a49,49,0,0,1,0,97.584c1.483.135,2.985.208,4.5.208a49,49,0,0,0,0-98Z" transform="translate(-187.977)" fill="#1c4754"/>
  <circle id="Elipse_5329" data-name="Elipse 5329" cx="42.312" cy="42.312" r="42.312" transform="translate(6.688 6.688)" fill="#e6f1ff"/>
  <path id="Trazado_683172" data-name="Trazado 683172" d="M236.977,34.939a42.779,42.779,0,0,0-4.5.239,42.314,42.314,0,0,1,0,84.148,42.781,42.781,0,0,0,4.5.239,42.312,42.312,0,1,0,0-84.625Z" transform="translate(-187.977 -28.251)" fill="#bfcfd6"/>
  <path id="Trazado_683173" data-name="Trazado 683173" d="M159.48,160.132l14.065,22.107L195.652,196.3a.472.472,0,0,0,.652-.652l-14.066-22.107L160.132,159.48A.472.472,0,0,0,159.48,160.132Z" transform="translate(-128.892 -128.892)" fill="#66c1ff"/>
  <path id="Trazado_683174" data-name="Trazado 683174" d="M159.481,160.133l14.065,22.106,8.693-8.693-22.106-14.065A.472.472,0,0,0,159.481,160.133Z" transform="translate(-128.893 -128.893)" fill="#ff4c4c"/>
  <circle id="Elipse_5330" data-name="Elipse 5330" cx="6.322" cy="6.322" r="6.322" transform="translate(42.678 42.678)" fill="#555a66"/>
  <g id="Grupo_947348" data-name="Grupo 947348" transform="translate(12.928 11.386)">
    <path id="Trazado_683175" data-name="Trazado 683175" d="M370.906,120.022a1.482,1.482,0,0,1-1.048-2.53l2.375-2.375a1.482,1.482,0,1,1,2.1,2.1l-2.375,2.375A1.477,1.477,0,0,1,370.906,120.022Z" transform="translate(-311.642 -104.119)" fill="#2c5871"/>
    <path id="Trazado_683176" data-name="Trazado 683176" d="M116.165,374.763a1.482,1.482,0,0,1-1.048-2.53l2.375-2.375a1.482,1.482,0,0,1,2.1,2.1l-2.375,2.375A1.478,1.478,0,0,1,116.165,374.763Z" transform="translate(-105.66 -310.101)" fill="#2c5871"/>
    <path id="Trazado_683177" data-name="Trazado 683177" d="M373.282,374.763a1.477,1.477,0,0,1-1.048-.434l-2.375-2.375a1.482,1.482,0,0,1,2.1-2.1l2.375,2.375a1.482,1.482,0,0,1-1.048,2.53Z" transform="translate(-311.643 -310.101)" fill="#2c5871"/>
    <path id="Trazado_683178" data-name="Trazado 683178" d="M118.54,120.023a1.477,1.477,0,0,1-1.048-.434l-2.375-2.375a1.482,1.482,0,0,1,2.1-2.1l2.375,2.375a1.482,1.482,0,0,1-1.048,2.53Z" transform="translate(-105.66 -104.119)" fill="#2c5871"/>
    <path id="Trazado_683179" data-name="Trazado 683179" d="M76.563,235.869a1.142,1.142,0,0,1-1.153.6c-.5,0-1.031-.19-1.126-.6l-.868-3.662-.882,3.662c-.095.407-.624.6-1.126.6s-1.031-.19-1.153-.6l-2.686-8.532a.582.582,0,0,1-.027-.163c0-.393.624-.705,1.126-.705a.536.536,0,0,1,.583.353l2.143,7.352,1.153-4.72c.081-.339.475-.488.868-.488s.773.149.855.488l1.153,4.72,2.143-7.352a.536.536,0,0,1,.583-.353c.5,0,1.126.312,1.126.705a.581.581,0,0,1-.027.163Z" transform="translate(-67.543 -194.507)" fill="#2c5871"/>
    <path id="Trazado_683180" data-name="Trazado 683180" d="M413.548,230.727h2.062c.353,0,.556.339.556.705a.614.614,0,0,1-.556.678h-2.062v2.726h3.838c.353,0,.556.366.556.787,0,.366-.176.759-.556.759h-4.829c-.393,0-.773-.19-.773-.556v-8.8c0-.366.38-.556.773-.556h4.829c.38,0,.556.393.556.76,0,.421-.2.787-.556.787h-3.838Z" transform="translate(-345.895 -194.507)" fill="#2c5871"/>
    <path id="Trazado_683181" data-name="Trazado 683181" d="M243.494,68.845l-2.916-5.453v5.453c0,.366-.448.556-.882.556s-.882-.19-.882-.556v-8.8c0-.38.434-.556.882-.556.638,0,.9.136,1.316.936l2.618,5.059V60.029c0-.38.434-.543.882-.543s.882.163.882.543v8.816c0,.366-.448.556-.882.556A1.06,1.06,0,0,1,243.494,68.845Z" transform="translate(-206.032 -59.486)" fill="#2c5871"/>
    <path id="Trazado_683182" data-name="Trazado 683182" d="M243.8,400.435c0-2.035-4.354-1.411-4.354-4.625,0-2.021,1.736-2.713,3.3-2.713.8,0,2.577.19,2.577,1.085,0,.312-.217.936-.705.936-.421,0-.733-.515-1.872-.515-.977,0-1.533.393-1.533,1.044,0,1.682,4.354,1.1,4.354,4.612,0,1.94-1.356,2.943-3.228,2.943-1.777,0-3.133-.9-3.133-1.682,0-.38.353-.95.773-.95.556,0,.922,1.044,2.306,1.044C243.1,401.615,243.8,401.249,243.8,400.435Z" transform="translate(-206.348 -329.242)" fill="#2c5871"/>
  </g>
</svg>
