<svg id="cerradura-inteligente" xmlns="http://www.w3.org/2000/svg" width="105.233" height="122.175" viewBox="0 0 105.233 122.175">
  <path id="Trazado_686581" data-name="Trazado 686581" d="M90.78,126.1H14.659A7.158,7.158,0,0,1,7.5,118.937V14.659A7.158,7.158,0,0,1,14.659,7.5H90.78a7.158,7.158,0,0,1,7.159,7.159V118.937A7.158,7.158,0,0,1,90.78,126.1Zm0,0" transform="translate(-5.71 -5.71)" fill="#cfd8dc"/>
  <path id="Trazado_686582" data-name="Trazado 686582" d="M333.659,7.5H326.5a7.158,7.158,0,0,1,7.159,7.159V118.937A7.158,7.158,0,0,1,326.5,126.1h7.159a7.158,7.158,0,0,0,7.159-7.159V14.659A7.158,7.158,0,0,0,333.659,7.5Zm0,0" transform="translate(-248.589 -5.71)" fill="#b0bec5"/>
  <path id="Trazado_686583" data-name="Trazado 686583" d="M341.028,249.19A12.527,12.527,0,0,1,328.5,236.662V197.528a12.528,12.528,0,1,1,25.055,0v39.134A12.527,12.527,0,0,1,341.028,249.19Zm0,0" transform="translate(-250.112 -140.855)" fill="#b0bec5"/>
  <path id="Trazado_686584" data-name="Trazado 686584" d="M369.579,185a12.5,12.5,0,0,0-3.579.522,12.531,12.531,0,0,1,8.948,12.006v39.134A12.53,12.53,0,0,1,366,248.668a12.528,12.528,0,0,0,16.107-12.006V197.528A12.527,12.527,0,0,0,369.579,185Zm0,0" transform="translate(-278.664 -140.855)" fill="#90a4ae"/>
  <path id="Trazado_686585" data-name="Trazado 686585" d="M368.814,264.168a5.772,5.772,0,0,1-1.465,3.974,2.418,2.418,0,0,0-.628,1.6v11.469a3.745,3.745,0,0,1-3.592,3.77,3.7,3.7,0,0,1-3.8-3.694V269.773a2.381,2.381,0,0,0-.6-1.6,5.79,5.79,0,1,1,10.085-4.005Zm0,0" transform="translate(-271.99 -196.816)" fill="#455a64"/>
  <path id="Trazado_686586" data-name="Trazado 686586" d="M120.791,82.772H60.024A3.024,3.024,0,0,1,57,79.748V70.524A3.024,3.024,0,0,1,60.024,67.5h60.767a3.024,3.024,0,0,1,3.024,3.024v9.224A3.023,3.023,0,0,1,120.791,82.772Zm0,0" transform="translate(-43.399 -51.393)" fill="#b5fcff"/>
  <path id="Trazado_686587" data-name="Trazado 686587" d="M301.487,67.5h-7.159a3.023,3.023,0,0,1,3.024,3.024v9.224a3.024,3.024,0,0,1-3.024,3.024h7.159a3.023,3.023,0,0,0,3.024-3.024V70.524A3.023,3.023,0,0,0,301.487,67.5Zm0,0" transform="translate(-224.094 -51.393)" fill="#71f6fc"/>
  <g id="Grupo_948196" data-name="Grupo 948196" transform="translate(17.539 49.634)">
    <path id="Trazado_686588" data-name="Trazado 686588" d="M84.477,213.488A5.488,5.488,0,1,1,78.988,208,5.488,5.488,0,0,1,84.477,213.488Zm0,0" transform="translate(-73.5 -208)" fill="#ff7043"/>
    <path id="Trazado_686589" data-name="Trazado 686589" d="M163.477,213.488A5.488,5.488,0,1,1,157.988,208,5.488,5.488,0,0,1,163.477,213.488Zm0,0" transform="translate(-133.649 -208)" fill="#ff7043"/>
    <path id="Trazado_686590" data-name="Trazado 686590" d="M242.477,213.488A5.488,5.488,0,1,1,236.988,208,5.488,5.488,0,0,1,242.477,213.488Zm0,0" transform="translate(-193.797 -208)" fill="#ff7043"/>
    <path id="Trazado_686591" data-name="Trazado 686591" d="M84.477,296.488A5.488,5.488,0,1,1,78.988,291,5.488,5.488,0,0,1,84.477,296.488Zm0,0" transform="translate(-73.5 -271.194)" fill="#ff7043"/>
    <path id="Trazado_686592" data-name="Trazado 686592" d="M163.477,296.488A5.488,5.488,0,1,1,157.988,291,5.488,5.488,0,0,1,163.477,296.488Zm0,0" transform="translate(-133.649 -271.194)" fill="#ff7043"/>
    <path id="Trazado_686593" data-name="Trazado 686593" d="M242.477,296.488A5.488,5.488,0,1,1,236.988,291,5.488,5.488,0,0,1,242.477,296.488Zm0,0" transform="translate(-193.797 -271.194)" fill="#ff7043"/>
    <path id="Trazado_686594" data-name="Trazado 686594" d="M84.477,379.488A5.488,5.488,0,1,1,78.988,374,5.488,5.488,0,0,1,84.477,379.488Zm0,0" transform="translate(-73.5 -334.388)" fill="#ff7043"/>
    <path id="Trazado_686595" data-name="Trazado 686595" d="M163.477,379.488A5.488,5.488,0,1,1,157.988,374,5.488,5.488,0,0,1,163.477,379.488Zm0,0" transform="translate(-133.649 -334.388)" fill="#ff7043"/>
    <path id="Trazado_686596" data-name="Trazado 686596" d="M242.477,379.488A5.488,5.488,0,1,1,236.988,374,5.488,5.488,0,0,1,242.477,379.488Zm0,0" transform="translate(-193.797 -334.388)" fill="#ff7043"/>
  </g>
  <path id="Trazado_686597" data-name="Trazado 686597" d="M94.018,42.694V8.948A8.958,8.958,0,0,0,85.069,0H8.948A8.958,8.958,0,0,0,0,8.948V38.18a1.79,1.79,0,0,0,3.579,0V8.948A5.375,5.375,0,0,1,8.948,3.579H85.069a5.375,5.375,0,0,1,5.369,5.369V42.363A14.336,14.336,0,0,0,76.6,56.673V95.807a14.336,14.336,0,0,0,13.84,14.31v3.11a5.375,5.375,0,0,1-5.369,5.369H8.948a5.375,5.375,0,0,1-5.369-5.369V45.816a1.79,1.79,0,0,0-3.579,0v67.411a8.958,8.958,0,0,0,8.948,8.948H85.069a8.958,8.958,0,0,0,8.948-8.948v-3.438a14.223,14.223,0,0,0,2.841-.953,1.79,1.79,0,0,0-1.488-3.256,10.642,10.642,0,0,1-4.456.965A10.75,10.75,0,0,1,80.178,95.807V56.673a10.738,10.738,0,1,1,21.476,0V95.807a10.726,10.726,0,0,1-1.468,5.423,1.79,1.79,0,1,0,3.087,1.811,14.3,14.3,0,0,0,1.96-7.234V56.673A14.343,14.343,0,0,0,94.018,42.694Zm0,0"/>
  <path id="Trazado_686598" data-name="Trazado 686598" d="M353.489,279.512a5.442,5.442,0,0,0,3.823,1.554l.155,0a5.563,5.563,0,0,0,5.334-5.56V264.035a.63.63,0,0,1,.175-.414A7.581,7.581,0,0,0,357.356,251h-.042a7.581,7.581,0,0,0-5.623,12.664.6.6,0,0,1,.138.4v11.518a5.442,5.442,0,0,0,1.66,3.932Zm1-23.769a3.971,3.971,0,0,1,2.821-1.164h.022a4,4,0,0,1,2.966,6.661,4.2,4.2,0,0,0-1.082,2.8V275.5a1.959,1.959,0,0,1-1.851,1.982,1.906,1.906,0,0,1-1.961-1.905V264.062a4.161,4.161,0,0,0-1.062-2.8,4,4,0,0,1,.147-5.519Zm0,0" transform="translate(-266.28 -191.105)"/>
  <path id="Trazado_686599" data-name="Trazado 686599" d="M73.278,200.5a7.278,7.278,0,1,0,7.278,7.278A7.287,7.287,0,0,0,73.278,200.5Zm0,10.977a3.7,3.7,0,1,1,3.7-3.7A3.7,3.7,0,0,1,73.278,211.477Zm0,0" transform="translate(-50.251 -152.656)"/>
  <path id="Trazado_686600" data-name="Trazado 686600" d="M152.278,200.5a7.278,7.278,0,1,0,7.278,7.278A7.287,7.287,0,0,0,152.278,200.5Zm0,10.977a3.7,3.7,0,1,1,3.7-3.7A3.7,3.7,0,0,1,152.278,211.477Zm0,0" transform="translate(-110.4 -152.656)"/>
  <path id="Trazado_686601" data-name="Trazado 686601" d="M231.278,200.5a7.278,7.278,0,1,0,7.278,7.278A7.287,7.287,0,0,0,231.278,200.5Zm0,10.977a3.7,3.7,0,1,1,3.7-3.7A3.7,3.7,0,0,1,231.278,211.477Zm0,0" transform="translate(-170.548 -152.656)"/>
  <path id="Trazado_686602" data-name="Trazado 686602" d="M73.278,283.5a7.278,7.278,0,1,0,7.278,7.278A7.287,7.287,0,0,0,73.278,283.5Zm0,10.977a3.7,3.7,0,1,1,3.7-3.7A3.7,3.7,0,0,1,73.278,294.477Zm0,0" transform="translate(-50.251 -215.85)"/>
  <path id="Trazado_686603" data-name="Trazado 686603" d="M152.278,283.5a7.278,7.278,0,1,0,7.278,7.278A7.287,7.287,0,0,0,152.278,283.5Zm0,10.977a3.7,3.7,0,1,1,3.7-3.7A3.7,3.7,0,0,1,152.278,294.477Zm0,0" transform="translate(-110.4 -215.85)"/>
  <path id="Trazado_686604" data-name="Trazado 686604" d="M231.278,283.5a7.278,7.278,0,1,0,7.278,7.278A7.287,7.287,0,0,0,231.278,283.5Zm0,10.977a3.7,3.7,0,1,1,3.7-3.7A3.7,3.7,0,0,1,231.278,294.477Zm0,0" transform="translate(-170.548 -215.85)"/>
  <path id="Trazado_686605" data-name="Trazado 686605" d="M73.278,366.5a7.278,7.278,0,1,0,7.278,7.278A7.287,7.287,0,0,0,73.278,366.5Zm0,10.977a3.7,3.7,0,1,1,3.7-3.7A3.7,3.7,0,0,1,73.278,377.477Zm0,0" transform="translate(-50.251 -279.044)"/>
  <path id="Trazado_686606" data-name="Trazado 686606" d="M152.278,366.5a7.278,7.278,0,1,0,7.278,7.278A7.287,7.287,0,0,0,152.278,366.5Zm0,10.977a3.7,3.7,0,1,1,3.7-3.7A3.7,3.7,0,0,1,152.278,377.477Zm0,0" transform="translate(-110.4 -279.044)"/>
  <path id="Trazado_686607" data-name="Trazado 686607" d="M231.278,366.5a7.278,7.278,0,1,0,7.278,7.278A7.287,7.287,0,0,0,231.278,366.5Zm0,10.977a3.7,3.7,0,1,1,3.7-3.7A3.7,3.7,0,0,1,231.278,377.477Zm0,0" transform="translate(-170.548 -279.044)"/>
  <path id="Trazado_686608" data-name="Trazado 686608" d="M54.313,63.579h45.894a1.79,1.79,0,0,0,0-3.579H54.313A4.819,4.819,0,0,0,49.5,64.813v9.224a4.819,4.819,0,0,0,4.813,4.813h9.981v6.562a1.79,1.79,0,0,0,1.79,1.79h38.9a1.79,1.79,0,0,0,1.79-1.79V78.851h8.311a4.819,4.819,0,0,0,4.813-4.813V64.813A4.819,4.819,0,0,0,115.08,60H107.6a1.79,1.79,0,0,0,0,3.579h7.476a1.236,1.236,0,0,1,1.234,1.234v9.224a1.236,1.236,0,0,1-1.234,1.234H54.314a1.236,1.236,0,0,1-1.234-1.234V64.813a1.236,1.236,0,0,1,1.234-1.234ZM103.19,78.851v4.772H67.874V78.851Zm0,0" transform="translate(-37.688 -45.683)"/>
</svg>
