<svg xmlns="http://www.w3.org/2000/svg" width="82.569" height="121.038" viewBox="0 0 82.569 121.038">
  <g id="surface1" transform="translate(0.001)">
    <path id="Trazado_686497" data-name="Trazado 686497" d="M125.59,246.314l5.059.209.739.016v-.717l.864-13.938-6.191.015Zm0,0" transform="translate(-95.901 -177.065)" fill="#ff8984"/>
    <path id="Trazado_686498" data-name="Trazado 686498" d="M103.842,115.861l9.835.118.026,0h.724l.114-2.874a2.942,2.942,0,0,0-.819-2.644,2.912,2.912,0,0,0-1.713-.381l-6.855-.057a1.7,1.7,0,0,0-1.165.316,1.848,1.848,0,0,0-.408,1.554Zm0,0" transform="translate(-79.083 -84.016)" fill="#ff8984"/>
    <path id="Trazado_686499" data-name="Trazado 686499" d="M93.211,372.358l9.8.115.025.006h.764l.114-2.874a2.271,2.271,0,0,0-2.532-3.024l-6.885-.058a1.661,1.661,0,0,0-1.135.317,1.846,1.846,0,0,0-.407,1.554Zm0,0" transform="translate(-70.965 -279.876)" fill="#ff8984"/>
    <path id="Trazado_686500" data-name="Trazado 686500" d="M51.435,254.972c.151-3.98.159-7.992.024-11.922-.05-1.468-.2-3.12-1.345-4.127a5.355,5.355,0,0,0-3.287-.989c-.389-.023-.731-.035-1.046-.035a5.36,5.36,0,0,0-4.079,1.383c-1.052,1.156-1.151,2.777-1.164,4.474l-.092,11.717,10.964.2Zm-3.581-4.388a3.5,3.5,0,0,1-2.019.627,3.308,3.308,0,0,1-1.94-.6,3.7,3.7,0,0,1-1.14-4.248,3.377,3.377,0,0,1,2.332-2.179,4.081,4.081,0,0,1,.967-.12,3.251,3.251,0,0,1,3.276,2.772A3.819,3.819,0,0,1,47.854,250.584Zm0,0" transform="translate(-30.885 -181.658)" fill="#ff8984"/>
    <path id="Trazado_686501" data-name="Trazado 686501" d="M36.371,372.361l9.8.115.027.006h.759l.115-2.876c.025-.649.077-2-.819-2.639a2.9,2.9,0,0,0-1.716-.383l-6.855-.057a1.691,1.691,0,0,0-1.164.316,1.861,1.861,0,0,0-.409,1.554Zm0,0" transform="translate(-27.562 -279.879)" fill="#ff8984"/>
    <path id="Trazado_686502" data-name="Trazado 686502" d="M225.991,17.938,202.106,7.548c-.445-.192-.813-.342-1.157-.473l-.465-.176-.324.377c-2.554,2.96-2.851,7.276-2.936,11.443-.335,16.767-.353,35.2-.369,53.031v.093c-.017,17.552-.034,35.7-.357,52.394l-.018.9.881-.2a14.04,14.04,0,0,0,1.8-.551l22.023-8.1c2.78-1.023,5.194-2.041,6.574-4.138,1.3-1.975,1.363-4.6,1.413-6.722l1.614-71.845c.02-.9.141-1.995.27-3.158.4-3.6.891-8.077-1.269-10.24A11.979,11.979,0,0,0,225.991,17.938ZM207.2,71.071a6.6,6.6,0,0,1-1.131,2.233,2.953,2.953,0,0,1-2.169,1.1c-.046,0-.091,0-.144-.005a2.923,2.923,0,0,1-2.321-1.728,7.59,7.59,0,0,1-.611-2.787l-.056-.677c-.316-3.863-.709-8.669.589-12.261a2.682,2.682,0,0,1,2.586-2.08,3.5,3.5,0,0,1,.378.021c1.607.179,2.686,1.416,3.3,3.781A22.161,22.161,0,0,1,207.2,71.071Zm17.88-31.982-.194,3.831a1.742,1.742,0,0,1-1.718,1.638l-.074,0-1.371-.055a1.412,1.412,0,0,0-1.145.321,1.42,1.42,0,0,0-.505,1.073l-.038,2.858a1.916,1.916,0,0,1-1.715,1.881l-2.949.311a1.914,1.914,0,0,1-2.119-1.968l.13-3.967a1.435,1.435,0,0,0-1.355-1.471l-3.178-.168a1.913,1.913,0,0,1-1.817-1.837L206.849,37a1.918,1.918,0,0,1,1.914-2c.051,0,.1,0,.15.006l2.714.216c.035,0,.069,0,.1,0a1.436,1.436,0,0,0,.955-.364,1.4,1.4,0,0,0,.477-1.02l.129-4.088a1.92,1.92,0,0,1,1.915-1.856,1.969,1.969,0,0,1,.417.044l3.749.832a1.919,1.919,0,0,1,1.492,2.052l-.444,4.718a1.418,1.418,0,0,0,.325,1.042,1.4,1.4,0,0,0,.963.509l1.826.189A1.726,1.726,0,0,1,225.083,39.089Zm0,0" transform="translate(-150.033 -5.267)" fill="#fff"/>
    <path id="Trazado_686503" data-name="Trazado 686503" d="M115.587,152.16l.228-5.722-10.292.039.4,5.954Zm0,0" transform="translate(-80.578 -111.82)" fill="#fff"/>
    <path id="Trazado_686504" data-name="Trazado 686504" d="M104.957,408.662l.229-5.721-10.3.035.4,5.957Zm0,0" transform="translate(-72.459 -307.685)" fill="#fff"/>
    <path id="Trazado_686505" data-name="Trazado 686505" d="M50.879,147.137l.783.1.1-9.143h-.717a.848.848,0,0,0-.1.005l-10.934.28.223,8.75Zm0,0" transform="translate(-30.554 -105.445)" fill="#fff"/>
    <path id="Trazado_686506" data-name="Trazado 686506" d="M48.346,402.941l-10.292.035.392,5.957,9.671-.271Zm0,0" transform="translate(-29.059 -307.685)" fill="#fff"/>
    <path id="Trazado_686507" data-name="Trazado 686507" d="M53.3,262.608a3.852,3.852,0,0,0-2.089-.6,4.532,4.532,0,0,0-1.079.134,3.823,3.823,0,0,0-2.653,2.461,4.179,4.179,0,0,0,1.3,4.792,3.788,3.788,0,0,0,2.215.7,3.973,3.973,0,0,0,2.289-.719,4.353,4.353,0,0,0,1.664-4.216A3.82,3.82,0,0,0,53.3,262.608Zm0,0" transform="translate(-36.045 -200.072)" fill="#fff"/>
    <path id="Trazado_686508" data-name="Trazado 686508" d="M26.451,88.272a1.544,1.544,0,0,1,.213-1.025,1.2,1.2,0,0,1,.923-.277c.086,0,.164,0,.237.005L28.883,87l-.437-5.089c-.014-.152-.045-.506.114-.639a.806.806,0,0,1,.469-.092l5.735-.018-.087,6.028,2.681.086-.149,14.382,5.408,0L41.551,85.565c-.022-.337-.058-.9.255-1.176a1.219,1.219,0,0,1,.806-.2l6.9.058a2.554,2.554,0,0,1,1.443.3c.7.5.646,1.676.623,2.243l-.595,14.865,8.035-.005.062-25.864-28.821-.2-.409,0c-2.547,0-5.114.238-6.648,1.963-1.381,1.551-1.49,3.8-1.482,6.159l.047,17.967,5.021,0Zm0,0" transform="translate(-16.59 -57.714)" fill="#939baa"/>
    <path id="Trazado_686509" data-name="Trazado 686509" d="M26.9,218.048c.01-1.538.1-3.128,1.04-4.164a3.222,3.222,0,0,1,1.187-.812l.523-.216-.1-.558a7.341,7.341,0,0,1-.1-2.735,2.687,2.687,0,0,1,1.627-2.091,1.957,1.957,0,0,1,.621-.1,2.87,2.87,0,0,1,2.311,1.473,5.807,5.807,0,0,1,.505,3.53l-.053.519.48.2a2.772,2.772,0,0,1,.754.465c1.007.88,1.141,2.418,1.188,3.793.133,3.913.125,7.905-.024,11.868l-.027.723,3.768.067-.191-5.07,1.618.068-.161-15.53L47,209.2l-.065,2.039,5.709-.013-.881,14.18,4.009.168-.048,4.7,3.424.061.063-26.112-37.228.506.065,24.951,4.766.084Zm0,0" transform="translate(-16.785 -155.947)" fill="#939baa"/>
    <path id="Trazado_686510" data-name="Trazado 686510" d="M39.494,344.416a1.42,1.42,0,0,1,.253-1.172,1.214,1.214,0,0,1,.806-.2l6.9.058a2.525,2.525,0,0,1,1.446.3c.7.5.646,1.676.623,2.243l-.571,14.319-.225.845.885.036q1.824.075,3.622.159l.061,0c1.735.077,3.529.156,5.3.224l.735.028.062-26.09-37.071.351.018,6.312c0,1.137,0,2.271,0,3.409q.007,3.386.021,6.775c.012,2.3.279,5.171,2.243,6.92a4.84,4.84,0,0,0,1.449.886l1.044.417-1.045-15.818a1.415,1.415,0,0,1,.252-1.172,1.226,1.226,0,0,1,.808-.2l6.9.058a2.55,2.55,0,0,1,1.444.3c.691.493.648,1.626.625,2.243l-.594,14.835,4.288.119h.782Zm0,0" transform="translate(-17.044 -255.931)" fill="#939baa"/>
    <path id="Trazado_686511" data-name="Trazado 686511" d="M115.1,136.446l.112-2.849.024-.729-10.628-.126.248,3.739Zm0,0" transform="translate(-79.88 -101.361)" fill="#f7b36f"/>
    <path id="Trazado_686512" data-name="Trazado 686512" d="M116.626,172.735l.161-4.063-9.717.27.25,3.8Zm0,0" transform="translate(-81.759 -128.797)" fill="#f7b36f"/>
    <path id="Trazado_686513" data-name="Trazado 686513" d="M104.47,392.934l.112-2.849.024-.729-10.629-.127.249,3.742Zm0,0" transform="translate(-71.761 -297.215)" fill="#f7b36f"/>
    <path id="Trazado_686514" data-name="Trazado 686514" d="M96.441,425.442l.254,3.883.66,0c2.288.014,4.733.077,7.931.2l.84.013-.11-.82.14-3.553Zm0,0" transform="translate(-73.643 -324.661)" fill="#f7b36f"/>
    <path id="Trazado_686515" data-name="Trazado 686515" d="M109.688,239.7l.541-16.5-6.073.33.168,15.95Zm0,0" transform="translate(-79.534 -170.431)" fill="#f7b36f"/>
    <path id="Trazado_686516" data-name="Trazado 686516" d="M47.629,392.934l.115-2.848.024-.73-10.628-.127.245,3.742Zm0,0" transform="translate(-28.361 -297.215)" fill="#f7b36f"/>
    <path id="Trazado_686517" data-name="Trazado 686517" d="M40.339,428.865a16.126,16.126,0,0,0,2.946.207h.055c.34,0,.68.005,1.014.015l4.79.132.163-4.046-9.72.27.22,3.316Zm0,0" transform="translate(-30.228 -324.661)" fill="#f7b36f"/>
    <path id="Trazado_686518" data-name="Trazado 686518" d="M48.384,101.234h0l.193,2.29,1.784.057v0l1.746.05,1.186.043h0l.1,0,.371.013v0l1.549.045.031-2.387.062-4.12-6.206.018a1.115,1.115,0,0,0-.769.2,1.139,1.139,0,0,0-.281,1.039Zm0,0" transform="translate(-36.755 -74.245)" fill="#f7b36f"/>
    <path id="Trazado_686519" data-name="Trazado 686519" d="M114.187,295.637l.052-5.156-9.493-.392-.03.008-.029-.009-6.75-.279.208,5.546Zm0,0" transform="translate(-74.786 -221.297)" fill="#f9d889"/>
    <path id="Trazado_686520" data-name="Trazado 686520" d="M51.541,126.275l.042-4.158-9.993-.319c-.078,0-.156,0-.235,0a1.661,1.661,0,0,0-1.282.429,1.909,1.909,0,0,0-.334,1.349l.073,2.825,10.938-.28Zm0,0" transform="translate(-30.343 -93.001)" fill="#f9d889"/>
    <path id="Trazado_686521" data-name="Trazado 686521" d="M52.341,174.768l-.006-.815-.786.1L40.9,174.044l.068,2.742,11.348-.009Zm0,0" transform="translate(-31.234 -132.83)" fill="#f9d889"/>
    <path id="Trazado_686522" data-name="Trazado 686522" d="M56.513,221.511l.783.163.068-.8a6.054,6.054,0,0,0-.578-3.6,3.3,3.3,0,0,0-2.727-1.708,2.4,2.4,0,0,0-.76.123,3.188,3.188,0,0,0-1.935,2.44,7.647,7.647,0,0,0,.074,2.779l.122.739.731-.162a8.3,8.3,0,0,1,1.8-.172c.294,0,.609.01.964.031A10.066,10.066,0,0,1,56.513,221.511Zm0,0" transform="translate(-39.147 -164.606)" fill="#f9d889"/>
    <path id="Trazado_686523" data-name="Trazado 686523" d="M222.395,230.4l1.306.015a2.443,2.443,0,0,0,1.787-.922,6.073,6.073,0,0,0,1.042-2.072,21.672,21.672,0,0,0,.409-12.129c-.555-2.145-1.5-3.263-2.9-3.42-.1-.008-.208-.017-.313-.017-.052,0-.1,0-.155.007l-.874.056.238.844a31.465,31.465,0,0,1,.142,16.583Zm0,0" transform="translate(-169.821 -161.775)" fill="#bfc7d8"/>
    <path id="Trazado_686524" data-name="Trazado 686524" d="M215.734,225.374a7.089,7.089,0,0,0,.564,2.611,3.03,3.03,0,0,0,.691.91l.513.452.471-.5.2-.215v-.191a31.944,31.944,0,0,0-.105-16.612l-.347-1.256-.866.973a3.318,3.318,0,0,0-.613,1.089c-1.261,3.5-.872,8.242-.56,12.053Zm0,0" transform="translate(-164.455 -160.797)" fill="#d8deec"/>
    <path id="Trazado_686525" data-name="Trazado 686525" d="M182.231,123.171a3.067,3.067,0,0,0,1.852.545c.083,0,.168,0,.253-.007l.659-.034.013-.66c.328-16.746.345-34.952.362-52.56v-.11c.017-17.821.033-36.25.369-53,.079-3.945.345-8.034,2.591-10.872l.663-.838-1.029-.286a6.506,6.506,0,0,0-1.748-.265,4.485,4.485,0,0,0-1.695.322c-2.3.935-3.425,3.7-3.435,8.456l-.258,104.783C180.825,120.449,180.993,122.251,182.231,123.171Zm0,0" transform="translate(-138.081 -3.877)" fill="#d8deec"/>
    <path id="Trazado_686526" data-name="Trazado 686526" d="M5.246,136.326q.007,3.734.021,7.468c.015,2.535.309,5.691,2.473,7.618,1.706,1.521,3.931,1.538,6.092,1.556q.568,0,1.129.016l9.477.263c4.975,0,10.168.235,14.751.443l.573.026c1.851.081,3.766.166,5.646.235l.733.027.011-3.966-.684-.026c-1.817-.069-3.654-.151-5.431-.232l-.182-.008c-4.343-.194-8.834-.394-13.241-.394l-8.632-.238c-.333-.01-.669-.012-1.03-.015-2.045-.017-4.16-.033-5.844-1.534C9,145.687,8.715,142.686,8.7,140.281q-.018-2.816-.019-5.633l0-2.3q0-1.128,0-2.252L8.517,70.189c-.007-1.857-.018-4.663,1.6-6.483,1.662-1.87,4.4-2.128,7.107-2.128h.32l28.817.2.012-3.676-31.909-.22-.457,0c-2.8,0-5.622.262-7.313,2.164-1.521,1.71-1.64,4.182-1.633,6.778l.173,65.788Zm0,0" transform="translate(-3.868 -44.199)" fill="#d8deec"/>
    <path id="Trazado_686527" data-name="Trazado 686527" d="M59.179,187.906l-37.249.022.011,3.856,37.229-.507Zm0,0" transform="translate(-16.746 -143.484)" fill="#d8deec"/>
    <path id="Trazado_686528" data-name="Trazado 686528" d="M59.344,318.5l.012-3.863-37.1-.655.014,4.871Zm0,0" transform="translate(-16.997 -239.758)" fill="#d8deec"/>
    <path id="Trazado_686529" data-name="Trazado 686529" d="M243.928,112.284l3.181.168a1.931,1.931,0,0,1,1.817,1.977l-.133,3.964a1.4,1.4,0,0,0,.446,1.083,1.414,1.414,0,0,0,.978.394,1.447,1.447,0,0,0,.156-.008l2.954-.31a1.434,1.434,0,0,0,1.276-1.4l.038-2.859a1.92,1.92,0,0,1,1.919-1.891,1.87,1.87,0,0,1,.248.017l.03,0,1.329.056h.051a1.238,1.238,0,0,0,1.238-1.178l.194-3.829a1.238,1.238,0,0,0-1.111-1.295l-1.823-.187a1.914,1.914,0,0,1-1.725-2.087l.444-4.716a1.431,1.431,0,0,0-1.116-1.527l-3.754-.833a1.417,1.417,0,0,0-.3-.033,1.453,1.453,0,0,0-.88.3,1.433,1.433,0,0,0-.548,1.082l-.13,4.088a1.916,1.916,0,0,1-1.911,1.857c-.052,0-.1,0-.156-.006l-2.7-.214a1.227,1.227,0,0,0-.126-.005,1.428,1.428,0,0,0-1.425,1.489l.188,4.534A1.419,1.419,0,0,0,243.928,112.284Zm0,0" transform="translate(-185.086 -74.671)" fill="#ed6d66"/>
    <path id="Trazado_686530" data-name="Trazado 686530" d="M80.6,14.071a12.958,12.958,0,0,0-4.166-2.5L53.21,1.47l-.657-.285c-2.067-.9-4.276-1.7-6.563-.771a6.19,6.19,0,0,0-3.5,4.155,18.073,18.073,0,0,0-.684,5.408L41.8,12.705l-31.194-.216c-3.074-.02-6.532.158-8.672,2.563C.136,17.076-.007,19.905,0,22.63L.173,88.416q0,1.856.007,3.713Q.186,95.867.2,99.6c.016,2.782.356,6.263,2.873,8.5,2.046,1.821,4.614,1.84,6.879,1.858.369,0,.739.006,1.105.016l9.473.263h.027c4.892,0,9.882.224,14.708.441,2.065.092,4.2.188,6.294.265l-.009,3.808c0,2.125.22,4.262,1.886,5.494a4.23,4.23,0,0,0,2.574.785,10.47,10.47,0,0,0,3.531-.791l22.022-8.1c2.3-.847,5.452-2.006,7.162-4.6,1.493-2.267,1.556-5.088,1.608-7.354l1.615-71.845c.019-.853.138-1.922.262-3.052C82.638,21.437,83.167,16.642,80.6,14.071ZM41.575,104.587c-1.786-.067-3.6-.149-5.353-.227q-1.8-.08-3.623-.159a.441.441,0,0,0,.017-.106l.573-14.356c.028-.692.086-2.13-.92-2.849a3.15,3.15,0,0,0-1.855-.43L23.644,86.4a2.023,2.023,0,0,0-1.408.375,2.049,2.049,0,0,0-.494,1.755l1.02,15.422h0l-3.57-.1.564-14.117c.028-.692.085-2.13-.921-2.849a3.14,3.14,0,0,0-1.855-.429l-6.77-.057a2.023,2.023,0,0,0-1.408.375A2.047,2.047,0,0,0,8.3,88.533l.971,14.694a4.123,4.123,0,0,1-1.24-.757c-1.755-1.562-1.995-4.239-2.006-6.395Q6.01,92.69,6.009,89.3q0-1.705-.007-3.409l-.015-5.606,35.649-.34Zm-9.9-.423c-2.641-.105-5.306-.187-7.955-.2l-.164-2.49,8.224-.23-.113,2.816A.473.473,0,0,0,31.672,104.164ZM23.49,100.52,23.191,96l8.8-.032-.173,4.32Zm-.362-5.474-.153-2.312,9.133.109h0l-.087,2.17Zm-.216-3.265-.219-3.31c-.027-.405-.025-.8.169-.973a1.266,1.266,0,0,1,.775-.14l6.771.056a2.337,2.337,0,0,1,1.308.251c.517.37.554,1.237.522,2.035l-.088,2.194c-.01,0-.02,0-.031,0Zm-12.861,8.74L9.753,96l8.8-.032-.173,4.32Zm8.287.721-.1,2.589-4.09-.114c-.346-.009-.694-.012-1.043-.015a15.516,15.516,0,0,1-2.853-.193l-.134-2.038Zm-8.649-6.2-.152-2.312,9.132.109h.006l-.087,2.17ZM9.474,91.78l-.219-3.31c-.028-.405-.026-.8.169-.973a1.261,1.261,0,0,1,.774-.14l6.771.056a2.334,2.334,0,0,1,1.309.251c.517.37.554,1.237.523,2.035l-.088,2.194c-.011,0-.021,0-.032,0ZM41.641,78.042l-35.659.34-.009-3.433,35.674.629ZM15.9,56.981a4.782,4.782,0,0,1,2.863.817c.933.816,1.059,2.295,1.1,3.617.135,3.938.126,7.927-.024,11.871l-9.567-.169L10.361,62.1c.013-1.555.1-3.032.98-4C12.4,56.939,14.238,56.883,15.9,56.981Zm-2.985-3.317a2.474,2.474,0,0,1,1.466-1.908,2.4,2.4,0,0,1,2.642,1.26,5.413,5.413,0,0,1,.491,3.2,10.684,10.684,0,0,0-1.558-.183,10.932,10.932,0,0,0-2.962.156A6.965,6.965,0,0,1,12.913,53.664ZM29.781,69.495a.456.456,0,0,0,.119.024h.028a.478.478,0,0,0,.11-.014l8.7.359L38.7,73.619,24.044,73.36l-.155-4.108Zm-4.442-15.73,4.622-.25-.492,15.013-3.977-.164Zm9.439,14.983-4.358-.18.427-13.028,4.749-.011-.819,13.2A.078.078,0,0,0,34.778,68.748Zm6.873,4.923-2-.035.043-4.223a.477.477,0,0,0-.457-.481l-3.508-.145.85-13.706a.479.479,0,0,0-.129-.356.473.473,0,0,0-.346-.15h0l-5.224.012.051-1.56a.475.475,0,0,0-.5-.491l-5.6.3a.478.478,0,0,0-.452.481l.157,15.006-1.126-.046a.474.474,0,0,0-.356.139.479.479,0,0,0-.14.356l.173,4.571L20.794,73.3c.15-3.96.159-7.966.023-11.92-.052-1.522-.21-3.235-1.429-4.3a3.484,3.484,0,0,0-.945-.583,6.463,6.463,0,0,0-.594-3.951,3.331,3.331,0,0,0-3.774-1.695,3.383,3.383,0,0,0-2.1,2.623,8.106,8.106,0,0,0,.1,2.994,3.951,3.951,0,0,0-1.439.991c-1.108,1.22-1.213,2.959-1.227,4.636L9.322,73.1l-3.353-.059L5.907,49.488,41.712,49Zm.066-26.578L5.9,47.581l-.006-2.427,35.827-.023ZM16.257,28.682c-1.26-.039-2.52-.051-3.781-.091l-.115-1.346,5.513.092c-.007.469.009.945-.026,1.412C17.318,28.72,16.788,28.7,16.257,28.682Zm-3.978-2.392L12.1,24.183c-.03-.365.019-.426.03-.435a.9.9,0,0,1,.312-.035l5.487-.017-.039,2.688ZM20.524,29.8,20.5,32.41a.484.484,0,0,0-.074,0l-10.263.262-.054-2.115a1.346,1.346,0,0,1,.151-.857c.181-.2.595-.2.966-.191Zm-.175,11.179-9.978-.012-.187-7.35,10.263-.262.04-.005-.079,7.636A.392.392,0,0,0,20.349,40.983Zm.049.948-.014,1.308-9.955.007L10.4,41.924l9.953.012C20.366,41.936,20.382,41.932,20.4,41.931ZM26,39.883l-.3-4.52,8.8-.032-.173,4.32Zm8.287.721-.105,2.625-7.96.006-.159-2.4ZM25.641,34.41,25.488,32.1l9.132.109h.006l-.087,2.169Zm-.216-3.265-.219-3.31c-.027-.405-.025-.8.169-.973a1.265,1.265,0,0,1,.775-.14l6.771.056a2.335,2.335,0,0,1,1.308.251c.517.37.554,1.237.523,2.035l-.088,2.194c-.011,0-.021,0-.032,0Zm16.3,12.081-6.588,0L35.7,29.1c.028-.692.085-2.129-.921-2.848a3.14,3.14,0,0,0-1.855-.43l-6.77-.057a2.027,2.027,0,0,0-1.408.375,2.051,2.051,0,0,0-.495,1.756l1.015,15.337-3.932,0,.144-13.89a.476.476,0,0,0-.461-.481L18.806,28.8l.08-5.57a.471.471,0,0,0-.138-.342.476.476,0,0,0-.339-.141h0l-5.972.018a1.386,1.386,0,0,0-.918.255,1.409,1.409,0,0,0-.37,1.249l.369,4.3-.264-.009a2.125,2.125,0,0,0-1.7.505,2.11,2.11,0,0,0-.4,1.52l.323,12.669-3.587,0-.045-17.26c-.006-2.219.09-4.323,1.3-5.687,1.442-1.622,4.015-1.741,6.523-1.723l28.116.195Zm.065-26.359-28.108-.194c-2.816-.018-5.989.146-7.96,2.362-1.8,2.021-1.79,4.992-1.784,6.958L4.1,85.9q.006,1.7.007,3.407.006,3.39.02,6.779c.014,2.551.327,5.745,2.644,7.809,1.888,1.68,4.242,1.7,6.32,1.713.336,0,.671.005,1,.015l8.626.239h.027c4.454,0,9,.2,13.392.4,1.783.08,3.62.162,5.435.23l-.006,2.551c-2.069-.077-4.174-.171-6.213-.263-4.842-.217-9.85-.442-14.782-.443l-9.459-.262c-.38-.01-.762-.013-1.144-.016-2.117-.017-4.115-.031-5.625-1.376-1.956-1.742-2.222-4.7-2.235-7.092q-.021-3.733-.022-7.465,0-1.859-.007-3.716L1.905,22.625c-.006-2.455.1-4.783,1.454-6.306,1.61-1.81,4.457-1.944,7.233-1.923l31.2.215Zm4.788,49.709c-.017,17.658-.034,35.908-.36,52.547a2.484,2.484,0,0,1-1.648-.4c-.985-.729-1.117-2.332-1.113-3.956L43.713,9.981c.011-4.436.99-6.988,2.994-7.8a3.746,3.746,0,0,1,1.427-.27,5.878,5.878,0,0,1,1.56.239c-2.369,2.993-2.662,7.2-2.744,11.3C46.612,30.244,46.594,48.714,46.579,66.575ZM80.318,25.081c-.129,1.174-.252,2.282-.273,3.218l-1.616,71.845c-.045,2.022-.1,4.54-1.293,6.349-1.263,1.917-3.568,2.884-6.229,3.863l-22.022,8.1a13.409,13.409,0,0,1-1.71.526c.323-16.606.341-34.8.357-52.407.017-17.857.033-36.322.37-53.111.081-4.053.371-8.22,2.764-10.994.373.141.749.3,1.127.462l.657.286,23.226,10.1a11.315,11.315,0,0,1,3.577,2.1C81.173,17.341,80.7,21.632,80.318,25.081Zm0,0" transform="translate(0 0)"/>
    <path id="Trazado_686531" data-name="Trazado 686531" d="M254.794,102.118l-1.826-.187a.72.72,0,0,1-.654-.785l.444-4.712a2.63,2.63,0,0,0-2.046-2.81l-3.749-.832a2.627,2.627,0,0,0-3.194,2.482l-.128,4.086a.72.72,0,0,1-.778.7l-2.707-.214a2.626,2.626,0,0,0-2.831,2.727l.187,4.535A2.617,2.617,0,0,0,240,109.616l3.181.168a.723.723,0,0,1,.681.743l-.13,3.963a2.628,2.628,0,0,0,2.625,2.713,2.519,2.519,0,0,0,.276-.015l2.951-.311a2.627,2.627,0,0,0,2.35-2.577l.038-2.858a.72.72,0,0,1,.83-.7.88.88,0,0,0,.108.01l1.345.054a2.446,2.446,0,0,0,2.53-2.31l.194-3.829A2.435,2.435,0,0,0,254.794,102.118Zm.087,6.28a.533.533,0,0,1-.55.5l-1.3-.053a2.627,2.627,0,0,0-2.969,2.57l-.037,2.858a.721.721,0,0,1-.645.706l-2.951.312a.721.721,0,0,1-.8-.741l.13-3.964a2.642,2.642,0,0,0-2.487-2.709l-3.18-.167a.718.718,0,0,1-.682-.69l-.188-4.535a.721.721,0,0,1,.717-.75l.061,0,2.707.214a2.625,2.625,0,0,0,2.832-2.536l.128-4.086a.72.72,0,0,1,.876-.681l3.749.831a.722.722,0,0,1,.561.771l-.444,4.712a2.626,2.626,0,0,0,2.37,2.862l1.812.186a.53.53,0,0,1,.476.554Zm0,0" transform="translate(-181.22 -70.807)"/>
    <path id="Trazado_686532" data-name="Trazado 686532" d="M47.853,268.806a4.027,4.027,0,0,0,2.358.735,4.2,4.2,0,0,0,2.43-.758,4.544,4.544,0,0,0,1.763-4.456,4.036,4.036,0,0,0-1.754-2.713,4.248,4.248,0,0,0-3.358-.5,4.067,4.067,0,0,0-2.823,2.611A4.433,4.433,0,0,0,47.853,268.806Zm-.5-4.736a3.143,3.143,0,0,1,2.162-2.03,3.306,3.306,0,0,1,2.612.373,3.093,3.093,0,0,1,1.333,2.085,3.619,3.619,0,0,1-1.378,3.507,3.232,3.232,0,0,1-3.675.028A3.454,3.454,0,0,1,47.357,264.071Zm0,0" transform="translate(-35.26 -199.28)"/>
    <path id="Trazado_686533" data-name="Trazado 686533" d="M214.959,206.827a3.376,3.376,0,0,0-3.709,2.523c-1.351,3.735-.95,8.628-.629,12.559l.055.678a8.182,8.182,0,0,0,.683,3.044,3.633,3.633,0,0,0,2.912,2.121c.063,0,.126.006.188.006a3.638,3.638,0,0,0,2.708-1.348,7.256,7.256,0,0,0,1.265-2.468,22.885,22.885,0,0,0,.432-12.808C218.18,208.489,216.866,207.04,214.959,206.827Zm-1.892,17.957a6.529,6.529,0,0,1-.491-2.35l-.055-.682c-.307-3.746-.688-8.409.522-11.756a2.605,2.605,0,0,1,.475-.858,31.2,31.2,0,0,1,.08,16.33s0,.006,0,.009A2.256,2.256,0,0,1,213.067,224.784Zm3.557-1.444a5.473,5.473,0,0,1-.907,1.834,1.74,1.74,0,0,1-1.26.675.469.469,0,0,0,.061-.135,32.163,32.163,0,0,0-.131-17c.035,0,.071,0,.107,0a2.3,2.3,0,0,1,.253.016c.674.075,1.643.456,2.273,2.889A20.957,20.957,0,0,1,216.624,223.34Zm0,0" transform="translate(-160.589 -157.913)"/>
  </g>
</svg>
