<svg id="layer2" xmlns="http://www.w3.org/2000/svg" width="120.572" height="120.572" viewBox="0 0 120.572 120.572">
  <path id="path3405" d="M15.081,6.086l2.272-3.935a3.768,3.768,0,0,1,6.526,3.767L21.607,9.854" transform="translate(92.3 1.619)" fill="#e4eff8"/>
  <path id="path3421" d="M17.351,2.153l-2.27,3.933L21.6,9.854,22.6,8.132,19.055,6.086l2.274-3.933a3.743,3.743,0,0,1,1.277-1.3C22.568.827,22.538.8,22.5.774a3.756,3.756,0,0,0-5.148,1.38Z" transform="translate(92.3 1.618)" fill="#c4dcf0"/>
  <path id="path3390" d="M13.493,26.415a11.3,11.3,0,0,0,22.607,0V13.229H13.493" transform="translate(82.585 80.968)" fill="#549ad4"/>
  <path id="path3394" d="M30.909,13.229v9.419a11.3,11.3,0,0,1-17.183,9.647,11.3,11.3,0,0,0,20.951-5.879V13.229Z" transform="translate(84.008 80.968)" fill="#3588cb"/>
  <path id="path3362" d="M105.75,112.118H11.568a11.278,11.278,0,0,1-11.3-11.3V1.073H94.459V102.7c0,3.767,3.768,9.419,11.29,9.419Z" transform="translate(1.619 6.567)" fill="#e4eff8"/>
  <path id="path3411" d="M45.539,1.557,48.8,3.44a3.759,3.759,0,0,1,1.379,5.146L20.98,59.158,10.434,66.121l.757-12.614,29.2-50.572a3.76,3.76,0,0,1,5.147-1.379Z" transform="translate(63.862 6.418)" fill="#ffca28"/>
  <path id="path3415" d="M40.392,2.934l-29.2,50.573-.758,12.612L14.408,63.5l.552-9.213L44.16,3.71A3.747,3.747,0,0,1,46.313,2l-.773-.445a3.758,3.758,0,0,0-5.148,1.376Z" transform="translate(63.862 6.418)" fill="#ecb200"/>
  <path id="path3366" d="M.265,1.073v99.741a11.278,11.278,0,0,0,11.3,11.3h94.18a11.477,11.477,0,0,1-8.853-3.767H15.336a11.278,11.278,0,0,1-11.3-11.3V1.073Z" transform="translate(1.619 6.568)" fill="#c4dcf0"/>
  <path id="rect3369" d="M6.149,11.642h7.536a3.759,3.759,0,0,1,3.768,3.767v7.535a3.759,3.759,0,0,1-3.768,3.767H6.149a3.759,3.759,0,0,1-3.768-3.767V15.409a3.759,3.759,0,0,1,3.768-3.767Z" transform="translate(14.574 71.253)" fill="#549ad4"/>
  <path id="rect3371" d="M6.149,7.938h7.536a3.759,3.759,0,0,1,3.768,3.767V19.24a3.759,3.759,0,0,1-3.768,3.767H6.149A3.759,3.759,0,0,1,2.381,19.24V11.705A3.759,3.759,0,0,1,6.149,7.938Z" transform="translate(14.574 48.584)" fill="#549ad4"/>
  <path id="rect3381" d="M6.149,11.642a3.759,3.759,0,0,0-3.768,3.767v7.535a3.759,3.759,0,0,0,3.768,3.767h7.536a3.759,3.759,0,0,0,3.768-3.767H9.917a3.759,3.759,0,0,1-3.768-3.767Z" transform="translate(14.574 71.253)" fill="#3588cb"/>
  <path id="rect3383" d="M6.149,7.938a3.759,3.759,0,0,0-3.768,3.767V19.24a3.759,3.759,0,0,0,3.768,3.767h7.536a3.759,3.759,0,0,0,3.768-3.767H9.917a3.759,3.759,0,0,1-3.768-3.767Z" transform="translate(14.574 48.584)" fill="#3588cb"/>
  <path id="rect3373" d="M6.149,4.234h7.536A3.759,3.759,0,0,1,17.452,8v7.535A3.759,3.759,0,0,1,13.684,19.3H6.149a3.759,3.759,0,0,1-3.768-3.767V8A3.759,3.759,0,0,1,6.149,4.234Z" transform="translate(14.574 25.916)" fill="#549ad4"/>
  <path id="rect3385" d="M6.149,4.234A3.759,3.759,0,0,0,2.381,8v7.535A3.759,3.759,0,0,0,6.149,19.3h7.536a3.759,3.759,0,0,0,3.768-3.767H9.917a3.759,3.759,0,0,1-3.768-3.767Z" transform="translate(14.574 25.916)" fill="#3588cb"/>
  <path id="path3344" d="M15.071.026a1.808,1.808,0,0,0-1.884,1.88V5.662H1.877A1.884,1.884,0,0,0,0,7.553V107.39a13.17,13.17,0,0,0,13.184,13.182h94.2a13.171,13.171,0,0,0,13.191-13.182v-13.2a1.884,1.884,0,0,0-1.895-1.876H97.958V46.625l14.891-25.787,3.264,1.887-9.419,16.31a1.886,1.886,0,0,0,3.267,1.884l10.358-17.936a1.884,1.884,0,0,0-.7-2.572l-4.894-2.829.946-1.637a5.582,5.582,0,0,0,.475-4.588l1.667-2.877a5.656,5.656,0,1,0-9.806-5.64L106.365,5.7a5.683,5.683,0,0,0-3.748,2.713l-4.658,8.072V7.553a1.884,1.884,0,0,0-1.877-1.891H82.895V1.906a1.888,1.888,0,0,0-3.775,0V5.662H69.7V1.906a1.886,1.886,0,0,0-3.771,0V5.662H56.517V1.906a1.886,1.886,0,0,0-3.771,0V5.662H43.333V1.906a1.888,1.888,0,0,0-3.775,0V5.662H30.142V1.906a1.886,1.886,0,0,0-3.771,0V5.662H16.959V1.906A1.811,1.811,0,0,0,15.071.025Zm98.534,8.206L110.34,6.345l.942-1.635A1.888,1.888,0,0,1,114.549,6.6ZM108.46,9.606l3.238,1.869a1.869,1.869,0,0,1,.71,2.594l-.938,1.63-6.524-3.771.938-1.626A1.865,1.865,0,0,1,108.46,9.606ZM3.768,9.43h9.419V13.2a1.886,1.886,0,0,0,3.771,0V9.43h9.412V13.2a1.886,1.886,0,0,0,3.771,0V9.43h9.416V13.2a1.888,1.888,0,0,0,3.775,0V9.43h9.412V13.2a1.886,1.886,0,0,0,3.771,0V9.43h9.416V13.2a1.886,1.886,0,0,0,3.771,0V9.43H79.12V13.2a1.888,1.888,0,0,0,3.775,0V9.43h11.3v13.58L73.428,58.984a1.884,1.884,0,0,0-.25.835l-.74,12.163-.717,1.244a1.887,1.887,0,0,0,3.267,1.887l.721-1.247,10.177-6.718a1.883,1.883,0,0,0,.585-.629l7.72-13.37q-.02,27.142,0,54.241a13.171,13.171,0,0,0,3.948,9.411H13.184a9.387,9.387,0,0,1-9.416-9.411Zm99.291,5.765,6.527,3.764C105.5,26.031,100.979,33.87,96.4,41.8l-6.527-3.771ZM20.716,28.267a5.63,5.63,0,0,0-5.644,5.644v7.539a5.652,5.652,0,0,0,5.644,5.659h7.55a5.648,5.648,0,0,0,5.644-5.659V33.91a5.645,5.645,0,0,0-5.644-5.644Zm0,3.767h7.55a1.872,1.872,0,0,1,1.877,1.876v7.539a1.876,1.876,0,0,1-1.877,1.891h-7.55a1.876,1.876,0,0,1-1.877-1.891V33.91a1.863,1.863,0,0,1,1.877-1.876Zm22.614,0a1.886,1.886,0,1,0,0,3.771H56.518a1.886,1.886,0,0,0,0-3.771Zm0,7.531a1.887,1.887,0,0,0,0,3.775H71.743a1.887,1.887,0,0,0,0-3.775Zm44.661,1.722,6.531,3.767c-3.83,6.635-7.74,13.409-11.083,19.2L76.4,68.9l.5-8.414ZM20.716,54.646a5.635,5.635,0,0,0-5.644,5.644v7.539a5.64,5.64,0,0,0,5.644,5.644h7.55a5.64,5.64,0,0,0,5.644-5.644V60.29a5.63,5.63,0,0,0-5.644-5.644Zm0,3.753h7.55a1.885,1.885,0,0,1,1.877,1.891v7.539A1.859,1.859,0,0,1,28.267,69.7h-7.55a1.868,1.868,0,0,1-1.877-1.876V60.29A1.885,1.885,0,0,1,20.716,58.4Zm22.614.007a1.886,1.886,0,1,0,0,3.771H56.518a1.886,1.886,0,0,0,0-3.771Zm0,7.531a1.887,1.887,0,0,0,0,3.775H62.169a1.887,1.887,0,0,0,0-3.775ZM20.716,81.011a5.64,5.64,0,0,0-5.644,5.644v7.539a5.648,5.648,0,0,0,5.644,5.659h7.55a5.648,5.648,0,0,0,5.644-5.659V86.654a5.645,5.645,0,0,0-5.644-5.644ZM43.33,84.774a1.886,1.886,0,1,0,0,3.771H56.518a1.886,1.886,0,0,0,0-3.771Zm-22.614,0h7.55a1.868,1.868,0,0,1,1.877,1.876v7.539a1.88,1.88,0,0,1-1.877,1.891h-7.55a1.875,1.875,0,0,1-1.877-1.891V86.654a1.878,1.878,0,0,1,1.877-1.876ZM43.33,92.306a1.886,1.886,0,1,0,0,3.771H75.356a1.886,1.886,0,0,0,0-3.771Zm54.629,3.778H116.8V107.39a9.421,9.421,0,0,1-18.843,0Z" transform="translate(0 0)"/>
</svg>
