<svg xmlns="http://www.w3.org/2000/svg" width="121.768" height="122.175" viewBox="0 0 121.768 122.175">
  <g id="Layer_35" transform="translate(-5.2 -4.9)">
    <g id="Grupo_948195" data-name="Grupo 948195" transform="translate(5.2 4.9)">
      <g id="Grupo_948188" data-name="Grupo 948188" transform="translate(2.172 28.1)">
        <path id="Trazado_686573" data-name="Trazado 686573" d="M92.323,45.963H6.8V30.487A4.867,4.867,0,0,1,11.687,25.6H119.066a4.867,4.867,0,0,1,4.887,4.887V45.963H92.323Z" transform="translate(-6.8 -25.6)" fill="#45cdb4" fill-rule="evenodd"/>
      </g>
      <g id="Grupo_948189" data-name="Grupo 948189" transform="translate(87.559 48.463)">
        <path id="Trazado_686574" data-name="Trazado 686574" d="M86.533,48.609A3.013,3.013,0,0,1,83.547,51.6H72.687A3.013,3.013,0,0,1,69.7,48.609V40.6H86.4v8.009Z" transform="translate(-69.7 -40.6)" fill="#77dbc7" fill-rule="evenodd"/>
      </g>
      <g id="Grupo_948190" data-name="Grupo 948190" transform="translate(17.105 48.463)">
        <path id="Trazado_686575" data-name="Trazado 686575" d="M34.633,48.609A3.013,3.013,0,0,1,31.647,51.6H20.787A3.013,3.013,0,0,1,17.8,48.609V40.6H34.5v8.009Z" transform="translate(-17.8 -40.6)" fill="#77dbc7" fill-rule="evenodd"/>
      </g>
      <g id="Grupo_948191" data-name="Grupo 948191" transform="translate(41.947 60.545)">
        <path id="Trazado_686576" data-name="Trazado 686576" d="M73.839,61.31V75.293H62.028V87.1H47.91V75.293H36.1V61.31H47.91V49.5H62.028V61.31Z" transform="translate(-36.1 -49.5)" fill="#dc3f4d" fill-rule="evenodd"/>
      </g>
      <g id="Grupo_948192" data-name="Grupo 948192" transform="translate(2.172 48.463)">
        <path id="Trazado_686577" data-name="Trazado 686577" d="M46.575,64.492V78.474h11.81v11.81H72.5V78.474h11.81V64.492H72.5V52.682H58.385v11.81ZM124.088,40.6v66.789a4.867,4.867,0,0,1-4.887,4.887H105.491a4.867,4.867,0,0,1-4.887-4.887v-5.023H30.149v5.023a4.867,4.867,0,0,1-4.887,4.887H11.687A4.867,4.867,0,0,1,6.8,107.389V40.6H21.868v8.009A3.013,3.013,0,0,0,24.855,51.6h10.86A3.013,3.013,0,0,0,38.7,48.609V40.6H92.323v8.009A3.013,3.013,0,0,0,95.309,51.6h10.86a3.013,3.013,0,0,0,2.987-2.987V40.6Z" transform="translate(-6.8 -40.6)" fill="#e2e5e8" fill-rule="evenodd"/>
      </g>
      <g id="Grupo_948193" data-name="Grupo 948193" transform="translate(25.928 2.444)">
        <path id="Trazado_686578" data-name="Trazado 686578" d="M82.808,17.832H35.567v14.39H24.3V16.746A10.139,10.139,0,0,1,34.481,6.7H84.3A10.139,10.139,0,0,1,94.483,16.746V32.357H83.216V17.832Z" transform="translate(-24.3 -6.7)" fill="#cdd1d5" fill-rule="evenodd"/>
      </g>
      <g id="Grupo_948194" data-name="Grupo 948194">
        <path id="Trazado_686579" data-name="Trazado 686579" d="M119.773,30.693H103.212V17.253A12.4,12.4,0,0,0,90.859,4.9H41.174A12.4,12.4,0,0,0,28.821,17.253V30.693H12.259A7.011,7.011,0,0,0,5.2,37.752v82.265a7.011,7.011,0,0,0,7.059,7.059H25.97a7.011,7.011,0,0,0,7.059-7.059V117.3h66.11v2.715a7.011,7.011,0,0,0,7.059,7.059h13.711a7.011,7.011,0,0,0,7.059-7.059V37.887a7.333,7.333,0,0,0-7.195-7.195Zm-86.609-13.3a7.879,7.879,0,0,1,7.874-7.874h49.82a7.879,7.879,0,0,1,7.874,7.874V30.828H91.809V18.611a2.144,2.144,0,0,0-2.172-2.172H42.4a2.144,2.144,0,0,0-2.172,2.172V30.828H33.3V17.389Zm11.4,13.3V20.647h42.9V30.693Zm-32.309,4.48H119.773a2.723,2.723,0,0,1,2.715,2.715v13.3H9.544v-13.3a2.723,2.723,0,0,1,2.715-2.715ZM95.067,55.535H107.42v5.837a.76.76,0,0,1-.814.679H95.746a.88.88,0,0,1-.815-.679V55.535Zm-70.455,0H36.966v5.837a.76.76,0,0,1-.815.679H25.291a.88.88,0,0,1-.815-.679V55.535Zm95.161,67.2H106.063a2.723,2.723,0,0,1-2.715-2.715v-5.023a2.144,2.144,0,0,0-2.172-2.172H30.721a2.144,2.144,0,0,0-2.172,2.172v5.023a2.723,2.723,0,0,1-2.715,2.715H12.259a2.723,2.723,0,0,1-2.715-2.715V55.535H20.133v5.837a5.156,5.156,0,0,0,5.159,5.159h10.86a5.156,5.156,0,0,0,5.159-5.159V55.535H90.587v5.837a5.156,5.156,0,0,0,5.159,5.159h10.86a5.156,5.156,0,0,0,5.159-5.159V55.535h10.589v64.617a2.422,2.422,0,0,1-2.579,2.579Z" transform="translate(-5.2 -4.9)"/>
        <path id="Trazado_686580" data-name="Trazado 686580" d="M74.411,59.71H64.772V50.072A2.144,2.144,0,0,0,62.6,47.9H48.482a2.144,2.144,0,0,0-2.172,2.172V59.71H36.672A2.144,2.144,0,0,0,34.5,61.882V75.865a2.144,2.144,0,0,0,2.172,2.172H46.31v9.638a2.144,2.144,0,0,0,2.172,2.172H62.6a2.144,2.144,0,0,0,2.172-2.172V78.037h9.638a2.144,2.144,0,0,0,2.172-2.172V61.882a2.144,2.144,0,0,0-2.172-2.172ZM72.239,73.693H62.6a2.144,2.144,0,0,0-2.172,2.172V85.5H50.79V75.865a2.144,2.144,0,0,0-2.172-2.172H38.98V64.054h9.638a2.144,2.144,0,0,0,2.172-2.172V52.244h9.638v9.638A2.144,2.144,0,0,0,62.6,64.054h9.638Z" transform="translate(5.275 10.473)"/>
      </g>
    </g>
  </g>
</svg>
