<svg xmlns="http://www.w3.org/2000/svg" width="119.387" height="118.936" viewBox="0 0 119.387 118.936">
  <g id="pasos" transform="translate(0 -0.967)">
    <g id="Grupo_946566" data-name="Grupo 946566" transform="translate(50.147 49.732)">
      <path id="Trazado_682588" data-name="Trazado 682588" d="M236.462,220.8a10.7,10.7,0,1,0-10.7,10.7A10.7,10.7,0,0,0,236.462,220.8Z" transform="translate(-215.058 -210.102)" fill="#f9f7f8" fill-rule="evenodd"/>
    </g>
    <g id="Grupo_946567" data-name="Grupo 946567" transform="translate(37.907 37.493)">
      <path id="Trazado_682589" data-name="Trazado 682589" d="M185.514,169.851a10.7,10.7,0,1,1-10.705,10.7A10.7,10.7,0,0,1,185.514,169.851Zm10.007-6.189a19.545,19.545,0,0,0-5.142-2.133v-2.1a1.826,1.826,0,0,0-1.824-1.817h-6.09a1.821,1.821,0,0,0-1.817,1.817v2.1a19.457,19.457,0,0,0-5.142,2.133l-1.488-1.481a1.82,1.82,0,0,0-2.574,0l-4.306,4.3a1.82,1.82,0,0,0,0,2.574l1.488,1.488a19.539,19.539,0,0,0-2.133,5.142h-2.1a1.832,1.832,0,0,0-1.824,1.824v6.084a1.828,1.828,0,0,0,1.824,1.824h2.1a19.458,19.458,0,0,0,2.133,5.142l-1.488,1.488a1.82,1.82,0,0,0,0,2.574l4.306,4.306a1.832,1.832,0,0,0,2.574,0l1.488-1.488a19.447,19.447,0,0,0,5.142,2.133v2.1a1.826,1.826,0,0,0,1.817,1.824h6.09a1.832,1.832,0,0,0,1.824-1.824v-2.1a19.556,19.556,0,0,0,5.142-2.133L197,198.925a1.84,1.84,0,0,0,2.581,0l4.3-4.306a1.82,1.82,0,0,0,0-2.574l-1.481-1.488a19.677,19.677,0,0,0,2.133-5.142h2.094a1.824,1.824,0,0,0,1.824-1.824v-6.084a1.828,1.828,0,0,0-1.824-1.824h-2.094a19.548,19.548,0,0,0-2.133-5.142l1.481-1.488a1.82,1.82,0,0,0,0-2.574l-4.3-4.3a1.828,1.828,0,0,0-2.581,0Z" transform="translate(-162.569 -157.611)" fill="#beb9dd" fill-rule="evenodd"/>
    </g>
    <g id="Grupo_946568" data-name="Grupo 946568" transform="translate(57.988 37.493)">
      <path id="Trazado_682590" data-name="Trazado 682590" d="M254.593,157.611h-5.234a44.531,44.531,0,0,1,3.457,12.312,10.7,10.7,0,0,1-.211,21.28,40.365,40.365,0,0,1-3.917,12.292h5.906a1.832,1.832,0,0,0,1.824-1.824v-2.1a19.555,19.555,0,0,0,5.142-2.133l1.481,1.488a1.84,1.84,0,0,0,2.581,0l4.3-4.306a1.82,1.82,0,0,0,0-2.574l-1.481-1.488a19.678,19.678,0,0,0,2.133-5.142h2.094a1.824,1.824,0,0,0,1.824-1.824v-6.084a1.828,1.828,0,0,0-1.824-1.824h-2.094a19.548,19.548,0,0,0-2.133-5.142l1.481-1.488a1.82,1.82,0,0,0,0-2.574l-4.3-4.3a1.828,1.828,0,0,0-2.581,0l-1.481,1.481a19.545,19.545,0,0,0-5.142-2.133v-2.1A1.827,1.827,0,0,0,254.593,157.611Z" transform="translate(-248.687 -157.611)" fill="#a7a2d3" fill-rule="evenodd"/>
    </g>
    <g id="Grupo_946569" data-name="Grupo 946569" transform="translate(61.906 49.805)">
      <path id="Trazado_682591" data-name="Trazado 682591" d="M275.132,221.04a10.709,10.709,0,0,0-9.435-10.627,70.038,70.038,0,0,1-.211,21.28A10.708,10.708,0,0,0,275.132,221.04Z" transform="translate(-265.487 -210.413)" fill="#dddaec" fill-rule="evenodd"/>
    </g>
    <g id="Grupo_946570" data-name="Grupo 946570" transform="translate(2.236 2.716)">
      <path id="Trazado_682592" data-name="Trazado 682592" d="M38.493,30.478a15.247,15.247,0,1,0-13.655,8.474,15.153,15.153,0,0,0,13.655-8.474Z" transform="translate(-9.59 -8.467)" fill="#ffd772" fill-rule="evenodd"/>
    </g>
    <g id="Grupo_946571" data-name="Grupo 946571" transform="translate(31.139 6.77)">
      <path id="Trazado_682593" data-name="Trazado 682593" d="M135.13,37.042a15.15,15.15,0,0,1-1.587,6.768h29.608v2a2.221,2.221,0,0,0,3.49,2.021l12.081-8.869a2.087,2.087,0,0,0,0-3.832L166.64,26.257a2.218,2.218,0,0,0-3.49,2.015v2H133.543A15.177,15.177,0,0,1,135.13,37.042Z" transform="translate(-133.543 -25.854)" fill="#f9f7f8" fill-rule="evenodd"/>
    </g>
    <g id="Grupo_946572" data-name="Grupo 946572" transform="translate(87.016 2.716)">
      <path id="Trazado_682594" data-name="Trazado 682594" d="M373.177,23.709A15.245,15.245,0,1,0,388.425,8.467,15.246,15.246,0,0,0,373.177,23.709Z" transform="translate(-373.177 -8.467)" fill="#75cef8" fill-rule="evenodd"/>
    </g>
    <g id="Grupo_946573" data-name="Grupo 946573" transform="translate(91.074 31.62)">
      <path id="Trazado_682595" data-name="Trazado 682595" d="M394.993,132.424v29.6H393a2.217,2.217,0,0,0-2.015,3.49l8.868,12.082a2.082,2.082,0,0,0,3.825,0l8.868-12.082a2.217,2.217,0,0,0-2.015-3.49h-1.995v-29.6a15.3,15.3,0,0,1-13.543,0Z" transform="translate(-390.577 -132.424)" fill="#f9f7f8" fill-rule="evenodd"/>
    </g>
    <g id="Grupo_946574" data-name="Grupo 946574" transform="translate(87.148 87.663)">
      <path id="Trazado_682596" data-name="Trazado 682596" d="M388.984,372.771a15.245,15.245,0,1,0,15.242,15.249A15.228,15.228,0,0,0,388.984,372.771Z" transform="translate(-373.742 -372.771)" fill="#eb5468" fill-rule="evenodd"/>
    </g>
    <g id="Grupo_946575" data-name="Grupo 946575" transform="translate(42.297 91.721)">
      <path id="Trazado_682597" data-name="Trazado 682597" d="M227.832,394.587H198.225v-2a2.216,2.216,0,0,0-3.489-2.015l-12.081,8.869a2.082,2.082,0,0,0,0,3.825l12.081,8.869a2.216,2.216,0,0,0,3.489-2.015v-2h29.608a15.243,15.243,0,0,1,0-13.543Z" transform="translate(-181.395 -390.171)" fill="#f9f7f8" fill-rule="evenodd"/>
    </g>
    <g id="Grupo_946576" data-name="Grupo 946576" transform="translate(1.749 87.663)">
      <path id="Trazado_682598" data-name="Trazado 682598" d="M37.983,388.02a15.244,15.244,0,1,0-15.242,15.242A15.238,15.238,0,0,0,37.983,388.02Z" transform="translate(-7.5 -372.771)" fill="#a7e9a6" fill-rule="evenodd"/>
    </g>
    <g id="Grupo_946577" data-name="Grupo 946577" transform="translate(5.803 42.813)">
      <path id="Trazado_682599" data-name="Trazado 682599" d="M42.841,226.864v-29.6h2a2.223,2.223,0,0,0,2.015-3.5l-8.868-12.075a2.084,2.084,0,0,0-3.832,0l-8.868,12.075a2.223,2.223,0,0,0,2.015,3.5H29.3v29.6a15.242,15.242,0,0,1,13.543,0Z" transform="translate(-24.885 -180.427)" fill="#f9f7f8" fill-rule="evenodd"/>
    </g>
    <g id="Grupo_946578" data-name="Grupo 946578" transform="translate(11.427 2.716)">
      <path id="Trazado_682600" data-name="Trazado 682600" d="M55.063,38.951A15.242,15.242,0,1,0,51.574,8.869,15.245,15.245,0,0,1,49.006,37.7a15.217,15.217,0,0,0,6.057,1.251Z" transform="translate(-49.006 -8.467)" fill="#fbba58" fill-rule="evenodd"/>
    </g>
    <g id="Grupo_946579" data-name="Grupo 946579" transform="translate(10.933 87.663)">
      <path id="Trazado_682601" data-name="Trazado 682601" d="M68.188,388.02a15.254,15.254,0,0,0-18.731-14.847c.244.105.481.217.718.336a15.247,15.247,0,0,1-3.285,28.5,15.25,15.25,0,0,0,21.3-13.991Z" transform="translate(-46.889 -372.771)" fill="#7fdbae" fill-rule="evenodd"/>
    </g>
    <g id="Grupo_946580" data-name="Grupo 946580" transform="translate(96.339 87.663)">
      <path id="Trazado_682602" data-name="Trazado 682602" d="M424.911,387.164a15.253,15.253,0,0,1-11.752,14.847,15.244,15.244,0,1,0,2.568-28.838A15.249,15.249,0,0,1,424.911,387.164Z" transform="translate(-413.159 -372.771)" fill="#e5384f" fill-rule="evenodd"/>
    </g>
    <g id="Grupo_946581" data-name="Grupo 946581" transform="translate(96.207 2.716)">
      <path id="Trazado_682603" data-name="Trazado 682603" d="M425.419,37.371a15.248,15.248,0,0,0-10.258-28.5A15.239,15.239,0,0,1,412.594,37.7a15.287,15.287,0,0,0,12.825-.329Z" transform="translate(-412.594 -8.467)" fill="#60b7ff" fill-rule="evenodd"/>
    </g>
    <g id="Grupo_946582" data-name="Grupo 946582" transform="translate(14.495 42.813)">
      <path id="Trazado_682604" data-name="Trazado 682604" d="M65.127,205.466v19.818a15.2,15.2,0,0,1,6.3,1.58v-29.6h2a2.223,2.223,0,0,0,2.015-3.5l-8.868-12.075a2.084,2.084,0,0,0-3.832,0l-.579.79,6.972,9.507a2.218,2.218,0,0,1-2.015,3.49C64.067,195.478,65.127,202,65.127,205.466Z" transform="translate(-62.164 -180.427)" fill="#dddaec" fill-rule="evenodd"/>
    </g>
    <g id="Grupo_946583" data-name="Grupo 946583" transform="translate(75.883 96.137)">
      <path id="Trazado_682605" data-name="Trazado 682605" d="M328.809,410.8a22.418,22.418,0,0,1-3.378,11.858h12.852a15.243,15.243,0,0,1,0-13.543h-9.533C328.789,409.663,328.809,410.229,328.809,410.8Z" transform="translate(-325.431 -409.11)" fill="#dddaec" fill-rule="evenodd"/>
    </g>
    <g id="Grupo_946584" data-name="Grupo 946584" transform="translate(98.966 31.62)">
      <path id="Trazado_682606" data-name="Trazado 682606" d="M427.9,134.006v23.156c0,2.594-.5,4.866,1.995,4.866a2.219,2.219,0,0,1,2.015,3.489l-7.486,10.2,1.382,1.883a2.082,2.082,0,0,0,3.825,0l8.868-12.082a2.217,2.217,0,0,0-2.015-3.49h-1.995v-29.6a15.169,15.169,0,0,1-6.59,1.58Z" transform="translate(-424.424 -132.426)" fill="#dddaec" fill-rule="evenodd"/>
    </g>
    <g id="Grupo_946585" data-name="Grupo 946585" transform="translate(51.608 6.77)">
      <path id="Trazado_682607" data-name="Trazado 682607" d="M230.465,30.267h-8.658a35.085,35.085,0,0,1,.448,5.61,33.441,33.441,0,0,1-.928,7.934h9.138v2a2.221,2.221,0,0,0,3.489,2.021l12.081-8.869a2.087,2.087,0,0,0,0-3.832l-12.081-8.869a2.218,2.218,0,0,0-3.489,2.015Z" transform="translate(-221.327 -25.854)" fill="#dddaec" fill-rule="evenodd"/>
    </g>
    <g id="Grupo_946586" data-name="Grupo 946586" transform="translate(0 0.967)">
      <path id="Trazado_682608" data-name="Trazado 682608" d="M159.1,187.592a3.526,3.526,0,0,0,1.046,2.513l4.306,4.306a3.582,3.582,0,0,0,5.048,0l.558-.558a21.16,21.16,0,0,0,3.086,1.28v.787a3.573,3.573,0,0,0,3.566,3.573h6.09a3.577,3.577,0,0,0,3.572-3.573v-.788a21.309,21.309,0,0,0,3.083-1.279l.561.564a3.6,3.6,0,0,0,5.049-.007l4.292-4.3a3.569,3.569,0,0,0,.009-5.051l-.558-.56a21.379,21.379,0,0,0,1.282-3.088h.781a3.577,3.577,0,0,0,3.573-3.573v-6.084a3.577,3.577,0,0,0-3.573-3.573H200.1a21.272,21.272,0,0,0-1.282-3.088l.548-.551a3.569,3.569,0,0,0,.006-5.053l-4.3-4.3a3.577,3.577,0,0,0-5.054,0l-.553.553a21.318,21.318,0,0,0-3.085-1.28v-.788a3.573,3.573,0,0,0-3.573-3.566h-6.09a3.57,3.57,0,0,0-3.566,3.566v.787a21.165,21.165,0,0,0-3.089,1.281l-.555-.553a3.547,3.547,0,0,0-2.526-1.046h-.009a3.526,3.526,0,0,0-2.512,1.045l-4.307,4.3a3.569,3.569,0,0,0,0,5.048l.559.559a21.3,21.3,0,0,0-1.28,3.085h-.788a3.577,3.577,0,0,0-3.573,3.573v6.084a3.577,3.577,0,0,0,3.573,3.573h.787a21.163,21.163,0,0,0,1.28,3.087l-.558.558a3.548,3.548,0,0,0-1.045,2.534Zm-.463-9.677a.079.079,0,0,1-.075-.075v-6.084a.085.085,0,0,1,.075-.075h2.1a1.749,1.749,0,0,0,1.695-1.316,17.809,17.809,0,0,1,1.943-4.682,1.749,1.749,0,0,0-.267-2.129l-1.494-1.494a.052.052,0,0,1-.015-.042.069.069,0,0,1,.02-.052l4.313-4.306a.053.053,0,0,1,.042-.015h0a.072.072,0,0,1,.056.024l1.488,1.481a1.748,1.748,0,0,0,2.129.263,17.689,17.689,0,0,1,4.68-1.941,1.749,1.749,0,0,0,1.316-1.695v-2.1a.072.072,0,0,1,.068-.068h6.09a.079.079,0,0,1,.075.068v2.1a1.749,1.749,0,0,0,1.316,1.695,17.808,17.808,0,0,1,4.682,1.943,1.749,1.749,0,0,0,2.129-.267l1.482-1.482a.079.079,0,0,1,.108,0l4.3,4.3a.069.069,0,0,1,.021.053.061.061,0,0,1-.024.051l-1.481,1.488a1.749,1.749,0,0,0-.265,2.126,17.811,17.811,0,0,1,1.943,4.682,1.749,1.749,0,0,0,1.695,1.316h2.094a.079.079,0,0,1,.075.075v6.084a.075.075,0,0,1-.075.075h-2.094a1.749,1.749,0,0,0-1.695,1.316,17.9,17.9,0,0,1-1.944,4.684,1.749,1.749,0,0,0,.266,2.124l1.484,1.491a.069.069,0,0,1,.021.053.059.059,0,0,1-.022.049l-4.293,4.3a.093.093,0,0,1-.111.008l-1.481-1.488a1.749,1.749,0,0,0-2.132-.27,17.807,17.807,0,0,1-4.682,1.943,1.749,1.749,0,0,0-1.316,1.695v2.1a.085.085,0,0,1-.075.075h-6.09a.079.079,0,0,1-.068-.075v-2.1a1.749,1.749,0,0,0-1.316-1.695,17.682,17.682,0,0,1-4.679-1.941,1.749,1.749,0,0,0-2.132.266l-1.482,1.482a.084.084,0,0,1-.107.006l-4.312-4.312a.053.053,0,0,1-.015-.042.069.069,0,0,1,.021-.053l1.488-1.488a1.749,1.749,0,0,0,.266-2.132,17.684,17.684,0,0,1-1.941-4.68,1.749,1.749,0,0,0-1.695-1.316h-2.1Z" transform="translate(-118.91 -115.334)"/>
      <path id="Trazado_682609" data-name="Trazado 682609" d="M220.012,227.5a12.448,12.448,0,1,0-12.454-12.448A12.462,12.462,0,0,0,220.012,227.5Zm0-21.4a8.95,8.95,0,1,1-8.957,8.95A8.96,8.96,0,0,1,220.012,206.1Z" transform="translate(-159.16 -155.585)"/>
      <path id="Trazado_682610" data-name="Trazado 682610" d="M19.086,34.949a17,17,0,0,0,14.692-8.474H60.6v.246c0,.009,0,.018,0,.027a4.147,4.147,0,0,0,2.118,3.695,3.843,3.843,0,0,0,1.814.455,4.143,4.143,0,0,0,2.259-.689c.028-.018.055-.037.083-.057L78.9,21.326a3.992,3.992,0,0,0,2.031-3.368A3.992,3.992,0,0,0,78.9,14.59L66.873,5.764c-.027-.02-.054-.039-.082-.057a3.97,3.97,0,0,0-4.076-.236A4.141,4.141,0,0,0,60.6,9.161c0,.009,0,.018,0,.027v.246H33.775A16.99,16.99,0,1,0,19.086,34.949ZM62.349,12.932A1.749,1.749,0,0,0,64.1,11.183V9.2a.724.724,0,0,1,.262-.646.515.515,0,0,1,.495.062l12.031,8.832q.063.047.131.087c.341.206.414.385.414.419s-.074.213-.414.419q-.067.041-.131.087L64.854,27.3a.512.512,0,0,1-.491.061.728.728,0,0,1-.265-.651V24.726a1.749,1.749,0,0,0-1.749-1.749H35.319a17.015,17.015,0,0,0,0-10.046H62.349ZM19.086,4.465a13.493,13.493,0,1,1-13.5,13.493,13.508,13.508,0,0,1,13.5-13.493Z" transform="translate(-1.602 -0.967)"/>
      <path id="Trazado_682611" data-name="Trazado 682611" d="M374.152,32.649V59.474h-.279a4.152,4.152,0,0,0-3.694,2.13,3.961,3.961,0,0,0,.248,4.065c.017.027.035.052.054.078l8.825,12.023a3.8,3.8,0,0,0,6.732,0l8.825-12.023c.019-.025.037-.052.054-.078a3.961,3.961,0,0,0,.248-4.065,4.152,4.152,0,0,0-3.694-2.13h-.279V50.563a1.749,1.749,0,1,0-3.5,0V61.222a1.749,1.749,0,0,0,1.749,1.749h1.976a.744.744,0,0,1,.654.268.5.5,0,0,1-.065.486l-8.833,12.034c-.032.044-.062.089-.09.135-.2.337-.38.41-.413.41s-.211-.073-.413-.41c-.028-.046-.058-.092-.09-.135l-8.833-12.034a.5.5,0,0,1-.065-.486.743.743,0,0,1,.654-.268H375.9a1.749,1.749,0,0,0,1.749-1.749V34.191a17.018,17.018,0,0,0,10.045,0v8.331a1.749,1.749,0,1,0,3.5,0V32.651a17,17,0,1,0-17.041,0Zm8.524-28.184a13.493,13.493,0,1,1-13.5,13.493,13.508,13.508,0,0,1,13.5-13.493Z" transform="translate(-280.411 -0.968)"/>
      <path id="Trazado_682612" data-name="Trazado 682612" d="M235.736,365.271a17,17,0,0,0-14.69,8.474H194.223V373.5c0-.009,0-.018,0-.027a4.143,4.143,0,0,0-2.121-3.7,3.962,3.962,0,0,0-4.074.244c-.027.017-.052.035-.078.054L175.927,378.9a3.8,3.8,0,0,0,0,6.732l12.022,8.825c.025.019.052.037.078.054a4.143,4.143,0,0,0,2.268.7,3.838,3.838,0,0,0,1.806-.451,4.144,4.144,0,0,0,2.121-3.7c0-.009,0-.018,0-.027v-.246h26.821a16.991,16.991,0,1,0,14.692-25.514Zm-43.263,22.017a1.749,1.749,0,0,0-1.749,1.749v1.979a.737.737,0,0,1-.264.65.51.51,0,0,1-.49-.064l-12.033-8.833c-.044-.032-.089-.062-.135-.09-.337-.2-.41-.38-.41-.413s.073-.211.41-.413c.046-.028.092-.058.135-.09l12.033-8.833a.509.509,0,0,1,.49-.064.735.735,0,0,1,.264.65v1.979a1.749,1.749,0,0,0,1.749,1.749H219.5a17.019,17.019,0,0,0,0,10.046H192.474Zm43.263,8.474a13.5,13.5,0,1,1,13.5-13.493A13.508,13.508,0,0,1,235.736,395.762Z" transform="translate(-133.347 -280.324)"/>
      <path id="Trazado_682613" data-name="Trazado 682613" d="M25.507,220.076V193.259h.285a4.15,4.15,0,0,0,3.687-2.124,3.974,3.974,0,0,0-.238-4.073c-.018-.028-.037-.056-.057-.083l-8.826-12.017a3.989,3.989,0,0,0-3.368-2.036,3.989,3.989,0,0,0-3.368,2.036L4.8,186.979c-.02.027-.039.055-.057.083a3.974,3.974,0,0,0-.238,4.073,4.15,4.15,0,0,0,3.687,2.124h.279v9.529a1.749,1.749,0,0,0,3.5,0V191.51a1.749,1.749,0,0,0-1.749-1.749H8.24a.729.729,0,0,1-.649-.267.517.517,0,0,1,.062-.5l8.831-12.024c.032-.043.062-.088.089-.134.191-.318.373-.417.417-.417s.226.1.417.417c.028.046.057.091.089.134L26.329,189a.518.518,0,0,1,.062.5.729.729,0,0,1-.649.267H23.76a1.749,1.749,0,0,0-1.749,1.749v27.024a17.009,17.009,0,0,0-10.046,0v-7.708a1.749,1.749,0,1,0-3.5,0v9.252a16.99,16.99,0,1,0,17.04,0ZM16.99,248.267a13.5,13.5,0,1,1,13.493-13.493A13.508,13.508,0,0,1,16.99,248.267Z" transform="translate(0 -132.829)"/>
      <path id="Trazado_682614" data-name="Trazado 682614" d="M60.817,42.132h1.01V53.294a1.749,1.749,0,1,0,3.5,0V40.383a1.749,1.749,0,0,0-1.749-1.749H60.817a1.749,1.749,0,0,0,0,3.5Z" transform="translate(-45.295 -29.851)"/>
      <path id="Trazado_682615" data-name="Trazado 682615" d="M417.265,44.229a1.749,1.749,0,0,0,2.051-1.382,1.554,1.554,0,0,1,3.076.211l-.036.274a6.742,6.742,0,0,1-1.08,2.12c-2.031,2.9-3.25,4.494-3.9,5.352-.851,1.115-1.278,1.675-.985,2.627a1.805,1.805,0,0,0,1.172,1.19c.231.077.428.142,2.962.142.991,0,2.341-.01,4.191-.033a1.749,1.749,0,1,0-.044-3.5c-1.091.014-2.242.024-3.26.028.684-.923,1.581-2.157,2.733-3.8a10.018,10.018,0,0,0,1.642-3.418c.012-.053.022-.108.029-.162l.066-.5a1.775,1.775,0,0,0,.015-.228,5.052,5.052,0,0,0-10.01-.973,1.749,1.749,0,0,0,1.382,2.051Z" transform="translate(-318.884 -29.439)"/>
      <path id="Trazado_682616" data-name="Trazado 682616" d="M54.489,410.135c.019-3.247.027-6.57-.016-7.049a2.716,2.716,0,0,0-1.809-2.453,2.623,2.623,0,0,0-2.835,1.02c-.78.966-4.369,7.427-5.45,9.385a1.749,1.749,0,0,0,1.531,2.595h5.058c-.006.8-.012,1.563-.019,2.259a1.749,1.749,0,0,0,1.733,1.764H52.7a1.749,1.749,0,0,0,1.748-1.733c0-.552.012-1.353.019-2.29h0a1.749,1.749,0,0,0,.021-3.5Zm-3.5,0H48.884c.763-1.361,1.5-2.667,2.122-3.735C51,407.5,51,408.792,50.991,410.135Z" transform="translate(-33.863 -307.358)"/>
      <path id="Trazado_682617" data-name="Trazado 682617" d="M422.508,402.316a5.057,5.057,0,0,0-4.956,4.081,1.749,1.749,0,0,0,3.433.669,1.555,1.555,0,1,1,1.523,1.861,1.749,1.749,0,1,0,0,3.5,1.553,1.553,0,1,1-1.538,1.785,1.87,1.87,0,0,1-.012-.235,1.749,1.749,0,0,0-3.5,0,5.248,5.248,0,0,0,.043.7,5.054,5.054,0,0,0,10.058-.7,5.021,5.021,0,0,0-1.234-3.3,5.05,5.05,0,0,0-3.819-8.358Z" transform="translate(-320.119 -308.731)"/>
    </g>
  </g>
</svg>
