<svg xmlns="http://www.w3.org/2000/svg" width="125.603" height="121.037" viewBox="0 0 125.603 121.037">
  <g id="Layer_x0020_1" transform="translate(0 -9)">
    <path id="Trazado_682618" data-name="Trazado 682618" d="M94.156,125.224H14.712a2.109,2.109,0,0,1-1.962-1.962V107.324H1.716A1.9,1.9,0,0,1,0,105.363v-94.4A1.9,1.9,0,0,1,1.716,9H68.9a1.9,1.9,0,0,1,1.716,1.962V21.75h4.659a1.844,1.844,0,0,1,1.716,1.226l18.145,17.9a2.033,2.033,0,0,1,.736,1.962V63.679a26.588,26.588,0,0,1-2.7,31.14l3.433,3.433,1.226-1.471a4.59,4.59,0,0,1,6.375,0l20.106,20.106a4.588,4.588,0,0,1,0,6.375l-5.394,5.394a4.371,4.371,0,0,1-6.375,0L95.872,111.983v11.524A1.842,1.842,0,0,1,94.156,125.224ZM54.924,77.9c-1.716-3.188.49-6.375,1.962-6.62,2.207-1.471,5.149-.49,6.62,1.716l2.452,4.414,18.39-10.544a4.66,4.66,0,0,1,6.62,1.716,5.1,5.1,0,0,1-1.716,6.62L65.468,88.689c-1.471.736-4.9-.981-5.64-2.452ZM87.29,72.016c1.471-.981.245-3.188-1.226-2.207L66.2,81.333a1.7,1.7,0,0,1-2.452-.736l-3.678-5.885a1.162,1.162,0,1,0-1.962,1.226c.736,1.226,4.9,8.827,5.394,9.072,0,0,.736.49,1.226,0ZM65.468,45.044H25.5a1.839,1.839,0,0,1,0-3.678H65.468A1.839,1.839,0,1,1,65.468,45.044ZM42.174,58.775H25.5a1.839,1.839,0,0,1,0-3.678H42.174C44.626,55.1,44.381,58.775,42.174,58.775Zm0,13.731H25.5a1.839,1.839,0,0,1,0-3.678H42.174C44.626,68.828,44.381,72.506,42.174,72.506Zm0,13.486H25.5a1.839,1.839,0,1,1,0-3.678H42.174C44.626,82.314,44.381,85.992,42.174,85.992Zm0,13.486H25.5a1.839,1.839,0,1,1,0-3.678H42.174C44.626,95.8,44.381,99.478,42.174,99.478Zm33.1,13.731H25.5a1.839,1.839,0,0,1,0-3.678H75.276A1.839,1.839,0,1,1,75.276,113.209Zm15.2-15.693C73.8,112.473,46.1,100.7,46.1,77.41a26.481,26.481,0,0,1,7.846-19.125,26.865,26.865,0,0,1,38.251.49V44.063H75.276a1.676,1.676,0,0,1-1.716-1.716V25.428H16.428v79.444c.245.736.245.245,0,.981v15.938H92.194V108.305s-2.452-3.188.245-5.885l1.471-1.471Zm4.659,8.582L115.243,126.2a1.1,1.1,0,0,0,1.226,0l5.394-5.394a1.114,1.114,0,0,0,0-1.226L101.757,99.478C100.531,98.5,94.156,105.118,95.137,106.1ZM89.252,60.982a23.233,23.233,0,1,0,0,32.856A23.234,23.234,0,0,0,89.252,60.982Zm-76.5,42.664V23.712a2.109,2.109,0,0,1,1.962-1.962H66.939V12.678H3.678v90.968ZM77.237,40.631H89.742L77.237,27.88Z" fill-rule="evenodd"/>
    <path id="Trazado_682619" data-name="Trazado 682619" d="M218.617,216.482l18.39-10.544a4.66,4.66,0,0,1,6.62,1.716,5.1,5.1,0,0,1-1.716,6.62l-23.784,13.486c-1.471.736-4.9-.981-5.64-2.452l-4.9-8.337c-1.716-3.188.49-6.375,1.962-6.62,2.207-1.471,5.149-.49,6.62,1.716Zm-9.563,16.428a23.233,23.233,0,1,0,0-32.857A23.234,23.234,0,0,0,209.054,232.911Z" transform="translate(-152.659 -139.072)" fill="#f1f1f1" fill-rule="evenodd"/>
    <path id="Trazado_682620" data-name="Trazado 682620" d="M264.192,256.244l-19.861,11.524a1.7,1.7,0,0,1-2.452-.736l-3.678-5.885a1.162,1.162,0,1,0-1.962,1.226c.736,1.226,4.9,8.827,5.394,9.072,0,0,.736.49,1.226,0l22.558-13C266.889,257.47,265.663,255.263,264.192,256.244Z" transform="translate(-178.128 -186.435)" fill="#7ed63f" fill-rule="evenodd"/>
    <path id="Trazado_682621" data-name="Trazado 682621" d="M315,98.75h12.505L315,86Z" transform="translate(-237.763 -58.12)" fill="#99a4ac" fill-rule="evenodd"/>
    <path id="Trazado_682622" data-name="Trazado 682622" d="M124.131,92.919V76H67v79.444c.245.736.245.245,0,.981v15.938h75.766V158.877s-2.452-3.188.245-5.885l1.471-1.471-3.433-3.433c-16.673,14.957-44.381,3.188-44.381-20.106a26.481,26.481,0,0,1,7.846-19.125,26.865,26.865,0,0,1,38.251.49V94.635H125.847A1.676,1.676,0,0,1,124.131,92.919Zm-48.059-.981H116.04a1.839,1.839,0,1,1,0,3.678H76.072A1.839,1.839,0,0,1,76.072,91.938Zm0,13.731H92.746c2.452,0,2.207,3.678,0,3.678H76.072A1.839,1.839,0,0,1,76.072,105.669Zm0,13.731H92.746c2.452,0,2.207,3.678,0,3.678H76.072A1.839,1.839,0,0,1,76.072,119.4Zm0,13.486H92.746c2.452,0,2.207,3.678,0,3.678H76.072A1.839,1.839,0,0,1,76.072,132.886Zm0,13.486H92.746c2.452,0,2.207,3.678,0,3.678H76.072A1.839,1.839,0,0,1,76.072,146.372Zm0,13.731h49.775a1.839,1.839,0,0,1,0,3.678H76.072A1.839,1.839,0,0,1,76.072,160.1Z" transform="translate(-50.572 -50.572)" fill="#d9f2f2" fill-rule="evenodd"/>
    <path id="Trazado_682623" data-name="Trazado 682623" d="M26.034,33.072H78.261V24H15v90.968h9.072V35.034A2.109,2.109,0,0,1,26.034,33.072Z" transform="translate(-11.322 -11.322)" fill="#99a4ac" fill-rule="evenodd"/>
    <path id="Trazado_682624" data-name="Trazado 682624" d="M394.306,377.7c-1.226-.981-7.6,5.64-6.62,6.62l20.106,20.106a1.1,1.1,0,0,0,1.226,0l5.394-5.394a1.114,1.114,0,0,0,0-1.226Z" transform="translate(-292.549 -278.218)" fill="#ff700d" fill-rule="evenodd"/>
  </g>
</svg>
