<svg xmlns="http://www.w3.org/2000/svg" width="121.946" height="121.946" viewBox="0 0 121.946 121.946">
  <g id="procedimiento" transform="translate(-1 -1)">
    <g id="Grupo_946596" data-name="Grupo 946596" transform="translate(2.967 2.967)">
      <g id="Grupo_946587" data-name="Grupo 946587" transform="translate(53.105 68.84)">
        <circle id="Elipse_5289" data-name="Elipse 5289" cx="6" cy="6" r="6" transform="translate(-0.127 0.192)" fill="#ff826e"/>
      </g>
      <g id="Grupo_946588" data-name="Grupo 946588" transform="translate(80.642 68.84)">
        <ellipse id="Elipse_5290" data-name="Elipse 5290" cx="5.5" cy="6" rx="5.5" ry="6" transform="translate(0.337 0.192)" fill="#ff826e"/>
      </g>
      <g id="Grupo_946589" data-name="Grupo 946589" transform="translate(25.569 68.84)">
        <ellipse id="Elipse_5291" data-name="Elipse 5291" cx="5.5" cy="6" rx="5.5" ry="6" transform="translate(0.41 0.192)" fill="#ff826e"/>
      </g>
      <g id="Grupo_946590" data-name="Grupo 946590" transform="translate(86.542 21.636)">
        <circle id="Elipse_5292" data-name="Elipse 5292" cx="5.5" cy="5.5" r="5.5" transform="translate(0.437 0.397)" fill="#ff826e"/>
      </g>
      <g id="Grupo_946591" data-name="Grupo 946591">
        <path id="Trazado_682625" data-name="Trazado 682625" d="M57.072,23.636v11.8l-5.055,1.278A23.424,23.424,0,0,1,50.5,40.334l2.675,4.5-8.34,8.34-4.5-2.675a23.424,23.424,0,0,1-3.619,1.514l-1.278,5.055h-11.8l-1.278-5.055A23.423,23.423,0,0,1,18.738,50.5l-4.5,2.675-8.34-8.34,2.675-4.5a23.424,23.424,0,0,1-1.514-3.619L2,35.437v-11.8l5.055-1.278a23.424,23.424,0,0,1,1.514-3.619l-2.675-4.5,8.34-8.34,4.5,2.675a23.424,23.424,0,0,1,3.619-1.514L23.636,2h11.8l1.278,5.055a23.424,23.424,0,0,1,3.619,1.514l4.5-2.675,8.34,8.34-2.675,4.5a23.424,23.424,0,0,1,1.514,3.619Zm-11.8,5.9A15.735,15.735,0,1,0,29.536,45.271,15.731,15.731,0,0,0,45.271,29.536Z" transform="translate(-2 -2)" fill="#fcd770"/>
      </g>
      <g id="Grupo_946592" data-name="Grupo 946592" transform="translate(43.271 102.277)">
        <path id="Trazado_682626" data-name="Trazado 682626" d="M35.8,61.867v7.867L25.751,64.719a3.2,3.2,0,0,1,0-5.7L35.8,54Z" transform="translate(-24 -54)" fill="#aab2bd"/>
      </g>
      <g id="Grupo_946593" data-name="Grupo 946593" transform="translate(106.211 102.277)">
        <path id="Trazado_682627" data-name="Trazado 682627" d="M65.5,56.3a7.872,7.872,0,0,1-5.566,13.434H56V54h3.934A7.917,7.917,0,0,1,65.5,56.3Z" transform="translate(-56 -54)" fill="#aab2bd"/>
      </g>
      <g id="Grupo_946594" data-name="Grupo 946594" transform="translate(55.072 110.145)">
        <path id="Trazado_682628" data-name="Trazado 682628" d="M30,58H81.139v7.867H30Z" transform="translate(-30 -58)" fill="#ff826e"/>
      </g>
      <g id="Grupo_946595" data-name="Grupo 946595" transform="translate(55.072 102.277)">
        <path id="Trazado_682629" data-name="Trazado 682629" d="M30,54H81.139v7.867H30Z" transform="translate(-30 -54)" fill="#5cd6b3"/>
      </g>
    </g>
    <g id="Grupo_946597" data-name="Grupo 946597" transform="translate(1 1)">
      <path id="Trazado_682630" data-name="Trazado 682630" d="M7.3,41.215l-2.909,4.9L14.9,56.617l4.9-2.911c.623.289,1.255.553,1.88.787l1.4,5.513h14.86l1.4-5.511c.625-.234,1.257-.5,1.88-.787l4.9,2.911L56.619,46.112l-2.909-4.9c.289-.623.553-1.253.787-1.88l5.509-1.4V23.072l-5.511-1.4c-.234-.627-.5-1.257-.787-1.882l2.909-4.9L46.11,4.385,41.215,7.3c-.623-.289-1.255-.553-1.88-.787L37.932,1H23.072l-1.4,5.511c-.625.234-1.257.5-1.88.787L14.9,4.387,4.389,14.894l2.909,4.9q-.434.938-.787,1.882L1,23.074v14.86l5.511,1.4q.351.941.787,1.878ZM4.934,26.131l4.63-1.178.33-1.039a21.546,21.546,0,0,1,1.387-3.31l.5-.97L9.332,15.514l6.182-6.182,4.121,2.451.968-.5A21.592,21.592,0,0,1,23.918,9.9l1.039-.332,1.174-4.632h8.743l1.176,4.63,1.039.332A21.593,21.593,0,0,1,40.4,11.281l.968.5L45.493,9.33l6.182,6.182-2.451,4.121.5.97a21.628,21.628,0,0,1,1.387,3.31l.33,1.039,4.63,1.18v8.743l-4.63,1.178-.33,1.039a21.647,21.647,0,0,1-1.385,3.31l-.5.97,2.451,4.123-6.182,6.182-4.121-2.451-.968.5a21.592,21.592,0,0,1-3.316,1.385l-1.039.332-1.174,4.632H26.133l-1.176-4.63-1.039-.332A21.593,21.593,0,0,1,20.6,49.725l-.968-.5-4.121,2.451L9.332,45.494l2.451-4.123-.5-.97a21.647,21.647,0,0,1-1.385-3.31l-.33-1.039-4.63-1.178Z" transform="translate(-1 -1)"/>
      <path id="Trazado_682631" data-name="Trazado 682631" d="M24.7,42.4A17.7,17.7,0,1,0,7,24.7,17.722,17.722,0,0,0,24.7,42.4Zm0-31.47A13.768,13.768,0,1,1,10.934,24.7,13.784,13.784,0,0,1,24.7,10.934Z" transform="translate(4.801 4.801)"/>
      <path id="Trazado_682632" data-name="Trazado 682632" d="M91.84,53H36.3L25.848,58.228a5.15,5.15,0,0,0,0,9.213L36.3,72.669H91.84A9.834,9.834,0,1,0,91.84,53ZM38.735,64.8h47.2v3.934h-47.2Zm47.2-3.934h-47.2V56.934h47.2ZM26.934,62.834a1.21,1.21,0,0,1,.673-1.088l7.195-3.6v9.37l-7.195-3.6A1.21,1.21,0,0,1,26.934,62.834Zm64.907,5.9H89.874v-11.8H91.84a5.9,5.9,0,0,1,0,11.8Z" transform="translate(20.271 49.277)"/>
      <path id="Trazado_682633" data-name="Trazado 682633" d="M103.277,17.9H103a7.83,7.83,0,0,0-15.176,0H63.94v3.934H87.821a7.83,7.83,0,0,0,15.176,0h.279a15.753,15.753,0,0,1,15.735,15.735v11.8a15.753,15.753,0,0,1-15.735,15.735H97.1a7.83,7.83,0,0,0-15.176,0H69.561a7.829,7.829,0,0,0-15.176,0H42.025a7.829,7.829,0,0,0-15.176,0h-6.18a19.669,19.669,0,0,0,0,39.337H40.337v-3.934H20.669a15.735,15.735,0,1,1,0-31.47h6.18a7.83,7.83,0,0,0,15.176,0h12.36a7.83,7.83,0,0,0,15.176,0h12.36a7.83,7.83,0,0,0,15.176,0h6.18A19.691,19.691,0,0,0,122.946,49.37v-11.8A19.691,19.691,0,0,0,103.277,17.9ZM95.41,23.8a3.934,3.934,0,1,1,3.934-3.934A3.938,3.938,0,0,1,95.41,23.8Zm-60.973,47.2a3.934,3.934,0,1,1,3.934-3.934A3.938,3.938,0,0,1,34.437,71.006Zm27.536,0a3.934,3.934,0,1,1,3.934-3.934A3.938,3.938,0,0,1,61.973,71.006Zm27.536,0a3.934,3.934,0,1,1,3.934-3.934A3.938,3.938,0,0,1,89.509,71.006Z" transform="translate(-1 9.636)"/>
      <path id="Trazado_682634" data-name="Trazado 682634" d="M33,22H60.536v3.934H33Z" transform="translate(29.94 19.304)"/>
      <path id="Trazado_682635" data-name="Trazado 682635" d="M33,26H60.536v3.934H33Z" transform="translate(29.94 23.172)"/>
      <path id="Trazado_682636" data-name="Trazado 682636" d="M33,30h3.934v3.934H33Z" transform="translate(29.94 27.039)"/>
      <path id="Trazado_682637" data-name="Trazado 682637" d="M37,30h3.934v3.934H37Z" transform="translate(33.807 27.039)"/>
      <path id="Trazado_682638" data-name="Trazado 682638" d="M45,30h3.934v3.934H45Z" transform="translate(41.542 27.039)"/>
      <path id="Trazado_682639" data-name="Trazado 682639" d="M41,30h3.934v3.934H41Z" transform="translate(37.675 27.039)"/>
      <path id="Trazado_682640" data-name="Trazado 682640" d="M9,48h3.934v3.934H9Z" transform="translate(6.735 44.443)"/>
      <path id="Trazado_682641" data-name="Trazado 682641" d="M5,48H8.934v3.934H5Z" transform="translate(2.867 44.443)"/>
      <path id="Trazado_682642" data-name="Trazado 682642" d="M17,48h3.934v3.934H17Z" transform="translate(14.47 44.443)"/>
      <path id="Trazado_682643" data-name="Trazado 682643" d="M13,48h3.934v3.934H13Z" transform="translate(10.602 44.443)"/>
    </g>
  </g>
</svg>
