<svg xmlns="http://www.w3.org/2000/svg" width="153.015" height="153.039" viewBox="0 0 153.015 153.039">
  <g id="Layer_32" data-name="Layer 32" transform="translate(-1 -0.99)">
    <path id="Trazado_687461" data-name="Trazado 687461" d="M10,18H138.335v83.912H10Z" transform="translate(13.212 24.97)" fill="#e7e4dd"/>
    <g id="Grupo_949096" data-name="Grupo 949096" transform="translate(67.633 55.307)">
      <path id="Trazado_687462" data-name="Trazado 687462" d="M28,23H52.676v4.934H28Z" transform="translate(-27.999 -22.999)" fill="#cbc3b6"/>
      <path id="Trazado_687463" data-name="Trazado 687463" d="M42,23h37.02v4.936H42Z" transform="translate(-7.447 -22.998)" fill="#cbc3b6"/>
      <path id="Trazado_687464" data-name="Trazado 687464" d="M28,27H42.807v4.936H28Z" transform="translate(-27.999 -17.126)" fill="#cbc3b6"/>
      <path id="Trazado_687465" data-name="Trazado 687465" d="M38,27H84.888v4.934H38Z" transform="translate(-13.319 -17.127)" fill="#cbc3b6"/>
    </g>
    <path id="Trazado_687466" data-name="Trazado 687466" d="M150.079,52V71.744a4.936,4.936,0,0,1-4.936,4.936H6.936A4.936,4.936,0,0,1,2,71.744V52" transform="translate(1.468 74.882)" fill="#96cc7f"/>
    <path id="Trazado_687467" data-name="Trazado 687467" d="M21.744,57.872a9.872,9.872,0,1,0-9.872,9.872H140.207V57.872Z" transform="translate(1.468 69.01)" fill="#669e4f"/>
    <path id="Trazado_687468" data-name="Trazado 687468" d="M2,107.784V23.872a9.872,9.872,0,1,1,19.744,0v83.912a9.872,9.872,0,0,0-19.744,0Z" transform="translate(1.468 19.098)" fill="#d5cec2"/>
    <path id="Trazado_687469" data-name="Trazado 687469" d="M30.808,33.34H28.34V28.4h2.468v2.468h4.936V28.4a4.936,4.936,0,0,0-4.936-4.936H28.34V21H23.4v2.468H20.936A4.936,4.936,0,0,0,16,28.4V33.34a4.936,4.936,0,0,0,4.936,4.936H23.4v4.936H20.936V40.744H16v2.468a4.936,4.936,0,0,0,4.936,4.936H23.4v2.468H28.34V48.148h2.468a4.936,4.936,0,0,0,4.936-4.936V38.276A4.936,4.936,0,0,0,30.808,33.34Zm-9.872,0V28.4H23.4V33.34Zm9.872,9.872H28.34V38.276h2.468Z" transform="translate(22.02 29.374)" fill="#669e4f"/>
    <path id="Trazado_687470" data-name="Trazado 687470" d="M14,42H43.616v9.872H14Z" transform="translate(19.084 60.202)" fill="#78b75b"/>
    <path id="Trazado_687471" data-name="Trazado 687471" d="M0,0H48.864V13.961H0Z" transform="translate(97.239 47.914) rotate(-45)" fill="#d5cec2"/>
    <path id="Trazado_687472" data-name="Trazado 687472" d="M51.744,20,32,39.744l9.872,9.872L61.616,29.872" transform="translate(45.508 27.906)" fill="#a8b0bc"/>
    <path id="Trazado_687473" data-name="Trazado 687473" d="M36.4,28,29,40.34l4.936,4.936,12.34-7.4" transform="translate(41.104 39.65)" fill="#c1c8d1"/>
    <path id="Trazado_687474" data-name="Trazado 687474" d="M0,0H10.472V4.938H0Z" transform="translate(63.403 88.113) rotate(-45)" fill="#d5cec2"/>
    <path id="Trazado_687475" data-name="Trazado 687475" d="M54,11.872l7.828-7.828A6.981,6.981,0,0,1,71.7,13.917l-7.827,7.827" transform="translate(77.803 1.482)" fill="#8892a0"/>
    <circle id="Elipse_5343" data-name="Elipse 5343" cx="19.744" cy="19.744" r="19.744" transform="translate(57.764 3.482)" fill="#f2c351"/>
    <path id="Trazado_687476" data-name="Trazado 687476" d="M47.744,13.872V11.4a4.936,4.936,0,0,0-4.936-4.936H40.34V4H35.4V6.468H32.936A4.936,4.936,0,0,0,28,11.4V16.34a4.936,4.936,0,0,0,4.936,4.936H35.4v4.936H32.936V23.744H28v2.468a4.936,4.936,0,0,0,4.936,4.936H35.4v2.468H40.34V31.148h2.468a4.936,4.936,0,0,0,4.936-4.936V21.276a4.936,4.936,0,0,0-4.936-4.936H40.34V11.4h2.468v2.468Zm-4.936,7.4v4.936H40.34V21.276ZM35.4,16.34H32.936V11.4H35.4Z" transform="translate(39.636 4.418)" fill="#f7d881"/>
    <path id="Trazado_687477" data-name="Trazado 687477" d="M14,42v9.872H32.591A27.16,27.16,0,0,0,39.255,42Z" transform="translate(19.084 60.202)" fill="#96cc7f"/>
    <path id="Trazado_687478" data-name="Trazado 687478" d="M151.547,40.5H142.48A37.867,37.867,0,0,0,151.5,16.839,9.433,9.433,0,0,0,137.887,3.781L101.166,40.5H91.44a22.212,22.212,0,1,0-27.864,0H25.433A12.34,12.34,0,0,0,1,42.97V146.625a7.4,7.4,0,0,0,7.4,7.4H146.611a7.4,7.4,0,0,0,7.4-7.4V42.97A2.468,2.468,0,0,0,151.547,40.5ZM87.38,74.032,81,67.65,97.252,51.4l6.382,6.382ZM73.211,79.607,78,71.628l5.4,5.4-7.979,4.785Zm27.53-31.7L131.8,16.844l6.382,6.382L107.124,54.288Zm45.214-25.47a33.051,33.051,0,0,1-9.09,16.918L135.718,40.5h-7.828ZM141.377,7.27a4.513,4.513,0,1,1,6.383,6.383l-6.084,6.083-6.382-6.382ZM60.232,23.226A17.276,17.276,0,1,1,77.508,40.5,17.276,17.276,0,0,1,60.232,23.226Zm36,22.212L86.358,55.31H67.636v4.936H81.422l-4.936,4.936h-8.85v4.936h5.513l-5.161,8.6a2.468,2.468,0,0,0,.37,3.016l.723.723-5.659,5.659,3.49,3.49,5.659-5.659.723.723a2.468,2.468,0,0,0,3.016.37l12.34-7.4a2.45,2.45,0,0,0,.474-.37l9.149-9.149h40.934V65.182h-36l4.936-4.936h31.062V55.31H113.081l9.872-9.872h7.828l-.723.723,3.49,3.49,4.213-4.213h11.318v78.976H25.68V45.438ZM5.936,42.97a7.4,7.4,0,1,1,14.808,0v74.04a12.32,12.32,0,0,0-14.808,0Zm7.4,76.508a7.4,7.4,0,0,1,7.4,7.4,2.468,2.468,0,0,0,2.468,2.468h116v4.936H13.34a7.4,7.4,0,0,1,0-14.808Zm133.271,29.616H8.4a2.468,2.468,0,0,1-2.468-2.468v-9.936a12.212,12.212,0,0,0,7.4,2.532H141.675a2.468,2.468,0,0,0,2.468-2.468v-7.4h4.936v17.276A2.468,2.468,0,0,1,146.611,149.093Z" transform="translate(0 0)"/>
    <path id="Trazado_687479" data-name="Trazado 687479" d="M20.936,48.148H23.4v2.468H28.34V48.148h2.468a4.936,4.936,0,0,0,4.936-4.936V38.276a4.936,4.936,0,0,0-4.936-4.936H28.34V28.4h2.468v2.468h4.936V28.4a4.936,4.936,0,0,0-4.936-4.936H28.34V21H23.4v2.468H20.936A4.936,4.936,0,0,0,16,28.4V33.34a4.936,4.936,0,0,0,4.936,4.936H23.4v4.936H20.936V40.744H16v2.468A4.936,4.936,0,0,0,20.936,48.148Zm0-14.808V28.4H23.4V33.34Zm7.4,4.936h2.468v4.936H28.34Z" transform="translate(22.02 29.374)"/>
    <path id="Trazado_687480" data-name="Trazado 687480" d="M15.468,55.808H45.084a2.468,2.468,0,0,0,2.468-2.468V43.468A2.468,2.468,0,0,0,45.084,41H15.468A2.468,2.468,0,0,0,13,43.468V53.34A2.468,2.468,0,0,0,15.468,55.808Zm2.468-9.872h24.68v4.936H17.936Z" transform="translate(17.616 58.734)"/>
    <path id="Trazado_687481" data-name="Trazado 687481" d="M42.808,6.468H40.34V4H35.4V6.468H32.936A4.936,4.936,0,0,0,28,11.4V16.34a4.936,4.936,0,0,0,4.936,4.936H35.4v4.936H32.936V23.744H28v2.468a4.936,4.936,0,0,0,4.936,4.936H35.4v2.468H40.34V31.148h2.468a4.936,4.936,0,0,0,4.936-4.936V21.276a4.936,4.936,0,0,0-4.936-4.936H40.34V11.4h2.468v2.468h4.936V11.4A4.936,4.936,0,0,0,42.808,6.468Zm0,14.808v4.936H40.34V21.276ZM35.4,16.34H32.936V11.4H35.4Z" transform="translate(39.636 4.418)"/>
  </g>
</svg>
