<svg xmlns="http://www.w3.org/2000/svg" xmlns:xlink="http://www.w3.org/1999/xlink" width="296.612" height="219.256" viewBox="0 0 296.612 219.256">
  <defs>
    <clipPath id="clip-path">
      <path id="Trazado_682185" data-name="Trazado 682185" d="M1007.416,2837.451a16.594,16.594,0,0,1-4.168-.529,16.772,16.772,0,0,1-10.225-24.693,15.885,15.885,0,0,1,1.624-2.292,17.017,17.017,0,0,1,12.8-6.015,15.39,15.39,0,0,1,2.14.148,17.485,17.485,0,0,1,7.426,2.872,16.233,16.233,0,0,1,5.75,6.856,16.742,16.742,0,0,1-15.345,23.653M993,2821.807c.01.115.019.232.033.346a16.551,16.551,0,0,0,.39,2.153c.083.325.171.651.276.971.009.031.093.268.108.312.042.113.082.224.127.334a16.339,16.339,0,0,0,.946,1.986c.169.3.342.589.528.874l.038.058.068.093c.1.139.2.28.3.416a16.517,16.517,0,0,0,1.477,1.7c.217.213.437.422.663.624.058.047.234.2.258.214.139.111.279.223.422.329a16.8,16.8,0,0,0,1.963,1.273c.158.086.314.172.474.253l.13.066.04.017c.32.145.641.284.969.407a16.105,16.105,0,0,0,2.148.657q.191.044.381.084l.3.054c.338.051.675.1,1.014.126.509.044,1.019.069,1.53.069.223,0,.445,0,.668-.015.032,0,.307-.019.336-.019h0c.115-.009.231-.02.346-.034.335-.04.668-.084,1-.144a16.494,16.494,0,0,0,2.124-.521c.031-.009.267-.093.312-.109.112-.041.223-.082.334-.127.313-.125.625-.257.931-.4a16.533,16.533,0,0,0,1.93-1.071l.056-.038.094-.068c.139-.1.28-.2.415-.3.275-.208.545-.423.8-.648a16.513,16.513,0,0,0,1.515-1.489c.046-.057.2-.236.215-.26.112-.139.224-.28.33-.422q.323-.437.622-.885a17.05,17.05,0,0,0,.931-1.609c.04-.082.118-.247.128-.272.071-.162.142-.323.208-.485.107-.269.213-.541.307-.816a16.415,16.415,0,0,0,.515-1.825c.007-.034.065-.331.069-.338.02-.116.039-.231.056-.347.039-.28.075-.562.1-.844.044-.5.071-1.007.07-1.511,0-.117,0-.233,0-.35,0-.168-.009-.337-.02-.505,0-.074-.005-.12-.006-.148l0-.033c-.027-.28-.057-.559-.1-.837a16.407,16.407,0,0,0-.368-1.815c-.086-.324-.178-.648-.284-.968l-.022-.061c-.009-.028-.023-.061-.041-.11-.039-.1-.079-.21-.122-.315a16.271,16.271,0,0,0-.782-1.686c-.162-.3-.329-.6-.509-.885-.068-.109-.137-.216-.207-.324l-.081-.115a16.39,16.39,0,0,0-2.434-2.729c-.044-.035-.242-.2-.267-.221-.139-.111-.28-.223-.422-.329-.178-.132-.356-.263-.539-.389-.064-.045-.129-.089-.2-.133a16.6,16.6,0,0,0-1.7-1l-.13-.067-.04-.017c-.16-.072-.319-.145-.483-.212-.269-.112-.539-.221-.814-.318a16.154,16.154,0,0,0-1.821-.534c-.056-.012-.481-.1-.479-.1h.01l-.106-.017c-.092-.016-.185-.031-.278-.044-.336-.047-.673-.089-1.013-.116-.453-.034-.907-.055-1.361-.055-.222,0-.445.005-.667.016-.112,0-.225.008-.337.017h-.013c-.168.018-.335.034-.5.055-.334.043-.668.092-1,.155a16.969,16.969,0,0,0-1.959.49l-.182.06-.149.055c-.157.06-.315.119-.471.184-.313.129-.623.264-.926.412a16.366,16.366,0,0,0-1.778,1l-.016.011c-.092.062-.183.129-.273.194-.139.1-.278.2-.413.308-.273.214-.54.431-.8.66-.405.358-.794.735-1.163,1.132-.077.082-.152.165-.227.249-.023.034-.286.349-.321.392-.109.142-.219.283-.324.428-.213.292-.421.587-.614.892-.12.189-.238.379-.35.572-.07.117-.138.236-.2.356-.086.156-.171.311-.251.471-.032.062-.053.105-.069.132l-.016.039a16.311,16.311,0,0,0-.8,2.12c-.1.33-.189.663-.264,1-.029.126-.058.253-.084.38-.014.08-.05.275-.054.3a16.556,16.556,0,0,0-.192,2.2c0,.116,0,.232,0,.349,0,.221,0,.443.015.665,0,.032.019.306.019.336v0h0" fill="none"/>
    </clipPath>
  </defs>
  <g id="Grupo_944324" data-name="Grupo 944324" transform="translate(-895.626 -2768.856)">
    <path id="Trazado_682045" data-name="Trazado 682045" d="M1177.343,2919.856a8.617,8.617,0,0,1-5.151,3.42c-.148.035-.3.067-.443.1a6.36,6.36,0,0,1-.869,5.552,8.122,8.122,0,0,1-2.9,2.563q1.6,1.521,3.167,3.068c2.572,2.536,3.4,5.986,1.345,9.019a9.357,9.357,0,0,1-8.625,3.669,7.363,7.363,0,0,1-1.015,2.494q1.322,1.125,2.64,2.255a6.759,6.759,0,0,1,1.347,9.02,9.128,9.128,0,0,1-6.544,3.671l5.448,4.356c.452.363.91.728,1.362,1.091a6.709,6.709,0,0,1,1.747,8.347,5.97,5.97,0,0,1-.4.671,7.853,7.853,0,0,1-1.747,1.826H909.763a14.845,14.845,0,0,1,.476-2.589c.082-.306.176-.624.282-.95a5.858,5.858,0,0,1,3.16-3.648c.213-.1.432-.177.65-.254a10.149,10.149,0,0,1-1.428-1.1,5.409,5.409,0,0,1-1.972-4.567,4.974,4.974,0,0,1,3.16-3.647,11.223,11.223,0,0,1,6.442-.593q1.62.282,3.245.561a8.089,8.089,0,0,1-1.867-3.344,8.516,8.516,0,0,1,.868-6.576c.036-.06.075-.119.111-.178q-.93-.479-1.865-.945a8.345,8.345,0,0,1-3.962-5.1,8.518,8.518,0,0,1,.87-6.577,8.661,8.661,0,0,1,4.273-3.628,8.276,8.276,0,0,1,.5-1.04,8.512,8.512,0,0,1,.879-6.529c.03-.051.061-.1.091-.145q-.919-.492-1.845-.978c-4.143-2.181-5.393-7.786-3.092-11.677a8.4,8.4,0,0,1,.934-1.282q-3.352-1.938-6.728-3.84a8.564,8.564,0,0,1-3.092-11.676,8.671,8.671,0,0,1,5.151-3.922,9.157,9.157,0,0,1,6.64.86q2.319,1.114,4.622,2.256-1.073-.822-2.14-1.651a8.472,8.472,0,0,1-1.348-10.342,8.436,8.436,0,0,0,5.654-8.8,9,9,0,0,1,7.44-4.25c.046-.126.1-.248.148-.373q-1.107-.907-2.2-1.832c-2.821-2.388-3.172-6.93-1.517-10.043a7.938,7.938,0,0,1-.7-1.723,8.516,8.516,0,0,1,.87-6.576,8.666,8.666,0,0,1,5.149-3.921,9.075,9.075,0,0,1,6.641.861c.347.171.691.346,1.036.519a8.123,8.123,0,0,1,.905-2.257,8.423,8.423,0,0,1,1.54-1.911,9.048,9.048,0,0,1-.793-1.913,8.512,8.512,0,0,1,.869-6.576,8.667,8.667,0,0,1,5.151-3.922,9.362,9.362,0,0,1,6.641.86q3.644,1.615,7.246,3.313a8.711,8.711,0,0,1,1.158-4.251,8.842,8.842,0,0,1,7.434-4.223,8.262,8.262,0,0,1,.642-1.376,8.636,8.636,0,0,1,4.266-3.6,8.263,8.263,0,0,1,.581-1.193,8.67,8.67,0,0,1,5.151-3.923c2.437-.664,4.42-.1,6.641.86q4.246,1.844,8.424,3.829a8.665,8.665,0,0,1,5.131-3.889c.764-.1,1.526-.2,2.291-.3a8.622,8.622,0,0,1,4.349,1.164q3,1.259,5.95,2.6a8.6,8.6,0,0,1,3.931-5,8.411,8.411,0,0,1,6.64-.86q.768.285,1.531.582-.921-.756-1.839-1.516a8.474,8.474,0,0,1-1.346-10.343,8.677,8.677,0,0,1,5.149-3.922,8.571,8.571,0,0,1,6.642.86c6.366,4.106,12.749,8.185,19.115,12.29a8.541,8.541,0,0,1,1.945-2.956,8.426,8.426,0,0,1,6.093-2.5,31.078,31.078,0,0,1,8.974,1.859c.637.242,3.836,2.454,8.512,5.81a5.909,5.909,0,0,1,.7-2.647c1.386-2.585,4.743-3.731,7.131-2.042q3.185,2.251,6.359,4.523c1.463-2.4,4.679-3.424,6.985-1.79,7.371,5.221,14.378,11.261,22.519,15.034a5.391,5.391,0,0,1,2.394,3.4,6.194,6.194,0,0,1,.177,1.819,4.7,4.7,0,0,1,2.139.679c7.372,4.554,14.378,9.821,22.518,13.11a4.846,4.846,0,0,1,1.872,6.795,5.074,5.074,0,0,1-.56.741q2.673,1.608,5.361,3.192a5.359,5.359,0,0,1,1.207.966,4.786,4.786,0,0,1,.663,5.828,5.348,5.348,0,0,1-3.827,2.407c5,3.311,8.379,5.6,8.861,6.011a6.774,6.774,0,0,1,1.236,9.167,7.417,7.417,0,0,1-1.236,1.359,8.19,8.19,0,0,1-1.287.909,6.855,6.855,0,0,1-1.175,1.812c.283.235.566.47.846.706a7.1,7.1,0,0,1,.685.655,6.7,6.7,0,0,1,.662,8.363,7.727,7.727,0,0,1-2.129,2.084c0,.038-.009.077-.014.116,3.362,2.64,6.606,5.4,9.683,8.314a7.729,7.729,0,0,1,2.438,4.462,6.368,6.368,0,0,1-1.091,4.556" fill="#f8cdb5" opacity="0.4"/>
    <path id="Trazado_682046" data-name="Trazado 682046" d="M1177.343,2919.856a8.617,8.617,0,0,1-5.151,3.42c-.148.035-.3.067-.443.1a6.36,6.36,0,0,1-.869,5.552,8.122,8.122,0,0,1-2.9,2.563q1.6,1.521,3.167,3.068c2.572,2.536,3.4,5.986,1.345,9.019a9.357,9.357,0,0,1-8.625,3.669,7.363,7.363,0,0,1-1.015,2.494q1.322,1.125,2.64,2.255a6.759,6.759,0,0,1,1.347,9.02,9.128,9.128,0,0,1-6.544,3.671l5.448,4.356c.452.363.91.728,1.362,1.091a6.709,6.709,0,0,1,1.747,8.347,5.97,5.97,0,0,1-.4.671,7.853,7.853,0,0,1-1.747,1.826H1027.354l.023-.011c.153-.071.309-.133.467-.19a7.368,7.368,0,0,1-1.026-.823,4.136,4.136,0,0,1-1.417-3.426,3.68,3.68,0,0,1,2.27-2.734,7.762,7.762,0,0,1,4.632-.444q1.164.212,2.333.42a6.134,6.134,0,0,1-1.343-2.507,6.628,6.628,0,0,1,.625-4.931c.025-.045.054-.089.081-.133q-.671-.36-1.343-.709a6.225,6.225,0,0,1-2.847-3.823,6.622,6.622,0,0,1,.625-4.931,6.294,6.294,0,0,1,3.073-2.721,5.927,5.927,0,0,1,.359-.78,6.629,6.629,0,0,1,.632-4.9c.022-.038.043-.073.065-.109-.44-.245-.884-.489-1.325-.733-2.98-1.635-3.88-5.838-2.224-8.754a6.3,6.3,0,0,1,.67-.963q-2.409-1.452-4.834-2.879a6.572,6.572,0,0,1-2.224-8.754,6.271,6.271,0,0,1,3.7-2.941,6.344,6.344,0,0,1,4.774.645q1.666.837,3.322,1.693-.771-.618-1.537-1.239a6.438,6.438,0,0,1-1.595-2.823,6.627,6.627,0,0,1,.625-4.931,6.244,6.244,0,0,1,3.249-2.763,6.622,6.622,0,0,1,.816-3.835,6.422,6.422,0,0,1,5.348-3.187c.033-.094.069-.186.108-.28q-.8-.678-1.582-1.373c-2.028-1.79-2.28-5.2-1.09-7.531a6.06,6.06,0,0,1-.505-1.291,6.633,6.633,0,0,1,.626-4.931,6.09,6.09,0,0,1,8.477-2.294c.248.128.5.259.744.389a6.27,6.27,0,0,1,1.758-3.125,7.027,7.027,0,0,1-.57-1.433,6.623,6.623,0,0,1,.626-4.931,6.255,6.255,0,0,1,3.7-2.941,6.479,6.479,0,0,1,4.775.645q2.617,1.21,5.209,2.482a6.752,6.752,0,0,1,.832-3.186,6.2,6.2,0,0,0,5.807-4.2,6.258,6.258,0,0,0,3.485-3.6,6.274,6.274,0,0,1,3.7-2.941,6.518,6.518,0,0,1,4.773.646q3.055,1.381,6.057,2.87a6.273,6.273,0,0,1,3.689-2.915c.55-.078,1.1-.153,1.647-.229a6.006,6.006,0,0,1,3.128.874c1.435.628,2.86,1.282,4.277,1.951a6.414,6.414,0,0,1,2.826-3.751,5.827,5.827,0,0,1,4.773-.646c.37.143.735.289,1.1.438-.44-.379-.882-.757-1.321-1.137a6.452,6.452,0,0,1-1.593-2.825,6.628,6.628,0,0,1,.625-4.931,6.278,6.278,0,0,1,3.7-2.941,5.948,5.948,0,0,1,4.774.646c4.577,3.078,9.166,6.137,13.742,9.215a6.439,6.439,0,0,1,1.4-2.216,5.921,5.921,0,0,1,4.381-1.873,21.465,21.465,0,0,1,6.451,1.393,73.887,73.887,0,0,1,6.119,4.356,4.568,4.568,0,0,1,.508-1.985,3.521,3.521,0,0,1,5.124-1.531q2.289,1.689,4.574,3.391a3.873,3.873,0,0,1,2.834-1.917,4.786,4.786,0,0,1,.663,5.828,5.348,5.348,0,0,1-3.827,2.407c5,3.311,8.379,5.6,8.861,6.011a6.774,6.774,0,0,1,1.236,9.167,7.417,7.417,0,0,1-1.236,1.359,8.19,8.19,0,0,1-1.287.909,6.855,6.855,0,0,1-1.175,1.812c.283.235.566.47.846.706a7.1,7.1,0,0,1,.685.655,6.7,6.7,0,0,1,.662,8.363,7.727,7.727,0,0,1-2.129,2.084c0,.038-.009.077-.014.116,3.362,2.64,6.606,5.4,9.683,8.314a7.729,7.729,0,0,1,2.438,4.462,6.368,6.368,0,0,1-1.091,4.556" fill="#f8cdb5" opacity="0.4"/>
    <path id="Trazado_682047" data-name="Trazado 682047" d="M921.441,2790.859a5.586,5.586,0,0,1,2.822-2.383,6,6,0,0,1-.776-1.684,5.535,5.535,0,0,1,3.864-6.8,5.079,5.079,0,0,1,2.522-.057,5.169,5.169,0,0,1-.659-1.469,5.563,5.563,0,0,1,.558-4.262c1.444-2.466,5.072-3.685,7.568-1.985q2.806,1.912,5.54,3.92c1.491-2.35,5.046-3.526,7.476-1.837l.009.006a5.529,5.529,0,0,1,5.53-5.447,6.006,6.006,0,0,1,3.911,1.62c4.247,3.319,7.881,7.35,12.082,10.719a15.384,15.384,0,0,0,1.377.912,5.584,5.584,0,0,1,1.984,7.568,5.364,5.364,0,0,1-.365.542,5.081,5.081,0,0,1,1.582,1.085,5.53,5.53,0,0,1,0,7.823,5.78,5.78,0,0,1-2.968,1.573q.961.771,1.928,1.537a5.3,5.3,0,0,1,1.62,3.912,5.532,5.532,0,0,1-5.532,5.532,5.749,5.749,0,0,1-3.7-1.455,5.09,5.09,0,0,1-.375.8,5.575,5.575,0,0,1-3.307,2.543,5.775,5.775,0,0,1-4.262-.558c-1.621-.815-3.19-1.719-4.72-2.687a5.446,5.446,0,0,1-.17.943,5.57,5.57,0,0,1-2.542,3.306,5.349,5.349,0,0,1-4.263.557,33.954,33.954,0,0,1-5.623-2.7,57.525,57.525,0,0,1-5.23-3.74c-2.7-2.086-5.256-4.339-7.935-6.446a39.716,39.716,0,0,0-5.962-3.81c-2.691-1.358-3.437-5.089-1.985-7.569" fill="#f8cdb5" opacity="0.4"/>
    <path id="Trazado_682048" data-name="Trazado 682048" d="M903.848,2839.274a2.43,2.43,0,0,1,1.228-1.038,2.639,2.639,0,0,1-.338-.733,2.41,2.41,0,0,1,1.683-2.963,2.219,2.219,0,0,1,1.1-.025,2.259,2.259,0,0,1-.287-.64,2.409,2.409,0,0,1,3.538-2.72q1.223.832,2.413,1.707a2.413,2.413,0,0,1,3.255-.8l0,0a2.407,2.407,0,0,1,2.408-2.372,2.618,2.618,0,0,1,1.7.7c1.849,1.446,3.432,3.2,5.261,4.668a6.839,6.839,0,0,0,.6.4,2.431,2.431,0,0,1,.864,3.3,2.251,2.251,0,0,1-.159.236,2.208,2.208,0,0,1,.689.473,2.407,2.407,0,0,1,0,3.406,2.52,2.52,0,0,1-1.292.685q.418.336.839.67a2.3,2.3,0,0,1,.706,1.7,2.409,2.409,0,0,1-2.409,2.409,2.5,2.5,0,0,1-1.611-.633,2.193,2.193,0,0,1-.163.347,2.42,2.42,0,0,1-1.44,1.107,2.512,2.512,0,0,1-1.856-.243c-.706-.355-1.389-.748-2.055-1.17a2.387,2.387,0,0,1-1.181,1.85,2.327,2.327,0,0,1-1.856.243,14.815,14.815,0,0,1-2.448-1.176,24.967,24.967,0,0,1-2.278-1.629c-1.174-.908-2.289-1.889-3.455-2.806a17.267,17.267,0,0,0-2.6-1.66,2.42,2.42,0,0,1-.864-3.3Z" fill="#f8cdb5" opacity="0.4"/>
    <path id="Trazado_682049" data-name="Trazado 682049" d="M1192.238,2981.44c0,3.685-66.4,6.672-148.306,6.672s-148.306-2.987-148.306-6.672,66.4-6.671,148.306-6.671,148.306,2.987,148.306,6.671Z" fill="#869293"/>
    <path id="Trazado_682050" data-name="Trazado 682050" d="M1068.889,2978.929V2885.8h-3.458v93.128h3.458" fill="#0a3c5f"/>
    <path id="Trazado_682051" data-name="Trazado 682051" d="M994.779,2983.022l37.19-144.182-3.923-1.036-37.458,145.219h4.191" fill="#0a3c5f"/>
    <path id="Trazado_682052" data-name="Trazado 682052" d="M1141.592,2983.022,1104.135,2837.8l-3.923,1.036,37.19,144.182h4.19" fill="#0a3c5f"/>
    <path id="Trazado_682053" data-name="Trazado 682053" d="M1159.639,2904.679h-187.1V2779.947h187.1v124.732" fill="#f4f4f4"/>
    <path id="Trazado_682054" data-name="Trazado 682054" d="M1159.33,2788.592H972.85v-8.645h186.48v8.645" fill="#c1c3c3"/>
    <path id="Trazado_682055" data-name="Trazado 682055" d="M1165.814,2778.713a3.087,3.087,0,0,1-3.086,3.087H969.454a3.088,3.088,0,0,1,0-6.175h193.274a3.087,3.087,0,0,1,3.086,3.088Z" fill="#0a3c5f"/>
    <path id="Trazado_682056" data-name="Trazado 682056" d="M1165.814,2903.624a3.088,3.088,0,0,1-3.086,3.088H969.454a3.087,3.087,0,0,1,0-6.175h193.274a3.087,3.087,0,0,1,3.086,3.087Z" fill="#0a3c5f"/>
    <path id="Trazado_682057" data-name="Trazado 682057" d="M990.706,2889.16h0a5.336,5.336,0,0,1-1.419-3.63v-38.365a1.228,1.228,0,0,0,2.2.317l6.141-9.358v38.3h10.226l-17.151,12.735m154.348-.393-42.961-44,30.936-33.841h13.115v74.6a5.324,5.324,0,0,1-1.09,3.237h0m-106.369-35.233v-18.277l12.372,9.091-12.372,9.186m-49.4-7.083V2823.18a17.683,17.683,0,0,0,.636,2.881,18.679,18.679,0,0,0,6.564,9.328l-7.052,10.745a1.2,1.2,0,0,0-.148.317m8.344-15.079q-.171-.161-.339-.326a16.517,16.517,0,0,1-1.477-1.7c-.1-.136-.2-.277-.3-.416l-.068-.093-.038-.058c-.186-.285-.359-.578-.528-.874a16.339,16.339,0,0,1-.946-1.986c-.045-.11-.085-.221-.127-.334-.015-.044-.1-.281-.108-.312-.105-.32-.193-.646-.276-.971a16.551,16.551,0,0,1-.39-2.153c-.014-.114-.023-.231-.033-.346h0v0c0-.03-.019-.3-.019-.336-.011-.222-.015-.444-.015-.665,0-.117,0-.233,0-.349a16.556,16.556,0,0,1,.192-2.2c0-.027.04-.222.054-.3.026-.127.055-.254.084-.38.075-.335.168-.668.264-1a16.311,16.311,0,0,1,.8-2.12l.016-.039c.016-.027.037-.07.069-.132.08-.16.165-.315.251-.471.065-.12.133-.239.2-.356.112-.193.23-.383.35-.572.193-.3.4-.6.614-.892.105-.145.215-.286.324-.428.035-.043.3-.358.321-.392.075-.084.15-.167.227-.249h8.837l2.658,1.953a8.839,8.839,0,0,0-5.633,6.6h-4.966v11.9m-8.344-13.082v-13.062h0v5.7h2.649c-.087.139-.173.28-.256.421a18.466,18.466,0,0,0-2.393,6.943m156.857-13.062v0h0m-156.857-.02v0m156.857,0v0m0-.016v0m-156.857,0v0m156.857-.012v0m-156.857-.01v0m156.857-.01v0m-156.856-.015v0m156.856,0v0m0-.016,0-.016,0,.016m-156.856,0v0m156.853-.016v0m-156.853,0v0m156.853-.013v0m-156.852-.008v0m156.852-.008v0m-156.851-.017v0m156.851,0v0m0-.018v0m-156.851,0v0m156.851-.015a.043.043,0,0,1,0-.016.043.043,0,0,0,0,.016m-156.85-.005v0m156.848-.011v0m-156.847-.01v0m156.847-.009v0m0-.016v0m-156.846,0v0m156.843-.017v0m-156.842,0v0m156.842-.016v0m-156.841,0v0m156.841-.013v0m-156.84-.007v0m156.84-.008a.033.033,0,0,1,0-.016.033.033,0,0,0,0,.016m-156.838-.019v0m156.835,0v0m0-.016a.023.023,0,0,0,0-.014.022.022,0,0,1,0,.014m-156.834,0v0m156.831-.014v0m-156.829,0,0-.044,0,.044m156.829-.014v0m0-.017v0m0-.016v0m-156.823,0v0m156.823-.018a.023.023,0,0,1,0-.014.023.023,0,0,0,0,.014m-156.822,0a5.332,5.332,0,0,1,1.143-2.883,5.34,5.34,0,0,0-1.143,2.883m156.819-.017v0m0-.017a.027.027,0,0,1,0-.015.027.027,0,0,0,0,.015m0-.015v0m0-.02v0m0-.016a.024.024,0,0,0,0-.014.023.023,0,0,1,0,.014m0-.015v0m0-.019,0-.012,0,.012m0-.017v0m0-.015a.026.026,0,0,1,0-.015.026.026,0,0,0,0,.015m0-.019,0-.012,0,.012m0-.016v0m0-.015a.046.046,0,0,1,0-.016.048.048,0,0,0,0,.016m0-.018,0-.013,0,.013m0-.018a.018.018,0,0,0,0-.012.018.018,0,0,1,0,.012m0-.015v0m0-.018a.019.019,0,0,1,0-.013.02.02,0,0,0,0,.013m0-.017,0-.012,0,.012m0-.015a.029.029,0,0,0,0-.016.029.029,0,0,1,0,.016m0-.016v0m0-.019v0m0-.016a.026.026,0,0,1,0-.015.026.026,0,0,0,0,.015m0-.015a.027.027,0,0,1,0-.015.027.027,0,0,0,0,.015m0-.019,0-.011,0,.011m0-.016,0-.012,0,.012m0-.015,0-.015,0,.015m0-.02,0-.01,0,.01m0-.015,0-.011,0,.011m0-.015a.026.026,0,0,0,0-.015.026.026,0,0,1,0,.015m0-.019,0-.01,0,.01m0-.017,0-.009,0,.009m0-.014a.023.023,0,0,0,0-.014.022.022,0,0,1,0,.014m0-.019,0-.01,0,.01m0-.016,0-.009,0,.009m0-.015,0-.014,0,.014m0-.018,0-.01,0,.01m0-.017,0-.008,0,.008m0-.015,0-.008,0,.008m0-.02v0m0-.015v0m0-.014v0m-.006-.021v0m0-.014v0m0-.014v0m0-.015a.022.022,0,0,0,0-.013.022.022,0,0,1,0,.013m0-.02,0-.007,0,.007m0-.015,0-.006,0,.006M1146,2804v0m0-.022,0,0,0,0m0-.013,0-.005,0,.005m-.006-.014h0m-.006-.023v0m0-.013v0m0-.013h0m-.009-.036v0m-155.52-1.969.008-.01-.008.01m.013-.017.005-.006-.005.006" fill="#c1c3c3"/>
    <path id="Trazado_682058" data-name="Trazado 682058" d="M1140.79,2890.884H994.64a5.342,5.342,0,0,1-3.934-1.724l17.151-12.735h30.828v-22.891l12.372-9.186,1.185.871,48.369,1.17,1.482-1.622,42.961,44a5.343,5.343,0,0,1-4.264,2.117" fill="#999c9c"/>
    <path id="Trazado_682059" data-name="Trazado 682059" d="M1100.611,2846.389l-48.369-1.17-1.185-.871-12.372-9.091v-15.783h-12.908a18.838,18.838,0,0,0-1.551-6.337,17.173,17.173,0,0,0-1.171-2.211h109.974l-30.936,33.841-1.482,1.622m-78.65-26.915h-2.043a8.832,8.832,0,0,0-11.688-6.6l-2.658-1.953h12.648a17.374,17.374,0,0,1,1.236,1.538l.081.115c.07.108.139.215.207.324.18.289.347.586.509.885a16.271,16.271,0,0,1,.782,1.686c.043.1.083.21.122.315.018.049.032.082.041.11l.022.061c.106.32.2.644.284.968a16.407,16.407,0,0,1,.368,1.815c.036.243.064.487.089.731m119.575-19.548h0m-.017,0h0m-.015,0-.012,0,.012,0m-.014,0c-.158-.021-.315-.034-.476-.041.161.007.318.02.476.041m-.476-.041h0m-.017,0h0m-.018,0h0m-146.516,0h0m146.5,0h0m-146.488,0h0m146.47,0h0m-146.455,0h0m146.438,0h0m-146.419,0h0m146.4,0h0m-146.385,0h0m146.368,0h0m-146.353,0h0m146.335,0h0m-146.316,0h0m146.3,0h0m-146.283,0h0m.015,0h0m146.253,0h0m-.017,0h0m-146.217,0h0m146.2,0h0" fill="#999c9c"/>
    <path id="Trazado_682060" data-name="Trazado 682060" d="M1146.144,2805.228v5.7H989.287v-5.7a5.354,5.354,0,0,1,5.353-5.353h146.15a5.354,5.354,0,0,1,5.354,5.353" fill="#eb6f2d"/>
    <path id="Trazado_682061" data-name="Trazado 682061" d="M1086.178,2805.413a2.837,2.837,0,0,1-2.838,2.838H1012.7a2.838,2.838,0,1,1,0-5.676h70.642a2.838,2.838,0,0,1,2.838,2.838" fill="#fff"/>
    <path id="Trazado_682062" data-name="Trazado 682062" d="M1001.539,2805.413a3.12,3.12,0,1,1-3.12-3.12,3.12,3.12,0,0,1,3.12,3.12" fill="#fff"/>
    <path id="Trazado_682063" data-name="Trazado 682063" d="M1114.13,2805.413a3.12,3.12,0,1,1-3.121-3.12,3.121,3.121,0,0,1,3.121,3.12Z" fill="#fff"/>
    <path id="Trazado_682064" data-name="Trazado 682064" d="M1125.831,2805.413a3.121,3.121,0,1,1-3.12-3.12,3.12,3.12,0,0,1,3.12,3.12Z" fill="#0a3c5f"/>
    <path id="Trazado_682065" data-name="Trazado 682065" d="M1137.532,2805.413a3.12,3.12,0,1,1-3.12-3.12,3.12,3.12,0,0,1,3.12,3.12Z" fill="#fff"/>
    <path id="Trazado_682066" data-name="Trazado 682066" d="M1087.592,2819.474v56.951h-41.053v-56.951Z" fill="#f4f4f4"/>
    <path id="Trazado_682067" data-name="Trazado 682067" d="M1087.592,2866v10.425h-41.053v-15.864c.036-.355.065-.678.083-.964.292-4.565,6.311-5.616,10.81-7.167v0c.638-.219,1.246-.449,1.8-.7l.007,0a9.031,9.031,0,0,0,1.427-.785l.005,0h0l.106.028,5.9,1.5,5.885-1.263.034.022a9.247,9.247,0,0,0,1.634.859l0,0c.367.153.756.3,1.159.437,4.562,1.57,11.04,2.366,11.341,7.076.091,1.423.428,3.74.861,6.4Z" fill="#0c1613"/>
    <path id="Trazado_682068" data-name="Trazado 682068" d="M1067.016,2855.415l-2.243.2c-.1.864-.754,1.4-.219,2.343a8.383,8.383,0,0,0,1.9,1.924c.965.76,1.5.206,2.219-.659a10.448,10.448,0,0,0,1.472-2.535c-.723-.762-2.206-.885-3.131-1.268Z" fill="#0a3c5f"/>
    <path id="Trazado_682069" data-name="Trazado 682069" d="M1069.52,2876.425h-5.229l1.71-16.919.138-1.359.682.1,1.269-.488.15,1.961,1.28,16.709Z" fill="#0a3c5f"/>
    <path id="Trazado_682070" data-name="Trazado 682070" d="M1073.284,2853.093c-1.754.726-4.239,2.583-5.893,2.336-2.194-.329-4.325-1.516-6.5-2.058-.078-1.487-.145-3.1-.195-4.7-.058-1.908-.091-3.8-.091-5.439l11.757.668c.053,1.532-.1,3.28-.041,4.974a9.3,9.3,0,0,0,.961,4.214Z" fill="#ffb278"/>
    <path id="Trazado_682071" data-name="Trazado 682071" d="M1072.323,2848.879c-2.842,2.347-6.3,3.679-9.18,2.114a6.658,6.658,0,0,1-2.445-2.317c-.058-1.908-.091-3.8-.091-5.439l11.757.668c.053,1.532-.1,3.28-.041,4.974Z" fill="#e5804e"/>
    <path id="Trazado_682072" data-name="Trazado 682072" d="M1073.63,2828.821a12.832,12.832,0,0,0-5.423-.118,2.161,2.161,0,0,1-3.217,0,12.838,12.838,0,0,0-5.424.118s-1.241,11.982-1.176,13.381c.109,2.333-.1,3.55,1.559,5.169,5.984,5.837,11.408,2.418,13.3,0,1.429-1.826,1.451-2.836,1.56-5.169.065-1.4-1.177-13.381-1.177-13.381Z" fill="#ffb278"/>
    <path id="Trazado_682073" data-name="Trazado 682073" d="M1072.718,2838.428c-.146-.017-.292-.032-.439-.045s-.268-.021-.4-.03h-.02c-.494-.031-.992-.037-1.491-.022-.092,0-.184,0-.275.009l-.015,0q-.45.022-.9.069a4.647,4.647,0,0,1,.488-1.5v0c.041-.069.09-.136.137-.2.031-.04.062-.077.1-.114a1.576,1.576,0,0,1,1.233-.52,1.175,1.175,0,0,1,.554.148,1.89,1.89,0,0,1,.571.454,2.293,2.293,0,0,1,.258.357,1.583,1.583,0,0,1,.207,1.4Z" fill="#fff"/>
    <path id="Trazado_682074" data-name="Trazado 682074" d="M1072.279,2838.383v.01h-.021a13.168,13.168,0,0,0-1.875-.017l-.015-.044-.018-.049a14.918,14.918,0,0,1-.454-1.69,1.576,1.576,0,0,1,1.233-.52,1.175,1.175,0,0,1,.554.148,1.89,1.89,0,0,1,.571.454,2.293,2.293,0,0,1,.258.357,8.423,8.423,0,0,1-.232,1.352Z" fill="#30241b"/>
    <path id="Trazado_682075" data-name="Trazado 682075" d="M1071.769,2837.649c-.027.221.01.406.08.415s.147-.161.179-.382,0-.406-.069-.417-.161.163-.19.384Z" fill="#fff"/>
    <path id="Trazado_682076" data-name="Trazado 682076" d="M1073.111,2834.608l-.035,1.434c-.167.245-3.652.593-4.419.717-.258-.526-.851-1.806-.282-2.061.5-.5,3.731-.528,4.736-.09Z" fill="#5b2a15"/>
    <path id="Trazado_682077" data-name="Trazado 682077" d="M1064.076,2838.775c-.143-.031-.288-.059-.434-.085-.131-.025-.263-.047-.4-.068h-.019q-.735-.116-1.484-.162c-.09-.007-.182-.012-.273-.016h-.015c-.3-.012-.6-.018-.9-.015a4.661,4.661,0,0,1,.625-1.449v0c.049-.065.1-.127.157-.186a1.132,1.132,0,0,1,.106-.1,1.581,1.581,0,0,1,1.275-.4,1.192,1.192,0,0,1,.539.2,1.9,1.9,0,0,1,.525.506,2.41,2.41,0,0,1,.225.379,1.587,1.587,0,0,1,.075,1.41Z" fill="#fff"/>
    <path id="Trazado_682078" data-name="Trazado 682078" d="M1063.642,2838.69l0,.009-.02,0a13.356,13.356,0,0,0-1.865-.191l-.012-.046-.013-.05a15.3,15.3,0,0,1-.293-1.725,1.581,1.581,0,0,1,1.275-.4,1.192,1.192,0,0,1,.539.2,1.9,1.9,0,0,1,.525.506,2.41,2.41,0,0,1,.225.379,8.533,8.533,0,0,1-.359,1.325Z" fill="#30241b"/>
    <path id="Trazado_682079" data-name="Trazado 682079" d="M1063.2,2837.911c-.05.218-.029.405.039.421s.162-.147.215-.363.042-.405-.031-.422-.175.147-.223.364Z" fill="#fff"/>
    <path id="Trazado_682080" data-name="Trazado 682080" d="M1060.365,2834.7l.034,1.433c.166.245,3.652.594,4.419.717.258-.525.851-1.805.283-2.06-.5-.5-3.733-.528-4.736-.09Z" fill="#5b2a15"/>
    <path id="Trazado_682081" data-name="Trazado 682081" d="M1067.18,2842.225a4.119,4.119,0,0,1-1.971-.342,2.158,2.158,0,0,0,1.853,1.556c.851.039,1.249-.772,1.564-1.561a4.955,4.955,0,0,1-1.446.347Z" fill="#e5804e"/>
    <path id="Trazado_682082" data-name="Trazado 682082" d="M1074.854,2825.9l-3.3,2.672c1.374.71,1.62,4.2,1.889,5.563.352,1.786.839,3.571,1.038,5.356.76-1.77.836-4.468.927-6.437a19.9,19.9,0,0,0-.552-7.154Z" fill="#441d10"/>
    <path id="Trazado_682083" data-name="Trazado 682083" d="M1061.915,2843.953l.111.046c.072.03.178.07.313.121s.3.106.49.17.406.124.641.192.492.128.764.187.558.116.857.162c.148.024.3.044.454.065s.309.035.467.047c.313.028.632.038.951.04s.638-.014.95-.044c.156-.012.309-.037.463-.052s.3-.047.448-.075c.293-.057.578-.121.842-.2.133-.037.262-.075.384-.117s.245-.077.358-.123c.227-.084.433-.171.617-.25l.47-.218c.256-.135.408-.207.408-.207s-.118.117-.338.313c-.114.09-.251.206-.418.324-.086.058-.176.119-.271.185s-.2.12-.314.185-.227.124-.351.186-.253.118-.388.176a6.853,6.853,0,0,1-.872.3c-.155.044-.314.075-.476.112s-.326.061-.494.079a8.375,8.375,0,0,1-1.018.066,8.724,8.724,0,0,1-1.015-.063,9,9,0,0,1-1.845-.428c-.276-.093-.528-.2-.759-.3a7.147,7.147,0,0,1-1.063-.592c-.122-.081-.213-.154-.274-.2l-.092-.077Z" fill="#e5804e"/>
    <path id="Trazado_682084" data-name="Trazado 682084" d="M1065.275,2846.194l.041.009c.027.006.067.016.116.026s.107.021.174.034.143.025.223.041.168.03.26.041l.14.02c.049,0,.1.011.147.017.1.011.2.017.3.025s.207.012.311.008.207-.007.309-.009.2-.02.3-.03c.048-.008.095-.018.142-.024a1.127,1.127,0,0,0,.137-.025l.13-.029a1.125,1.125,0,0,0,.123-.029c.077-.024.15-.043.217-.06s.12-.041.168-.056c.095-.031.155-.045.155-.045s-.034.046-.1.123c-.036.038-.076.088-.13.136s-.12.095-.192.149a2.32,2.32,0,0,1-.251.146,2.593,2.593,0,0,1-.3.121c-.054.019-.111.029-.168.043a1.4,1.4,0,0,1-.174.035,2.535,2.535,0,0,1-.358.025c-.061,0-.122,0-.182-.006s-.118-.012-.177-.019-.115-.02-.173-.031a1.255,1.255,0,0,1-.164-.04c-.054-.016-.106-.031-.157-.048s-.1-.037-.147-.057a2.589,2.589,0,0,1-.257-.125,2.2,2.2,0,0,1-.2-.132,1.373,1.373,0,0,1-.146-.118.82.82,0,0,1-.084-.084l-.028-.032Z" fill="#e5804e"/>
    <path id="Trazado_682085" data-name="Trazado 682085" d="M1074.071,2839.856c-1-2.274,1.842-6.6,3.418-3.739a5.411,5.411,0,0,1-.548,4.766c-.982,1.145-2.211.45-2.846.6l-.024-1.628Z" fill="#ffb278"/>
    <path id="Trazado_682086" data-name="Trazado 682086" d="M1076.545,2836.672l-.032.076c-.276-.207-.918.11-1.131.533-.266.528-.059.716.186,1.044.26.35,1.163,1.85-.131,1.485-1.813-.511-.1-4.749,1.108-3.138Z" fill="#e5804e"/>
    <path id="Trazado_682087" data-name="Trazado 682087" d="M1076.253,2826.194c-.063.359-.914,1.2-1.144,1.525a11.529,11.529,0,0,1-1.1,1.42,7.406,7.406,0,0,1-2.926,2.179,12.676,12.676,0,0,1-5.052.391c-1.087-.138-2.164-.269-3.2-.466-1.085-.2-1.658-.283-2.224.782a15.153,15.153,0,0,0-1,4.088,17.594,17.594,0,0,1-.471,3.773l-1.807-2.987c.306-.354-1.534-8.252-1.482-8.869l.027,0a2.677,2.677,0,0,0,.794-.165,13.436,13.436,0,0,1-.581-1.961,9.889,9.889,0,0,0,1.78.452,4.758,4.758,0,0,1,1.649-3.2,6.476,6.476,0,0,0-.13,2.024c2.517-.509,5-1.668,7.531-2.272,2.195-.523,5.646-.706,7.608.573a5.415,5.415,0,0,1,1.577,1.95,1.408,1.408,0,0,1,.153.766Z" fill="#5b2a15"/>
    <path id="Trazado_682088" data-name="Trazado 682088" d="M1076.253,2826.194c-.063.359-.914,1.2-1.144,1.525a11.529,11.529,0,0,1-1.1,1.42,7.406,7.406,0,0,1-2.926,2.179,12.676,12.676,0,0,1-5.052.391c-1.087-.138-2.164-.269-3.2-.466-1.085-.2-1.658-.283-2.224.782a15.153,15.153,0,0,0-1,4.088,17.594,17.594,0,0,1-.471,3.773l-1.807-2.987c.306-.354-1.534-8.252-1.482-8.869l.027,0c.289.959.254,2.216,1.3,2.8,1.287.715,2.11-1.365,2.453-2.326,1.607.888,4.036.559,5.818.54a22.359,22.359,0,0,0,5.4-.472,12.344,12.344,0,0,0,3.93-2.024,8.537,8.537,0,0,0,1.324-1.115,1.408,1.408,0,0,1,.153.766Z" fill="#441d10"/>
    <path id="Trazado_682089" data-name="Trazado 682089" d="M1058.742,2839.856c1-2.274-1.843-6.6-3.418-3.739a5.4,5.4,0,0,0,.549,4.766c.981,1.145,2.209.45,2.845.6l.024-1.628Z" fill="#ffb278"/>
    <path id="Trazado_682090" data-name="Trazado 682090" d="M1056.267,2836.672l.033.076c.275-.207.917.11,1.13.533.267.528.059.716-.186,1.044-.259.35-1.163,1.85.131,1.485,1.814-.511.1-4.749-1.108-3.138Z" fill="#e5804e"/>
    <path id="Trazado_682091" data-name="Trazado 682091" d="M1065.523,2840.379a.876.876,0,0,1-.876.876h-4.16a.877.877,0,0,1-.876-.876v-3.43a.875.875,0,0,1,.787-.871.672.672,0,0,1,.089,0h4.16a.855.855,0,0,1,.459.132.868.868,0,0,1,.417.744v3.43Zm.436-3.52a1.315,1.315,0,0,0-.708-1.075,1.285,1.285,0,0,0-.6-.148h-4.16c-.034,0-.067,0-.1,0a1.3,1.3,0,0,0-.767.324h0a1.308,1.308,0,0,0-.445.985v3.43a1.315,1.315,0,0,0,1.313,1.314h4.16a1.315,1.315,0,0,0,1.314-1.314v-3.43c0-.03,0-.06,0-.09Z"/>
    <path id="Trazado_682092" data-name="Trazado 682092" d="M1074.063,2840.306a.876.876,0,0,1-.876.876h-4.16a.876.876,0,0,1-.876-.876v-3.43a.879.879,0,0,1,.876-.876h4.16a.871.871,0,0,1,.747.422v0a.862.862,0,0,1,.128.452v3.43Zm.4-3.722a1.183,1.183,0,0,0-.1-.281h0a1.31,1.31,0,0,0-.589-.6h0a1.325,1.325,0,0,0-.589-.139h-4.16a1.3,1.3,0,0,0-.767.248,1.318,1.318,0,0,0-.54.919,1.431,1.431,0,0,0-.007.147v3.43a1.315,1.315,0,0,0,1.314,1.314h4.16a1.3,1.3,0,0,0,.9-.362,1.31,1.31,0,0,0,.41-.952v-3.43a1.276,1.276,0,0,0-.034-.292Z"/>
    <path id="Trazado_682093" data-name="Trazado 682093" d="M1067.733,2837.477a1.01,1.01,0,0,0-.939-.66,1.084,1.084,0,0,0-.522.349,1.029,1.029,0,0,1-.4.286l-.117-.422h0a1.245,1.245,0,0,0,.211-.18,1.222,1.222,0,0,1,2.163.446l-.4.18Z"/>
    <path id="Trazado_682094" data-name="Trazado 682094" d="M1060.607,2850.853l.065.081.068-.081Z" fill="#fff"/>
    <path id="Trazado_682095" data-name="Trazado 682095" d="M1060.672,2850.934c-.835,1-2.938.832-3.673,1.922,1.825.465,2.651,7.358,3.677,9,1.5-1.248,4.681-5.535,6.344-6.323-2.6-1.28-4.365-2.129-6.348-4.595Z" fill="#2a3d37"/>
    <path id="Trazado_682096" data-name="Trazado 682096" d="M1072.627,2851.12l-.067.081-.067-.081Z" fill="#fff"/>
    <path id="Trazado_682097" data-name="Trazado 682097" d="M1072.56,2851.2c.836,1,2.81.832,3.544,1.923-1.824.464-2.7,6.8-3.723,8.435-1.5-1.247-4.367-5.108-6.03-5.9,2.6-1.281,4.226-2,6.209-4.462Z" fill="#2a3d37"/>
    <path id="Trazado_682098" data-name="Trazado 682098" d="M1136.5,2819.474v56.951h-41.053v-56.951Z" fill="#f4f4f4"/>
    <path id="Trazado_682099" data-name="Trazado 682099" d="M1129.339,2860.849a29.282,29.282,0,0,1-1.7-4.594c-.961-3.374-2.43-19.457-3.018-21.838-.348-1.418-1.484,1.812-1.693.4a17.962,17.962,0,0,0-1-3.091l-15.872,3.194c-.135-.191-.118.368-.178.7-.076.434-1.073-5.225-1.119-4.791-.094.884-.36,23.154-1.023,25.054a24.266,24.266,0,0,0-1.475,4.692c-.194,1.371-.514,3.694.5,4.713,1.562,1.568,4.293,2.051,6.385,2.18a36.317,36.317,0,0,0,10.506-.879c3.373-.791,6.907-1.586,9.66-3.821.939-.762.527-.866.025-1.914Z" fill="#1c1214"/>
    <path id="Trazado_682100" data-name="Trazado 682100" d="M1136.5,2872.449v3.976h-41.052v-.544c.5-6.779,1.4-13.592,3-16.227.546-.9,2.647-1.772,4.83-2.541,1.644-.579,3.336-1.1,4.444-1.518.786-.3,1.278-.546,1.251-.731l1.152.019.427.007,9.759.161.373.006,1.43.024c.347.167.713.327,1.092.479a37.415,37.415,0,0,0,4.654,1.443c.075.02.148.038.223.056A23.185,23.185,0,0,1,1133,2859.8c1.329,1.992,2.523,7.081,3.494,12.649Z" fill="#ff221d"/>
    <path id="Trazado_682101" data-name="Trazado 682101" d="M1115.4,2860c-1.18-.48-5.541-4.336-5.269-5.207.167-.53.724-2.39,1-3.8.5-2.557.781-5.67-.634-6.092l8.984.9c-.383,2.2-.131,6.664,1.1,8.559.944,1.452-3.63,4.646-5.185,5.643Z" fill="#ffb278"/>
    <path id="Trazado_682102" data-name="Trazado 682102" d="M1119.791,2852.4a8.355,8.355,0,0,1-1.181.889c-2.616,1.532-5.473.372-7.208-1.925-.092-.12-.179-.243-.264-.369.5-2.557.781-5.67-.634-6.092l8.984.9a17.882,17.882,0,0,0,.3,6.6Z" fill="#e5804e"/>
    <path id="Trazado_682103" data-name="Trazado 682103" d="M1122.907,2832.358a12.842,12.842,0,0,1-2.5-2.263c-.167-.18-.327-.375-.484-.579-.678-.876-1.29-1.919-1.975-2.763a7.728,7.728,0,0,0-2.422-.01v-.076a7.7,7.7,0,0,0-2.433.009c-.685.843-1.3,1.886-1.975,2.762-.158.2-.318.4-.484.579a12.878,12.878,0,0,1-2.5,2.263,29.735,29.735,0,0,0-1.224,9.116c0,.238.011.469.022.7a9.164,9.164,0,0,0,2.3,5.779c4.55,5.515,8.6,5.151,12.575.078a9.512,9.512,0,0,0,2.3-5.779c.01-.225.019-.458.021-.7a29.7,29.7,0,0,0-1.223-9.115Z" fill="#ffb278"/>
    <path id="Trazado_682104" data-name="Trazado 682104" d="M1113.523,2841.074a1.6,1.6,0,0,0-.315-.083c-.117-.022-.26-.047-.42-.07h0c-.2-.029-.441-.058-.689-.08a12.083,12.083,0,0,0-1.565-.052c-.095,0-.187.011-.273.02a2.11,2.11,0,0,0-.543.112,8.674,8.674,0,0,1,.456-.947,4.927,4.927,0,0,1,.272-.434,2.054,2.054,0,0,1,1.453-1,.6.6,0,0,1,.422.176,2.949,2.949,0,0,1,.566.747,7.111,7.111,0,0,1,.539,1.2v0a1.739,1.739,0,0,1,.1.4Z" fill="#fff"/>
    <path id="Trazado_682105" data-name="Trazado 682105" d="M1112.9,2839.856a5.036,5.036,0,0,1-.11,1.065h0c-.2-.029-.441-.058-.689-.08a12.083,12.083,0,0,0-1.565-.052c-.095,0-.187.011-.273.02a4.709,4.709,0,0,1-.087-.835,4.927,4.927,0,0,1,.272-.434,2.054,2.054,0,0,1,1.453-1,.6.6,0,0,1,.422.176,2.949,2.949,0,0,1,.566.747c.009.128.013.259.013.393Z" fill="#0d1821"/>
    <path id="Trazado_682106" data-name="Trazado 682106" d="M1112.431,2840.022c0,.248-.076.45-.169.45s-.169-.2-.169-.45.077-.451.169-.451.169.2.169.451Z" fill="#fff"/>
    <path id="Trazado_682107" data-name="Trazado 682107" d="M1121.838,2841.074a1.568,1.568,0,0,0-.314-.083c-.118-.022-.261-.047-.421-.07h0c-.2-.029-.44-.058-.688-.08a12.075,12.075,0,0,0-1.565-.052c-.1,0-.187.011-.273.02a2.109,2.109,0,0,0-.543.112,8.5,8.5,0,0,1,.456-.947,5.105,5.105,0,0,1,.272-.434,2.052,2.052,0,0,1,1.453-1,.6.6,0,0,1,.421.176,2.928,2.928,0,0,1,.567.747,7.123,7.123,0,0,1,.539,1.2v0a1.806,1.806,0,0,1,.1.4Z" fill="#fff"/>
    <path id="Trazado_682108" data-name="Trazado 682108" d="M1121.213,2839.856a4.973,4.973,0,0,1-.11,1.065h0c-.2-.029-.44-.058-.688-.08a12.075,12.075,0,0,0-1.565-.052c-.1,0-.187.011-.273.02a4.7,4.7,0,0,1-.087-.835,5.105,5.105,0,0,1,.272-.434,2.052,2.052,0,0,1,1.453-1,.6.6,0,0,1,.421.176,2.928,2.928,0,0,1,.567.747c.008.128.013.259.013.393Z" fill="#0d1821"/>
    <path id="Trazado_682109" data-name="Trazado 682109" d="M1120.746,2840.022c0,.248-.076.45-.169.45s-.169-.2-.169-.45.076-.451.169-.451.169.2.169.451Z" fill="#fff"/>
    <path id="Trazado_682110" data-name="Trazado 682110" d="M1113.391,2837.085c-1.124-1.549-4.364-1.02-5.439.233a2.98,2.98,0,0,1,2.786-.172c.46.139,3.155.7,2.653-.061Z" fill="#301f23"/>
    <path id="Trazado_682111" data-name="Trazado 682111" d="M1117.835,2836.929c1.126-1.549,4.364-1.02,5.44.233a2.986,2.986,0,0,0-2.786-.172c-.46.14-3.155.7-2.654-.061Z" fill="#301f23"/>
    <path id="Trazado_682112" data-name="Trazado 682112" d="M1115.965,2847.057a15.874,15.874,0,0,1-2.153-.256c.008.049-.156,1.5,2.159,1.338,2.315.15,2.138-1.3,2.146-1.35a15.843,15.843,0,0,1-2.152.268Z" fill="#e51f1f"/>
    <path id="Trazado_682113" data-name="Trazado 682113" d="M1118.72,2846.541c-1.364.365-2.146-.547-2.52-.136-.128.127-.184.225-.275.259-.09-.034-.146-.132-.274-.259-.374-.411-1.157.5-2.521.136a4.9,4.9,0,0,0,5.59,0Z" fill="#d11919"/>
    <path id="Trazado_682114" data-name="Trazado 682114" d="M1114.745,2843.9s.042.021.11.061c.034.023.078.042.123.067s.1.047.156.073a.669.669,0,0,0,.089.036.877.877,0,0,0,.094.033c.034.008.067.019.1.028l.107.021a.907.907,0,0,0,.11.016.869.869,0,0,0,.117.011l.06,0,.03,0h.013l.142,0h.071l.054-.007c.034-.006.069-.008.1-.011.072-.019.152-.023.219-.048.036-.011.07-.021.106-.03l.1-.038c.068-.022.124-.054.183-.079s.106-.056.155-.08.088-.047.122-.067c.066-.039.111-.061.111-.061a.627.627,0,0,1-.035.1.543.543,0,0,1-.058.112.759.759,0,0,1-.1.137.915.915,0,0,1-.163.147c-.033.024-.068.048-.1.073s-.083.041-.125.062a.767.767,0,0,1-.139.055c-.05.016-.1.032-.154.045s-.115.02-.173.027c-.028,0-.061.008-.087.01h-.271l-.04-.005-.079-.009a1.023,1.023,0,0,1-.156-.029.949.949,0,0,1-.149-.042c-.047-.018-.094-.033-.136-.054s-.081-.042-.117-.064a1.03,1.03,0,0,1-.18-.143.8.8,0,0,1-.11-.138.452.452,0,0,1-.059-.111.717.717,0,0,1-.035-.1Z" fill="#e5804e"/>
    <path id="Trazado_682115" data-name="Trazado 682115" d="M1125.031,2832.7a14.811,14.811,0,0,1-.092,1.54c-.123,1.148-.338,2.281-.454,3.449-.169,1.7-.227,3.478-.517,5.165-.412-2.659-.537-5.743-2.208-7.97a16.657,16.657,0,0,0-2.6-2.782c-1.562-1.337-1.159-2.271-1.736-3.937a8.719,8.719,0,0,0-.315,1.313c-.4,1.611-1.449,2.4-2.909,3.145a17.356,17.356,0,0,1-1.846.83c-.691.254-1.636.195-2.317.488-1.436.618-1.283,3.032-1.428,4.29-.229,2.01-.666,2.328-2.413,2.991l-.52-1.559a46.308,46.308,0,0,0-.836-6.86,7.88,7.88,0,0,1,.12-3.149v0a7.346,7.346,0,0,1,5.207-5.14c3.714-1.189,6.725-.934,9.616,1.772,1.225,1.147,2.957.9,4.108,1.92,1.175,1.041,1.143,3.124,1.141,4.5Z" fill="#301f23"/>
    <path id="Trazado_682116" data-name="Trazado 682116" d="M1124.939,2834.242c-.123,1.148-.338,2.281-.454,3.449-.169,1.7-.227,3.478-.517,5.165-.412-2.659-.537-5.743-2.208-7.97a16.657,16.657,0,0,0-2.6-2.782c-1.562-1.337-1.159-2.271-1.736-3.937a8.719,8.719,0,0,0-.315,1.313c-.4,1.611-1.449,2.4-2.909,3.145a17.356,17.356,0,0,1-1.846.83c-.691.254-1.636.195-2.317.488-1.436.618-1.283,3.032-1.428,4.29-.229,2.01-.666,2.328-2.413,2.991l-.52-1.559a46.308,46.308,0,0,0-.836-6.86,7.88,7.88,0,0,1,.12-3.149,14.869,14.869,0,0,0,1.241,4.572c-.085-2.717,2.669-3.877,4.8-4.413a12.525,12.525,0,0,0,6.193-3.547,8.773,8.773,0,0,0,1.919,4.439c1.059,1.314,2.553,1.329,3.927,2.073a7.391,7.391,0,0,1,1.9,1.462Z" fill="#1c1214"/>
    <path id="Trazado_682117" data-name="Trazado 682117" d="M1104.033,2840.917c.119-1.176,1.01-2.176,1.866-1.748,2.51,1.254,1.588,4.271,1.588,4.271-.2,1.173-1.616,1.113-2.2.672a4.078,4.078,0,0,1-1.251-3.2Z" fill="#ffb278"/>
    <path id="Trazado_682118" data-name="Trazado 682118" d="M1106.24,2840.359c.246.549.669,1.783.669,1.783.038.94-1.451.717-1.453-.4,0-.5.441-.919-.012-1.266-.312-.237-.661.069-.847.435-.012-1.068,1.256-1.415,1.643-.553Z" fill="#e5804e"/>
    <path id="Trazado_682119" data-name="Trazado 682119" d="M1126.579,2840.538c-.334-1.134-1.394-1.953-2.156-1.374-2.235,1.7-.773,4.491-.773,4.491.417,1.115,1.795.8,2.29.254a4.073,4.073,0,0,0,.639-3.371Z" fill="#ffb278"/>
    <path id="Trazado_682120" data-name="Trazado 682120" d="M1124.308,2840.4c-.141.585-.329,1.875-.329,1.875.136.932,1.559.438,1.355-.659-.091-.491-.6-.823-.222-1.247.264-.291.662-.054.912.271-.185-1.052-1.495-1.159-1.716-.24Z" fill="#e5804e"/>
    <path id="Trazado_682121" data-name="Trazado 682121" d="M1115.58,2859.873a10.909,10.909,0,0,1-5.3-5.59c-.663.166-2.286.433-2.613,1.452-.206.64-.727,3.84,3.049,6.243a3.241,3.241,0,0,0,3.485-.073c.726-.653,1.818-1.829,1.379-2.032Z" fill="#ff5050"/>
    <path id="Trazado_682122" data-name="Trazado 682122" d="M1115.364,2859.873a10.9,10.9,0,0,0,5.3-5.59c.664.166,2.287.433,2.614,1.452.206.64.727,3.84-3.049,6.243a3.29,3.29,0,0,1-3.484-.073c-.51-.435-1.819-1.829-1.38-2.032Z" fill="#ff5050"/>
    <path id="Trazado_682123" data-name="Trazado 682123" d="M1038.685,2819.474v56.951H997.631v-56.951h41.054" fill="#f4f4f4"/>
    <path id="Trazado_682124" data-name="Trazado 682124" d="M1038.685,2861.044v15.381H997.631v-15.118c1.244-1.252,3.005-1.884,4.885-2.635,2.526-1.01,7.471-2.308,8.777-5.023l13.846.975c2.61,2.208,7.2,3.949,10.92,5.115a7.692,7.692,0,0,1,2.626,1.3Z" fill="#5895ba"/>
    <path id="Trazado_682125" data-name="Trazado 682125" d="M1024.717,2855.113c-1.161,1.183-6.525,5.951-7.979,7.135-1.9-.418-6.249-5.21-6.447-6.228a12.5,12.5,0,0,0,.615-3.741,9.991,9.991,0,0,0-.246-1.793c-.423-1.87-.3-4.388-1.267-5.994l4.7-.037,9.545-.076a6.718,6.718,0,0,0-.232,2.054,36.992,36.992,0,0,0,.347,5.184h0a8.739,8.739,0,0,0,.969,3.5Z" fill="#ffb278"/>
    <path id="Trazado_682126" data-name="Trazado 682126" d="M1023.748,2851.617h0a7.974,7.974,0,0,1-9.043,3.416,7.226,7.226,0,0,1-3.8-2.755,9.991,9.991,0,0,0-.246-1.793c-.423-1.87-.3-4.388-1.267-5.994l4.7-.037,9.313,1.978a36.992,36.992,0,0,0,.347,5.184Z" fill="#e5804e"/>
    <path id="Trazado_682127" data-name="Trazado 682127" d="M1021.36,2827.477c-3.892-1.82-7.906-1.25-10.618,2.27a52.1,52.1,0,0,0-1.386,8.464c-.3,3.977-.956,8.73.77,11.389,1.8,2.771,5.989,6.37,10.465,3.386a13.555,13.555,0,0,0,4.463-5.078c1.386-2.718.633-6.281.77-9.389.217-4.968.6-8.676-4.464-11.042" fill="#ffb278"/>
    <path id="Trazado_682128" data-name="Trazado 682128" d="M1015.436,2843.944c.751-1.326.667-4.412.667-4.412a22.191,22.191,0,0,1-1.667,4.8c1.392.443,2.788.688,3.923-.154-.825.491-2.019-.035-2.923-.231Z" fill="#e5804e"/>
    <path id="Trazado_682129" data-name="Trazado 682129" d="M1020.916,2845.658a17.011,17.011,0,0,1-1.479,2.288,3.3,3.3,0,0,1-2.539,1.308,2.954,2.954,0,0,1-2.392-.947,23.484,23.484,0,0,1-1.687-2.054c.639.094,1.294.184,1.959.247a10.979,10.979,0,0,0,6.138-.842Z" fill="#e5804e"/>
    <path id="Trazado_682130" data-name="Trazado 682130" d="M1020.768,2845.264l-.006.009.01,0c.024-.032.023-.034,0,0Z" fill="#e5804e"/>
    <path id="Trazado_682131" data-name="Trazado 682131" d="M1020.916,2845.658a17.011,17.011,0,0,1-1.479,2.288,3.3,3.3,0,0,1-2.539,1.308,2.954,2.954,0,0,1-2.392-.947,3.4,3.4,0,0,0,.272-1.807,10.979,10.979,0,0,0,6.138-.842Z" fill="#fff"/>
    <path id="Trazado_682132" data-name="Trazado 682132" d="M1015.359,2850.87a2.461,2.461,0,0,1,2.789.058,1.624,1.624,0,0,0-2.789-.058Z" fill="#e5804e"/>
    <path id="Trazado_682133" data-name="Trazado 682133" d="M1018.154,2850.933l-.006-.005,0,.007c.029.029.029.029,0,0Z" fill="#e5804e"/>
    <path id="Trazado_682134" data-name="Trazado 682134" d="M1014.369,2840.5a2.1,2.1,0,0,0-.28-.166,4.036,4.036,0,0,0-2.25-.238,7.977,7.977,0,0,0-.919.181,6.436,6.436,0,0,1,.909-1.983,1.323,1.323,0,0,1,1.17-.635,1.572,1.572,0,0,1,1.2,1.262,4.261,4.261,0,0,1,.17,1.579Z" fill="#fff"/>
    <path id="Trazado_682135" data-name="Trazado 682135" d="M1014.205,2839.161a5.8,5.8,0,0,1-.116,1.173,4.036,4.036,0,0,0-2.25-.238,6.194,6.194,0,0,1-.01-1.8,1.323,1.323,0,0,1,1.17-.635,1.572,1.572,0,0,1,1.2,1.262q.006.119.006.24Z" fill="#16110f"/>
    <path id="Trazado_682136" data-name="Trazado 682136" d="M1012.46,2839.212c0,.276-.07.5-.154.5s-.154-.224-.154-.5.069-.5.154-.5.154.225.154.5Z" fill="#fff"/>
    <path id="Trazado_682137" data-name="Trazado 682137" d="M1023.37,2840.654a2.16,2.16,0,0,0-.309-.166,4.875,4.875,0,0,0-2.482-.238,9.486,9.486,0,0,0-1.013.18,6.1,6.1,0,0,1,1-1.982,1.5,1.5,0,0,1,1.291-.635,1.657,1.657,0,0,1,1.325,1.262,3.861,3.861,0,0,1,.186,1.579Z" fill="#fff"/>
    <path id="Trazado_682138" data-name="Trazado 682138" d="M1023.189,2839.315a5.254,5.254,0,0,1-.128,1.173,4.875,4.875,0,0,0-2.482-.238,5.568,5.568,0,0,1-.011-1.8,1.5,1.5,0,0,1,1.291-.635,1.657,1.657,0,0,1,1.325,1.262c0,.079.005.159.005.24Z" fill="#16110f"/>
    <path id="Trazado_682139" data-name="Trazado 682139" d="M1021.264,2839.366c0,.276-.077.5-.17.5s-.171-.224-.171-.5.077-.5.171-.5.17.224.17.5Z" fill="#fff"/>
    <path id="Trazado_682140" data-name="Trazado 682140" d="M1014.329,2835.186c-1-.672-5.247-.023-4.524,2.084.464.623,1.03.535,1.681.535a10.534,10.534,0,0,1,1.449.076c.356.049,1.051.31,1.379.136.7-.371.652-2.4.015-2.831" fill="#16110f"/>
    <path id="Trazado_682141" data-name="Trazado 682141" d="M1020.113,2835.568c1-.672,5.248-.023,4.524,2.084-.463.623-1.029.535-1.682.535a10.557,10.557,0,0,0-1.448.076c-.355.048-1.051.31-1.378.136-.7-.371-.653-2.4-.016-2.831Z" fill="#16110f"/>
    <path id="Trazado_682142" data-name="Trazado 682142" d="M1025.439,2843.406a31.09,31.09,0,0,1-.461-4.386c.15-6.4-.961-7.725-1.309-8.388-6.694,5.925-11.591.232-12.373-.3-.342,1.5-2.324,9.459-2.324,9.459a32.365,32.365,0,0,1-.693-9c0-.078.011-.159.02-.244.147-1.284.975-3.169,2.211-3.368.272-.045.661-.007.924-.082.45-.13.365-.174.692-.538.411-.457,1.08-1.2,1.539-1.617,2.112-1.908,5.7-3.158,8.525-2.46a7.976,7.976,0,0,1,5.967,6.664c.02.112.036.224.052.337.538,3.847-2.361,13.315-2.77,13.928" fill="#281f1c"/>
    <path id="Trazado_682143" data-name="Trazado 682143" d="M1008.062,2838.48c1.239-.076,2.243,1.852,2.384,2.876l-.08,1.313c.107.736-.841,2.352-1.81,2.2-1.087-.173-1.484-1.96-1.706-2.87-.266-1.094-.464-3.415,1.212-3.517Z" fill="#ffb278"/>
    <path id="Trazado_682144" data-name="Trazado 682144" d="M1008.927,2839.6a2.68,2.68,0,0,1,.565,2.371s-.526.845-.813.73c-.429-.171-.427-.907-.354-1.277.1-.5.529-.985.081-1.432a.7.7,0,0,0-1.141.069.908.908,0,0,1,1.662-.461Z" fill="#e5804e"/>
    <path id="Trazado_682145" data-name="Trazado 682145" d="M1025.439,2843.406a31.09,31.09,0,0,1-.461-4.386c.15-6.4-.961-7.725-1.309-8.388-6.694,5.925-11.591.232-12.373-.3-.342,1.5-2.324,9.459-2.324,9.459a32.365,32.365,0,0,1-.693-9c0-.078.011-.159.02-.244a.705.705,0,0,0,.36.247c1.069.322,2.219-1.654,2.6-2.305-.11,2.067,4.3,2.586,5.709,2.844a7.63,7.63,0,0,0,6.949-2.685c1.009.951,1.3,2.825,3.059,1.926a2.432,2.432,0,0,0,1.178-1.428c.02.112.036.224.052.337.538,3.847-2.361,13.315-2.77,13.928" fill="#0a0807"/>
    <path id="Trazado_682146" data-name="Trazado 682146" d="M1027.681,2839.033c-1.181-.075-1.931,1.385-2.064,2.409l-.132,1.781c-.1.736.8,2.352,1.726,2.2,1.036-.173,1.413-1.96,1.625-2.871.254-1.094.443-3.414-1.155-3.517Z" fill="#ffb278"/>
    <path id="Trazado_682147" data-name="Trazado 682147" d="M1026.856,2840.15a2.784,2.784,0,0,0-.538,2.371s.5.846.776.731c.408-.171.407-.908.336-1.278-.1-.5-.5-.984-.077-1.432a.646.646,0,0,1,1.088.07.859.859,0,0,0-1.585-.462Z" fill="#e5804e"/>
    <path id="Trazado_682148" data-name="Trazado 682148" d="M1024.161,2853.83c-.82,1.345-6.116,7.208-7.794,8.171.674.566,4.5,2.962,5.367,3.8,2.34-3.043,3.727-6.771,6.154-9.2a32.763,32.763,0,0,0-3.727-2.774Z" fill="#bdf3f9"/>
    <path id="Trazado_682149" data-name="Trazado 682149" d="M1010.8,2854.012c-.682.518-3.286,3.692-2.843,4.845a10.336,10.336,0,0,0,1.82,3.034c.757.851,1.221,2.138,2.08,2.86,1.285-.949,3.759-2.338,5.461-2.34,0,0-6.587-4.854-6.518-8.4Z" fill="#bdf3f9"/>
    <path id="Trazado_682150" data-name="Trazado 682150" d="M923.885,2905.424c2.9,22.945,11.546,65.363,13.966,74.3.751,2.772,1.192-3.409,1.639-.484-.027-.268-.05-.542-.077-.82-.407-4.449-.8-9.435-1.108-14.606a277.791,277.791,0,0,1-.424-30.387c.013-.255.028-.509.045-.764v-.029c.246-4.231.541-8.578.892-12.966q.348-4.359.768-8.749c.384-4.016.814-8.023,1.291-11.965q.456-3.793.969-7.491c.429-3.077.887-6.09,1.378-9.008l-9.67.552-9.361.531a35.711,35.711,0,0,0-1.082,6.865c-.068.892-.119,1.784-.16,2.656a84.417,84.417,0,0,0,.934,12.368Z" fill="#ffb278"/>
    <path id="Trazado_682151" data-name="Trazado 682151" d="M939.8,2983.336c-.079-1.452-.4-3.847-.588-5.245l-1.754-.254c-1.852,1.685-1.98,3.409-2.885,5.321l5.227.178Z" fill="#fff"/>
    <path id="Trazado_682152" data-name="Trazado 682152" d="M933.5,2889.786c.009,5.617.145,11.261.334,16.871.172,5.253.39,10.481.586,15.644.489,12.942,1.242,26.976,2.7,40.311.589,5.409,1.292,10.7,2.144,15.764l.15.041,1.5.418c.117-15.172,8.512-46.276,13.024-69.511,1.218-6.258-.078-10.732.781-15.624.876-4.981,1.487-9.042,1.689-11.736.392-5.223-4.812-30.812-2.731-32.439l-15.767-10.26c-3.011,9.208-3.251,22.349-3.9,32.568-.007.086-.01.17-.016.255-.227,3.614-.363,7.256-.433,10.916q-.063,3.383-.055,6.782Z" fill="#ffb278"/>
    <path id="Trazado_682153" data-name="Trazado 682153" d="M947.26,2983.336c-.686-1.994-4.4-3.944-6.35-5.682l-1.753.28c-.2,1.449-.519,3.968-.579,5.4Z" fill="#fff"/>
    <path id="Trazado_682154" data-name="Trazado 682154" d="M938.3,2963.811c-.413-14.622-.513-24.331-.379-31.151v-.043a98.685,98.685,0,0,1,.892-12.947v0c.351-2.285,1.057-9.038,1.54-10.988,1.95-7.89,10.92-9.159,12.153-3.171,1.218-6.258,1.346-6.914,2.205-11.806a7.6,7.6,0,0,0-4.694-.79,13.1,13.1,0,0,0-4.46,1.641v0c-.38.215-.757.454-1.124.7a13.77,13.77,0,0,0-3.561,3.695,20.493,20.493,0,0,0-3.845,12.13c-1.531,17.05.443,52.8,1.46,58.967-.07-2.168-.128-4.243-.187-6.223v-.014Z" fill="#e5804e"/>
    <path id="Trazado_682155" data-name="Trazado 682155" d="M923.914,2905.185c-.075-.317,11.336-6.724,14.628,8.22a10.4,10.4,0,0,0,1.044-2.489l5.976-16.365.523-1.429a39.714,39.714,0,0,0-4.239-1.662,35.978,35.978,0,0,0-8.347-1.674,38.771,38.771,0,0,0-10.388.614c-.068.892-.119,1.784-.16,2.656a45.772,45.772,0,0,0,.963,12.129Z" fill="#e5804e"/>
    <path id="Trazado_682156" data-name="Trazado 682156" d="M922.834,2824.42c.14,3.226-2.2,7.849-3.2,10.972a45.622,45.622,0,0,0-2.149,10.189c-.182,2.362,1.7,7.716,4.968,8.382,3.22.657,8.3.407,10.057-1.611.357-.411-4.193-5.337-3.914-5.66l-5.767-22.272Z" fill="#ffb278"/>
    <path id="Trazado_682157" data-name="Trazado 682157" d="M930.092,2809.262c-8.6-.156-10,12.361-11.388,18.66a90.559,90.559,0,0,0-1.594,12.548c-.148,1.966-.847,3.582.668,4.8,1.347,1.082,4.237,1.06,5.908.849,1.623-.2,4.119-1.661,5.207-1.451l1.2-35.4Z" fill="#bc5824"/>
    <path id="Trazado_682158" data-name="Trazado 682158" d="M966.271,2916c-22.689,11.928-50.259,2.883-50.808.466-.713-3.138.8-22.488,1.23-28.962.047-.734.08-1.3.1-1.662.373-8.736,2.328-18.492,7.37-24.206,4.41-5,2.521-7.737,7.089-11.989l22.553,8.245c-.44.789.293,4.314.792,6.778a.16.16,0,0,0,.089.131h0c.377.137,1.679-1.541,1.743-1.148.106.65.249,1.388.419,2.2,1.038,4.948,3.1,12.524,4.008,18.549,1.84,12.228,4.158,27.313,5.4,31.554l.015.048Z" fill="#073149"/>
    <path id="Trazado_682159" data-name="Trazado 682159" d="M966.271,2916c-22.689,11.928-50.259,2.883-50.808.466-.713-3.138.8-22.488,1.23-28.962a21.2,21.2,0,0,0,15.53,7.845c8.227.378,17.467-4.5,19.589-28.059.057-.622,1.226-1.58,2.782-2.62a.284.284,0,0,0,.089.131h0a9.36,9.36,0,0,0,2.162,1.048c1.038,4.948,3.1,12.524,4.008,18.549,1.84,12.228,4.158,27.313,5.4,31.554l.015.048Z" fill="#031821"/>
    <path id="Trazado_682160" data-name="Trazado 682160" d="M960.667,2803.515c-.6,1.646-1.259,4.007-2.488,5.384a3.454,3.454,0,0,1-1.121.86,2.769,2.769,0,0,1-1.295.25,7.643,7.643,0,0,1-1.894-.422l-.028-.01q-.408-.135-.848-.3c-.713-.274-1.478-.611-2.239-.983-2.274-1.115-4.508-2.553-5.24-3.618-2.9-4.232-5.111-12.418-3.241-17.154,2.918-7.391,8.666-7.374,14.985-5.2l3.6,1.732c2.213,1.292.711,7.915.317,10.208-.655,3.822,1.311,4.295-.513,9.259Z" fill="#ffb278"/>
    <path id="Trazado_682161" data-name="Trazado 682161" d="M960.741,2792.1l-2.57,9.415c1.632,1.189,4.017-.181,4.925-1.522-2.453-2.329-1.515-5.024-2.355-7.893Z" fill="#ffb278"/>
    <path id="Trazado_682162" data-name="Trazado 682162" d="M957.89,2794.3c.6-1.134,4.67-3.283,4.346-.679-.079.639-4.313,1.116-4.346.679Z" fill="#442e23"/>
    <path id="Trazado_682163" data-name="Trazado 682163" d="M957.058,2809.759a2.769,2.769,0,0,1-1.295.25,12.142,12.142,0,0,1-1.894-.422l-.028-.01q-.442-.136-.848-.3c-4.314-1.765-5.577-5.679-6.428-7l2.588-4.044c.519.968.962,3.946,1.391,5.139a13.065,13.065,0,0,0,6.514,6.389Z" fill="#e5804e"/>
    <path id="Trazado_682164" data-name="Trazado 682164" d="M958.866,2796.46a10.156,10.156,0,0,0,2.687.588c-.034-.169-.068-.347-.109-.532,0-.027-.011-.053-.015-.078a5.109,5.109,0,0,1-.083-1.286,1.485,1.485,0,0,0-.556-.3.615.615,0,0,0-.407.055,2.139,2.139,0,0,0-.554.374,5.265,5.265,0,0,0-.756.829l0,0-.04.058v0a1.111,1.111,0,0,0-.164.285Z" fill="#e5804e"/>
    <path id="Trazado_682165" data-name="Trazado 682165" d="M959.073,2796.113l0,0-.018.05a1.657,1.657,0,0,1,.28-.006c.1,0,.229.011.369.022.179.014.384.036.6.063.372.047.776.114,1.13.194a5.109,5.109,0,0,1-.083-1.286c.007-.119.017-.237.032-.355a1.333,1.333,0,0,0-.483-.254.56.56,0,0,0-.386.059,2.367,2.367,0,0,0-.618.462,5.55,5.55,0,0,0-.678.811v0a1.673,1.673,0,0,0-.14.235Z" fill="#fff"/>
    <path id="Trazado_682166" data-name="Trazado 682166" d="M959.891,2795.064c-.023.07-.045.144-.062.22l-.021.073a3.4,3.4,0,0,0-.106.824c.179.014.384.036.6.063.372.047.776.114,1.13.194a5.109,5.109,0,0,1-.083-1.286c.007-.119.017-.237.032-.355a1.333,1.333,0,0,0-.483-.254.56.56,0,0,0-.386.059,2.367,2.367,0,0,0-.618.462Z" fill="#0d1821"/>
    <path id="Trazado_682167" data-name="Trazado 682167" d="M960.17,2795.566c-.047.188-.021.353.058.37s.18-.122.226-.31.02-.353-.058-.37-.18.122-.226.31Z" fill="#fff"/>
    <path id="Trazado_682168" data-name="Trazado 682168" d="M953.278,2803.442l-3.71-6.338c.289.674-4.89-.119-5.241.5-.864,1.534-2.935-1.213-3.025.5-.168,3.193-1.98,10.135-3.228,11,.431.724,6.268,5.95,11.9,5.587.017-1.321.575-11.332,3.309-11.26Z" fill="#ffb278"/>
    <path id="Trazado_682169" data-name="Trazado 682169" d="M957.93,2873.245a20.88,20.88,0,0,1-7.61,2.631c-13.5,2.226-32.652-3.657-31.526-7.085,2.8-8.522,8.479-10.5,7.338-18.417s-4.684-20.6-4.117-28.518c.607-8.459-.242-16.1,21.2-11.622,3.143.657,13.2,1.8,18.134,7.286,3.579,3.978-1.592,7.341-3.2,12.589a15.711,15.711,0,0,0-.615,2.724c-.428,3.606-2.291,16.311-2.7,19.809-.438,3.776,4.956,19.45,3.1,20.6Z" fill="#eb6f2d"/>
    <path id="Trazado_682170" data-name="Trazado 682170" d="M946.28,2806.351c-3.736-1.139-7.848-.992-11.577-1.778-.3,2.187-1.4,7.291-2.64,8.012l21.817,1.994c-2.713-1.581-4.25-7.205-7.6-8.228Z" fill="#eb6f2d"/>
    <path id="Trazado_682171" data-name="Trazado 682171" d="M957.93,2873.245a20.88,20.88,0,0,1-7.61,2.631q.111-.324.212-.657a48.466,48.466,0,0,0,2.287-11.916c.118-3.148-.44-6.3-.346-9.29.1-3.069-.976-14.769-.591-17.816.414-3.274,1.188-7.274,1.755-10.477.5-2.793,1.011,2.762,2.235.258a41.894,41.894,0,0,1,2.27,4.131,15.711,15.711,0,0,0-.615,2.724c-.428,3.606-2.291,16.311-2.7,19.809-.438,3.776,4.956,19.45,3.1,20.6Z" fill="#bc5824"/>
    <path id="Trazado_682172" data-name="Trazado 682172" d="M949.984,2796.963a19.9,19.9,0,0,0-1.839,1.624c-.054.055-.105.109-.156.163-.025.027-.05.052-.074.079-.049.052-.094.1-.139.154-.068.076-.131.148-.191.221s-.114.142-.166.21-.1.134-.146.2-.087.126-.126.188a3.654,3.654,0,0,0-.249.457,2.489,2.489,0,0,0-.2,1.4,16.014,16.014,0,0,0-6.169-.3c-.089-.188-.183-.385-.279-.59,0,0-.941-1.339-1.037-1.532l-.009-.021c-3.408-4.232-4.64-8.142-4.263-11.461.679-6.015,6.637-10.1,14.477-10.686,4.164-.31,10.94,1.871,12.661,6.088a5.373,5.373,0,0,1,.387,1.574c.385,4.254-10.358,19.9-12.487,12.228Z" fill="#442e23"/>
    <path id="Trazado_682173" data-name="Trazado 682173" d="M942.459,2791.223a12.279,12.279,0,0,0,2.163.455l4.96-6.111c-1.036-4.53-.735-10.384-5.914-11.7-4.842-1.233-11.1,5.042-10.9,9.632.138,3.2,4.08,4.9,6.524,6.891,1.021.833,1.994.374,3.168.835Z" fill="#442e23"/>
    <path id="Trazado_682174" data-name="Trazado 682174" d="M949.984,2796.963a19.9,19.9,0,0,0-1.839,1.624c-.054.055-.105.109-.156.163-.025.027-.05.052-.074.079-.049.052-.1.1-.139.154-.068.076-1.128,4.639-1.1,5.01a40.5,40.5,0,0,0-6.05-.84c-.745-.059-7.9-9.243-5.684-15.394.007.03.012.059.018.089a5.644,5.644,0,0,0,1.92,3.413c1.085.684,2.561.432,3.739.938,1.126.482,2.1,1.344,3.168,1.884a15.883,15.883,0,0,0,3.826,1.168,11.115,11.115,0,0,0,10.748-3.267,16.148,16.148,0,0,0,3.719-8.823,5.373,5.373,0,0,1,.387,1.574c.385,4.254-10.358,19.9-12.487,12.228Z" fill="#2b1c16"/>
    <path id="Trazado_682175" data-name="Trazado 682175" d="M952.461,2788.083c-3.27-2.512-2.393-6.714-4.293-9.5a7.049,7.049,0,0,1-2.577,4.543c-1.821-1.286-1.781-3.9-4.19-4.776a6.782,6.782,0,0,1,.6,7.714c-1.549,2.453-5.823,2.948-6.5,1.071l.5,5.546c.857,1.134,1.079,2.969,2.263,4.033,1.758,1.579,2.609.648,4.543.435,3.18-.351,5.927.995,9.02.013,4.7-1.489,8.655-6.541,9.9-11.194-2.41,2.944-5.89,4.716-9.281,2.112Z" fill="#2b1c16"/>
    <path id="Trazado_682176" data-name="Trazado 682176" d="M947.553,2795.869a2,2,0,0,1,3.157-.595,3.878,3.878,0,0,1,.2,5.488c-.769,1.089-2.561.1-3.124-.746a4.51,4.51,0,0,1-.228-4.147Z" fill="#ffb278"/>
    <path id="Trazado_682177" data-name="Trazado 682177" d="M950.633,2796.737c.079.733.089,2.294.089,2.294-.356,1-2.176-.2-1.7-1.368.215-.521.965-.668.532-1.326a.9.9,0,0,0-1.276-.1c.446-1.12,2.227-.649,2.351.5Z" fill="#e5804e"/>
    <path id="Trazado_682178" data-name="Trazado 682178" d="M981.89,2852.153l-.037,0,.037,0Z" fill="#ffb278"/>
    <path id="Trazado_682179" data-name="Trazado 682179" d="M989.255,2846.609c-.327-.483-1.422.53-2.007.66a9.708,9.708,0,0,0-5.395,4.888c-.2.51.424-.122.037,0l3.292-.366a10.24,10.24,0,0,1,1-1.086c.537-.533,3.674-3.2,3.07-4.092Z" fill="#ffb278"/>
    <path id="Trazado_682180" data-name="Trazado 682180" d="M997.245,2834.233l-7.81,11.9a1.229,1.229,0,1,0,2.055,1.348l7.809-11.9-2.054-1.349" fill="#998f8f"/>
    <path id="Trazado_682181" data-name="Trazado 682181" d="M994.594,2837.813c-1.346,1.464-14.078,15.454-13.6,20.774a2.517,2.517,0,0,0,2.531,1.661c5.084-1.682,12.876-19.008,13.651-20.756l-2.582-1.679Z" fill="#0a3c5f"/>
    <path id="Trazado_682182" data-name="Trazado 682182" d="M984.978,2854.387c1.926-1.15,6.179-7.454,6.263-9.544a.538.538,0,0,0-.707-.464c-1.884.91-5.974,7.32-6.262,9.544a.5.5,0,0,0,.706.464Z" fill="#b7acac"/>
    <path id="Trazado_682183" data-name="Trazado 682183" d="M984.155,2860.715a.936.936,0,0,1-1.238.411l-2.485-1.631a1.051,1.051,0,0,1,1.122-1.71l2.484,1.631a.934.934,0,0,1,.117,1.3Z" fill="#998f8f"/>
    <path id="Trazado_682184" data-name="Trazado 682184" d="M1019,2829.548c-.106.142-.218.283-.33.422-.019.024-.169.2-.215.26a16.513,16.513,0,0,1-1.515,1.489c-.259.225-.529.44-.8.648-.135.1-.276.205-.415.3l-.094.068-.056.038a16.533,16.533,0,0,1-1.93,1.071c-.306.145-.618.277-.931.4-.111.045-.222.086-.334.127-.045.016-.281.1-.312.109a16.494,16.494,0,0,1-2.124.521c-.332.06-.665.1-1,.144-.115.014-.231.025-.346.034,0,0-.3.019-.338.019a16.64,16.64,0,0,1-2.2-.054c-.339-.03-.676-.075-1.014-.126l-.3-.054q-.191-.04-.381-.084a16.105,16.105,0,0,1-2.148-.657c-.328-.123-.649-.262-.969-.407l-.04-.017-.13-.066c-.16-.081-.316-.167-.474-.253a16.8,16.8,0,0,1-1.963-1.273c-.143-.106-.283-.218-.422-.329-.024-.019-.2-.167-.258-.214-.226-.2-.446-.411-.663-.624a16.517,16.517,0,0,1-1.477-1.7c-.1-.136-.2-.277-.3-.416l-.068-.093-.038-.058c-.186-.285-.359-.578-.528-.874a16.339,16.339,0,0,1-.946-1.986c-.045-.11-.085-.221-.127-.334-.015-.044-.1-.281-.108-.312-.105-.32-.193-.646-.276-.971a16.551,16.551,0,0,1-.39-2.153c-.014-.114-.023-.231-.033-.346,0,.02-.018-.3-.019-.338-.017-.338-.016-.676-.012-1.014a16.556,16.556,0,0,1,.192-2.2c0-.027.04-.222.054-.3.026-.127.055-.254.084-.38.075-.335.168-.668.264-1a16.311,16.311,0,0,1,.8-2.12l.016-.039c.016-.027.037-.07.069-.132.08-.16.165-.315.251-.471.065-.12.133-.239.2-.356.112-.193.23-.383.35-.572.193-.3.4-.6.614-.892.105-.145.215-.286.324-.428.035-.043.3-.358.321-.392a16.481,16.481,0,0,1,1.39-1.381c.259-.229.526-.446.8-.66.135-.1.274-.207.413-.308.09-.065.181-.132.273-.194l.016-.011a16.366,16.366,0,0,1,1.778-1c.3-.148.613-.283.926-.412.156-.065.314-.124.471-.184l.149-.055.182-.06a16.969,16.969,0,0,1,1.959-.49c.33-.063.664-.112,1-.155.167-.021.334-.037.5-.055h.013c.112-.009.225-.012.337-.017a16.111,16.111,0,0,1,2.028.039c.34.027.677.069,1.013.116.129.018.257.041.384.061-.088-.01.408.088.469.1a16.154,16.154,0,0,1,1.821.534c.275.1.545.206.814.318.164.067.323.14.483.212l.04.017.13.067a16.6,16.6,0,0,1,1.7,1c.067.044.132.088.2.133.183.126.361.257.539.389.142.106.283.218.422.329.025.02.223.186.267.221a16.39,16.39,0,0,1,2.434,2.729l.081.115c.07.108.139.215.207.324.18.289.347.586.509.885a16.271,16.271,0,0,1,.782,1.686c.043.1.083.21.122.315.018.049.032.082.041.11l.022.061c.106.32.2.644.284.968a16.407,16.407,0,0,1,.368,1.815c.042.278.072.557.1.837l0,.033c0,.028,0,.074.006.148.011.168.016.337.02.505a16.281,16.281,0,0,1-.066,1.861c-.025.282-.061.564-.1.844-.017.116-.036.231-.056.347,0,.007-.062.3-.069.338a16.415,16.415,0,0,1-.515,1.825c-.094.275-.2.547-.307.816-.066.162-.137.323-.208.485-.01.025-.088.19-.128.272a17.05,17.05,0,0,1-.931,1.609q-.3.45-.622.885m5.228-16.411a17.815,17.815,0,0,0-6.335-7.538,19.146,19.146,0,0,0-8.1-3.123,18.452,18.452,0,0,0-16.37,6.429,17.512,17.512,0,0,0-1.737,2.442,18.368,18.368,0,0,0,28.192,22.92,18.391,18.391,0,0,0,4.354-21.13" fill="#031821"/>
    <g id="Grupo_944323" data-name="Grupo 944323">
      <g id="Grupo_944322" data-name="Grupo 944322" clip-path="url(#clip-path)">
        <rect id="Rectngulo_337362" data-name="Rectngulo 337362" width="34.985" height="33.529" transform="translate(990.078 2803.922)" fill="#095e64"/>
      </g>
    </g>
    <path id="Trazado_682186" data-name="Trazado 682186" d="M988.44,2856.421c-.307.321-.348.853-.828,1.163a3.331,3.331,0,0,1-1.156.437,2.436,2.436,0,0,1-.537.027c-1.6-.054-5.28-.887-5.513-1.357-.01-.015-.739-2.786-.494-3.1a32.7,32.7,0,0,1,3.515-3.121,40.534,40.534,0,0,1,7.5-1.694c.393-.041.761-.065,1.094-.068.543-.007.735,1.621.412,2.168-.14.235-.455.31-.566.5-.164.288-.05.253-.086.594-.113,1.054-.551,2.018-1.779,2.172a2.53,2.53,0,0,1-.4,1.464c-.29.438-.839.482-1.153.813Z" fill="#ffb278"/>
    <path id="Trazado_682187" data-name="Trazado 682187" d="M988.44,2856.421c-.307.321-.348.853-.828,1.163a3.331,3.331,0,0,1-1.156.437,2.436,2.436,0,0,1-.537.027,2.266,2.266,0,0,0,.887-2.471c1.073-.4,2.089-1.214,1.9-2.424,1.143.219,2.389-1.369,1.544-2.373a1.492,1.492,0,0,0,.673-2.006c.393-.041.761-.065,1.094-.068.543-.007.735,1.621.412,2.168-.14.235-.455.31-.566.5-.164.288-.05.253-.086.594-.113,1.054-.551,2.018-1.779,2.172a2.53,2.53,0,0,1-.4,1.464c-.29.438-.839.482-1.153.813Z" fill="#e5804e"/>
    <path id="Trazado_682188" data-name="Trazado 682188" d="M1017.206,2819.474H1002.6a8.839,8.839,0,0,1,5.633-6.6l8.976,6.6" fill="#e6e7e7"/>
    <path id="Trazado_682189" data-name="Trazado 682189" d="M1019.918,2819.474h-2.712l-8.976-6.6a8.832,8.832,0,0,1,11.688,6.6" fill="#d6d7d7"/>
    <path id="Trazado_682190" data-name="Trazado 682190" d="M1008.515,2829.557a8.827,8.827,0,0,1-6.08-8.388,8.931,8.931,0,0,1,.162-1.695h17.321a8.958,8.958,0,0,1,.091,2.822,10.9,10.9,0,0,0-6.344,2.641c-.459.415-1.128,1.16-1.539,1.617-.327.364-.242.408-.692.538-.263.075-.652.037-.924.082-.942.152-1.648,1.284-1.995,2.383" fill="#fbfbfb"/>
    <path id="Trazado_682191" data-name="Trazado 682191" d="M1012.158,2829.946a1.664,1.664,0,0,1-.9-1.462,10.515,10.515,0,0,1-.988,1.453,8.754,8.754,0,0,1-1.759-.38c.347-1.1,1.053-2.231,1.995-2.383.272-.045.661-.007.924-.082.45-.13.365-.174.692-.538.411-.457,1.08-1.2,1.539-1.617a10.9,10.9,0,0,1,6.344-2.641,8.829,8.829,0,0,1-7.851,7.65" fill="#a9a5a4"/>
    <path id="Trazado_682192" data-name="Trazado 682192" d="M1011.258,2829.991a9.135,9.135,0,0,1-.984-.054,10.515,10.515,0,0,0,.988-1.453,1.664,1.664,0,0,0,.9,1.462,8.912,8.912,0,0,1-.9.045" fill="#9d9c9c"/>
    <path id="Trazado_682193" data-name="Trazado 682193" d="M980.815,2853.024a8.215,8.215,0,0,0-2.06-.162,15.966,15.966,0,0,1-3.63-.865c-2.134-.8-4.241-1.638-6.411-2.306-2.064-.635-4.268-.58-6.271-1.1l-5.912-.22c1.709,2.56,1.774,6.607,4.43,8.733,2.6,2.077,7.336,1.592,10.375,1.3,3.925-.382,7.549-1.31,11.3-2.031-.27-1.113-.875-2.938-1.823-3.342Z" fill="#ffb278"/>
    <path id="Trazado_682194" data-name="Trazado 682194" d="M966.407,2849.812c.4-2.75-.6-5.556-.669-8.433-.072-3.07-1.868-10.652-1.754-13.753.211-5.738.009-9.867-6.447-13.1l-3.9,11.192c.083,4.474.388,19.7,2.971,23.85,1.027,1.653,2.139,3.3,4.61,3.8a4.333,4.333,0,0,0,5.189-3.558Z" fill="#eb6f2d"/>
  </g>
</svg>
