<svg xmlns="http://www.w3.org/2000/svg" xmlns:xlink="http://www.w3.org/1999/xlink" width="823.164" height="670.896" viewBox="0 0 823.164 670.896">
  <defs>
    <clipPath id="clip-path">
      <path id="Trazado_508668" data-name="Trazado 508668" d="M386.349,351.786A160.262,160.262,0,1,0,546.612,191.524,160.263,160.263,0,0,0,386.349,351.786" transform="translate(-386.349 -191.524)" fill="#fff4e1"/>
    </clipPath>
    <clipPath id="clip-path-2">
      <path id="Trazado_508673" data-name="Trazado 508673" d="M663.8,545.439Z" transform="translate(-663.798 -545.439)" fill="none"/>
    </clipPath>
    <filter id="Rectángulo_334544" x="630" y="65.393" width="193.164" height="72" filterUnits="userSpaceOnUse">
      <feOffset dy="3" input="SourceAlpha"/>
      <feGaussianBlur stdDeviation="3" result="blur"/>
      <feFlood flood-opacity="0.161"/>
      <feComposite operator="in" in2="blur"/>
      <feComposite in="SourceGraphic"/>
    </filter>
    <filter id="Rectángulo_334544-2" x="630" y="512.503" width="178.069" height="72" filterUnits="userSpaceOnUse">
      <feOffset dy="3" input="SourceAlpha"/>
      <feGaussianBlur stdDeviation="3" result="blur-2"/>
      <feFlood flood-opacity="0.161"/>
      <feComposite operator="in" in2="blur-2"/>
      <feComposite in="SourceGraphic"/>
    </filter>
    <filter id="Rectángulo_334544-3" x="0" y="512.503" width="216.217" height="72" filterUnits="userSpaceOnUse">
      <feOffset dy="3" input="SourceAlpha"/>
      <feGaussianBlur stdDeviation="3" result="blur-3"/>
      <feFlood flood-opacity="0.161"/>
      <feComposite operator="in" in2="blur-3"/>
      <feComposite in="SourceGraphic"/>
    </filter>
    <filter id="Rectángulo_334544-4" x="0.667" y="65.393" width="227.333" height="72" filterUnits="userSpaceOnUse">
      <feOffset dy="3" input="SourceAlpha"/>
      <feGaussianBlur stdDeviation="3" result="blur-4"/>
      <feFlood flood-opacity="0.161"/>
      <feComposite operator="in" in2="blur-4"/>
      <feComposite in="SourceGraphic"/>
    </filter>
  </defs>
  <g id="Grupo_949116" data-name="Grupo 949116" transform="translate(-381 -5458.699)">
    <g id="Grupo_944214" data-name="Grupo 944214" transform="translate(-64.699 1414.861)">
      <path id="Trazado_508650" data-name="Trazado 508650" d="M271.149,367.824c2.611-108.066,61.012-202.544,147.436-255.688L411,99.045C320.07,154.817,258.639,254.178,256.022,367.824Z" transform="translate(285.974 4003.898)" fill="#ffe4b9"/>
      <path id="Trazado_508651" data-name="Trazado 508651" d="M271.149,367.824c2.611-108.066,61.012-202.544,147.436-255.688L411,99.045C320.07,154.817,258.639,254.178,256.022,367.824Z" transform="translate(285.974 4003.898)" fill="none" stroke="#ffe4b9" stroke-miterlimit="10" stroke-width="23"/>
      <path id="Trazado_508652" data-name="Trazado 508652" d="M789.959,325.227C787.347,433.3,728.941,527.778,642.513,580.922l7.585,13.091c90.933-55.771,152.37-155.135,154.987-268.785Z" transform="translate(384.614 4061.625)" fill="#ffe4b9"/>
      <path id="Trazado_508653" data-name="Trazado 508653" d="M789.959,325.227C787.347,433.3,728.941,527.778,642.513,580.922l7.585,13.091c90.933-55.771,152.37-155.135,154.987-268.785Z" transform="translate(384.614 4061.625)" fill="none" stroke="#ffe4b9" stroke-miterlimit="10" stroke-width="23"/>
      <path id="Trazado_508654" data-name="Trazado 508654" d="M271.149,325.227H256.022C258.637,438.739,319.928,538,410.679,593.806l7.6-13.082c-86.255-53.18-144.523-147.559-147.132-255.5" transform="translate(285.974 4061.625)" fill="#ffe4b9"/>
      <path id="Trazado_508655" data-name="Trazado 508655" d="M271.149,325.227H256.022C258.637,438.739,319.928,538,410.679,593.806l7.6-13.082C332.026,527.545,273.757,433.166,271.149,325.227Z" transform="translate(285.974 4061.625)" fill="none" stroke="#ffe4b9" stroke-miterlimit="10" stroke-width="23"/>
      <path id="Trazado_508656" data-name="Trazado 508656" d="M650.356,99.2l-7.6,13.082C729.016,165.46,787.288,259.842,789.9,367.786h15.127c-2.615-113.517-63.91-212.78-154.667-268.587" transform="translate(384.676 4003.938)" fill="#ffe4b9"/>
      <path id="Trazado_508657" data-name="Trazado 508657" d="M650.356,99.2l-7.6,13.082C729.016,165.46,787.288,259.842,789.9,367.786h15.127C802.409,254.269,741.114,155.006,650.356,99.2Z" transform="translate(384.676 4003.938)" fill="none" stroke="#ffe4b9" stroke-miterlimit="10" stroke-width="23"/>
      <path id="Trazado_508658" data-name="Trazado 508658" d="M397.489,114.209a308.3,308.3,0,0,1,296.734.169l7.6-13.078a323.384,323.384,0,0,0-311.915-.178Z" transform="translate(320.144 3994.219)" fill="#ffe4b9"/>
      <path id="Trazado_508659" data-name="Trazado 508659" d="M397.489,114.209a308.3,308.3,0,0,1,296.734.169l7.6-13.078a323.384,323.384,0,0,0-311.915-.178Z" transform="translate(320.144 3994.219)" fill="none" stroke="#ffe4b9" stroke-miterlimit="10" stroke-width="23"/>
      <path id="Trazado_508660" data-name="Trazado 508660" d="M693.976,535.028a308.305,308.305,0,0,1-296.733-.181l-7.6,13.078a323.389,323.389,0,0,0,311.915.19Z" transform="translate(320.077 4115.124)" fill="#ffe4b9"/>
      <path id="Trazado_508661" data-name="Trazado 508661" d="M693.976,535.028a308.305,308.305,0,0,1-296.733-.181l-7.6,13.078a323.389,323.389,0,0,0,311.915.19Z" transform="translate(320.077 4115.124)" fill="none" stroke="#ffe4b9" stroke-miterlimit="10" stroke-width="23"/>
      <line id="Línea_248" data-name="Línea 248" x2="469.452" y2="436.817" transform="translate(632.344 4158.879)" fill="none" stroke="#00263d" stroke-miterlimit="10" stroke-width="1"/>
      <path id="Trazado_508674" data-name="Trazado 508674" d="M660.995,541.7" transform="translate(389.331 4116.874)" fill="#fff"/>
      <line id="Línea_254" data-name="Línea 254" x1="469.452" y2="436.817" transform="translate(632.344 4158.879)" fill="none" stroke="#00263d" stroke-miterlimit="10" stroke-width="1"/>
      <g id="Grupo_944199" data-name="Grupo 944199" transform="translate(677.751 4195.026)">
        <path id="Trazado_681373" data-name="Trazado 681373" d="M375.88,346.857a175.739,175.739,0,0,1,83.86-145.434l-4.314-7.446a184.342,184.342,0,0,0-88.15,152.88Z" transform="translate(-363.383 -166.899)" fill="#ffb338"/>
        <path id="Trazado_681374" data-name="Trazado 681374" d="M670.974,322.628a175.74,175.74,0,0,1-83.866,145.437l4.314,7.446a184.348,184.348,0,0,0,88.157-152.883Z" transform="translate(-307.277 -134.065)" fill="#ffb338"/>
        <path id="Trazado_681375" data-name="Trazado 681375" d="M447.74,202.6a175.37,175.37,0,0,1,168.781.1l4.322-7.438a183.942,183.942,0,0,0-177.415-.1Z" transform="translate(-343.948 -172.405)" fill="#ffb338"/>
        <path id="Trazado_681376" data-name="Trazado 681376" d="M616.38,441.961a175.359,175.359,0,0,1-168.779-.1l-4.322,7.438a183.939,183.939,0,0,0,177.414.108Z" transform="translate(-343.985 -103.635)" fill="#ffb338"/>
        <path id="Trazado_681377" data-name="Trazado 681377" d="M449.253,197.976l-7.437,4.327-4.314-7.446,7.438-4.324Z" transform="translate(-345.46 -167.779)" fill="#ffb338"/>
        <path id="Trazado_681378" data-name="Trazado 681378" d="M581.333,198.055l7.437,4.327,4.314-7.446-7.439-4.324Z" transform="translate(-308.751 -167.758)" fill="#ffb338"/>
        <path id="Trazado_681379" data-name="Trazado 681379" d="M0,7.44l7.579,4.554,4.471-7.44L4.471,0Z" transform="translate(370.068 176.048) rotate(59)" fill="#ffb338"/>
        <path id="Trazado_681380" data-name="Trazado 681380" d="M0,7.325,7.5,12l4.4-7.428L4.5,0Z" transform="matrix(-0.469, 0.883, -0.883, -0.469, 286.319, 337.445)" fill="#ffb338"/>
        <path id="Trazado_681381" data-name="Trazado 681381" d="M0,4.594,7.38,0l4.642,7.291L4.54,11.86Z" transform="matrix(0.469, 0.883, -0.883, 0.469, 100.159, 331.725)" fill="#ffb338"/>
        <path id="Trazado_681382" data-name="Trazado 681382" d="M0,4.554,7.579,0l4.437,7.384L4.437,11.938Z" transform="translate(16.422 182.225) rotate(121)" fill="#ffb338"/>
        <g id="Grupo_944200" data-name="Grupo 944200" transform="translate(27.834 23.999)">
          <g id="Grupo_735225" data-name="Grupo 735225" transform="translate(0 0)" clip-path="url(#clip-path)">
            <rect id="Rectángulo_334963" data-name="Rectángulo 334963" width="320.524" height="320.524" transform="translate(0 0)" fill="#fff4e1"/>
          </g>
        </g>
        <path id="Trazado_681383" data-name="Trazado 681383" d="M375.88,322.628h-8.6a184.342,184.342,0,0,0,87.968,152.765l4.323-7.441A175.731,175.731,0,0,1,375.88,322.628" transform="translate(-363.383 -134.065)" fill="#ffb338"/>
        <path id="Trazado_681384" data-name="Trazado 681384" d="M591.57,194.064l-4.323,7.441A175.734,175.734,0,0,1,670.94,346.834h8.6a184.343,184.343,0,0,0-87.973-152.77" transform="translate(-307.242 -166.877)" fill="#ffb338"/>
      </g>
      <path id="Trazado_687495" data-name="Trazado 687495" d="M60.135,13.148a4.154,4.154,0,0,1-.641,2.1,3.866,3.866,0,0,1-1.645,1.41,5.6,5.6,0,0,1-2.418.5A4.467,4.467,0,0,1,51.9,15.7a6.032,6.032,0,0,1-1.289-4.125v-.562a6.885,6.885,0,0,1,.582-2.926,4.41,4.41,0,0,1,1.676-1.937A4.676,4.676,0,0,1,55.4,5.461a4.9,4.9,0,0,1,3.328,1.09,4.306,4.306,0,0,1,1.43,3H57.424A2.037,2.037,0,0,0,56.9,8.063a2.153,2.153,0,0,0-1.5-.453,1.638,1.638,0,0,0-1.5.766,4.921,4.921,0,0,0-.5,2.445v.8a5.445,5.445,0,0,0,.457,2.6,1.672,1.672,0,0,0,1.574.781,2.106,2.106,0,0,0,1.445-.445,1.89,1.89,0,0,0,.531-1.414ZM64.088,17H61.447V8.547h2.641Zm-2.8-10.633a1.175,1.175,0,0,1,.406-.922,1.727,1.727,0,0,1,2.109,0,1.175,1.175,0,0,1,.406.922,1.175,1.175,0,0,1-.406.922,1.727,1.727,0,0,1-2.109,0A1.175,1.175,0,0,1,61.291,6.367Zm7.992,8.758a1.171,1.171,0,0,0,.859-.3,1.1,1.1,0,0,0,.3-.84h2.469a2.922,2.922,0,0,1-1,2.281,3.705,3.705,0,0,1-2.566.891A3.751,3.751,0,0,1,66.44,16a4.556,4.556,0,0,1-1.062-3.2v-.109a5.149,5.149,0,0,1,.473-2.262,3.441,3.441,0,0,1,1.363-1.508,4.065,4.065,0,0,1,2.109-.527A3.658,3.658,0,0,1,71.94,9.3a3.242,3.242,0,0,1,.969,2.477H70.44a1.445,1.445,0,0,0-.32-1.008,1.106,1.106,0,0,0-.859-.352q-1.023,0-1.2,1.3a9.206,9.206,0,0,0-.055,1.141,3.616,3.616,0,0,0,.3,1.766A1.055,1.055,0,0,0,69.283,15.125ZM76.8,17H74.158V5H76.8Zm1.289-4.3a4.989,4.989,0,0,1,.492-2.254,3.52,3.52,0,0,1,1.414-1.52,4.259,4.259,0,0,1,2.164-.531,3.887,3.887,0,0,1,2.992,1.176,4.512,4.512,0,0,1,1.094,3.2v.094A4.378,4.378,0,0,1,85.147,16a3.9,3.9,0,0,1-2.973,1.16,3.942,3.942,0,0,1-2.9-1.082,4.232,4.232,0,0,1-1.18-2.934Zm2.633.164a3.145,3.145,0,0,0,.367,1.719,1.223,1.223,0,0,0,1.086.547q1.406,0,1.438-2.164V12.7q0-2.273-1.453-2.273-1.32,0-1.43,1.961Zm13.531.281V17H91.51V5.625h4.539a5.287,5.287,0,0,1,2.309.48,3.621,3.621,0,0,1,1.555,1.367,3.734,3.734,0,0,1,.551,2.012,3.291,3.291,0,0,1-1.191,2.66,4.943,4.943,0,0,1-3.27,1Zm0-2.117h1.8a1.7,1.7,0,0,0,1.215-.4A1.48,1.48,0,0,0,97.682,9.5a1.83,1.83,0,0,0-.43-1.273,1.522,1.522,0,0,0-1.172-.484H94.252ZM111.432,17h-2.727V12.25h-4.039V17h-2.742V5.625h2.742v4.516h4.039V5.625h2.727Zm6.148-3.094,2.266-8.281h3.063L119.08,17h-3l-3.8-11.375h3.039Zm12.031.969h-3.758L125.2,17h-2.93L126.44,5.625h2.578L133.221,17h-2.945Zm-3.1-2.117h2.445l-1.227-3.945Z" transform="translate(775.439 4457.442)" fill="#12263f"/>
      <g id="Grupo_735233" data-name="Grupo 735233" transform="translate(1053.845 4663.266)" opacity="0.25" style="mix-blend-mode: multiply;isolation: isolate">
        <g id="Grupo_735232" data-name="Grupo 735232">
          <g id="Grupo_735231" data-name="Grupo 735231" clip-path="url(#clip-path-2)">
            <path id="Trazado_508672" data-name="Trazado 508672" d="M663.8,545.439" transform="translate(-663.798 -545.439)"/>
          </g>
        </g>
      </g>
    </g>
    <g id="Grupo_944216" data-name="Grupo 944216" transform="translate(222 199.592)">
      <g id="Grupo_926205" data-name="Grupo 926205" transform="translate(795 5330.415)">
        <g transform="matrix(1, 0, 0, 1, -636, -71.31)" filter="url(#Rectángulo_334544)">
          <rect id="Rectángulo_334544-5" data-name="Rectángulo 334544" width="175.164" height="54" rx="25" transform="translate(639 71.39)" fill="#fce9df"/>
        </g>
      </g>
      <path id="Trazado_687497" data-name="Trazado 687497" d="M5.219-2.82,7.8-11.375h2.609L6.445,0H4L.055-11.375h2.6ZM18.32-4.93h-4.5v3.047H19.1V0H11.477V-11.375h7.609v1.9H13.82v2.711h4.5Zm6.367.766H22.82V0H20.477V-11.375H24.7a4.778,4.778,0,0,1,3.109.9,3.1,3.1,0,0,1,1.094,2.539A3.5,3.5,0,0,1,28.4-6a3.437,3.437,0,0,1-1.527,1.238L29.336-.109V0H26.82Zm-1.867-1.9h1.891a1.936,1.936,0,0,0,1.367-.449,1.606,1.606,0,0,0,.484-1.238,1.719,1.719,0,0,0-.457-1.266,1.9,1.9,0,0,0-1.4-.461H22.82ZM33.18,0H30.836V-11.375H33.18ZM42.2-4.648H37.7V0H35.352V-11.375h7.406v1.9H37.7v2.938h4.5ZM46.609,0H44.266V-11.375h2.344Zm11.1-3.789A4.025,4.025,0,0,1,56.355-.9,4.76,4.76,0,0,1,53.133.156a4.28,4.28,0,0,1-3.441-1.473,6.038,6.038,0,0,1-1.254-4.043v-.7a6.819,6.819,0,0,1,.578-2.891,4.332,4.332,0,0,1,1.652-1.918,4.629,4.629,0,0,1,2.5-.668,4.637,4.637,0,0,1,3.172,1.055,4.326,4.326,0,0,1,1.391,2.961H55.383a2.376,2.376,0,0,0-.613-1.6,2.271,2.271,0,0,0-1.605-.5,1.991,1.991,0,0,0-1.754.84,4.707,4.707,0,0,0-.6,2.605V-5.3a5.038,5.038,0,0,0,.559,2.7,1.954,1.954,0,0,0,1.762.852,2.314,2.314,0,0,0,1.621-.5,2.241,2.241,0,0,0,.613-1.535Zm7.961,1.445H61.563L60.781,0H58.289l4.234-11.375H64.7L68.953,0H66.461ZM62.2-4.242h2.844L63.609-8.5Zm12.031.078H72.359V0H70.016V-11.375h4.227a4.778,4.778,0,0,1,3.109.9,3.1,3.1,0,0,1,1.094,2.539A3.5,3.5,0,0,1,77.941-6a3.437,3.437,0,0,1-1.527,1.238L78.875-.109V0H76.359Zm-1.867-1.9H74.25a1.936,1.936,0,0,0,1.367-.449A1.606,1.606,0,0,0,76.1-7.75a1.719,1.719,0,0,0-.457-1.266,1.9,1.9,0,0,0-1.4-.461H72.359Z" transform="translate(867.069 5364)" fill="#12263f"/>
    </g>
    <g id="Grupo_944223" data-name="Grupo 944223" transform="translate(222 646.702)">
      <g id="Grupo_926205-2" data-name="Grupo 926205" transform="translate(795 5330.415)">
        <g transform="matrix(1, 0, 0, 1, -636, -518.42)" filter="url(#Rectángulo_334544-2)">
          <rect id="Rectángulo_334544-6" data-name="Rectángulo 334544" width="160.069" height="54" rx="25" transform="translate(639 518.5)" fill="#fce9df"/>
        </g>
      </g>
      <path id="Trazado_687498" data-name="Trazado 687498" d="M7.438-2.344H3.328L2.547,0H.055L4.289-11.375H6.461L10.719,0H8.227Zm-3.477-1.9H6.8L5.375-8.5Zm16.75.453A4.025,4.025,0,0,1,19.355-.9,4.76,4.76,0,0,1,16.133.156a4.28,4.28,0,0,1-3.441-1.473,6.038,6.038,0,0,1-1.254-4.043v-.7a6.819,6.819,0,0,1,.578-2.891,4.332,4.332,0,0,1,1.652-1.918,4.629,4.629,0,0,1,2.5-.668,4.637,4.637,0,0,1,3.172,1.055,4.326,4.326,0,0,1,1.391,2.961H18.383a2.376,2.376,0,0,0-.613-1.6,2.271,2.271,0,0,0-1.605-.5,1.991,1.991,0,0,0-1.754.84,4.707,4.707,0,0,0-.6,2.605V-5.3a5.038,5.038,0,0,0,.559,2.7,1.954,1.954,0,0,0,1.762.852,2.314,2.314,0,0,0,1.621-.5,2.241,2.241,0,0,0,.613-1.535Zm9.875-5.687H27.1V0H24.758V-9.477H21.32v-1.9h9.266Zm9.945-1.9v7.492A3.836,3.836,0,0,1,39.363-.93,4.5,4.5,0,0,1,36.172.156,4.553,4.553,0,0,1,33.008-.9a3.77,3.77,0,0,1-1.2-2.9v-7.578h2.344v7.508a2.167,2.167,0,0,0,.535,1.629,2.054,2.054,0,0,0,1.48.512q1.977,0,2.008-2.078v-7.57ZM48.7-2.344H44.594L43.813,0H41.32l4.234-11.375h2.172L51.984,0H49.492Zm-3.477-1.9H48.07L46.641-8.5Zm12.031.078H55.391V0H53.047V-11.375h4.227a4.778,4.778,0,0,1,3.109.9,3.1,3.1,0,0,1,1.094,2.539A3.5,3.5,0,0,1,60.973-6a3.437,3.437,0,0,1-1.527,1.238L61.906-.109V0H59.391Zm-1.867-1.9h1.891a1.936,1.936,0,0,0,1.367-.449,1.606,1.606,0,0,0,.484-1.238,1.719,1.719,0,0,0-.457-1.266,1.9,1.9,0,0,0-1.4-.461H55.391Z" transform="translate(863.108 5364)" fill="#12263f"/>
    </g>
    <g id="Grupo_944224" data-name="Grupo 944224" transform="translate(-408 646.702)">
      <g id="Grupo_926205-3" data-name="Grupo 926205" transform="translate(795 5330.415)">
        <g transform="matrix(1, 0, 0, 1, -6, -518.42)" filter="url(#Rectángulo_334544-3)">
          <rect id="Rectángulo_334544-7" data-name="Rectángulo 334544" width="198.217" height="54" rx="25" transform="translate(9 518.5)" fill="#fce9df"/>
        </g>
      </g>
      <path id="Trazado_687494" data-name="Trazado 687494" d="M10.273,0H7.93V-4.875H3.359V0H1.016V-11.375H3.359v4.609H7.93v-4.609h2.344Zm8.609-2.344H14.773L13.992,0H11.5l4.234-11.375h2.172L22.164,0H19.672Zm-3.477-1.9H18.25L16.82-8.5Zm16.75.453A4.025,4.025,0,0,1,30.8-.9,4.76,4.76,0,0,1,27.578.156a4.28,4.28,0,0,1-3.441-1.473,6.038,6.038,0,0,1-1.254-4.043v-.7a6.819,6.819,0,0,1,.578-2.891,4.332,4.332,0,0,1,1.652-1.918,4.629,4.629,0,0,1,2.5-.668,4.637,4.637,0,0,1,3.172,1.055,4.326,4.326,0,0,1,1.391,2.961H29.828a2.376,2.376,0,0,0-.613-1.6,2.271,2.271,0,0,0-1.605-.5,1.991,1.991,0,0,0-1.754.84,4.707,4.707,0,0,0-.6,2.605V-5.3a5.038,5.038,0,0,0,.559,2.7,1.954,1.954,0,0,0,1.762.852,2.314,2.314,0,0,0,1.621-.5,2.241,2.241,0,0,0,.613-1.535ZM40.539-4.93h-4.5v3.047H41.32V0H33.7V-11.375H41.3v1.9H36.039v2.711h4.5Zm6.367.766H45.039V0H42.7V-11.375h4.227a4.778,4.778,0,0,1,3.109.9,3.1,3.1,0,0,1,1.094,2.539A3.5,3.5,0,0,1,50.621-6a3.437,3.437,0,0,1-1.527,1.238L51.555-.109V0H49.039Zm-1.867-1.9H46.93A1.936,1.936,0,0,0,48.3-6.512a1.606,1.606,0,0,0,.484-1.238,1.719,1.719,0,0,0-.457-1.266,1.9,1.9,0,0,0-1.4-.461H45.039Z" transform="translate(871.108 5364)" fill="#12263f"/>
    </g>
    <g id="Grupo_944226" data-name="Grupo 944226" transform="translate(-407.333 199.592)">
      <g id="Grupo_926205-4" data-name="Grupo 926205" transform="translate(795 5330.415)">
        <g transform="matrix(1, 0, 0, 1, -6.67, -71.31)" filter="url(#Rectángulo_334544-4)">
          <rect id="Rectángulo_334544-8" data-name="Rectángulo 334544" width="209.333" height="54" rx="25" transform="translate(9.67 71.39)" fill="#fce9df"/>
        </g>
      </g>
      <path id="Trazado_687496" data-name="Trazado 687496" d="M3.359-4.008V0H1.016V-11.375H5.453a5.134,5.134,0,0,1,2.254.469A3.454,3.454,0,0,1,9.2-9.574a3.714,3.714,0,0,1,.523,1.965A3.266,3.266,0,0,1,8.582-4.973a4.767,4.767,0,0,1-3.168.965Zm0-1.9H5.453a2.059,2.059,0,0,0,1.418-.437,1.591,1.591,0,0,0,.488-1.25,1.876,1.876,0,0,0-.492-1.352,1.839,1.839,0,0,0-1.359-.531H3.359ZM13.68-1.883h4.977V0h-7.32V-11.375H13.68ZM26.57-2.344H22.461L21.68,0H19.188l4.234-11.375h2.172L29.852,0H27.359Zm-3.477-1.9h2.844L24.508-8.5ZM40.164,0H37.82L33.258-7.484V0H30.914V-11.375h2.344l4.57,7.5v-7.5h2.336Zm8.891-4.93h-4.5v3.047h5.281V0H42.211V-11.375H49.82v1.9H44.555v2.711h4.5Zm8.578,2.586H53.523L52.742,0H50.25l4.234-11.375h2.172L60.914,0H58.422Zm-3.477-1.9H57L55.57-8.5Zm12.031.078H64.32V0H61.977V-11.375H66.2a4.778,4.778,0,0,1,3.109.9,3.1,3.1,0,0,1,1.094,2.539A3.5,3.5,0,0,1,69.9-6a3.437,3.437,0,0,1-1.527,1.238L70.836-.109V0H68.32Zm-1.867-1.9h1.891a1.936,1.936,0,0,0,1.367-.449,1.606,1.606,0,0,0,.484-1.238,1.719,1.719,0,0,0-.457-1.266,1.9,1.9,0,0,0-1.4-.461H64.32Z" transform="translate(882.333 5364)" fill="#12263f"/>
    </g>
    <g id="Grupo_944275" data-name="Grupo 944275" transform="translate(-184.962 3047.792)">
      <g id="Grupo_944249" data-name="Grupo 944249" transform="translate(877.692 2650.747)">
        <rect id="Rectángulo_337316" data-name="Rectángulo 337316" width="216.836" height="0.108" transform="translate(0 142.004)" fill="#ebebeb"/>
        <rect id="Rectángulo_337317" data-name="Rectángulo 337317" width="32" height="0.108" transform="translate(144.558 144.957)" fill="#ebebeb"/>
        <rect id="Rectángulo_337318" data-name="Rectángulo 337318" width="3.77" height="0.108" transform="translate(44.935 145.686)" fill="#ebebeb"/>
        <rect id="Rectángulo_337319" data-name="Rectángulo 337319" width="8.323" height="0.108" transform="translate(176.992 148.985)" fill="#ebebeb"/>
        <rect id="Rectángulo_337320" data-name="Rectángulo 337320" width="21.105" height="0.108" transform="translate(86.735 147.517)" fill="#ebebeb"/>
        <rect id="Rectángulo_337321" data-name="Rectángulo 337321" width="10.573" height="0.108" transform="translate(72.301 147.517)" fill="#ebebeb"/>
        <rect id="Rectángulo_337322" data-name="Rectángulo 337322" width="14.375" height="0.108" transform="translate(22.75 145.686)" fill="#ebebeb"/>
        <path id="Trazado_681392" data-name="Trazado 681392" d="M991.194,2773.41H907.453a2.479,2.479,0,0,1-2.476-2.476V2653.222a2.478,2.478,0,0,1,2.476-2.475h83.741a2.478,2.478,0,0,1,2.475,2.475v117.712A2.478,2.478,0,0,1,991.194,2773.41Zm-83.741-122.555a2.37,2.37,0,0,0-2.367,2.367v117.712a2.369,2.369,0,0,0,2.367,2.367h83.741a2.369,2.369,0,0,0,2.367-2.367V2653.222a2.37,2.37,0,0,0-2.367-2.367Z" transform="translate(-888.408 -2650.747)" fill="#ebebeb"/>
        <path id="Trazado_681393" data-name="Trazado 681393" d="M1145.66,2773.41h-83.742a2.478,2.478,0,0,1-2.475-2.476V2653.222a2.478,2.478,0,0,1,2.475-2.475h83.742a2.478,2.478,0,0,1,2.475,2.475v117.712A2.479,2.479,0,0,1,1145.66,2773.41Zm-83.742-122.555a2.37,2.37,0,0,0-2.366,2.367v117.712a2.37,2.37,0,0,0,2.366,2.367h83.742a2.369,2.369,0,0,0,2.366-2.367V2653.222a2.37,2.37,0,0,0-2.366-2.367Z" transform="translate(-949.071 -2650.747)" fill="#ebebeb"/>
      </g>
      <g id="Grupo_944260" data-name="Grupo 944260" transform="translate(893.29 2667.638)">
        <g id="Grupo_944250" data-name="Grupo 944250" transform="translate(0 89.448)">
          <rect id="Rectángulo_337323" data-name="Rectángulo 337323" width="1.861" height="23.329" transform="translate(4.413 12.335)" fill="#ebebeb"/>
          <path id="Trazado_681394" data-name="Trazado 681394" d="M914.065,2838.193c0,6.813-5.343,12.335-5.343,12.335s-5.343-5.523-5.343-12.335,5.343-12.335,5.343-12.335S914.065,2831.381,914.065,2838.193Z" transform="translate(-903.378 -2825.858)" fill="#f5f5f5"/>
        </g>
        <g id="Grupo_944251" data-name="Grupo 944251" transform="translate(6.062 79.453)">
          <rect id="Rectángulo_337324" data-name="Rectángulo 337324" width="2.382" height="29.868" transform="translate(5.65 15.792)" fill="#f5f5f5"/>
          <path id="Trazado_681395" data-name="Trazado 681395" d="M927.042,2825.19c0,8.722-6.842,15.792-6.842,15.792s-6.841-7.07-6.841-15.792S920.2,2809.4,920.2,2809.4,927.042,2816.469,927.042,2825.19Z" transform="translate(-913.36 -2809.398)" fill="#e7e7e7"/>
        </g>
        <g id="Grupo_944253" data-name="Grupo 944253" transform="translate(15.17 0)">
          <path id="Trazado_681396" data-name="Trazado 681396" d="M957.364,2681.044V2804.65h26.3v-55.435a42.113,42.113,0,0,1,42.115-42.115v-26.056Z" transform="translate(-939.75 -2679.537)" fill="#ebebeb"/>
          <path id="Trazado_681397" data-name="Trazado 681397" d="M972.929,2681.045v68.17a42.115,42.115,0,0,1,84.23,0v-68.17Z" transform="translate(-945.863 -2679.537)" fill="#f5f5f5"/>
          <rect id="Rectángulo_337325" data-name="Rectángulo 337325" width="26.295" height="123.606" transform="translate(0.771 1.507)" fill="#f5f5f5"/>
          <path id="Rectángulo_337326" data-name="Rectángulo 337326" d="M8.669,0h0a8.669,8.669,0,0,1,8.669,8.669v28.78a0,0,0,0,1,0,0H0a0,0,0,0,1,0,0V8.669A8.669,8.669,0,0,1,8.669,0Z" transform="translate(5.249 87.665)" fill="#ebebeb"/>
          <rect id="Rectángulo_337327" data-name="Rectángulo 337327" width="19.842" height="18.752" transform="translate(3.997 29.503)" fill="#fff"/>
          <rect id="Rectángulo_337328" data-name="Rectángulo 337328" width="44.692" height="3.014" transform="translate(0 67.726)" fill="#e0e0e0"/>
          <rect id="Rectángulo_337329" data-name="Rectángulo 337329" width="26.295" height="123.606" transform="translate(111.295 1.507)" fill="#f5f5f5"/>
          <path id="Rectángulo_337330" data-name="Rectángulo 337330" d="M8.669,0h0a8.669,8.669,0,0,1,8.669,8.669v28.78a0,0,0,0,1,0,0H0a0,0,0,0,1,0,0V8.669A8.669,8.669,0,0,1,8.669,0Z" transform="translate(115.774 87.665)" fill="#ebebeb"/>
          <rect id="Rectángulo_337331" data-name="Rectángulo 337331" width="16.856" height="123.606" transform="translate(154.446 125.113) rotate(180)" fill="#ebebeb"/>
          <rect id="Rectángulo_337332" data-name="Rectángulo 337332" width="19.842" height="18.752" transform="translate(114.521 29.503)" fill="#fff"/>
          <rect id="Rectángulo_337333" data-name="Rectángulo 337333" width="44.692" height="3.014" transform="translate(110.524 67.726)" fill="#e0e0e0"/>
          <rect id="Rectángulo_337334" data-name="Rectángulo 337334" width="155.216" height="3.014" transform="translate(0 17.592)" fill="#e0e0e0"/>
          <rect id="Rectángulo_337335" data-name="Rectángulo 337335" width="155.216" height="3.014" fill="#e0e0e0"/>
          <g id="Grupo_944252" data-name="Grupo 944252" transform="translate(5.004 7.41)">
            <path id="Trazado_681398" data-name="Trazado 681398" d="M942.385,2693.658a2.893,2.893,0,1,1-2.892-2.893A2.892,2.892,0,0,1,942.385,2693.658Z" transform="translate(-936.6 -2690.765)" fill="#ebebeb"/>
            <path id="Trazado_681399" data-name="Trazado 681399" d="M976.024,2693.658a2.893,2.893,0,1,1-2.893-2.893A2.893,2.893,0,0,1,976.024,2693.658Z" transform="translate(-949.811 -2690.765)" fill="#ebebeb"/>
            <path id="Trazado_681400" data-name="Trazado 681400" d="M1009.662,2693.658a2.893,2.893,0,1,1-2.892-2.893A2.893,2.893,0,0,1,1009.662,2693.658Z" transform="translate(-963.022 -2690.765)" fill="#ebebeb"/>
            <path id="Trazado_681401" data-name="Trazado 681401" d="M1043.3,2693.658a2.893,2.893,0,1,1-2.893-2.893A2.893,2.893,0,0,1,1043.3,2693.658Z" transform="translate(-976.233 -2690.765)" fill="#ebebeb"/>
            <path id="Trazado_681402" data-name="Trazado 681402" d="M1076.94,2693.658a2.893,2.893,0,1,1-2.892-2.893A2.893,2.893,0,0,1,1076.94,2693.658Z" transform="translate(-989.443 -2690.765)" fill="#ebebeb"/>
            <path id="Trazado_681403" data-name="Trazado 681403" d="M1110.578,2693.658a2.893,2.893,0,1,1-2.893-2.893A2.893,2.893,0,0,1,1110.578,2693.658Z" transform="translate(-1002.654 -2690.765)" fill="#ebebeb"/>
            <path id="Trazado_681404" data-name="Trazado 681404" d="M1144.217,2693.658a2.893,2.893,0,1,1-2.892-2.893A2.893,2.893,0,0,1,1144.217,2693.658Z" transform="translate(-1015.865 -2690.765)" fill="#ebebeb"/>
          </g>
        </g>
        <g id="Grupo_944254" data-name="Grupo 944254" transform="translate(70.938 101.446)">
          <rect id="Rectángulo_337336" data-name="Rectángulo 337336" width="1.235" height="15.481" transform="translate(2.929 8.186)" fill="#e7e7e7"/>
          <path id="Trazado_681405" data-name="Trazado 681405" d="M1027.285,2853.8c0,4.521-3.546,8.186-3.546,8.186s-3.546-3.665-3.546-8.186,3.546-8.185,3.546-8.185S1027.285,2849.279,1027.285,2853.8Z" transform="translate(-1020.193 -2845.614)" fill="#f5f5f5"/>
        </g>
        <g id="Grupo_944255" data-name="Grupo 944255" transform="translate(80.511 94.812)">
          <rect id="Rectángulo_337337" data-name="Rectángulo 337337" width="1.581" height="19.82" transform="translate(3.749 10.48)" fill="#ebebeb"/>
          <path id="Trazado_681406" data-name="Trazado 681406" d="M1045.036,2845.171c0,5.788-4.54,10.48-4.54,10.48s-4.539-4.692-4.539-10.48,4.539-10.48,4.539-10.48S1045.036,2839.383,1045.036,2845.171Z" transform="translate(-1035.957 -2834.691)" fill="#f0f0f0"/>
        </g>
        <g id="Grupo_944256" data-name="Grupo 944256" transform="translate(108.389 105.162)">
          <rect id="Rectángulo_337338" data-name="Rectángulo 337338" width="1.041" height="13.051" transform="translate(3.51 19.951) rotate(180)" fill="#ebebeb"/>
          <path id="Trazado_681407" data-name="Trazado 681407" d="M1081.864,2858.633c0,3.812,2.989,6.9,2.989,6.9s2.99-3.089,2.99-6.9-2.99-6.9-2.99-6.9S1081.864,2854.822,1081.864,2858.633Z" transform="translate(-1081.864 -2851.733)" fill="#f0f0f0"/>
        </g>
        <g id="Grupo_944257" data-name="Grupo 944257" transform="translate(98.644 99.57)">
          <rect id="Rectángulo_337339" data-name="Rectángulo 337339" width="1.333" height="16.709" transform="translate(4.493 25.543) rotate(180)" fill="#e7e7e7"/>
          <path id="Trazado_681408" data-name="Trazado 681408" d="M1065.816,2851.36c0,4.879,3.827,8.835,3.827,8.835s3.827-3.956,3.827-8.835-3.827-8.835-3.827-8.835S1065.816,2846.48,1065.816,2851.36Z" transform="translate(-1065.816 -2842.525)" fill="#f5f5f5"/>
        </g>
        <g id="Grupo_944258" data-name="Grupo 944258" transform="translate(174.176 98.525)">
          <rect id="Rectángulo_337340" data-name="Rectángulo 337340" width="1.387" height="17.392" transform="translate(4.677 26.588) rotate(180)" fill="#ebebeb"/>
          <path id="Trazado_681409" data-name="Trazado 681409" d="M1190.195,2850c0,5.079,3.984,9.2,3.984,9.2s3.983-4.117,3.983-9.2-3.983-9.2-3.983-9.2S1190.195,2844.921,1190.195,2850Z" transform="translate(-1190.195 -2840.804)" fill="#f0f0f0"/>
        </g>
        <g id="Grupo_944259" data-name="Grupo 944259" transform="translate(161.189 91.072)">
          <rect id="Rectángulo_337341" data-name="Rectángulo 337341" width="1.776" height="22.267" transform="translate(5.988 34.041) rotate(180)" fill="#e0e0e0"/>
          <path id="Trazado_681410" data-name="Trazado 681410" d="M1168.809,2840.306c0,6.5,5.1,11.773,5.1,11.773s5.1-5.271,5.1-11.773-5.1-11.773-5.1-11.773S1168.809,2833.8,1168.809,2840.306Z" transform="translate(-1168.809 -2828.532)" fill="#fafafa"/>
        </g>
      </g>
      <ellipse id="_Path_" data-name="&lt;Path&gt;" cx="84.084" cy="4.911" rx="84.084" ry="4.911" transform="translate(902.026 2802.516)" fill="#f5f5f5"/>
      <g id="Grupo_944261" data-name="Grupo 944261" transform="translate(894.799 2677.492)">
        <path id="Trazado_681411" data-name="Trazado 681411" d="M951.339,2697.115c-2.385,3.016-5.824,10.713-2.226,13.319s12.591,1.891,15.131,0,1.005-11.426-3.783-14.25S950.708,2695.423,951.339,2697.115Z" transform="translate(-922.235 -2694.788)" fill="#263238"/>
        <path id="Trazado_681412" data-name="Trazado 681412" d="M966.911,2766.7s-.171,21.205-1.5,38.627c-2.874,17.24-1.414,40.909-1.414,40.909h-2.749s-6.75-31.407-3.693-41.512c-1.813-12.962-1.248-37.674-1.248-37.674Z" transform="translate(-925.64 -2723.031)" fill="#ffb570"/>
        <path id="Trazado_681413" data-name="Trazado 681413" d="M976.869,2731.951c.12.16.3.39.463.585l.508.611q.518.608,1.075,1.183a23.435,23.435,0,0,0,2.314,2.142,15.525,15.525,0,0,0,2.521,1.651,8.223,8.223,0,0,0,2.626.847l.228.031a.515.515,0,0,0-.307.05c-.038.031.027.013.119-.064a3.619,3.619,0,0,0,.67-.844,16.855,16.855,0,0,0,1.232-2.586c.37-.933.7-1.9,1.018-2.885s.615-1.987.9-2.967l.007-.023a1,1,0,0,1,1.962.339c-.065,1.1-.2,2.16-.354,3.239s-.376,2.144-.65,3.222a17.565,17.565,0,0,1-1.153,3.27,7.106,7.106,0,0,1-1.156,1.728,3.7,3.7,0,0,1-1.163.849,3.089,3.089,0,0,1-1.853.23l.228.032a11.277,11.277,0,0,1-3.979-.992,16.546,16.546,0,0,1-3.322-1.983,24.547,24.547,0,0,1-2.8-2.47q-.642-.666-1.241-1.37c-.2-.235-.4-.472-.589-.717s-.367-.479-.583-.785a2.012,2.012,0,0,1,3.251-2.368Z" transform="translate(-932.314 -2708.209)" fill="#ffb570"/>
        <path id="Trazado_681414" data-name="Trazado 681414" d="M1005.03,2725.454l-.942-1.386a.946.946,0,0,0-1.389-.194h0a3.852,3.852,0,0,0-1.286,2.114l-.58,2.6.637,1.738c1.631-.123,2.653-2.435,2.653-2.435l.915-1.389A.946.946,0,0,0,1005.03,2725.454Z" transform="translate(-943.16 -2706.125)" fill="#ffb570"/>
        <path id="Trazado_681415" data-name="Trazado 681415" d="M981.133,2735.162a12.042,12.042,0,0,0,1.178,1.236s-1.055,4.413-3.578,5.8a1.713,1.713,0,0,1-1.035-1.058Z" transform="translate(-934.073 -2710.644)" fill="#263238"/>
        <path id="Trazado_681416" data-name="Trazado 681416" d="M972.714,2729.563c3.667.414,4.823,2.328,6.377,3.566.1,2.616-3.751,6.357-3.751,6.357S967.592,2728.984,972.714,2729.563Z" transform="translate(-931.429 -2708.437)" fill="#eb6f2d"/>
        <path id="Trazado_681417" data-name="Trazado 681417" d="M966.618,2732.386c.446,5.923-3.163,10.4-3.461,16.649l-14.941-.361c.423-6.085.25-5.475-1.886-17.232a2.41,2.41,0,0,1,2.094-2.825c1.111-.128,2.487-.247,3.931-.275a50.788,50.788,0,0,1,7.254.2c1.558.187,3.218.486,4.487.739A3.268,3.268,0,0,1,966.618,2732.386Z" transform="translate(-921.739 -2707.952)" fill="#eb6f2d"/>
        <path id="Trazado_681418" data-name="Trazado 681418" d="M963.532,2728.568l-7.254-.2s.206,2.8,6.816,5.931C966.131,2730.72,963.532,2728.568,963.532,2728.568Z" transform="translate(-925.661 -2707.974)" fill="#fff"/>
        <path id="Trazado_681419" data-name="Trazado 681419" d="M967.592,2731.888c1,.257,2.464,2.015,2.892,3.774,3-4.493-2.509-6.962-2.509-6.962Z" transform="translate(-930.105 -2708.106)" fill="#263238"/>
        <path id="Trazado_681420" data-name="Trazado 681420" d="M961.205,2732a6.069,6.069,0,0,0-3.162,3.916c-3.291-4.284-1.942-7.557-1.942-7.557Z" transform="translate(-925.484 -2707.974)" fill="#263238"/>
        <path id="Trazado_681421" data-name="Trazado 681421" d="M957.227,2714.945c.392,2.347.728,6.637-.949,8.148,0,0,2.956,3.206,6.325,4.051a3.807,3.807,0,0,0,.929-3.846c-2.586-.7-2.464-2.624-1.959-4.425Z" transform="translate(-925.661 -2702.705)" fill="#ffb570"/>
        <path id="Trazado_681422" data-name="Trazado 681422" d="M960.691,2717.584l2.572,2.323a7.511,7.511,0,0,0-.26,1.281,3.213,3.213,0,0,1-2.4-2.346A3.516,3.516,0,0,1,960.691,2717.584Z" transform="translate(-927.354 -2703.741)" opacity="0.2"/>
        <path id="Trazado_681423" data-name="Trazado 681423" d="M953.908,2703.581c.808,3.821,1.069,5.455,3.31,7.146,3.37,2.543,7.887.715,8.236-3.271.315-3.587-1.06-9.233-5.062-10.208A5.326,5.326,0,0,0,953.908,2703.581Z" transform="translate(-924.683 -2695.691)" fill="#ffb570"/>
        <path id="Trazado_681424" data-name="Trazado 681424" d="M963.5,2707.939c.047.314.251.543.456.513s.334-.309.287-.623-.25-.544-.455-.514S963.453,2707.625,963.5,2707.939Z" transform="translate(-928.494 -2699.707)" fill="#263238"/>
        <path id="Trazado_681425" data-name="Trazado 681425" d="M970.122,2706.98c.047.314.251.544.456.514s.333-.31.287-.624-.251-.544-.456-.514S970.075,2706.666,970.122,2706.98Z" transform="translate(-931.095 -2699.331)" fill="#263238"/>
        <path id="Trazado_681426" data-name="Trazado 681426" d="M970.456,2706.2l.722-.329S970.879,2706.513,970.456,2706.2Z" transform="translate(-931.23 -2699.139)" fill="#263238"/>
        <path id="Trazado_681427" data-name="Trazado 681427" d="M967.937,2708.6a8.484,8.484,0,0,0,1.416,1.838,1.367,1.367,0,0,1-1.088.376Z" transform="translate(-930.24 -2700.211)" fill="#ff8935"/>
        <path id="Trazado_681428" data-name="Trazado 681428" d="M965.686,2713.8a3.109,3.109,0,0,0,.533-.033.093.093,0,0,0,.078-.106.092.092,0,0,0-.106-.078,2.513,2.513,0,0,1-2.172-.672.093.093,0,1,0-.14.123A2.6,2.6,0,0,0,965.686,2713.8Z" transform="translate(-928.638 -2701.894)" fill="#263238"/>
        <path id="Trazado_681429" data-name="Trazado 681429" d="M952.948,2710.143a2.852,2.852,0,0,0,1.5,1.58c.918.4,1.514-.388,1.374-1.325-.126-.844-.755-2.07-1.732-2.073A1.282,1.282,0,0,0,952.948,2710.143Z" transform="translate(-924.315 -2700.104)" fill="#ffb570"/>
        <path id="Trazado_681430" data-name="Trazado 681430" d="M960.884,2705.28a.186.186,0,0,0,.131-.066,1.488,1.488,0,0,1,1.225-.56.186.186,0,1,0,.045-.37,1.849,1.849,0,0,0-1.555.69.186.186,0,0,0,.023.263A.184.184,0,0,0,960.884,2705.28Z" transform="translate(-927.393 -2698.515)" fill="#263238"/>
        <path id="Trazado_681431" data-name="Trazado 681431" d="M970.162,2703.83a.187.187,0,0,0,.027-.342,1.847,1.847,0,0,0-1.7-.052.186.186,0,1,0,.181.325,1.476,1.476,0,0,1,1.346.057A.188.188,0,0,0,970.162,2703.83Z" transform="translate(-930.419 -2698.114)" fill="#263238"/>
        <path id="Trazado_681432" data-name="Trazado 681432" d="M963.834,2707.155l.721-.329S964.256,2707.472,963.834,2707.155Z" transform="translate(-928.629 -2699.516)" fill="#263238"/>
        <path id="Trazado_681433" data-name="Trazado 681433" d="M954.651,2767.028s-2.024,21.267-4.871,38.739c-4.372,17.289-4.973,40.6-4.973,40.6h-2.749s-3.99-31.07-.06-41.2c-.674-13,2.049-37.783,2.049-37.783Z" transform="translate(-919.373 -2723.159)" fill="#ffb570"/>
        <path id="Trazado_681434" data-name="Trazado 681434" d="M951.091,2902.28a9.273,9.273,0,0,0-2.416-1.244s-1.716-1.11-2.792-5.756a.3.3,0,0,0-.22-.226l-3.339-.818a.373.373,0,0,0-.435.27,5.864,5.864,0,0,0-.159,1.068c-.039.448-.1,1.116-.136,1.556-.114,1.618-.251,5.255-.251,5.255h.378a28.489,28.489,0,0,1,.49-3.3c.282-1.066.924.2,1.24,1.4s1.9,2.492,4.358,2.552C950.687,2903.107,951.593,2902.842,951.091,2902.28Z" transform="translate(-919.796 -2773.114)" fill="#263238"/>
        <path id="Trazado_681435" data-name="Trazado 681435" d="M960.294,2762.207c3.168,10.011.178,25.682-1.327,44.867A51.137,51.137,0,0,1,939,2806.49c4.59-22.02-2.151-38.357,6.352-44.645Z" transform="translate(-918.876 -2721.124)" fill="#263238"/>
        <path id="Trazado_681436" data-name="Trazado 681436" d="M939.632,2831.355c-.069.383-.137.771-.214,1.165a52.44,52.44,0,0,0,19.813.582c.034-.416.068-.831.1-1.242A52.588,52.588,0,0,1,939.632,2831.355Z" transform="translate(-919.04 -2748.422)" fill="#fff"/>
        <path id="Trazado_681437" data-name="Trazado 681437" d="M961.687,2793.138l.585-9.669,3.336-4.594Z" transform="translate(-927.786 -2727.812)" opacity="0.2"/>
        <path id="Trazado_681438" data-name="Trazado 681438" d="M936.092,2734.05c-.383.46-.72.841-1.1,1.238s-.744.774-1.125,1.15c-.76.756-1.57,1.462-2.405,2.148a24.348,24.348,0,0,1-5.589,3.537,14.821,14.821,0,0,1-1.632.6l-.426.125c-.165.038-.345.086-.5.11a8.6,8.6,0,0,1-.921.122,20.644,20.644,0,0,1-3.311-.044,39.681,39.681,0,0,1-6.211-1.042,1,1,0,0,1,.228-1.977h.024c2.011-.023,4.05-.042,6.01-.143a22.715,22.715,0,0,0,2.808-.294c.212-.041.414-.084.589-.135.1-.022.16-.053.242-.078l.3-.112a11.4,11.4,0,0,0,1.208-.539,18.092,18.092,0,0,0,2.358-1.442c.77-.541,1.523-1.131,2.252-1.759s1.431-1.3,2.13-1.973q.519-.51,1.02-1.038c.324-.347.678-.72.956-1.038l.029-.033a2.011,2.011,0,0,1,3.058,2.614Z" transform="translate(-908.317 -2708.912)" fill="#ffb570"/>
        <path id="Trazado_681439" data-name="Trazado 681439" d="M942.452,2733.867a12.046,12.046,0,0,1-1.068,1.332s1.427,4.307,4.059,5.476a1.714,1.714,0,0,0,.941-1.143Z" transform="translate(-919.812 -2710.136)" fill="#263238"/>
        <path id="Trazado_681440" data-name="Trazado 681440" d="M947.036,2728.777c-2.832.169-3.758,1.778-4.737,3.506.88,2.466,4.47,6.433,4.47,6.433S952.181,2728.469,947.036,2728.777Z" transform="translate(-920.172 -2708.134)" fill="#eb6f2d"/>
        <path id="Trazado_681441" data-name="Trazado 681441" d="M913.7,2744.976l-3.075-2.935-.247,3.994s2.135,1.352,3.559.548Z" transform="translate(-907.635 -2713.346)" fill="#ffb570"/>
        <path id="Trazado_681442" data-name="Trazado 681442" d="M906.277,2742.479l-.4,1.839a.907.907,0,0,0,.636,1.062l2.087.6.247-3.994-1.818-.087A.738.738,0,0,0,906.277,2742.479Z" transform="translate(-905.861 -2713.289)" fill="#ffb570"/>
        <path id="Trazado_681443" data-name="Trazado 681443" d="M973.1,2902.28a10.267,10.267,0,0,0-2.524-1.244s-1.814-1.11-3.3-5.756a.338.338,0,0,0-.24-.226l-3.411-.818a.338.338,0,0,0-.41.27,5.693,5.693,0,0,0-.066,1.068c0,.448-.007,1.116,0,1.556.028,1.618.209,5.255.209,5.255h.378a27.813,27.813,0,0,1,.2-3.3c.188-1.066.941.2,1.363,1.4s2.118,2.492,4.581,2.552C972.768,2903.107,973.65,2902.842,973.1,2902.28Z" transform="translate(-928.359 -2773.114)" fill="#263238"/>
        <path id="Trazado_681444" data-name="Trazado 681444" d="M1012.235,2712.712a6.108,6.108,0,0,0-1.3-.4l.084-.425a6.48,6.48,0,0,1,1.395.434Z" transform="translate(-947.127 -2701.502)" fill="#eb6f2d"/>
        <path id="Trazado_681445" data-name="Trazado 681445" d="M1016.951,2711.737v-.434a5.04,5.04,0,0,0,4.828-3.124l.4.16A5.466,5.466,0,0,1,1016.951,2711.737Z" transform="translate(-949.49 -2700.047)" fill="#eb6f2d"/>
        <path id="Trazado_681446" data-name="Trazado 681446" d="M1012.293,2704.244a7.2,7.2,0,0,0-5.217-1.384l-.667,4.527c.932-.5,3.094-.346,4.674.368a4.2,4.2,0,0,0,5.549-2.1C1014.639,2706.809,1013.759,2705.349,1012.293,2704.244Z" transform="translate(-945.349 -2697.928)" fill="#eb6f2d"/>
        <path id="Trazado_681447" data-name="Trazado 681447" d="M1002.606,2722.086a.217.217,0,0,1-.035,0,.239.239,0,0,1-.2-.27l2.993-20.321a.238.238,0,0,1,.471.07l-2.993,20.321A.238.238,0,0,1,1002.606,2722.086Z" transform="translate(-943.762 -2697.342)" fill="#263238"/>
        <path id="Trazado_681448" data-name="Trazado 681448" d="M1001.5,2727.708c.213-1.524,1.487-2.435,2.073-3.521.1-.182.4-.112.486.077.158.365-.279,1.241-.472,1.462-.27.309-.318,2.375-1.522,2.967A1.1,1.1,0,0,1,1001.5,2727.708Z" transform="translate(-943.42 -2706.292)" fill="#ffb570"/>
        <path id="Trazado_681449" data-name="Trazado 681449" d="M948.971,2760.259a5.009,5.009,0,0,0-.216.867.23.23,0,0,0,.2.268c1.6.2,10.958,1.332,15.2.617a.231.231,0,0,0,.189-.224c.009-.266.036-.677.054-.938a.231.231,0,0,0-.229-.247c-1.471-.011-9.221-.09-14.969-.484A.225.225,0,0,0,948.971,2760.259Z" transform="translate(-922.706 -2720.445)" fill="#fff"/>
        <path id="Trazado_681450" data-name="Trazado 681450" d="M963.1,2760.318a12.429,12.429,0,0,1,3.221.165,3.043,3.043,0,0,1-.073,1.969,9.915,9.915,0,0,1-3.157-.028C962.673,2762.3,962.806,2760.409,963.1,2760.318Z" transform="translate(-928.234 -2720.505)" fill="#e0e0e0"/>
        <path id="Trazado_681451" data-name="Trazado 681451" d="M953.479,2697.706c3.076.264,1.508,6.957-2.354,11.507C949.8,2706.219,949.809,2700.854,953.479,2697.706Z" transform="translate(-923.322 -2695.934)" fill="#263238"/>
        <path id="Trazado_681452" data-name="Trazado 681452" d="M955.827,2697.468c2.936,1.984,10.078,3.254,9.192,1.375S957.045,2692.839,955.827,2697.468Z" transform="translate(-925.484 -2695.009)" fill="#263238"/>
      </g>
      <g id="Grupo_944271" data-name="Grupo 944271" transform="translate(967.747 2660.255)">
        <path id="Trazado_681453" data-name="Trazado 681453" d="M1059.683,2897.719l-3.817-.06-.209-8.866,3.817.06Z" transform="translate(-1037.639 -2753.743)" fill="#ff8b7b"/>
        <path id="Trazado_681454" data-name="Trazado 681454" d="M1051.049,2901.488l4.17.066a.313.313,0,0,1,.308.266l.535,3.408a.587.587,0,0,1-.593.671c-1.5-.049-3.67-.171-5.561-.2-2.21-.035-1.991.056-4.584.015-1.567-.024-1.9-1.617-1.235-1.751a13.788,13.788,0,0,0,6.021-2.191A1.84,1.84,0,0,1,1051.049,2901.488Z" transform="translate(-1032.969 -2758.728)" fill="#263238"/>
        <path id="Trazado_681455" data-name="Trazado 681455" d="M1055.659,2888.8l.107,4.57,3.818.06-.107-4.57Z" transform="translate(-1037.64 -2753.744)" opacity="0.2"/>
        <g id="Grupo_944262" data-name="Grupo 944262" transform="translate(15.073 141.36)">
          <path id="Trazado_681456" data-name="Trazado 681456" d="M1053.14,2901.494a.084.084,0,0,0,.058-.072.1.1,0,0,0-.051-.094c-.177-.092-1.741-.9-2.2-.644a.271.271,0,0,0-.141.239h0a.533.533,0,0,0,.185.443c.432.377,1.523.244,2.135.131Zm-2.064-.664a3.911,3.911,0,0,1,1.746.534,2.485,2.485,0,0,1-1.713-.131.348.348,0,0,1-.119-.292.1.1,0,0,1,.054-.1A.192.192,0,0,1,1051.076,2900.83Z" transform="translate(-1050.808 -2899.754)" fill="#007cff"/>
          <path id="Trazado_681457" data-name="Trazado 681457" d="M1053.727,2900.924a.1.1,0,0,0,.023-.012.086.086,0,0,0,.035-.081,2.718,2.718,0,0,0-.644-1.482.69.69,0,0,0-.508-.163h0c-.248.021-.316.146-.328.248-.056.43.887,1.271,1.355,1.485A.089.089,0,0,0,1053.727,2900.924Zm-1.161-1.54a.376.376,0,0,1,.092-.017h0a.5.5,0,0,1,.373.121,2.233,2.233,0,0,1,.545,1.186c-.48-.29-1.124-.949-1.091-1.208C1052.486,2899.449,1052.492,2899.409,1052.566,2899.384Zm.08-.107h0Z" transform="translate(-1051.395 -2899.184)" fill="#007cff"/>
        </g>
        <path id="Trazado_681458" data-name="Trazado 681458" d="M1059.309,2801.443c4.661-19.507,9.08-27.972,7.326-37.649l-13.472.161s-5.313,26.536-4.182,37.979c1.174,11.9,2.894,39.59,2.894,39.59l6.151.087S1061.606,2814.732,1059.309,2801.443Z" transform="translate(-1034.955 -2704.652)" fill="#eb6f2d"/>
        <path id="Trazado_681459" data-name="Trazado 681459" d="M1066.412,2806.566c2.49-9.947,4.828-16.86,6.08-22.655C1063.726,2787.058,1064.473,2797.952,1066.412,2806.566Z" transform="translate(-1041.375 -2712.552)" opacity="0.2"/>
        <path id="Trazado_681460" data-name="Trazado 681460" d="M1052.3,2889.541l.512,2.637,6.768.121.272-2.491Z" transform="translate(-1036.322 -2754.036)" fill="#263238"/>
        <path id="Trazado_681461" data-name="Trazado 681461" d="M1094.628,2897.719l-3.824-.06-1.261-8.866,3.824.06Z" transform="translate(-1050.947 -2753.743)" fill="#ff8b7b"/>
        <path id="Trazado_681462" data-name="Trazado 681462" d="M1087.975,2901.488l4.167.066a.3.3,0,0,1,.3.266l.363,3.409a.622.622,0,0,1-.627.671c-1.5-.049-1.972-.171-3.861-.2-2.209-.034-1.19.056-3.78.015-1.566-.024-1.817-1.61-1.147-1.751a6.132,6.132,0,0,0,3.637-2.191A1.348,1.348,0,0,1,1087.975,2901.488Z" transform="translate(-1048.392 -2758.728)" fill="#263238"/>
        <path id="Trazado_681463" data-name="Trazado 681463" d="M1089.545,2888.8l.65,4.57,3.826.06-.65-4.57Z" transform="translate(-1050.948 -2753.744)" opacity="0.2"/>
        <g id="Grupo_944263" data-name="Grupo 944263" transform="translate(38.314 141.05)">
          <path id="Trazado_681464" data-name="Trazado 681464" d="M1091.1,2900.994a.09.09,0,0,0,.071-.15c-.13-.146-1.285-1.423-1.812-1.348a.288.288,0,0,0-.226.172h0a.5.5,0,0,0,0,.471c.258.5,1.335.748,1.953.854Zm-1.679-1.321c.3.01.969.6,1.431,1.092-.839-.171-1.412-.431-1.558-.709a.331.331,0,0,1,0-.311.108.108,0,0,1,.088-.07Z" transform="translate(-1089.078 -2898.994)" fill="#007cff"/>
          <path id="Trazado_681465" data-name="Trazado 681465" d="M1091.892,2900.672a.1.1,0,0,0,.026,0,.09.09,0,0,0,.064-.063,2.583,2.583,0,0,0-.026-1.587.657.657,0,0,0-.413-.324h0c-.241-.066-.354.026-.406.115-.22.379.337,1.478.693,1.835A.089.089,0,0,0,1091.892,2900.672Zm-.489-1.819a.439.439,0,0,1,.093.016h0a.48.48,0,0,1,.3.239,2.124,2.124,0,0,1,.049,1.281c-.338-.433-.686-1.261-.553-1.489C1091.3,2898.887,1091.324,2898.851,1091.4,2898.853Zm.117-.071h0Z" transform="translate(-1089.868 -2898.673)" fill="#007cff"/>
        </g>
        <path id="Trazado_681466" data-name="Trazado 681466" d="M1081.436,2801.3c2.093-19.507,4.555-28.189,1.526-37.865l-14.046.377s-.381,26.536,2.255,37.979c2.74,11.9,9.142,39.59,9.142,39.59l6.163.087S1085.481,2814.593,1081.436,2801.3Z" transform="translate(-1042.839 -2704.512)" fill="#eb6f2d"/>
        <path id="Trazado_681467" data-name="Trazado 681467" d="M1086.217,2889.541l.4,2.637,6.909.121.39-2.491Z" transform="translate(-1049.641 -2754.036)" fill="#263238"/>
        <path id="Trazado_681468" data-name="Trazado 681468" d="M1050.757,2711.717c-.491,1.482-1.038,2.871-1.595,4.293s-1.165,2.812-1.821,4.2-1.342,2.774-2.133,4.149c-.4.688-.8,1.38-1.279,2.068a16.675,16.675,0,0,1-1.674,2.1l.22-.275a5.106,5.106,0,0,1-1.019,1.037,4.393,4.393,0,0,1-.4.263,4.3,4.3,0,0,1-.486.236,3.57,3.57,0,0,1-1.183.248,3.637,3.637,0,0,1-2.007-.544,4.75,4.75,0,0,1-1.024-.862,7.333,7.333,0,0,1-1.06-1.559,13.8,13.8,0,0,1-.653-1.444,22.5,22.5,0,0,1-.858-2.809,24.382,24.382,0,0,1-.508-2.828,1.455,1.455,0,0,1,2.725-.856l.031.058c.4.755.813,1.559,1.23,2.314s.839,1.5,1.282,2.178a10.986,10.986,0,0,0,.662.929,3.258,3.258,0,0,0,.587.592c.064.043.107.04.035-.021a1.155,1.155,0,0,0-.714-.2,1.576,1.576,0,0,0-.526.094,1.677,1.677,0,0,0-.3.151c-.121.081-.123.085-.108.038l.005-.01.215-.265a12.078,12.078,0,0,0,.981-1.471c.325-.565.651-1.168.959-1.787s.61-1.258.9-1.906.584-1.3.863-1.963c.557-1.324,1.1-2.668,1.634-4.019s1.049-2.731,1.553-4.049l.012-.032a2.9,2.9,0,0,1,5.456,1.945Z" transform="translate(-1028.847 -2682.704)" fill="#ff8b7b"/>
        <path id="Trazado_681469" data-name="Trazado 681469" d="M1032.6,2727.644l-4.128-1.184,2.987-3.548s3.477,1.032,2.924,3.191Z" transform="translate(-1026.964 -2688.596)" fill="#ff8b7b"/>
        <path id="Trazado_681470" data-name="Trazado 681470" d="M1026.167,2723.027l1.008-1.638a1.212,1.212,0,0,1,1.7-.373l1.6,1.071-2.987,3.547-1.141-1.1A1.21,1.21,0,0,1,1026.167,2723.027Z" transform="translate(-1025.987 -2687.771)" fill="#ff8b7b"/>
        <g id="Grupo_944264" data-name="Grupo 944264" transform="translate(12.89 23.087)">
          <path id="Trazado_681471" data-name="Trazado 681471" d="M1052.133,2704.888c-3.563,2.59-4.92,10.266-4.92,10.266l7.944,3.664a14.412,14.412,0,0,0,2.249-6.036C1057.626,2711.538,1055.752,2702.257,1052.133,2704.888Z" transform="translate(-1047.213 -2704.42)" fill="#263238"/>
        </g>
        <path id="Trazado_681472" data-name="Trazado 681472" d="M1056.109,2703.042a44.9,44.9,0,0,1,12.824-.667,5.471,5.471,0,0,1,4.921,4.2c1.264,5.4,3.431,16.047,2.683,33.034-1.953.817-7.87,1.294-12.6,1.367-.514.009-1.87-1.081-1.87-1.081s-1.04,1.078-1.7,1.056c-3.146-.1-5.674-.421-6.3-.984-1.541-2.939-3.015-10.605-.242-17.825-.325-4.148-1.548-8.741-2-13.183A5.458,5.458,0,0,1,1056.109,2703.042Z" transform="translate(-1036.123 -2680.463)" fill="#263238"/>
        <g id="Grupo_944267" data-name="Grupo 944267" transform="translate(17.7 44.645)">
          <g id="Grupo_944266" data-name="Grupo 944266">
            <rect id="Rectángulo_337342" data-name="Rectángulo 337342" width="2.162" height="1.333" rx="0.666" transform="translate(6.721 0.405) rotate(-10.81)" fill="#fff"/>
            <path id="Rectángulo_337343" data-name="Rectángulo 337343" d="M1.873,0H8.537A1.872,1.872,0,0,1,10.41,1.872V4.543A1.872,1.872,0,0,1,8.537,6.416H1.873A1.873,1.873,0,0,1,0,4.543V1.873A1.873,1.873,0,0,1,1.873,0Z" transform="matrix(0.982, -0.188, 0.188, 0.982, 0, 2.156)" fill="#eb6f2d"/>
            <path id="Rectángulo_337344" data-name="Rectángulo 337344" d="M1.872,0H6.349A1.872,1.872,0,0,1,8.222,1.872V3.965A1.873,1.873,0,0,1,6.349,5.837H1.872A1.872,1.872,0,0,1,0,3.965V1.872A1.872,1.872,0,0,1,1.872,0Z" transform="translate(0.364 2.381) rotate(-10.81)" fill="#263238"/>
            <rect id="Rectángulo_337345" data-name="Rectángulo 337345" width="1.203" height="0.741" rx="0.371" transform="translate(6.741 1.666) rotate(-10.81)" fill="#fff"/>
            <rect id="Rectángulo_337346" data-name="Rectángulo 337346" width="0.865" height="0.741" rx="0.371" transform="translate(5.591 1.886) rotate(-10.804)" fill="#eb6f2d"/>
            <g id="Grupo_944265" data-name="Grupo 944265" transform="translate(1.249 2.63)">
              <path id="Trazado_681473" data-name="Trazado 681473" d="M1061.06,2744.275l-1.81.346.717,3.753,1.81-.346a1.941,1.941,0,0,0-.717-3.753Z" transform="translate(-1057.999 -2744.251)" fill="#fff" opacity="0.7"/>
              <path id="Trazado_681474" data-name="Trazado 681474" d="M1060.368,2746.422a1.623,1.623,0,1,1-1.927-1.576A1.776,1.776,0,0,1,1060.368,2746.422Z" transform="translate(-1057.19 -2744.476)" fill="#fff"/>
              <path id="Trazado_681475" data-name="Trazado 681475" d="M1060.039,2746.8a1.261,1.261,0,1,1-1.5-1.226A1.38,1.38,0,0,1,1060.039,2746.8Z" transform="translate(-1057.339 -2744.765)" fill="#eb6f2d"/>
            </g>
          </g>
        </g>
        <path id="Trazado_681476" data-name="Trazado 681476" d="M1063.08,2714.421c-1.193,0-2.07-.927-2.536-2.681-.884-3.329-.047-8.661,1.151-9.346a.119.119,0,1,1,.119.206c-1.015.581-1.94,5.688-1.04,9.078.3,1.143.95,2.5,2.306,2.5,2.284,0,4.126-3.613,4.811-5.166,1.28-2.9,1.906-6.128,1.314-6.777a.119.119,0,0,1,.176-.16c.738.81-.061,4.291-1.272,7.033C1067.4,2710.709,1065.5,2714.421,1063.08,2714.421Z" transform="translate(-1039.414 -2680.4)" fill="#fff"/>
        <path id="Trazado_681477" data-name="Trazado 681477" d="M1056.861,2671.279c.6-1.719,3.25-3.359,3.25-3.359s6.287.106,9.249,5.026c.706,1.708-.635,4.563-.635,4.563Z" transform="translate(-1038.112 -2666.999)" fill="#263238"/>
        <ellipse id="Elipse_5269" data-name="Elipse 5269" cx="4.401" cy="10.753" rx="4.401" ry="10.753" transform="translate(12.274 8.214) rotate(-68.96)" fill="#eb6f2d"/>
        <path id="Trazado_681478" data-name="Trazado 681478" d="M1067.344,2691.071c.381,2.843.959,6.139,2.968,7.752a6.015,6.015,0,0,1-5.4,3.869c-3.042.159-2.573-2.271-2.07-3.556,1.292-1.45.671-3.064.345-4.211Z" transform="translate(-1040.318 -2676.091)" fill="#ff8b7b"/>
        <path id="Trazado_681479" data-name="Trazado 681479" d="M1066.965,2693.01c-.019-.18-.048-.361-.076-.537l-3.233,3a6.96,6.96,0,0,1,.429,2.429C1065.688,2696.83,1067.16,2694.735,1066.965,2693.01Z" transform="translate(-1040.78 -2676.642)" opacity="0.2"/>
        <path id="Trazado_681480" data-name="Trazado 681480" d="M1065.106,2680.427c-.479,3.758-.568,5.984-2.6,7.78-3.061,2.7-7.611.625-8.266-3.21-.59-3.452.293-9.019,4.089-10.246A5.221,5.221,0,0,1,1065.106,2680.427Z" transform="translate(-1037.016 -2669.578)" fill="#ff8b7b"/>
        <path id="Trazado_681481" data-name="Trazado 681481" d="M1063.9,2684.925a2.066,2.066,0,0,1,1.574-.118A4.09,4.09,0,0,1,1063.9,2684.925Z" transform="translate(-1040.876 -2673.585)" opacity="0.2"/>
        <path id="Trazado_681482" data-name="Trazado 681482" d="M1063.988,2685.656a1.7,1.7,0,0,1,1.408.252A3.366,3.366,0,0,1,1063.988,2685.656Z" transform="translate(-1040.911 -2673.943)" opacity="0.2"/>
        <path id="Trazado_681483" data-name="Trazado 681483" d="M1063.526,2683.994a2.749,2.749,0,0,1-2.182-.833s1.805-1.349,1.488-2.8-.952-2.361-.4-3.045c-2.718.427-8.372.506-9.721-.863.814.179,1.57-.458,2.124-.258.217-.655,2.118-2.77,6.506-1.554,2.936.813,3.948,3.657,3.73,4.688A2.922,2.922,0,0,1,1063.526,2683.994Z" transform="translate(-1036.483 -2669.494)" fill="#e0e0e0"/>
        <path id="Trazado_681484" data-name="Trazado 681484" d="M1051.718,2691.652s1.081,2.494,3.137,1.313a3.4,3.4,0,0,0,4.394-1.786c-1.165.5-2.211-1.109-3.878-.987a.81.81,0,0,0-.5.253,1.246,1.246,0,0,0-.559-.165C1053.127,2690.347,1053.325,2691.664,1051.718,2691.652Z" transform="translate(-1036.092 -2675.743)" fill="#e0e0e0"/>
        <path id="Trazado_681485" data-name="Trazado 681485" d="M1071.514,2689.062a3.57,3.57,0,0,1-2.249,1.57c-1.235.259-1.782-.867-1.379-1.991.363-1.011,1.443-2.365,2.654-2.12A1.628,1.628,0,0,1,1071.514,2689.062Z" transform="translate(-1042.39 -2674.293)" fill="#ff8b7b"/>
        <path id="Trazado_681486" data-name="Trazado 681486" d="M1061.86,2685.134c-.02.307-.2.544-.4.529s-.347-.276-.327-.583.2-.545.4-.529S1061.88,2684.827,1061.86,2685.134Z" transform="translate(-1039.789 -2673.531)" fill="#263238"/>
        <path id="Trazado_681487" data-name="Trazado 681487" d="M1055.531,2684.86c-.021.307-.2.544-.4.53s-.348-.276-.328-.584.2-.544.4-.53S1055.552,2684.552,1055.531,2684.86Z" transform="translate(-1037.303 -2673.422)" fill="#263238"/>
        <g id="Grupo_944268" data-name="Grupo 944268" transform="translate(15.893 11.236)">
          <path id="Trazado_681488" data-name="Trazado 681488" d="M1054.833,2685.145a.172.172,0,0,1,.169.17v1.415a.172.172,0,0,1-.169.169h-2.267a.169.169,0,0,1-.169-.169v-1.415a.17.17,0,0,1,.169-.17h2.267m0-.238h-2.267a.409.409,0,0,0-.407.408v1.415a.409.409,0,0,0,.407.408h2.267a.409.409,0,0,0,.407-.408v-1.415a.409.409,0,0,0-.407-.408Z" transform="translate(-1052.158 -2684.907)" fill="#263238"/>
          <path id="Trazado_681489" data-name="Trazado 681489" d="M1061.989,2685.145a.17.17,0,0,1,.17.17v1.415a.17.17,0,0,1-.17.169h-2.943a.17.17,0,0,1-.17-.169v-1.415a.17.17,0,0,1,.17-.17h2.943m0-.238h-2.943a.409.409,0,0,0-.408.408v1.415a.409.409,0,0,0,.408.408h2.943a.408.408,0,0,0,.407-.408v-1.415a.408.408,0,0,0-.407-.408Z" transform="translate(-1054.702 -2684.907)" fill="#263238"/>
          <path id="Trazado_681490" data-name="Trazado 681490" d="M1057.055,2685.827l-.167-.169a1.019,1.019,0,0,1,1.235-.06l-.114.209A.8.8,0,0,0,1057.055,2685.827Z" transform="translate(-1054.016 -2685.111)" fill="#263238"/>
        </g>
        <path id="Trazado_681491" data-name="Trazado 681491" d="M1056.682,2685.882a10.9,10.9,0,0,1-1.793,2.414,1.786,1.786,0,0,0,1.425.473Z" transform="translate(-1037.338 -2674.053)" fill="#ff5551"/>
        <path id="Trazado_681492" data-name="Trazado 681492" d="M1062.533,2681.41a.177.177,0,0,0,.087-.029.18.18,0,0,0,.052-.25,1.812,1.812,0,0,0-1.422-.854.178.178,0,0,0-.18.18.183.183,0,0,0,.181.182h0a1.449,1.449,0,0,1,1.119.688A.183.183,0,0,0,1062.533,2681.41Z" transform="translate(-1039.765 -2671.853)" fill="#263238"/>
        <path id="Trazado_681493" data-name="Trazado 681493" d="M1053.984,2682.09a.18.18,0,0,0,.163-.051,1.419,1.419,0,0,1,1.222-.455.181.181,0,0,0,.21-.144.183.183,0,0,0-.144-.212,1.781,1.781,0,0,0-1.549.558.182.182,0,0,0,.1.3Z" transform="translate(-1036.924 -2672.219)" fill="#263238"/>
        <g id="Grupo_944270" data-name="Grupo 944270" transform="translate(24.811 22.13)">
          <path id="Trazado_681494" data-name="Trazado 681494" d="M1082.334,2707.522c.467.638.859,1.2,1.256,1.818s.777,1.213,1.151,1.829c.752,1.228,1.442,2.5,2.1,3.8a33.943,33.943,0,0,1,3.041,8.434c.08.383.135.785.193,1.182l.067.608c.01.07.024.287.031.447s0,.35-.01.524a5.027,5.027,0,0,1-.6,2.025,5.6,5.6,0,0,1-1.145,1.435,8.535,8.535,0,0,1-2.428,1.5,15.6,15.6,0,0,1-2.3.735,30.167,30.167,0,0,1-8.757.594,1.441,1.441,0,0,1-.2-2.851l.084-.017c.624-.125,1.3-.257,1.949-.4s1.3-.306,1.94-.462a30.523,30.523,0,0,0,3.665-1.146,10.834,10.834,0,0,0,1.558-.744,3.544,3.544,0,0,0,1-.78c.083-.108.114-.188.1-.207s-.041.023-.054.044c-.01,0-.006.01-.013.007s0,.032-.02-.069l-.078-.417c-.065-.281-.12-.562-.2-.849a33.708,33.708,0,0,0-2.948-6.953c-.611-1.153-1.284-2.286-1.962-3.417q-.512-.846-1.05-1.677c-.355-.541-.73-1.124-1.063-1.609l-.03-.043a2.9,2.9,0,0,1,4.728-3.346Z" transform="translate(-1069.487 -2704.216)" fill="#ff8b7b"/>
          <g id="Grupo_944269" data-name="Grupo 944269" transform="translate(6.429)">
            <path id="Trazado_681495" data-name="Trazado 681495" d="M1080.357,2702.906c4.315.888,7.9,8.325,7.9,8.325l-4.881,7.3a20.424,20.424,0,0,1-5.138-6.1C1077.652,2711.317,1075.975,2702.005,1080.357,2702.906Z" transform="translate(-1077.431 -2702.845)" fill="#263238"/>
          </g>
          <path id="Trazado_681496" data-name="Trazado 681496" d="M1075.885,2744.132l-3.858-.268.988,4.532s3.523-.181,3.729-2.069Z" transform="translate(-1068.879 -2718.955)" fill="#ff8b7b"/>
          <path id="Trazado_681497" data-name="Trazado 681497" d="M1066.94,2746.477l.614,1.531a1.34,1.34,0,0,0,1.535.809l1.89-.42-.988-4.532-2.28.86A1.34,1.34,0,0,0,1066.94,2746.477Z" transform="translate(-1066.843 -2718.955)" fill="#ff8b7b"/>
        </g>
        <path id="Trazado_681498" data-name="Trazado 681498" d="M1070.646,2701.518c.091.873-.952,3.963-4.6,5.284,1.408.013,2.023,1.8,2.023,1.8s4.841-2.579,4.266-5.694A1.722,1.722,0,0,0,1070.646,2701.518Z" transform="translate(-1041.718 -2680.194)" fill="#eb6f2d"/>
        <path id="Trazado_681499" data-name="Trazado 681499" d="M1062.83,2701.91c.089.853-.9,2.645,1.131,5.046a3,3,0,0,0-2.254,1.414,6.029,6.029,0,0,1-.4-5.759A2.809,2.809,0,0,1,1062.83,2701.91Z" transform="translate(-1039.637 -2680.348)" fill="#eb6f2d"/>
        <path id="Trazado_681500" data-name="Trazado 681500" d="M1064.346,2730.891h-3.673a.676.676,0,0,1-.684-.742l.507-6.547a.816.816,0,0,1,.8-.742h3.673a.677.677,0,0,1,.684.742l-.508,6.547A.816.816,0,0,1,1064.346,2730.891Z" transform="translate(-1039.339 -2688.576)" fill="#fff"/>
        <path id="Trazado_681501" data-name="Trazado 681501" d="M1064.9,2723.051h-.691a.127.127,0,0,1-.129-.14l.1-1.231a.154.154,0,0,1,.151-.14h.691a.127.127,0,0,1,.129.14l-.1,1.231A.154.154,0,0,1,1064.9,2723.051Z" transform="translate(-1040.947 -2688.058)" fill="#eb6f2d"/>
      </g>
      <g id="Grupo_944274" data-name="Grupo 944274" transform="translate(1016.776 2668.685)">
        <path id="Trazado_681502" data-name="Trazado 681502" d="M1153.637,2725.159c4.208,4.46,8.109,6.129,7.852,11.658,1.951,3.118,1.13,11.688-2.258,13.484s-12.985.513-12.985.513Z" transform="translate(-1122.246 -2697.908)" fill="#263238"/>
        <g id="Grupo_944272" data-name="Grupo 944272" transform="translate(33.705 46.771)">
          <path id="Trazado_681503" data-name="Trazado 681503" d="M1163.717,2765.516h3.673a.677.677,0,0,0,.684-.742l-.507-6.547a.816.816,0,0,0-.8-.742h-3.673a.677.677,0,0,0-.684.742l.508,6.547A.815.815,0,0,0,1163.717,2765.516Z" transform="translate(-1162.298 -2757.375)" fill="#fff"/>
          <path id="Trazado_681504" data-name="Trazado 681504" d="M1167.319,2765.555h-3.673a.929.929,0,0,1-.909-.844l-.508-6.547a.787.787,0,0,1,.794-.861h3.673a.928.928,0,0,1,.909.844l.508,6.547a.788.788,0,0,1-.794.861Zm-4.3-8.031a.567.567,0,0,0-.574.624l.507,6.547a.7.7,0,0,0,.69.64h3.673a.566.566,0,0,0,.574-.623l-.507-6.547a.7.7,0,0,0-.69-.641Z" transform="translate(-1162.227 -2757.304)" fill="#eb6f2d"/>
        </g>
        <path id="Trazado_681505" data-name="Trazado 681505" d="M1166.139,2757.676h.691a.128.128,0,0,0,.129-.14l-.1-1.231a.153.153,0,0,0-.15-.14h-.691a.127.127,0,0,0-.129.14l.1,1.231A.153.153,0,0,0,1166.139,2757.676Z" transform="translate(-1129.961 -2710.086)" fill="#eb6f2d"/>
        <path id="Trazado_681506" data-name="Trazado 681506" d="M1133.344,2792.644a150.241,150.241,0,0,0-.684,15.016c.315,5.284.236,12.037.014,18.513h-8.351c-.25-6.4-.517-12.813-.754-17.1-.619-11.279-2.4-38.208-2.4-38.208l6.716.106,8.748.144A181.676,181.676,0,0,0,1133.344,2792.644Z" transform="translate(-1112.398 -2715.857)" fill="#263238"/>
        <path id="Trazado_681507" data-name="Trazado 681507" d="M1139.373,2787.519c-4.406,6.032-2.425,17.381-.619,25.4a172.2,172.2,0,0,1,2.25-26.4Z" transform="translate(-1118.499 -2722.007)" opacity="0.2"/>
        <path id="Trazado_681508" data-name="Trazado 681508" d="M1150.721,2806.837c-2.106-16.665-2.886-31.866-5.385-35.589l-13.1-.212s2.79,10.933,5.455,21.677c1.478,5.94,2.914,11.819,3.825,15.773,1.016,4.416,2.388,11.141,3.686,17.755h8.194C1152.579,2819.373,1152.241,2811.821,1150.721,2806.837Z" transform="translate(-1116.742 -2715.926)" fill="#263238"/>
        <path id="Trazado_681509" data-name="Trazado 681509" d="M1133.4,2884.2s.768-10.7,1.12-22.252h-7.3c.375,11.09,1.416,22.169,1.416,22.169Z" transform="translate(-1114.773 -2751.628)" fill="#903c38"/>
        <path id="Trazado_681510" data-name="Trazado 681510" d="M1158.226,2883l5.094.085s-.432-10.246-1.537-21.143H1154.8C1156.587,2872.611,1158.226,2883,1158.226,2883Z" transform="translate(-1125.605 -2751.628)" fill="#903c38"/>
        <path id="Trazado_681511" data-name="Trazado 681511" d="M1125.663,2862.37l-.423-3.657,9.623-.192-.511,3.58A14.8,14.8,0,0,1,1125.663,2862.37Z" transform="translate(-1113.995 -2750.283)" fill="#eb6f2d"/>
        <path id="Trazado_681512" data-name="Trazado 681512" d="M1153.323,2862.37l-.661-3.657,9.285-.192-.279,3.58A13.3,13.3,0,0,1,1153.323,2862.37Z" transform="translate(-1124.765 -2750.283)" fill="#eb6f2d"/>
        <path id="Trazado_681513" data-name="Trazado 681513" d="M1122.586,2721.2c-.135,1.238-.307,2.458-.489,3.683s-.377,2.446-.6,3.665-.437,2.44-.682,3.659-.5,2.438-.77,3.661l-.069.309a1.262,1.262,0,0,1-.058.188c-.478,1.2-1.011,2.352-1.553,3.487s-1.129,2.234-1.715,3.331-1.217,2.167-1.861,3.228-1.305,2.1-2.033,3.136a1.739,1.739,0,0,1-3.093-1.477l.007-.025c.333-1.164.711-2.33,1.077-3.486l1.122-3.452,1.112-3.417c.362-1.13.7-2.259,1.023-3.359l-.126.5.406-3.635q.2-1.824.426-3.65c.141-1.218.306-2.433.468-3.649s.34-2.433.542-3.635v-.007a3.466,3.466,0,0,1,6.863.95Z" transform="translate(-1107.853 -2694.843)" fill="#903c38"/>
        <path id="Trazado_681514" data-name="Trazado 681514" d="M1109,2767l-1.887,3.242,4.367,1.083s1.352-3.143-.2-4.131Z" transform="translate(-1106.876 -2714.342)" fill="#903c38"/>
        <path id="Trazado_681515" data-name="Trazado 681515" d="M1107.925,2776.118l1.594.121a1.3,1.3,0,0,0,1.362-.988l.445-1.826-4.367-1.083-.229,2.353A1.3,1.3,0,0,0,1107.925,2776.118Z" transform="translate(-1106.724 -2716.439)" fill="#903c38"/>
        <path id="Trazado_681516" data-name="Trazado 681516" d="M1138.127,2715.525a64.879,64.879,0,0,0-14.31-.476,4.51,4.51,0,0,0-4.113,4.268,229.42,229.42,0,0,0,.814,29.543c2.019,2.295,11.072,3.2,19.832.321a247.228,247.228,0,0,1,3.807-25.069A7.116,7.116,0,0,0,1138.127,2715.525Z" transform="translate(-1111.755 -2693.859)" fill="#eb6f2d"/>
        <path id="Trazado_681517" data-name="Trazado 681517" d="M1129.165,2714.921a2.222,2.222,0,0,0-.213.268,2.728,2.728,0,0,0-.356,2.757c.5.965,1.686,1.483,3.524,1.543.157,0,.314.009.467.009a12.062,12.062,0,0,0,6.757-2.009,2.451,2.451,0,0,0,1.127-2.111A66.022,66.022,0,0,0,1129.165,2714.921Z" transform="translate(-1115.222 -2693.859)" fill="#fff"/>
        <path id="Trazado_681518" data-name="Trazado 681518" d="M1140.172,2700.719l-6.336,4.023c.508,2.034.53,4.161-2.578,4.793a1.473,1.473,0,0,0-.939.616c-.761,1.152-.853,2.76,2.429,2.868a11.192,11.192,0,0,0,6.7-1.856,1.491,1.491,0,0,0,.554-1.916C1138.818,2706.942,1139.53,2703,1140.172,2700.719Z" transform="translate(-1115.818 -2688.31)" fill="#903c38"/>
        <path id="Trazado_681519" data-name="Trazado 681519" d="M1140.148,2703.422l-3.75,2.378a7.489,7.489,0,0,1,.244,1.511c1.359.244,3.39-.919,3.588-2.117A4.78,4.78,0,0,0,1140.148,2703.422Z" transform="translate(-1118.378 -2689.372)" opacity="0.2"/>
        <path id="Trazado_681520" data-name="Trazado 681520" d="M1133.431,2685.076a4.424,4.424,0,0,0-1.9,4.668c.289,2.444,2.353,1.755,2.353,1.755Z" transform="translate(-1116.443 -2682.167)" fill="#263238"/>
        <path id="Trazado_681521" data-name="Trazado 681521" d="M1141.823,2690.9c-.85,3.575-1.166,5.713-3.314,7.235-3.231,2.29-7.406-.183-7.641-3.95-.212-3.391,1.214-8.669,5-9.46A5.065,5.065,0,0,1,1141.823,2690.9Z" transform="translate(-1116.197 -2681.984)" fill="#903c38"/>
        <path id="Trazado_681522" data-name="Trazado 681522" d="M1144.359,2692.314c.2.655-.93,2.734-2.4,2.268-1.6-2.162-2.7-4.509-1.223-6.361-2.106-.477-9.472-1.367-7.756-3.577.392-1.164,3.481-2.684,6.6-2.174S1146.232,2687.428,1144.359,2692.314Z" transform="translate(-1116.936 -2681.103)" fill="#263238"/>
        <path id="Trazado_681523" data-name="Trazado 681523" d="M1144.44,2691.5c-.35-2.9-3.484-6.411-7.447-7.083-2.489-.423-3.928-.588-3.928-.588s-.616-1.1.82-1.75c.064-1.246,11.318-4.551,12.959,3.075.59,2.787-1.082.835-1.082.835S1147.1,2691.018,1144.44,2691.5Z" transform="translate(-1117.017 -2680.285)" fill="#eb6f2d"/>
        <path id="Trazado_681524" data-name="Trazado 681524" d="M1148.356,2699.625a3.46,3.46,0,0,1-2.324,1.3c-1.218.13-1.636-1.01-1.137-2.055.449-.941,1.623-2.143,2.769-1.788A1.58,1.58,0,0,1,1148.356,2699.625Z" transform="translate(-1121.634 -2686.855)" fill="#903c38"/>
        <path id="Trazado_681525" data-name="Trazado 681525" d="M1139.329,2693.982c-.051.294-.248.5-.441.469s-.307-.3-.256-.6.248-.5.441-.469S1139.38,2693.688,1139.329,2693.982Z" transform="translate(-1119.25 -2685.429)" fill="#263238"/>
        <path id="Trazado_681526" data-name="Trazado 681526" d="M1133.5,2693.319c-.051.294-.249.5-.441.469s-.307-.3-.256-.6.249-.5.441-.469S1133.551,2693.024,1133.5,2693.319Z" transform="translate(-1116.961 -2685.168)" fill="#263238"/>
        <path id="Trazado_681527" data-name="Trazado 681527" d="M1134.631,2694.535a10.567,10.567,0,0,1-1.844,2.261,1.732,1.732,0,0,0,1.36.521Z" transform="translate(-1116.959 -2685.882)" fill="#740606"/>
        <path id="Trazado_681528" data-name="Trazado 681528" d="M1136.548,2700.265a2.443,2.443,0,0,0,1.831-.661.089.089,0,0,0-.129-.122,2.351,2.351,0,0,1-2.059.564.087.087,0,0,0-.1.07.089.089,0,0,0,.071.1A2.965,2.965,0,0,0,1136.548,2700.265Z" transform="translate(-1118.256 -2687.814)" fill="#263238"/>
        <path id="Trazado_681529" data-name="Trazado 681529" d="M1140.932,2692.849a.177.177,0,0,0,.089,0,.175.175,0,0,0,.114-.22,1.759,1.759,0,0,0-1.106-1.17.173.173,0,0,0-.215.122.177.177,0,0,0,.121.217h0a1.407,1.407,0,0,1,.865.936A.178.178,0,0,0,1140.932,2692.849Z" transform="translate(-1119.717 -2684.669)" fill="#263238"/>
        <path id="Trazado_681530" data-name="Trazado 681530" d="M1131.837,2690.593a.174.174,0,0,0,.157-.054,1.378,1.378,0,0,1,1.173-.473.173.173,0,0,0,.2-.145.177.177,0,0,0-.145-.2,1.73,1.73,0,0,0-1.488.581.177.177,0,0,0,.1.292Z" transform="translate(-1116.528 -2683.986)" fill="#263238"/>
        <g id="Grupo_944273" data-name="Grupo 944273" transform="translate(18.015 21.342)">
          <path id="Trazado_681531" data-name="Trazado 681531" d="M1153.638,2721.212l.248.436.216.4c.142.261.27.525.4.787.26.524.5,1.055.724,1.592a32.175,32.175,0,0,1,1.19,3.3,23.476,23.476,0,0,1,1.069,7.26c-.007.333-.028.637-.053.933-.011.129-.026.356-.052.579l-.056.385-.086.407a5.086,5.086,0,0,1-.805,1.769,4.8,4.8,0,0,1-1.59,1.405,5.252,5.252,0,0,1-1.657.556,6.1,6.1,0,0,1-1.361.066,9.749,9.749,0,0,1-2.134-.391,16.867,16.867,0,0,1-3.352-1.46,21.369,21.369,0,0,1-2.885-1.93,1.74,1.74,0,0,1,1.536-3.042l.107.03a31.223,31.223,0,0,0,5.651,1.195,3.918,3.918,0,0,0,1.035-.042c.251-.045.329-.17.061-.083a1.133,1.133,0,0,0-.434.322,1.816,1.816,0,0,0-.2.3.038.038,0,0,0-.016.015.039.039,0,0,1-.013-.012,1.2,1.2,0,0,1-.018-.219c-.007-.236-.017-.465-.039-.664a22.056,22.056,0,0,0-1.264-5.257c-.315-.895-.678-1.787-1.06-2.673-.191-.443-.395-.882-.6-1.318l-.308-.645-.285-.579-.09-.183a3.461,3.461,0,0,1,6.116-3.237Z" transform="translate(-1138.906 -2717.013)" fill="#903c38"/>
          <path id="Trazado_681532" data-name="Trazado 681532" d="M1149.885,2718.18a.584.584,0,0,0,.147-.994,9.087,9.087,0,0,0-4.811-1.754c-2.383.077-5.384,5.252-6.742,17.715-1.23,11.3,8.023,11.135,9.759,11.007a.336.336,0,0,0,.308-.3l.042-.366a.336.336,0,0,0-.326-.376c-1.394-.029-7.715-.659-8.184-4.893C1141.4,2732.808,1142.682,2721.3,1149.885,2718.18Z" transform="translate(-1137.166 -2715.43)" fill="#263238"/>
          <path id="Trazado_681533" data-name="Trazado 681533" d="M1145.218,2743.538l-2.906-2.373-1.755,4.144s2.892,1.829,4.112.449Z" transform="translate(-1138.026 -2725.537)" fill="#903c38"/>
          <path id="Trazado_681534" data-name="Trazado 681534" d="M1136.795,2741.115l-.37,1.556a1.3,1.3,0,0,0,.763,1.5l1.733.726,1.755-4.143-2.288-.6A1.3,1.3,0,0,0,1136.795,2741.115Z" transform="translate(-1136.389 -2725.125)" fill="#903c38"/>
        </g>
        <path id="Trazado_681535" data-name="Trazado 681535" d="M1129.3,2905.693l-.568-.148-14.6-.321c-.461.5.09,2.143,2.194,2.143s5.346-.077,7.513-.077c2.116,0,2.858.077,4.895.077C1129.321,2907.367,1129.681,2906.51,1129.3,2905.693Z" transform="translate(-1109.574 -2768.625)" fill="#eb6f2d"/>
        <path id="Trazado_681536" data-name="Trazado 681536" d="M1128.93,2895.254l.5,5.139a.722.722,0,0,1-.72.771c-2.243,0-3.666-.076-5.836-.11-2.538-.04-4.132.193-7.108.146-1.8-.028-2.071-1.787-1.317-2.011,3.624-1.082,5.642-1.817,7.481-3.989,0,0-1.808-1.658-.775-2.57s4.62-1.094,4.832,0a4.7,4.7,0,0,1-.091,2.066S1127.922,2894.022,1128.93,2895.254Z" transform="translate(-1109.603 -2763.383)" fill="#263238"/>
        <path id="Trazado_681537" data-name="Trazado 681537" d="M1125.563,2898.095c.363-.494.49-.747,1.117-.787s2.923.2,3.184.839a.843.843,0,0,1-.864,1.11C1128.6,2899.121,1125.178,2898.618,1125.563,2898.095Z" transform="translate(-1114.111 -2765.514)" fill="#eb6f2d"/>
        <path id="Trazado_681538" data-name="Trazado 681538" d="M1122.547,2900.206a1.225,1.225,0,0,1,1.165-.658c.537.036,2.476.521,2.658,1.142s-.48,1.127-.806.917S1122.3,2900.714,1122.547,2900.206Z" transform="translate(-1112.932 -2766.395)" fill="#eb6f2d"/>
        <path id="Trazado_681539" data-name="Trazado 681539" d="M1161.974,2905.693l-.568-.148-13.087-.321c-.462.5.09,2.143,2.194,2.143s3.832-.077,6-.077c2.117,0,2.858.077,4.9.077C1161.992,2907.367,1162.352,2906.51,1161.974,2905.693Z" transform="translate(-1123 -2768.625)" fill="#eb6f2d"/>
        <path id="Trazado_681540" data-name="Trazado 681540" d="M1160.614,2894.493a1.482,1.482,0,0,1,1.049,1.309l.442,4.522a.722.722,0,0,1-.72.771c-2.243,0-.92-.076-3.09-.11-2.538-.04-5.363.192-8.34.146-1.8-.028-2.063-1.759-1.317-2.011,4.73-1.605,5.833-3.709,6.911-3.989,0,0-1.4-1.921-.371-2.833s3.951-.744,4.428.264a1.887,1.887,0,0,1-.091,2.067A1.492,1.492,0,0,1,1160.614,2894.493Z" transform="translate(-1123.031 -2763.314)" fill="#263238"/>
        <path id="Trazado_681541" data-name="Trazado 681541" d="M1157.932,2897.512c.35-.479.463-.722,1.151-.8s3.246-.013,3.6.563-.408,1.189-.838,1.082S1157.561,2898.021,1157.932,2897.512Z" transform="translate(-1126.825 -2765.272)" fill="#eb6f2d"/>
        <path id="Trazado_681542" data-name="Trazado 681542" d="M1155.5,2899.838a1.436,1.436,0,0,1,1.131-.72c.641.016,3.24.2,3.559.784a.75.75,0,0,1-.783,1.046C1159,2900.819,1155.157,2900.331,1155.5,2899.838Z" transform="translate(-1125.872 -2766.228)" fill="#eb6f2d"/>
        <path id="Trazado_681543" data-name="Trazado 681543" d="M1112.544,2770.018a2.692,2.692,0,0,1-1.195-.367c-1.388-.72-2.214-1.561-2.209-2.251a.747.747,0,0,1,.449-.678.115.115,0,0,1,.1.207.515.515,0,0,0-.322.474c0,.463.542,1.244,2.084,2.044.784.406,1.331.452,1.583.131a1.034,1.034,0,0,0,.005-1.06.115.115,0,1,1,.174-.152,1.249,1.249,0,0,1,0,1.354A.809.809,0,0,1,1112.544,2770.018Z" transform="translate(-1107.673 -2714.227)" fill="#263238"/>
      </g>
    </g>
  </g>
</svg>
