<svg xmlns="http://www.w3.org/2000/svg" width="106.939" height="118.397" viewBox="0 0 106.939 118.397">
  <g id="botiquin" transform="translate(-4 -1)">
    <g id="Grupo_948160" data-name="Grupo 948160" transform="translate(5.91 2.91)">
      <g id="Grupo_948146" data-name="Grupo 948146" transform="translate(1.91 26.735)">
        <path id="Trazado_686480" data-name="Trazado 686480" d="M105.148,83.7,99.572,46.554H98.426A7.671,7.671,0,0,1,91.189,41.4a10.037,10.037,0,0,1-.325-1.356L90.2,35.516A22.927,22.927,0,0,0,67.528,16H43.773A22.927,22.927,0,0,0,21.105,35.516l-.668,4.526a7.658,7.658,0,0,1-7.562,6.512H11.729L6.153,83.7A15.826,15.826,0,0,0,6,85.816a14.205,14.205,0,0,0,14.208,14.208H91.093A14.205,14.205,0,0,0,105.3,85.816a15.826,15.826,0,0,0-.153-2.12Z" transform="translate(-6 -16)" fill="#dfb28b"/>
      </g>
      <g id="Grupo_948147" data-name="Grupo 948147" transform="translate(36.283 34.373)">
        <path id="Trazado_686481" data-name="Trazado 686481" d="M54.554,21.91v3.819a1.915,1.915,0,0,1-1.91,1.91H25.91A1.915,1.915,0,0,1,24,25.729V21.91A1.915,1.915,0,0,1,25.91,20H52.644A1.915,1.915,0,0,1,54.554,21.91Z" transform="translate(-24 -20)" fill="#ff826e"/>
      </g>
      <g id="Grupo_948148" data-name="Grupo 948148" transform="translate(85.762 16.232)">
        <path id="Trazado_686482" data-name="Trazado 686482" d="M64.576,12.582a9.221,9.221,0,0,1,0,13.024L56.4,33.778A30.227,30.227,0,0,0,49.91,23.065h.019L62.494,10.5Z" transform="translate(-49.91 -10.5)" fill="#aab2bd"/>
      </g>
      <g id="Grupo_948149" data-name="Grupo 948149" transform="translate(75.717 11.458)">
        <path id="Trazado_686483" data-name="Trazado 686483" d="M67.279,12.774,54.714,25.339h-.019A30.2,30.2,0,0,0,44.65,18.217l7.524-7.524a9.221,9.221,0,0,1,13.024,0Z" transform="translate(-44.65 -8)" fill="#aab2bd"/>
      </g>
      <g id="Grupo_948150" data-name="Grupo 948150" transform="translate(0 16.232)">
        <path id="Trazado_686484" data-name="Trazado 686484" d="M22.339,23.065h.019a30.227,30.227,0,0,0-6.493,10.713L7.693,25.605a9.221,9.221,0,0,1,0-13.024L9.774,10.5Z" transform="translate(-5 -10.5)" fill="#aab2bd"/>
      </g>
      <g id="Grupo_948151" data-name="Grupo 948151" transform="translate(4.774 11.458)">
        <path id="Trazado_686485" data-name="Trazado 686485" d="M22.605,10.693l7.524,7.524a30.2,30.2,0,0,0-10.045,7.123h-.019L7.5,12.774l2.082-2.082a9.221,9.221,0,0,1,13.024,0Z" transform="translate(-7.5 -8)" fill="#aab2bd"/>
      </g>
      <g id="Grupo_948152" data-name="Grupo 948152" transform="translate(34.373)">
        <path id="Trazado_686486" data-name="Trazado 686486" d="M57.373,13.458v8.1a30.491,30.491,0,0,0-5.309-.458h-2.33V13.458a3.83,3.83,0,0,0-3.819-3.819H34.458a3.83,3.83,0,0,0-3.819,3.819V21.1h-2.33A30.491,30.491,0,0,0,23,21.555v-8.1A11.467,11.467,0,0,1,34.458,2H45.916A11.467,11.467,0,0,1,57.373,13.458Z" transform="translate(-23 -2)" fill="#aab2bd"/>
      </g>
      <g id="Grupo_948153" data-name="Grupo 948153" transform="translate(7.639 19.096)">
        <path id="Trazado_686487" data-name="Trazado 686487" d="M35.735,12.458A30.491,30.491,0,0,1,41.044,12H64.8A30.561,30.561,0,0,1,93.616,32.414a28.749,28.749,0,0,1,1.394,5.614l1.833,12.164H95.7a7.671,7.671,0,0,1-7.238-5.156,10.037,10.037,0,0,1-.325-1.356l-.668-4.526A22.927,22.927,0,0,0,64.8,19.639H41.044A22.927,22.927,0,0,0,18.376,39.155l-.668,4.526a7.658,7.658,0,0,1-7.562,6.512H9l1.833-12.164a28.75,28.75,0,0,1,1.394-5.614A30.573,30.573,0,0,1,28.765,14.578a30.7,30.7,0,0,1,6.97-2.12Z" transform="translate(-9 -12)" fill="#d3a06c"/>
      </g>
      <g id="Grupo_948154" data-name="Grupo 948154" transform="translate(17.187 84.024)">
        <path id="Trazado_686488" data-name="Trazado 686488" d="M82.747,46V65.1A11.5,11.5,0,0,1,71.289,76.554H25.458A11.5,11.5,0,0,1,14,65.1V46Z" transform="translate(-14 -46)" fill="#fcd770"/>
      </g>
      <g id="Grupo_948155" data-name="Grupo 948155" transform="translate(17.187 76.385)">
        <path id="Trazado_686489" data-name="Trazado 686489" d="M82.747,45.819v3.819H14V45.819A3.83,3.83,0,0,1,17.819,42H78.928A3.83,3.83,0,0,1,82.747,45.819Z" transform="translate(-14 -42)" fill="#ffeaa7"/>
      </g>
      <g id="Grupo_948156" data-name="Grupo 948156" transform="translate(26.735 53.47)">
        <path id="Trazado_686490" data-name="Trazado 686490" d="M38.1,31.91v3.819a1.915,1.915,0,0,1-1.91,1.91H20.91A1.915,1.915,0,0,1,19,35.729V31.91A1.915,1.915,0,0,1,20.91,30H36.187A1.915,1.915,0,0,1,38.1,31.91Z" transform="translate(-19 -30)" fill="#4fc1e9"/>
      </g>
      <g id="Grupo_948157" data-name="Grupo 948157" transform="translate(21.006 61.108)">
        <path id="Trazado_686491" data-name="Trazado 686491" d="M46.554,47.9v1.375H16V47.9a7.63,7.63,0,0,1,6.149-7.486l3.4-.687V34H37.006v5.729l3.4.687A7.63,7.63,0,0,1,46.554,47.9Z" transform="translate(-16 -34)" fill="#e6e9ed"/>
      </g>
      <g id="Grupo_948158" data-name="Grupo 948158" transform="translate(51.56 49.65)">
        <path id="Trazado_686492" data-name="Trazado 686492" d="M62.382,30.693A3.822,3.822,0,0,0,58.735,28H35.819A3.83,3.83,0,0,0,32,31.819V54.735H62.554V31.819A3.572,3.572,0,0,0,62.382,30.693Z" transform="translate(-32 -28)" fill="#b4dd7f"/>
      </g>
      <g id="Grupo_948159" data-name="Grupo 948159" transform="translate(43.922 91.662)">
        <path id="Trazado_686493" data-name="Trazado 686493" d="M43.277,53.819v7.639H39.458v3.819H31.819V61.458H28V53.819h3.819V50h7.639v3.819Z" transform="translate(-28 -50)" fill="#e6e9ed"/>
      </g>
    </g>
    <g id="Grupo_948161" data-name="Grupo 948161" transform="translate(4 1)">
      <path id="Trazado_686494" data-name="Trazado 686494" d="M42.277,49H30.819v3.819H27V64.277h3.819V68.1H42.277V64.277H46.1V52.819H42.277Zm0,11.458H38.458v3.819H34.639V60.458H30.819V56.639h3.819V52.819h3.819v3.819h3.819Z" transform="translate(16.922 42.662)"/>
      <path id="Trazado_686495" data-name="Trazado 686495" d="M53.554,19H26.819A3.823,3.823,0,0,0,23,22.819v3.819a3.823,3.823,0,0,0,3.819,3.819H53.554a3.823,3.823,0,0,0,3.819-3.819V22.819A3.823,3.823,0,0,0,53.554,19ZM26.819,26.639V22.819H53.554l0,3.819Z" transform="translate(13.283 15.373)"/>
      <ellipse id="Elipse_5333" data-name="Elipse 5333" cx="1.5" cy="2" rx="1.5" ry="2" transform="translate(74.939 57.397)"/>
      <circle id="Elipse_5334" data-name="Elipse 5334" cx="2" cy="2" r="2" transform="translate(58.939 57.397)"/>
      <ellipse id="Elipse_5335" data-name="Elipse 5335" cx="1.5" cy="2" rx="1.5" ry="2" transform="translate(74.939 72.397)"/>
      <circle id="Elipse_5336" data-name="Elipse 5336" cx="2" cy="2" r="2" transform="translate(58.939 72.397)"/>
      <path id="Trazado_686496" data-name="Trazado 686496" d="M101.454,47.744a33.088,33.088,0,0,0-1.117-4.8L107.68,35.6a11.129,11.129,0,0,0,0-15.739l-4.148-4.148a11.129,11.129,0,0,0-15.739,0l-6.59,6.59a32.56,32.56,0,0,0-4.637-1.388V14.367A13.382,13.382,0,0,0,63.2,1H51.741A13.382,13.382,0,0,0,38.373,14.367v6.552a32.314,32.314,0,0,0-4.637,1.388l-6.59-6.59a11.129,11.129,0,0,0-15.739,0L7.26,19.865a11.129,11.129,0,0,0,0,15.739L14.6,42.947a33.089,33.089,0,0,0-1.117,4.8l-7.4,49.314a16.121,16.121,0,0,0,15.947,18.52h3.181a13.32,13.32,0,0,0,9.336,3.819H80.385a13.313,13.313,0,0,0,9.336-3.819H92.9A16.119,16.119,0,0,0,108.85,97.06ZM45.59,23.916H69.35a28.471,28.471,0,0,1,28.327,24.4l1.48,9.873a5.693,5.693,0,0,1-4.579-4.774l-.68-4.533A24.67,24.67,0,0,0,69.35,27.735H45.588A24.978,24.978,0,0,0,21.04,48.876l-.68,4.533a5.688,5.688,0,0,1-4.579,4.774l1.482-9.873a28.471,28.471,0,0,1,28.327-24.4ZM65.108,20.1H49.831V14.367a1.913,1.913,0,0,1,1.91-1.91H63.2a1.913,1.913,0,0,1,1.91,1.91ZM104.979,32.9l-6.107,6.107a32.15,32.15,0,0,0-4.535-7.251l9.919-9.919.724.724a7.312,7.312,0,0,1,0,10.339ZM90.493,18.418a7.487,7.487,0,0,1,10.339,0l.724.724-9.842,9.842a32.036,32.036,0,0,0-6.831-4.955Zm-48.3-4.05a9.559,9.559,0,0,1,9.548-9.548H63.2a9.559,9.559,0,0,1,9.548,9.548v5.916a33.261,33.261,0,0,0-3.4-.187h-.422V14.367A5.736,5.736,0,0,0,63.2,8.639H51.741a5.736,5.736,0,0,0-5.729,5.729V20.1H45.59a33.292,33.292,0,0,0-3.4.187Zm-17.746,4.05,5.609,5.609a32.169,32.169,0,0,0-6.831,4.955l-9.84-9.84.724-.724a7.487,7.487,0,0,1,10.339,0ZM9.96,32.9a7.312,7.312,0,0,1,0-10.339l.724-.724L20.6,31.76a32.261,32.261,0,0,0-4.535,7.251Zm24.594,29.2V58.289H49.831l0,3.819Zm3.819,3.819h7.639v5.385l4.942.987a5.731,5.731,0,0,1,4.558,5.085H28.873A5.731,5.731,0,0,1,33.429,72.3l4.944-.987ZM65.108,77.385H59.379V69.747H70.837v7.639Zm9.548-7.639H86.114v7.639H74.656Zm11.458-3.819H74.656V54.47H84.2a1.913,1.913,0,0,1,1.91,1.91Zm-15.277,0H59.379V56.379a1.913,1.913,0,0,1,1.91-1.91h9.548ZM26.916,81.2H88.024a1.912,1.912,0,0,1,1.91,1.91v1.91H25.006v-1.91A1.912,1.912,0,0,1,26.916,81.2Zm53.47,34.373H34.554a9.559,9.559,0,0,1-9.548-9.548V88.843H89.934V106.03A9.559,9.559,0,0,1,80.385,115.578ZM92.9,111.759h-.458a13.282,13.282,0,0,0,1.308-5.729V83.114a5.721,5.721,0,0,0-3.819-5.378V56.379A5.736,5.736,0,0,0,84.2,50.65H61.289a5.736,5.736,0,0,0-5.729,5.729V70.327A9.436,9.436,0,0,0,51.7,68.555l-1.871-.374V65.928a3.823,3.823,0,0,0,3.819-3.819V58.289a3.823,3.823,0,0,0-3.819-3.819H34.554a3.823,3.823,0,0,0-3.819,3.819v3.819a3.823,3.823,0,0,0,3.819,3.819v2.253l-1.873.374a9.565,9.565,0,0,0-7.658,9.178,5.717,5.717,0,0,0-3.836,5.381V106.03a13.282,13.282,0,0,0,1.308,5.729h-.458A12.309,12.309,0,0,1,9.864,97.627L15.2,62.064a9.467,9.467,0,0,0,8.937-8.087l.68-4.533A21.138,21.138,0,0,1,45.588,31.554H69.35A21.135,21.135,0,0,1,90.123,49.444l.68,4.533a9.467,9.467,0,0,0,8.937,8.087l5.334,35.565a12.064,12.064,0,0,1,.137,1.824A12.321,12.321,0,0,1,92.9,111.759Z" transform="translate(-4 -1)"/>
    </g>
  </g>
</svg>
