<svg xmlns="http://www.w3.org/2000/svg" width="97.578" height="121.974" viewBox="0 0 97.578 121.974">
  <g id="Filled_outline" data-name="Filled outline" transform="translate(-8 -2)">
    <g id="Color" transform="translate(10.033 4.033)">
      <path id="Trazado_686563" data-name="Trazado 686563" d="M36,47H52.263a4.066,4.066,0,0,1,4.066,4.066V67.329a4.066,4.066,0,0,1-4.066,4.066H36Z" transform="translate(18.888 42.447)" fill="#e4f5ff"/>
      <path id="Trazado_686564" data-name="Trazado 686564" d="M20.132,3h12.2a8.132,8.132,0,0,1,8.132,8.132V37.559H12V11.132A8.132,8.132,0,0,1,20.132,3Z" transform="translate(-5.901 -3)" fill="#e4f5ff"/>
      <path id="Trazado_686565" data-name="Trazado 686565" d="M61.855,77.484H51.69v-55.8a8.132,8.132,0,0,0-10.7-7.715L14.56,22.776A8.132,8.132,0,0,0,9,30.49v71.389a8.132,8.132,0,0,0,8.132,8.132H61.855a8.132,8.132,0,0,0,8.132-8.132V85.616A8.132,8.132,0,0,0,61.855,77.484Z" transform="translate(-9 7.897)" fill="#00b6a7"/>
      <path id="Trazado_686566" data-name="Trazado 686566" d="M12,13.164H40.46V11.132A8.132,8.132,0,0,0,32.329,3h-12.2A8.132,8.132,0,0,0,12,11.132Z" transform="translate(-5.901 -3)" fill="#00b6a7"/>
      <path id="Trazado_686567" data-name="Trazado 686567" d="M21,52.559V30.173A8.132,8.132,0,0,1,26.447,22.5L39.3,18V60.69H29.132A8.156,8.156,0,0,1,21,52.559Z" transform="translate(3.395 12.493)" fill="#e4f5ff"/>
    </g>
    <g id="Outline" transform="translate(8 2)">
      <path id="Trazado_686568" data-name="Trazado 686568" d="M18.164,123.973H62.888a10.118,10.118,0,0,0,8.079-4.066H81.184a6.1,6.1,0,0,0,6.1-6.1V97.545a6.1,6.1,0,0,0-6.1-6.1H70.966a10.118,10.118,0,0,0-8.079-4.066H54.756V33.611a10.177,10.177,0,0,0-8.132-9.961V12.164A10.177,10.177,0,0,0,36.46,2h-12.2A10.177,10.177,0,0,0,14.1,12.164V33.14A10.126,10.126,0,0,0,8,42.42v71.389a10.177,10.177,0,0,0,10.164,10.164Zm63.019-28.46a2.033,2.033,0,0,1,2.033,2.033v16.263a2.033,2.033,0,0,1-2.033,2.033H72.849a10.165,10.165,0,0,0,.2-2.033V97.545a10.165,10.165,0,0,0-.2-2.033ZM50.69,75.184H42.559a6.1,6.1,0,0,1-6.1-6.1V46.7a6.109,6.109,0,0,1,4.084-5.757L50.69,37.39ZM42.559,23.65a10.247,10.247,0,0,0-1.181.317L18.164,31.706V16.23H42.559ZM24.263,6.066h12.2a6.1,6.1,0,0,1,6.1,6.1H18.164a6.1,6.1,0,0,1,6.1-6.1ZM12.066,42.42a6.1,6.1,0,0,1,4.171-5.785l26.428-8.809a6.086,6.086,0,0,1,7.967,5.285l-11.429,4A10.164,10.164,0,0,0,32.395,46.7V69.085A10.177,10.177,0,0,0,42.559,79.249H50.69v8.132H34.427a2.033,2.033,0,1,0,0,4.066h28.46a6.1,6.1,0,0,1,6.1,6.1v16.263a6.1,6.1,0,0,1-6.1,6.1H18.164a6.1,6.1,0,0,1-6.1-6.1Z" transform="translate(-8 -2)" fill="#1e120b"/>
      <path id="Trazado_686569" data-name="Trazado 686569" d="M50,54.033a2.033,2.033,0,0,0,2.033,2.033h8.132a2.033,2.033,0,0,0,0-4.066H52.033A2.033,2.033,0,0,0,50,54.033Z" transform="translate(35.381 49.644)" fill="#1e120b"/>
      <path id="Trazado_686570" data-name="Trazado 686570" d="M60.791,44.813a2.033,2.033,0,0,0-2.846-.407l-8.132,6.1a2.033,2.033,0,0,0,2.439,3.253l8.132-6.1a2.033,2.033,0,0,0,.407-2.846Z" transform="translate(34.348 41.381)" fill="#1e120b"/>
      <path id="Trazado_686571" data-name="Trazado 686571" d="M57.945,66.758a2.033,2.033,0,0,0,2.439-3.253l-8.132-6.1a2.033,2.033,0,0,0-2.439,3.253Z" transform="translate(34.348 54.808)" fill="#1e120b"/>
      <circle id="Elipse_5337" data-name="Elipse 5337" cx="2" cy="2" r="2" transform="translate(32.578 109.973)" fill="#1e120b"/>
      <path id="Trazado_686572" data-name="Trazado 686572" d="M30.033,60.066h12.2a2.033,2.033,0,0,0,0-4.066h-12.2a2.033,2.033,0,1,0,0,4.066Z" transform="translate(12.658 53.775)" fill="#1e120b"/>
    </g>
  </g>
</svg>
