<svg xmlns="http://www.w3.org/2000/svg" width="110.798" height="121.946" viewBox="0 0 110.798 121.946">
  <g id="personal" transform="translate(-23.401)">
    <g id="Grupo_948197" data-name="Grupo 948197" transform="translate(56.864 1.786)">
      <path id="Trazado_686609" data-name="Trazado 686609" d="M191.29,27.852c9.6,0,19.01,3.928,27.39,11.394V25.54A18.04,18.04,0,0,0,200.64,7.5h-18.7A18.04,18.04,0,0,0,163.9,25.54V39.246c8.38-7.466,17.79-11.394,27.39-11.394Z" transform="translate(-163.9 -7.5)" fill="#fe646f"/>
    </g>
    <g id="Grupo_948199" data-name="Grupo 948199" transform="translate(56.865 1.786)">
      <g id="Grupo_948198" data-name="Grupo 948198">
        <path id="Trazado_686610" data-name="Trazado 686610" d="M173.452,32.5V25.54A18.04,18.04,0,0,1,191.492,7.5h-9.551A18.04,18.04,0,0,0,163.9,25.54V39.246a49.593,49.593,0,0,1,9.551-6.744Z" transform="translate(-163.901 -7.5)" fill="#fd4755"/>
      </g>
    </g>
    <g id="Grupo_948200" data-name="Grupo 948200" transform="translate(80.325 67.204)">
      <path id="Trazado_686611" data-name="Trazado 686611" d="M263.592,296.535h5.478a1.191,1.191,0,0,0,1.191-1.191v-13.18H262.4v13.18A1.191,1.191,0,0,0,263.592,296.535Z" transform="translate(-262.401 -282.164)" fill="#fed402"/>
    </g>
    <path id="Trazado_686612" data-name="Trazado 686612" d="M162.3,270.126h-19.7v-10.9a17.536,17.536,0,0,1-12.735,5.463h-1.079v13.18a1.191,1.191,0,0,1-1.191,1.191h-5.478a1.191,1.191,0,0,1-1.191-1.191v-13.18h-1.079a17.536,17.536,0,0,1-12.735-5.463v10.9h-19.7A10.718,10.718,0,0,0,76.7,280.844v3.813h33.868a5.954,5.954,0,0,1,5.954,5.954v27.033h54.113a2.382,2.382,0,0,0,2.382-2.382V280.844A10.718,10.718,0,0,0,162.3,270.126Z" transform="translate(-40.607 -197.485)" fill="#fd8087"/>
    <path id="Trazado_686613" data-name="Trazado 686613" d="M107.117,259.226v10.9h-19.7A10.718,10.718,0,0,0,76.7,280.844v3.813h4.818l1.064-4.819a3.573,3.573,0,0,1,3.489-2.8h4.385a10.674,10.674,0,0,1,4.416-.953H112.19a2.382,2.382,0,0,0,2.382-2.382v-9.819A17.589,17.589,0,0,1,107.117,259.226Z" transform="translate(-40.607 -197.485)" fill="#fe646f"/>
    <g id="Grupo_948201" data-name="Grupo 948201" transform="translate(75.919 94.734)">
      <path id="Trazado_686614" data-name="Trazado 686614" d="M269.09,397.75H243.9v7.86H269.09a9.292,9.292,0,0,1,0-7.86Z" transform="translate(-243.901 -397.75)" fill="#fed402"/>
      <path id="Trazado_686615" data-name="Trazado 686615" d="M420.339,397.75a9.292,9.292,0,0,1,0,7.86H434.81v-7.86Z" transform="translate(-378.316 -397.75)" fill="#fed402"/>
    </g>
    <g id="Grupo_948202" data-name="Grupo 948202" transform="translate(51.863 38.108)">
      <path id="Trazado_686616" data-name="Trazado 686616" d="M152.693,171.506V160h-2.647a7.145,7.145,0,0,0-7.145,7.145V169.8a7.145,7.145,0,0,0,7.145,7.145h3.51A17.566,17.566,0,0,1,152.693,171.506Z" transform="translate(-142.901 -160)" fill="#ffbd86"/>
      <path id="Trazado_686617" data-name="Trazado 686617" d="M373.674,160h-2.647v11.506a17.564,17.564,0,0,1-.863,5.444h3.51a7.145,7.145,0,0,0,7.145-7.145v-2.659A7.145,7.145,0,0,0,373.674,160Z" transform="translate(-316.036 -160)" fill="#ffbd86"/>
    </g>
    <g id="Grupo_948204" data-name="Grupo 948204" transform="translate(61.655 27.87)">
      <g id="Grupo_948203" data-name="Grupo 948203">
        <path id="Trazado_686618" data-name="Trazado 686618" d="M206.614,117.016c-7.78,0-15.577,3.223-22.6,9.328v12.415a17.591,17.591,0,0,0,17.591,17.591h10.018a17.59,17.59,0,0,0,17.591-17.591V126.344C222.192,120.239,214.394,117.016,206.614,117.016Z" transform="translate(-184.015 -117.016)" fill="#fed2a4"/>
      </g>
    </g>
    <g id="Grupo_948205" data-name="Grupo 948205" transform="translate(61.655 31.966)">
      <path id="Trazado_686619" data-name="Trazado 686619" d="M191.449,151.86V134.212a42.683,42.683,0,0,0-7.434,5.233V151.86a17.591,17.591,0,0,0,17.591,17.591h7.434A17.591,17.591,0,0,1,191.449,151.86Z" transform="translate(-184.015 -134.212)" fill="#ffbd86"/>
    </g>
    <g id="Grupo_948212" data-name="Grupo 948212" transform="translate(55.674 10.122)">
      <g id="Grupo_948207" data-name="Grupo 948207" transform="translate(0 12.016)">
        <g id="Grupo_948206" data-name="Grupo 948206">
          <path id="Trazado_686620" data-name="Trazado 686620" d="M215.2,108.819a2.945,2.945,0,0,1-4.048.122c-7.337-6.607-15.472-10.082-23.669-10.082s-16.332,3.475-23.669,10.082a2.955,2.955,0,0,1-3.929-4.414c8.432-7.586,17.918-11.577,27.6-11.577s19.166,3.991,27.6,11.577A2.959,2.959,0,0,1,215.2,108.819Z" transform="translate(-158.902 -92.949)" fill="#554e56"/>
        </g>
      </g>
      <g id="Grupo_948209" data-name="Grupo 948209" transform="translate(0 12.016)">
        <g id="Grupo_948208" data-name="Grupo 948208">
          <path id="Trazado_686621" data-name="Trazado 686621" d="M167.053,104.526c7.388-6.647,15.586-10.534,24.014-11.394a35.311,35.311,0,0,0-3.585-.183c-9.68,0-19.166,3.991-27.6,11.577a2.955,2.955,0,0,0,3.929,4.414q1.124-1.012,2.273-1.924A2.96,2.96,0,0,1,167.053,104.526Z" transform="translate(-158.901 -92.949)" fill="#433f43"/>
        </g>
      </g>
      <g id="Grupo_948210" data-name="Grupo 948210" transform="translate(20.245)">
        <path id="Trazado_686622" data-name="Trazado 686622" d="M259.382,48.454h-14.29a1.191,1.191,0,0,1-1.191-1.191V43.691a1.191,1.191,0,0,1,1.191-1.191h14.29a1.191,1.191,0,0,1,1.191,1.191v3.573A1.191,1.191,0,0,1,259.382,48.454Z" transform="translate(-243.901 -42.5)" fill="#fff"/>
      </g>
      <g id="Grupo_948211" data-name="Grupo 948211" transform="translate(20.245)">
        <path id="Trazado_686623" data-name="Trazado 686623" d="M251.07,47.263V43.691a1.191,1.191,0,0,1,1.191-1.191h-7.169a1.191,1.191,0,0,0-1.191,1.191v3.573a1.191,1.191,0,0,0,1.191,1.191h7.169A1.191,1.191,0,0,1,251.07,47.263Z" transform="translate(-243.901 -42.5)" fill="#f3f0f3"/>
      </g>
    </g>
    <g id="Grupo_948215" data-name="Grupo 948215" transform="translate(100.236 89.375)">
      <g id="Grupo_948213" data-name="Grupo 948213">
        <circle id="Elipse_5338" data-name="Elipse 5338" cx="9.289" cy="9.289" r="9.289" fill="#fff"/>
      </g>
      <g id="Grupo_948214" data-name="Grupo 948214">
        <path id="Trazado_686624" data-name="Trazado 686624" d="M353.145,384.539a9.29,9.29,0,0,1,5.716-8.576,9.289,9.289,0,1,0,0,17.151A9.29,9.29,0,0,1,353.145,384.539Z" transform="translate(-346 -375.25)" fill="#f3f0f3"/>
      </g>
    </g>
    <g id="Grupo_948220" data-name="Grupo 948220" transform="translate(25.187 79.55)">
      <path id="Trazado_686625" data-name="Trazado 686625" d="M116.085,341.622l-1.114-4.849A3.573,3.573,0,0,0,111.489,334h-10A3.573,3.573,0,0,0,98,336.8l-1.065,4.819Z" transform="translate(-81.204 -334)" fill="#fe646f"/>
      <g id="Grupo_948216" data-name="Grupo 948216" transform="translate(0 7.622)">
        <path id="Trazado_686626" data-name="Trazado 686626" d="M81.632,398.987H32.092A1.191,1.191,0,0,1,30.9,397.8V371.954A5.954,5.954,0,0,1,36.855,366H75.678a5.954,5.954,0,0,1,5.954,5.954Z" transform="translate(-30.901 -366)" fill="#fe646f"/>
      </g>
      <g id="Grupo_948217" data-name="Grupo 948217" transform="translate(0 7.622)">
        <path id="Trazado_686627" data-name="Trazado 686627" d="M38.07,397.8V371.954A5.954,5.954,0,0,1,44.024,366H36.855a5.954,5.954,0,0,0-5.954,5.954V397.8a1.191,1.191,0,0,0,1.191,1.191h7.169A1.191,1.191,0,0,1,38.07,397.8Z" transform="translate(-30.901 -366)" fill="#fd4755"/>
      </g>
      <g id="Grupo_948218" data-name="Grupo 948218" transform="translate(12.623 7.622)">
        <path id="Trazado_686628" data-name="Trazado 686628" d="M89.855,385.292h13.576a5.954,5.954,0,0,0,5.954-5.954V366H83.9v13.338A5.954,5.954,0,0,0,89.855,385.292Z" transform="translate(-83.901 -366)" fill="#fff"/>
      </g>
      <g id="Grupo_948219" data-name="Grupo 948219" transform="translate(12.623 7.622)">
        <path id="Trazado_686629" data-name="Trazado 686629" d="M90.355,379.338V366H83.9v13.338a5.954,5.954,0,0,0,5.954,5.954H96.31A5.954,5.954,0,0,1,90.355,379.338Z" transform="translate(-83.901 -366)" fill="#f3f0f3"/>
      </g>
    </g>
    <g id="Grupo_948221" data-name="Grupo 948221" transform="translate(23.401 0)">
      <path id="Trazado_686630" data-name="Trazado 686630" d="M231.392,159.093a1.786,1.786,0,0,0,1.786-1.786V152.2a1.786,1.786,0,1,0-3.573,0v5.112A1.786,1.786,0,0,0,231.392,159.093Z" transform="translate(-180.493 -114.585)"/>
      <path id="Trazado_686631" data-name="Trazado 686631" d="M314.982,159.093a1.786,1.786,0,0,0,1.786-1.786V152.2a1.786,1.786,0,1,0-3.573,0v5.112A1.786,1.786,0,0,0,314.982,159.093Z" transform="translate(-244.174 -114.585)"/>
      <path id="Trazado_686632" data-name="Trazado 686632" d="M263.187,168.506h2.382a1.786,1.786,0,0,0,0-3.573h-.053l1.778-6.629a1.786,1.786,0,0,0-3.451-.926l-2.382,8.878a1.786,1.786,0,0,0,1.726,2.249Z" transform="translate(-204.715 -118.886)"/>
      <path id="Trazado_686633" data-name="Trazado 686633" d="M236.95,221.023a1.786,1.786,0,0,0,0,2.526,13.56,13.56,0,0,0,19.186,0,1.786,1.786,0,1,0-2.526-2.526,10.005,10.005,0,0,1-14.133,0,1.786,1.786,0,0,0-2.526,0Z" transform="translate(-185.69 -167.983)"/>
      <path id="Trazado_686634" data-name="Trazado 686634" d="M253.669,35h-14.29a2.98,2.98,0,0,0-2.977,2.977V41.55a2.98,2.98,0,0,0,2.977,2.977h14.29a2.98,2.98,0,0,0,2.977-2.977V37.977A2.98,2.98,0,0,0,253.669,35Zm-.6,5.954h-13.1V38.573h13.1Z" transform="translate(-185.67 -26.664)"/>
      <path id="Trazado_686635" data-name="Trazado 686635" d="M124.043,386.977h-1.69v-1.69a1.786,1.786,0,1,0-3.573,0v1.69h-1.691a1.786,1.786,0,1,0,0,3.573h1.691v1.691a1.786,1.786,0,1,0,3.573,0v-1.691h1.69a1.786,1.786,0,0,0,0-3.573Z" transform="translate(-93.414 -292.16)"/>
      <path id="Trazado_686636" data-name="Trazado 686636" d="M121.7,70.855h-5.74a1.786,1.786,0,1,0,0,3.573h5.74a8.942,8.942,0,0,1,8.932,8.932v9.589h-11.62a11.069,11.069,0,0,0-18.965,0h-14V83.361h.953a2.98,2.98,0,0,0,2.977-2.977V68.977a19.248,19.248,0,0,0,10.242-3.387v7.051A1.786,1.786,0,0,0,102,74.428h5.621a1.786,1.786,0,0,0,0-3.573h-3.834V62.42a19.428,19.428,0,0,0,3.451-5.576H109.5a8.942,8.942,0,0,0,8.932-8.932V45.253a8.929,8.929,0,0,0-4.169-7.549,4.706,4.706,0,0,0,.357-1.908,4.773,4.773,0,0,0-1.189-3.016V24.532a1.786,1.786,0,1,0-3.573,0v5.193c-7.945-6.145-16.724-9.373-25.6-9.373s-17.658,3.228-25.6,9.373v-9.9A16.272,16.272,0,0,1,74.9,3.573H93.6a16.3,16.3,0,0,1,15.924,12.981,1.787,1.787,0,0,0,3.5-.715A19.885,19.885,0,0,0,93.6,0H74.9A19.849,19.849,0,0,0,55.078,19.826V32.78A4.774,4.774,0,0,0,53.889,35.8a4.707,4.707,0,0,0,.357,1.908,8.929,8.929,0,0,0-4.169,7.549v2.659a8.942,8.942,0,0,0,8.932,8.932h2.265a19.433,19.433,0,0,0,3.451,5.576v8.435H46.814a12.518,12.518,0,0,0-12.5,12.5v2.027H31.142A7.749,7.749,0,0,0,23.4,93.127v25.842a2.98,2.98,0,0,0,2.977,2.977H130.031a4.173,4.173,0,0,0,4.168-4.168V83.359a12.518,12.518,0,0,0-12.5-12.5ZM109.525,91.161a7.5,7.5,0,1,1-7.5,7.5A7.511,7.511,0,0,1,109.525,91.161ZM98.66,96.52a11.042,11.042,0,0,0,0,4.287H86.041V96.52ZM86.4,79.789H82.111v-10.8H86.4ZM114.86,45.253v2.659a5.365,5.365,0,0,1-5.359,5.359h-1.212a19.384,19.384,0,0,0,.351-3.657V40.5a4.715,4.715,0,0,0,2.978-.168,5.366,5.366,0,0,1,3.242,4.922ZM59.008,53.271a5.365,5.365,0,0,1-5.359-5.359V45.253a5.367,5.367,0,0,1,3.242-4.922,4.747,4.747,0,0,0,2.978.166v9.116a19.4,19.4,0,0,0,.351,3.657H59.008ZM59.391,36.8a1.167,1.167,0,0,1-1.93-.912,1.169,1.169,0,0,1,.392-.846c8.085-7.274,17.215-11.119,26.4-11.119s18.318,3.845,26.4,11.119a1.172,1.172,0,0,1,.392.847,1.167,1.167,0,0,1-1.93.912c-7.658-6.9-16.256-10.541-24.864-10.541S67.048,29.906,59.391,36.8Zm4.051,12.812V38.032c6.551-5.371,13.707-8.2,20.813-8.2s14.262,2.828,20.813,8.2V49.614a15.822,15.822,0,0,1-15.8,15.8H79.246a15.823,15.823,0,0,1-15.8-15.8Zm10.691,68.759H26.974V115.4H74.132Zm0-6.55H26.974v-18.7a4.173,4.173,0,0,1,4.168-4.168h4.883V100.51a7.749,7.749,0,0,0,7.741,7.741H57.341a7.749,7.749,0,0,0,7.741-7.741V99.8a1.786,1.786,0,1,0-3.573,0v.715a4.173,4.173,0,0,1-4.168,4.168H43.765A4.173,4.173,0,0,1,39.6,100.51V88.958H61.509v2.5a1.786,1.786,0,1,0,3.573,0v-2.5h4.883a4.173,4.173,0,0,1,4.168,4.168ZM43.138,85.386l.585-2.648a1.8,1.8,0,0,1,1.744-1.4H55.472a1.778,1.778,0,0,1,1.741,1.386l.612,2.663Zm39.331,32.987H77.7V104.38h4.764Zm0-17.565H77.7V96.52h4.764Zm0-7.86H77.7a7.748,7.748,0,0,0-7.736-7.562H61.49l-.8-3.462a5.334,5.334,0,0,0-5.223-4.159H45.467a5.393,5.393,0,0,0-5.233,4.2l-.755,3.419h-1.6V83.359a8.942,8.942,0,0,1,8.932-8.932h19.7A1.786,1.786,0,0,0,68.3,72.641V65.59a19.246,19.246,0,0,0,10.242,3.387V80.384a2.98,2.98,0,0,0,2.977,2.977h.953v9.587Zm48.158,24.83a.6.6,0,0,1-.6.6H86.041V104.38h14a11.069,11.069,0,0,0,18.965,0h11.62Zm0-16.97H120.39a11.041,11.041,0,0,0,0-4.287h10.237Z" transform="translate(-23.401 0)"/>
    </g>
  </g>
</svg>
