<svg id="botiquin_2_" data-name="botiquin(2)" xmlns="http://www.w3.org/2000/svg" width="121.783" height="121.782" viewBox="0 0 121.783 121.782">
  <g id="Grupo_948186" data-name="Grupo 948186" transform="translate(1.964 1.964)">
    <g id="Grupo_948162" data-name="Grupo 948162">
      <path id="Trazado_686534" data-name="Trazado 686534" d="M95.283,4.928v7.857a3.94,3.94,0,0,1-3.928,3.928H4.928A3.94,3.94,0,0,1,1,12.785V4.928A3.94,3.94,0,0,1,4.928,1H91.355A3.94,3.94,0,0,1,95.283,4.928Z" transform="translate(-1 -1)" fill="#cf9e76"/>
    </g>
    <g id="Grupo_948163" data-name="Grupo 948163" transform="translate(0 15.714)">
      <path id="Trazado_686535" data-name="Trazado 686535" d="M95.283,103.283a7.855,7.855,0,0,1-7.857,7.857H83.5a3.94,3.94,0,0,0,3.928-3.928V83.641A3.94,3.94,0,0,0,83.5,79.712H79.569V73.82a1.97,1.97,0,0,0-1.964-1.964H75.641V62.034a1.97,1.97,0,0,0-1.964-1.964H71.712V24.714a7.855,7.855,0,0,0-7.857-7.857H16.714a7.855,7.855,0,0,0-7.857,7.857v78.569a7.855,7.855,0,0,0,7.857,7.857H8.857A7.855,7.855,0,0,1,1,103.283V12.928A3.94,3.94,0,0,1,4.928,9H91.355a3.94,3.94,0,0,1,3.928,3.928V17.25a19.647,19.647,0,0,0,0,38.5Z" transform="translate(-1 -9)" fill="#dfb28b"/>
    </g>
    <g id="Grupo_948164" data-name="Grupo 948164" transform="translate(39.285 62.856)">
      <path id="Trazado_686536" data-name="Trazado 686536" d="M25.655,36.791l3.2,7.994V68.356l-3.2,7.994a10.406,10.406,0,0,0-.727,3.791,10.405,10.405,0,0,0-.727-3.791L21,68.356V44.785l3.2-7.994A10.405,10.405,0,0,0,24.928,33,10.405,10.405,0,0,0,25.655,36.791Z" transform="translate(-21 -33)" fill="#ffeaa7"/>
    </g>
    <g id="Grupo_948165" data-name="Grupo 948165" transform="translate(39.285 54.999)">
      <path id="Trazado_686537" data-name="Trazado 686537" d="M32.785,29a7.846,7.846,0,0,0-7.857,7.857,7.906,7.906,0,0,0-2.3-5.559A8.3,8.3,0,0,0,21,30.061V29Z" transform="translate(-21 -29)" fill="#ffeaa7"/>
    </g>
    <g id="Grupo_948166" data-name="Grupo 948166" transform="translate(7.857 23.571)">
      <path id="Trazado_686538" data-name="Trazado 686538" d="M60,13H12.857A7.855,7.855,0,0,0,5,20.857V99.426a7.855,7.855,0,0,0,7.857,7.857H32.5a7.846,7.846,0,0,1-7.857-7.857,3.862,3.862,0,0,1-2.77-1.159l-3.928-3.928-3.928-3.928a3.917,3.917,0,1,1,5.539-5.539L23.483,88.8l3.3,3.3,1.787-4.459V64.07a3.917,3.917,0,0,1-6.7,2.77l-3.928-3.928-3.928-3.928a3.917,3.917,0,1,1,5.539-5.539l3.928,3.928L27.412,61.3a.271.271,0,0,1,.079.059l-2.121-5.284a10.405,10.405,0,0,1-.727-3.791A7.846,7.846,0,0,1,32.5,44.428H48.213a7.846,7.846,0,0,1,7.857,7.857,10.405,10.405,0,0,1-.727,3.791l-3.2,7.994V79.784a3.94,3.94,0,0,1,3.928-3.928H60V69.963A1.97,1.97,0,0,1,61.963,68h1.964V58.177a1.97,1.97,0,0,1,1.964-1.964h1.964V20.857A7.855,7.855,0,0,0,60,13Z" transform="translate(-5 -13)" fill="#ffeaa7"/>
    </g>
    <g id="Grupo_948167" data-name="Grupo 948167" transform="translate(52.229 36.515)">
      <path id="Trazado_686539" data-name="Trazado 686539" d="M37.058,23.518a3.917,3.917,0,1,1-5.539,5.539L27.59,25.129l5.539-5.539Z" transform="translate(-27.59 -19.59)" fill="#b4dd7f"/>
    </g>
    <g id="Grupo_948168" data-name="Grupo 948168" transform="translate(20.801 99.371)">
      <path id="Trazado_686540" data-name="Trazado 686540" d="M20.429,54.89l-1.414,3.536a10.406,10.406,0,0,0-.727,3.791,3.862,3.862,0,0,1-2.77-1.159L11.59,57.129l5.539-5.539Z" transform="translate(-11.59 -51.59)" fill="#b4dd7f"/>
    </g>
    <g id="Grupo_948169" data-name="Grupo 948169" transform="translate(20.801 67.943)">
      <path id="Trazado_686541" data-name="Trazado 686541" d="M21.136,39.577l1.08,2.711a3.917,3.917,0,0,1-6.7,2.77L11.59,41.129l5.539-5.539,3.928,3.928A.271.271,0,0,1,21.136,39.577Z" transform="translate(-11.59 -35.59)" fill="#b4dd7f"/>
    </g>
    <g id="Grupo_948170" data-name="Grupo 948170" transform="translate(20.801 36.515)">
      <path id="Trazado_686542" data-name="Trazado 686542" d="M21.058,23.518a3.917,3.917,0,1,1-5.539,5.539L11.59,25.129l5.539-5.539Z" transform="translate(-11.59 -19.59)" fill="#b4dd7f"/>
    </g>
    <g id="Grupo_948171" data-name="Grupo 948171" transform="translate(47.142 31.428)">
      <path id="Trazado_686543" data-name="Trazado 686543" d="M35.627,22.087l-5.539,5.539L26.159,23.7A3.917,3.917,0,1,1,31.7,18.159Z" transform="translate(-25 -17)" fill="#ff826e"/>
    </g>
    <g id="Grupo_948172" data-name="Grupo 948172" transform="translate(15.714 94.283)">
      <path id="Trazado_686544" data-name="Trazado 686544" d="M19.627,54.087l-5.539,5.539L10.159,55.7A3.917,3.917,0,1,1,15.7,50.159Z" transform="translate(-9 -49)" fill="#ff826e"/>
    </g>
    <g id="Grupo_948173" data-name="Grupo 948173" transform="translate(15.714 62.856)">
      <path id="Trazado_686545" data-name="Trazado 686545" d="M19.627,38.087l-5.539,5.539L10.159,39.7A3.917,3.917,0,1,1,15.7,34.159Z" transform="translate(-9 -33)" fill="#ff826e"/>
    </g>
    <g id="Grupo_948174" data-name="Grupo 948174" transform="translate(15.714 31.428)">
      <path id="Trazado_686546" data-name="Trazado 686546" d="M19.627,22.087l-5.539,5.539L10.159,23.7A3.917,3.917,0,1,1,15.7,18.159Z" transform="translate(-9 -17)" fill="#ff826e"/>
    </g>
    <g id="Grupo_948175" data-name="Grupo 948175" transform="translate(66.784 66.784)">
      <path id="Trazado_686547" data-name="Trazado 686547" d="M42.857,36.964v9.821H35V36.964A1.97,1.97,0,0,1,36.964,35h3.928A1.97,1.97,0,0,1,42.857,36.964Z" transform="translate(-35 -35)" fill="#e6e9ed"/>
    </g>
    <g id="Grupo_948176" data-name="Grupo 948176" transform="translate(62.856 78.569)">
      <path id="Trazado_686548" data-name="Trazado 686548" d="M48.714,42.964v5.893H33V42.964A1.97,1.97,0,0,1,34.964,41H46.75A1.97,1.97,0,0,1,48.714,42.964Z" transform="translate(-33 -41)" fill="#ccd1d9"/>
    </g>
    <g id="Grupo_948177" data-name="Grupo 948177" transform="translate(54.999 86.426)">
      <path id="Trazado_686549" data-name="Trazado 686549" d="M60.428,48.928V72.5A3.94,3.94,0,0,1,56.5,76.428H32.928A3.928,3.928,0,0,1,29,72.5V48.928A3.94,3.94,0,0,1,32.928,45H56.5A3.94,3.94,0,0,1,60.428,48.928Z" transform="translate(-29 -45)" fill="#fcd770"/>
    </g>
    <g id="Grupo_948178" data-name="Grupo 948178" transform="translate(47.142 74.641)">
      <path id="Trazado_686550" data-name="Trazado 686550" d="M32.857,54.714v7.857H25V39h7.857Z" transform="translate(-25 -39)" fill="#cf9e76"/>
    </g>
    <g id="Grupo_948179" data-name="Grupo 948179" transform="translate(31.428 74.641)">
      <path id="Trazado_686551" data-name="Trazado 686551" d="M24.857,39V62.571H17V39Z" transform="translate(-17 -39)" fill="#cf9e76"/>
    </g>
    <g id="Grupo_948180" data-name="Grupo 948180" transform="translate(43.213 98.212)">
      <path id="Trazado_686552" data-name="Trazado 686552" d="M34.785,66.714a3.951,3.951,0,0,0,.786,2.357A7.853,7.853,0,0,1,23,62.785a10.405,10.405,0,0,1,.727-3.791L26.928,51h7.857Z" transform="translate(-23 -51)" fill="#e6e9ed"/>
    </g>
    <g id="Grupo_948181" data-name="Grupo 948181" transform="translate(27.499 98.212)">
      <path id="Trazado_686553" data-name="Trazado 686553" d="M29.987,58.994a10.406,10.406,0,0,1,.727,3.791,7.857,7.857,0,1,1-15.714,0,10.406,10.406,0,0,1,.727-3.791l1.414-3.536L18.928,51h7.857Z" transform="translate(-15 -51)" fill="#e6e9ed"/>
    </g>
    <g id="Grupo_948182" data-name="Grupo 948182" transform="translate(43.213 54.999)">
      <path id="Trazado_686554" data-name="Trazado 686554" d="M38.714,36.857a10.405,10.405,0,0,1-.727,3.791l-3.2,7.994H26.928l-3.2-7.994A10.405,10.405,0,0,1,23,36.857a7.857,7.857,0,1,1,15.714,0Z" transform="translate(-23 -29)" fill="#e6e9ed"/>
    </g>
    <g id="Grupo_948183" data-name="Grupo 948183" transform="translate(27.499 54.999)">
      <path id="Trazado_686555" data-name="Trazado 686555" d="M30.714,36.857a10.405,10.405,0,0,1-.727,3.791l-3.2,7.994H18.928l-1.08-2.711-2.121-5.284A10.405,10.405,0,0,1,15,36.857a7.846,7.846,0,0,1,11.785-6.8,8.3,8.3,0,0,1,1.63,1.237A7.906,7.906,0,0,1,30.714,36.857Z" transform="translate(-15 -29)" fill="#e6e9ed"/>
    </g>
    <g id="Grupo_948184" data-name="Grupo 948184" transform="translate(78.569 23.571)">
      <path id="Trazado_686556" data-name="Trazado 686556" d="M60.642,13a19.621,19.621,0,1,1-3.928.393A19.65,19.65,0,0,1,60.642,13Z" transform="translate(-41 -13)" fill="#e6e9ed"/>
    </g>
    <g id="Grupo_948185" data-name="Grupo 948185" transform="translate(86.426 31.428)">
      <path id="Trazado_686557" data-name="Trazado 686557" d="M68.571,26.821V30.75a1.97,1.97,0,0,1-1.964,1.964H60.714v5.893a1.97,1.97,0,0,1-1.964,1.964H54.821a1.97,1.97,0,0,1-1.964-1.964V32.714H46.964A1.97,1.97,0,0,1,45,30.75V26.821a1.97,1.97,0,0,1,1.964-1.964h5.893V18.964A1.97,1.97,0,0,1,54.821,17H58.75a1.97,1.97,0,0,1,1.964,1.964v5.893h5.893A1.97,1.97,0,0,1,68.571,26.821Z" transform="translate(-45 -17)" fill="#ff826e"/>
    </g>
  </g>
  <g id="Grupo_948187" data-name="Grupo 948187">
    <path id="Trazado_686558" data-name="Trazado 686558" d="M8,21.865a5.857,5.857,0,0,0,1.727,4.166l7.857,7.857a5.892,5.892,0,1,0,8.332-8.332L18.059,17.7a6.034,6.034,0,0,0-8.332,0A5.857,5.857,0,0,0,8,21.865Zm15.714,7.857a1.928,1.928,0,0,1-.576,1.389,1.991,1.991,0,0,1-2.777,0l-2.54-2.54L20.6,25.793l2.54,2.54a1.928,1.928,0,0,1,.576,1.389ZM12.5,20.476a1.963,1.963,0,0,1,2.777,0l2.54,2.54-2.777,2.777-2.54-2.54a1.963,1.963,0,0,1,0-2.777Z" transform="translate(7.714 15.456)"/>
    <path id="Trazado_686559" data-name="Trazado 686559" d="M34.059,17.7a6.034,6.034,0,0,0-8.332,0,5.89,5.89,0,0,0,0,8.332l7.857,7.857a5.892,5.892,0,1,0,8.332-8.332Zm-6.13,4.166a1.964,1.964,0,0,1,3.353-1.389l2.54,2.54-2.777,2.777-2.54-2.54a1.928,1.928,0,0,1-.576-1.389Zm11.21,9.246a1.991,1.991,0,0,1-2.777,0l-2.54-2.54L36.6,25.793l2.54,2.54a1.963,1.963,0,0,1,0,2.777Z" transform="translate(23.142 15.456)"/>
    <path id="Trazado_686560" data-name="Trazado 686560" d="M41.857,50H37.928v3.928H34v3.928h3.928v3.928h3.928V57.857h3.928V53.928H41.857Z" transform="translate(32.784 48.212)"/>
    <path id="Trazado_686561" data-name="Trazado 686561" d="M67.571,23.857H63.642V19.928A3.932,3.932,0,0,0,59.714,16H55.785a3.932,3.932,0,0,0-3.928,3.928v3.928H47.928A3.932,3.932,0,0,0,44,27.785v3.928a3.932,3.932,0,0,0,3.928,3.928h3.928v3.928A3.932,3.932,0,0,0,55.785,43.5h3.928a3.932,3.932,0,0,0,3.928-3.928V35.642h3.928A3.932,3.932,0,0,0,71.5,31.714V27.785A3.932,3.932,0,0,0,67.571,23.857Zm0,7.857H59.714v7.857H55.785V31.714H47.928V27.785h7.857V19.928h3.928v7.857l7.857.006Z" transform="translate(42.426 15.428)"/>
    <path id="Trazado_686562" data-name="Trazado 686562" d="M100.176,23.571c-.664,0-1.316.041-1.964.1V21.607a5.855,5.855,0,0,0-1.532-3.928,5.855,5.855,0,0,0,1.532-3.928V5.893A5.9,5.9,0,0,0,92.319,0H5.893A5.9,5.9,0,0,0,0,5.893V13.75a5.855,5.855,0,0,0,1.532,3.928A5.855,5.855,0,0,0,0,21.607v90.355a9.832,9.832,0,0,0,9.821,9.821H88.391a9.832,9.832,0,0,0,9.821-9.821V66.684c.648.059,1.3.1,1.964.1a21.607,21.607,0,0,0,0-43.213ZM3.928,5.893A1.965,1.965,0,0,1,5.893,3.928H92.319a1.965,1.965,0,0,1,1.964,1.964V13.75a1.965,1.965,0,0,1-1.964,1.964H5.893A1.965,1.965,0,0,1,3.928,13.75Zm7.857,106.069V90.355H31.428V99.8l-.534,1.334-5.121-5.121a6.034,6.034,0,0,0-8.332,0,5.887,5.887,0,0,0,0,8.33L25.3,112.2a5.853,5.853,0,0,0,2.369,1.42,9.738,9.738,0,0,0,1.846,4.235H17.678a5.9,5.9,0,0,1-5.893-5.893Zm55-25.535V82.5H78.569v3.928Zm3.928-7.857V70.712h3.928v7.857Zm-3.928-7.857v7.857A3.932,3.932,0,0,0,62.856,82.5v3.928H60.891a5.826,5.826,0,0,0-1.964.361V76.982l3.06-7.647a12.093,12.093,0,0,0,.868-4.516,9.72,9.72,0,0,0-2.015-5.893h9.872v7.857a3.932,3.932,0,0,0-3.928,3.928ZM28.367,107.444a12.047,12.047,0,0,0-.515,1.756l-2.318-2.318,2.777-2.777.994.994Zm-8.15-5.879a1.963,1.963,0,0,1,0-2.777,1.991,1.991,0,0,1,2.777,0l2.54,2.54L22.758,104.1Zm17.1-42.638a5.9,5.9,0,0,1,5.893,5.893,8.2,8.2,0,0,1-.589,3.06l-2.7,6.761h-5.2l-2.7-6.761a8.2,8.2,0,0,1-.589-3.06A5.9,5.9,0,0,1,37.32,58.927ZM58.927,64.82a8.2,8.2,0,0,1-.589,3.06l-2.7,6.761h-5.2l-2.7-6.761a8.2,8.2,0,0,1-.589-3.06,5.893,5.893,0,1,1,11.785,0Zm-13.75,39.888L43.213,99.8V76.982l1.964-4.909,1.964,4.909V99.8Zm0-45.72c-.016-.022-.033-.039-.051-.061h.1c-.016.022-.033.039-.049.061ZM39.285,98.212H35.356V78.569h3.928ZM20.218,70.137a1.963,1.963,0,0,1,0-2.777,1.991,1.991,0,0,1,2.777,0l2.54,2.54-2.777,2.777Zm8.095,2.54L30.632,75l.744,1.862a1.908,1.908,0,0,1-.526,1.135,1.991,1.991,0,0,1-2.777,0l-2.538-2.54Zm3.115,39.285a8.2,8.2,0,0,1,.589-3.06l2.7-6.761h5.2l2.7,6.761a8.2,8.2,0,0,1,.589,3.06,5.893,5.893,0,1,1-11.785,0Zm13.75,5.832c.016.022.033.039.051.061h-.1c.016-.022.033-.039.049-.061Zm1.964-5.832a8.2,8.2,0,0,1,.589-3.06l2.7-6.761H55v13.75a5.951,5.951,0,0,0,.206,1.552,5.834,5.834,0,0,1-2.17.412A5.9,5.9,0,0,1,47.142,111.961ZM55,98.212H51.07V78.569H55ZM70.712,55h-27.5V27.5H64.82a5.9,5.9,0,0,1,5.893,5.893ZM39.285,55h-27.5V33.392A5.9,5.9,0,0,1,17.678,27.5H39.285Zm-27.5,3.928H29.515A9.72,9.72,0,0,0,27.5,64.82a12.387,12.387,0,0,0,.155,1.644l-1.882-1.882a6.034,6.034,0,0,0-8.332,0,5.89,5.89,0,0,0,0,8.332L25.3,80.771a5.794,5.794,0,0,0,6.13,1.369v4.286H11.785Zm49.106,58.927a1.965,1.965,0,0,1-1.964-1.964V92.319a1.965,1.965,0,0,1,1.964-1.964H84.462a1.965,1.965,0,0,1,1.964,1.964V115.89a1.965,1.965,0,0,1-1.964,1.964Zm33.392-5.893a5.879,5.879,0,0,1-4.205,5.616,5.782,5.782,0,0,0,.277-1.687V92.319a5.9,5.9,0,0,0-5.893-5.893H82.5V82.5a3.932,3.932,0,0,0-3.928-3.928V70.712a3.932,3.932,0,0,0-3.928-3.928V33.392a9.832,9.832,0,0,0-9.821-9.821H17.678a9.832,9.832,0,0,0-9.821,9.821v78.569a9.72,9.72,0,0,0,2.015,5.893H9.821a5.9,5.9,0,0,1-5.893-5.893V21.607a1.965,1.965,0,0,1,1.964-1.964H92.319a1.965,1.965,0,0,1,1.964,1.964v2.8a21.583,21.583,0,0,0,0,41.54Zm5.893-49.106a17.678,17.678,0,1,1,17.678-17.678A17.7,17.7,0,0,1,100.176,62.856Z"/>
  </g>
</svg>
